<?xml version="1.0" encoding="utf-8" standalone="no"?>
<!DOCTYPE svg PUBLIC "-//W3C//DTD SVG 1.1//EN"
  "http://www.w3.org/Graphics/SVG/1.1/DTD/svg11.dtd">
<svg xmlns:xlink="http://www.w3.org/1999/xlink" width="720pt" height="360pt" viewBox="0 0 720 360" xmlns="http://www.w3.org/2000/svg" version="1.1">
 <metadata>
  <rdf:RDF xmlns:dc="http://purl.org/dc/elements/1.1/" xmlns:cc="http://creativecommons.org/ns#" xmlns:rdf="http://www.w3.org/1999/02/22-rdf-syntax-ns#">
   <cc:Work>
    <dc:type rdf:resource="http://purl.org/dc/dcmitype/StillImage"/>
    <dc:date>2026-02-21T00:23:50.667531</dc:date>
    <dc:format>image/svg+xml</dc:format>
    <dc:creator>
     <cc:Agent>
      <dc:title>Matplotlib v3.10.8, https://matplotlib.org/</dc:title>
     </cc:Agent>
    </dc:creator>
   </cc:Work>
  </rdf:RDF>
 </metadata>
 <defs>
  <style type="text/css">*{stroke-linejoin: round; stroke-linecap: butt}</style>
 </defs>
 <g id="figure_1">
  <g id="patch_1">
   <path d="M 0 360 
L 720 360 
L 720 0 
L 0 0 
z
" style="fill: #0d1117"/>
  </g>
  <g id="axes_1">
   <g id="patch_2">
    <path d="M 45.38 306.462568 
L 709.2 306.462568 
L 709.2 36.6 
L 45.38 36.6 
z
" style="fill: #0d1117"/>
   </g>
   <g id="matplotlib.axis_1">
    <g id="xtick_1">
     <g id="line2d_1">
      <path d="M 95.941229 306.462568 
L 95.941229 36.6 
" clip-path="url(#p7138a2f67f)" style="fill: none; stroke: #30363d; stroke-opacity: 0.2; stroke-width: 0.8; stroke-linecap: square"/>
     </g>
     <g id="line2d_2">
      <defs>
       <path id="m82a2666369" d="M 0 0 
L 0 3.5 
" style="stroke: #c9d1d9; stroke-width: 0.8"/>
      </defs>
      <g>
       <use xlink:href="#m82a2666369" x="95.941229" y="306.462568" style="fill: #c9d1d9; stroke: #c9d1d9; stroke-width: 0.8"/>
      </g>
     </g>
     <g id="text_1">
      <!-- Oct -->
      <g style="fill: #c9d1d9" transform="translate(82.244349 331.061793) rotate(-45) scale(0.1 -0.1)">
       <defs>
        <path id="DejaVuSans-4f" d="M 2522 4238 
Q 1834 4238 1429 3725 
Q 1025 3213 1025 2328 
Q 1025 1447 1429 934 
Q 1834 422 2522 422 
Q 3209 422 3611 934 
Q 4013 1447 4013 2328 
Q 4013 3213 3611 3725 
Q 3209 4238 2522 4238 
z
M 2522 4750 
Q 3503 4750 4090 4092 
Q 4678 3434 4678 2328 
Q 4678 1225 4090 567 
Q 3503 -91 2522 -91 
Q 1538 -91 948 565 
Q 359 1222 359 2328 
Q 359 3434 948 4092 
Q 1538 4750 2522 4750 
z
" transform="scale(0.015625)"/>
        <path id="DejaVuSans-63" d="M 3122 3366 
L 3122 2828 
Q 2878 2963 2633 3030 
Q 2388 3097 2138 3097 
Q 1578 3097 1268 2742 
Q 959 2388 959 1747 
Q 959 1106 1268 751 
Q 1578 397 2138 397 
Q 2388 397 2633 464 
Q 2878 531 3122 666 
L 3122 134 
Q 2881 22 2623 -34 
Q 2366 -91 2075 -91 
Q 1284 -91 818 406 
Q 353 903 353 1747 
Q 353 2603 823 3093 
Q 1294 3584 2113 3584 
Q 2378 3584 2631 3529 
Q 2884 3475 3122 3366 
z
" transform="scale(0.015625)"/>
        <path id="DejaVuSans-74" d="M 1172 4494 
L 1172 3500 
L 2356 3500 
L 2356 3053 
L 1172 3053 
L 1172 1153 
Q 1172 725 1289 603 
Q 1406 481 1766 481 
L 2356 481 
L 2356 0 
L 1766 0 
Q 1100 0 847 248 
Q 594 497 594 1153 
L 594 3053 
L 172 3053 
L 172 3500 
L 594 3500 
L 594 4494 
L 1172 4494 
z
" transform="scale(0.015625)"/>
       </defs>
       <use xlink:href="#DejaVuSans-4f"/>
       <use xlink:href="#DejaVuSans-63" transform="translate(78.710938 0)"/>
       <use xlink:href="#DejaVuSans-74" transform="translate(133.691406 0)"/>
      </g>
     </g>
    </g>
    <g id="xtick_2">
     <g id="line2d_3">
      <path d="M 222.3443 306.462568 
L 222.3443 36.6 
" clip-path="url(#p7138a2f67f)" style="fill: none; stroke: #30363d; stroke-opacity: 0.2; stroke-width: 0.8; stroke-linecap: square"/>
     </g>
     <g id="line2d_4">
      <g>
       <use xlink:href="#m82a2666369" x="222.3443" y="306.462568" style="fill: #c9d1d9; stroke: #c9d1d9; stroke-width: 0.8"/>
      </g>
     </g>
     <g id="text_2">
      <!-- Nov -->
      <g style="fill: #c9d1d9" transform="translate(207.071898 332.637315) rotate(-45) scale(0.1 -0.1)">
       <defs>
        <path id="DejaVuSans-4e" d="M 628 4666 
L 1478 4666 
L 3547 763 
L 3547 4666 
L 4159 4666 
L 4159 0 
L 3309 0 
L 1241 3903 
L 1241 0 
L 628 0 
L 628 4666 
z
" transform="scale(0.015625)"/>
        <path id="DejaVuSans-6f" d="M 1959 3097 
Q 1497 3097 1228 2736 
Q 959 2375 959 1747 
Q 959 1119 1226 758 
Q 1494 397 1959 397 
Q 2419 397 2687 759 
Q 2956 1122 2956 1747 
Q 2956 2369 2687 2733 
Q 2419 3097 1959 3097 
z
M 1959 3584 
Q 2709 3584 3137 3096 
Q 3566 2609 3566 1747 
Q 3566 888 3137 398 
Q 2709 -91 1959 -91 
Q 1206 -91 779 398 
Q 353 888 353 1747 
Q 353 2609 779 3096 
Q 1206 3584 1959 3584 
z
" transform="scale(0.015625)"/>
        <path id="DejaVuSans-76" d="M 191 3500 
L 800 3500 
L 1894 563 
L 2988 3500 
L 3597 3500 
L 2284 0 
L 1503 0 
L 191 3500 
z
" transform="scale(0.015625)"/>
       </defs>
       <use xlink:href="#DejaVuSans-4e"/>
       <use xlink:href="#DejaVuSans-6f" transform="translate(74.804688 0)"/>
       <use xlink:href="#DejaVuSans-76" transform="translate(135.986328 0)"/>
      </g>
     </g>
    </g>
    <g id="xtick_3">
     <g id="line2d_5">
      <path d="M 344.669853 306.462568 
L 344.669853 36.6 
" clip-path="url(#p7138a2f67f)" style="fill: none; stroke: #30363d; stroke-opacity: 0.2; stroke-width: 0.8; stroke-linecap: square"/>
     </g>
     <g id="line2d_6">
      <g>
       <use xlink:href="#m82a2666369" x="344.669853" y="306.462568" style="fill: #c9d1d9; stroke: #c9d1d9; stroke-width: 0.8"/>
      </g>
     </g>
     <g id="text_3">
      <!-- Dec -->
      <g style="fill: #c9d1d9" transform="translate(329.51567 332.519096) rotate(-45) scale(0.1 -0.1)">
       <defs>
        <path id="DejaVuSans-44" d="M 1259 4147 
L 1259 519 
L 2022 519 
Q 2988 519 3436 956 
Q 3884 1394 3884 2338 
Q 3884 3275 3436 3711 
Q 2988 4147 2022 4147 
L 1259 4147 
z
M 628 4666 
L 1925 4666 
Q 3281 4666 3915 4102 
Q 4550 3538 4550 2338 
Q 4550 1131 3912 565 
Q 3275 0 1925 0 
L 628 0 
L 628 4666 
z
" transform="scale(0.015625)"/>
        <path id="DejaVuSans-65" d="M 3597 1894 
L 3597 1613 
L 953 1613 
Q 991 1019 1311 708 
Q 1631 397 2203 397 
Q 2534 397 2845 478 
Q 3156 559 3463 722 
L 3463 178 
Q 3153 47 2828 -22 
Q 2503 -91 2169 -91 
Q 1331 -91 842 396 
Q 353 884 353 1716 
Q 353 2575 817 3079 
Q 1281 3584 2069 3584 
Q 2775 3584 3186 3129 
Q 3597 2675 3597 1894 
z
M 3022 2063 
Q 3016 2534 2758 2815 
Q 2500 3097 2075 3097 
Q 1594 3097 1305 2825 
Q 1016 2553 972 2059 
L 3022 2063 
z
" transform="scale(0.015625)"/>
       </defs>
       <use xlink:href="#DejaVuSans-44"/>
       <use xlink:href="#DejaVuSans-65" transform="translate(77.001953 0)"/>
       <use xlink:href="#DejaVuSans-63" transform="translate(138.525391 0)"/>
      </g>
     </g>
    </g>
    <g id="xtick_4">
     <g id="line2d_7">
      <path d="M 471.072924 306.462568 
L 471.072924 36.6 
" clip-path="url(#p7138a2f67f)" style="fill: none; stroke: #30363d; stroke-opacity: 0.2; stroke-width: 0.8; stroke-linecap: square"/>
     </g>
     <g id="line2d_8">
      <g>
       <use xlink:href="#m82a2666369" x="471.072924" y="306.462568" style="fill: #c9d1d9; stroke: #c9d1d9; stroke-width: 0.8"/>
      </g>
     </g>
     <g id="text_4">
      <!-- Jan -->
      <g style="fill: #c9d1d9" transform="translate(458.70187 329.735968) rotate(-45) scale(0.1 -0.1)">
       <defs>
        <path id="DejaVuSans-4a" d="M 628 4666 
L 1259 4666 
L 1259 325 
Q 1259 -519 939 -900 
Q 619 -1281 -91 -1281 
L -331 -1281 
L -331 -750 
L -134 -750 
Q 284 -750 456 -515 
Q 628 -281 628 325 
L 628 4666 
z
" transform="scale(0.015625)"/>
        <path id="DejaVuSans-61" d="M 2194 1759 
Q 1497 1759 1228 1600 
Q 959 1441 959 1056 
Q 959 750 1161 570 
Q 1363 391 1709 391 
Q 2188 391 2477 730 
Q 2766 1069 2766 1631 
L 2766 1759 
L 2194 1759 
z
M 3341 1997 
L 3341 0 
L 2766 0 
L 2766 531 
Q 2569 213 2275 61 
Q 1981 -91 1556 -91 
Q 1019 -91 701 211 
Q 384 513 384 1019 
Q 384 1609 779 1909 
Q 1175 2209 1959 2209 
L 2766 2209 
L 2766 2266 
Q 2766 2663 2505 2880 
Q 2244 3097 1772 3097 
Q 1472 3097 1187 3025 
Q 903 2953 641 2809 
L 641 3341 
Q 956 3463 1253 3523 
Q 1550 3584 1831 3584 
Q 2591 3584 2966 3190 
Q 3341 2797 3341 1997 
z
" transform="scale(0.015625)"/>
        <path id="DejaVuSans-6e" d="M 3513 2113 
L 3513 0 
L 2938 0 
L 2938 2094 
Q 2938 2591 2744 2837 
Q 2550 3084 2163 3084 
Q 1697 3084 1428 2787 
Q 1159 2491 1159 1978 
L 1159 0 
L 581 0 
L 581 3500 
L 1159 3500 
L 1159 2956 
Q 1366 3272 1645 3428 
Q 1925 3584 2291 3584 
Q 2894 3584 3203 3211 
Q 3513 2838 3513 2113 
z
" transform="scale(0.015625)"/>
       </defs>
       <use xlink:href="#DejaVuSans-4a"/>
       <use xlink:href="#DejaVuSans-61" transform="translate(29.492188 0)"/>
       <use xlink:href="#DejaVuSans-6e" transform="translate(90.771484 0)"/>
      </g>
     </g>
    </g>
    <g id="xtick_5">
     <g id="line2d_9">
      <path d="M 597.475995 306.462568 
L 597.475995 36.6 
" clip-path="url(#p7138a2f67f)" style="fill: none; stroke: #30363d; stroke-opacity: 0.2; stroke-width: 0.8; stroke-linecap: square"/>
     </g>
     <g id="line2d_10">
      <g>
       <use xlink:href="#m82a2666369" x="597.475995" y="306.462568" style="fill: #c9d1d9; stroke: #c9d1d9; stroke-width: 0.8"/>
      </g>
     </g>
     <g id="text_5">
      <!-- Feb -->
      <g style="fill: #c9d1d9" transform="translate(583.487434 331.353475) rotate(-45) scale(0.1 -0.1)">
       <defs>
        <path id="DejaVuSans-46" d="M 628 4666 
L 3309 4666 
L 3309 4134 
L 1259 4134 
L 1259 2759 
L 3109 2759 
L 3109 2228 
L 1259 2228 
L 1259 0 
L 628 0 
L 628 4666 
z
" transform="scale(0.015625)"/>
        <path id="DejaVuSans-62" d="M 3116 1747 
Q 3116 2381 2855 2742 
Q 2594 3103 2138 3103 
Q 1681 3103 1420 2742 
Q 1159 2381 1159 1747 
Q 1159 1113 1420 752 
Q 1681 391 2138 391 
Q 2594 391 2855 752 
Q 3116 1113 3116 1747 
z
M 1159 2969 
Q 1341 3281 1617 3432 
Q 1894 3584 2278 3584 
Q 2916 3584 3314 3078 
Q 3713 2572 3713 1747 
Q 3713 922 3314 415 
Q 2916 -91 2278 -91 
Q 1894 -91 1617 61 
Q 1341 213 1159 525 
L 1159 0 
L 581 0 
L 581 4863 
L 1159 4863 
L 1159 2969 
z
" transform="scale(0.015625)"/>
       </defs>
       <use xlink:href="#DejaVuSans-46"/>
       <use xlink:href="#DejaVuSans-65" transform="translate(52.019531 0)"/>
       <use xlink:href="#DejaVuSans-62" transform="translate(113.542969 0)"/>
      </g>
     </g>
    </g>
    <g id="text_6">
     <!-- Date -->
     <g style="fill: #c9d1d9" transform="translate(364.144141 346.466158) scale(0.11 -0.11)">
      <use xlink:href="#DejaVuSans-44"/>
      <use xlink:href="#DejaVuSans-61" transform="translate(77.001953 0)"/>
      <use xlink:href="#DejaVuSans-74" transform="translate(138.28125 0)"/>
      <use xlink:href="#DejaVuSans-65" transform="translate(177.490234 0)"/>
     </g>
    </g>
   </g>
   <g id="matplotlib.axis_2">
    <g id="ytick_1">
     <g id="line2d_11">
      <path d="M 45.38 294.196088 
L 709.2 294.196088 
" clip-path="url(#p7138a2f67f)" style="fill: none; stroke: #30363d; stroke-opacity: 0.2; stroke-width: 0.8; stroke-linecap: square"/>
     </g>
     <g id="line2d_12">
      <defs>
       <path id="m3f275e9da4" d="M 0 0 
L -3.5 0 
" style="stroke: #c9d1d9; stroke-width: 0.8"/>
      </defs>
      <g>
       <use xlink:href="#m3f275e9da4" x="45.38" y="294.196088" style="fill: #c9d1d9; stroke: #c9d1d9; stroke-width: 0.8"/>
      </g>
     </g>
     <g id="text_7">
      <!-- 50 -->
      <g style="fill: #c9d1d9" transform="translate(25.655 297.995307) scale(0.1 -0.1)">
       <defs>
        <path id="DejaVuSans-35" d="M 691 4666 
L 3169 4666 
L 3169 4134 
L 1269 4134 
L 1269 2991 
Q 1406 3038 1543 3061 
Q 1681 3084 1819 3084 
Q 2600 3084 3056 2656 
Q 3513 2228 3513 1497 
Q 3513 744 3044 326 
Q 2575 -91 1722 -91 
Q 1428 -91 1123 -41 
Q 819 9 494 109 
L 494 744 
Q 775 591 1075 516 
Q 1375 441 1709 441 
Q 2250 441 2565 725 
Q 2881 1009 2881 1497 
Q 2881 1984 2565 2268 
Q 2250 2553 1709 2553 
Q 1456 2553 1204 2497 
Q 953 2441 691 2322 
L 691 4666 
z
" transform="scale(0.015625)"/>
        <path id="DejaVuSans-30" d="M 2034 4250 
Q 1547 4250 1301 3770 
Q 1056 3291 1056 2328 
Q 1056 1369 1301 889 
Q 1547 409 2034 409 
Q 2525 409 2770 889 
Q 3016 1369 3016 2328 
Q 3016 3291 2770 3770 
Q 2525 4250 2034 4250 
z
M 2034 4750 
Q 2819 4750 3233 4129 
Q 3647 3509 3647 2328 
Q 3647 1150 3233 529 
Q 2819 -91 2034 -91 
Q 1250 -91 836 529 
Q 422 1150 422 2328 
Q 422 3509 836 4129 
Q 1250 4750 2034 4750 
z
" transform="scale(0.015625)"/>
       </defs>
       <use xlink:href="#DejaVuSans-35"/>
       <use xlink:href="#DejaVuSans-30" transform="translate(63.623047 0)"/>
      </g>
     </g>
    </g>
    <g id="ytick_2">
     <g id="line2d_13">
      <path d="M 45.38 263.529887 
L 709.2 263.529887 
" clip-path="url(#p7138a2f67f)" style="fill: none; stroke: #30363d; stroke-opacity: 0.2; stroke-width: 0.8; stroke-linecap: square"/>
     </g>
     <g id="line2d_14">
      <g>
       <use xlink:href="#m3f275e9da4" x="45.38" y="263.529887" style="fill: #c9d1d9; stroke: #c9d1d9; stroke-width: 0.8"/>
      </g>
     </g>
     <g id="text_8">
      <!-- 52 -->
      <g style="fill: #c9d1d9" transform="translate(25.655 267.329106) scale(0.1 -0.1)">
       <defs>
        <path id="DejaVuSans-32" d="M 1228 531 
L 3431 531 
L 3431 0 
L 469 0 
L 469 531 
Q 828 903 1448 1529 
Q 2069 2156 2228 2338 
Q 2531 2678 2651 2914 
Q 2772 3150 2772 3378 
Q 2772 3750 2511 3984 
Q 2250 4219 1831 4219 
Q 1534 4219 1204 4116 
Q 875 4013 500 3803 
L 500 4441 
Q 881 4594 1212 4672 
Q 1544 4750 1819 4750 
Q 2544 4750 2975 4387 
Q 3406 4025 3406 3419 
Q 3406 3131 3298 2873 
Q 3191 2616 2906 2266 
Q 2828 2175 2409 1742 
Q 1991 1309 1228 531 
z
" transform="scale(0.015625)"/>
       </defs>
       <use xlink:href="#DejaVuSans-35"/>
       <use xlink:href="#DejaVuSans-32" transform="translate(63.623047 0)"/>
      </g>
     </g>
    </g>
    <g id="ytick_3">
     <g id="line2d_15">
      <path d="M 45.38 232.863686 
L 709.2 232.863686 
" clip-path="url(#p7138a2f67f)" style="fill: none; stroke: #30363d; stroke-opacity: 0.2; stroke-width: 0.8; stroke-linecap: square"/>
     </g>
     <g id="line2d_16">
      <g>
       <use xlink:href="#m3f275e9da4" x="45.38" y="232.863686" style="fill: #c9d1d9; stroke: #c9d1d9; stroke-width: 0.8"/>
      </g>
     </g>
     <g id="text_9">
      <!-- 54 -->
      <g style="fill: #c9d1d9" transform="translate(25.655 236.662905) scale(0.1 -0.1)">
       <defs>
        <path id="DejaVuSans-34" d="M 2419 4116 
L 825 1625 
L 2419 1625 
L 2419 4116 
z
M 2253 4666 
L 3047 4666 
L 3047 1625 
L 3713 1625 
L 3713 1100 
L 3047 1100 
L 3047 0 
L 2419 0 
L 2419 1100 
L 313 1100 
L 313 1709 
L 2253 4666 
z
" transform="scale(0.015625)"/>
       </defs>
       <use xlink:href="#DejaVuSans-35"/>
       <use xlink:href="#DejaVuSans-34" transform="translate(63.623047 0)"/>
      </g>
     </g>
    </g>
    <g id="ytick_4">
     <g id="line2d_17">
      <path d="M 45.38 202.197485 
L 709.2 202.197485 
" clip-path="url(#p7138a2f67f)" style="fill: none; stroke: #30363d; stroke-opacity: 0.2; stroke-width: 0.8; stroke-linecap: square"/>
     </g>
     <g id="line2d_18">
      <g>
       <use xlink:href="#m3f275e9da4" x="45.38" y="202.197485" style="fill: #c9d1d9; stroke: #c9d1d9; stroke-width: 0.8"/>
      </g>
     </g>
     <g id="text_10">
      <!-- 56 -->
      <g style="fill: #c9d1d9" transform="translate(25.655 205.996704) scale(0.1 -0.1)">
       <defs>
        <path id="DejaVuSans-36" d="M 2113 2584 
Q 1688 2584 1439 2293 
Q 1191 2003 1191 1497 
Q 1191 994 1439 701 
Q 1688 409 2113 409 
Q 2538 409 2786 701 
Q 3034 994 3034 1497 
Q 3034 2003 2786 2293 
Q 2538 2584 2113 2584 
z
M 3366 4563 
L 3366 3988 
Q 3128 4100 2886 4159 
Q 2644 4219 2406 4219 
Q 1781 4219 1451 3797 
Q 1122 3375 1075 2522 
Q 1259 2794 1537 2939 
Q 1816 3084 2150 3084 
Q 2853 3084 3261 2657 
Q 3669 2231 3669 1497 
Q 3669 778 3244 343 
Q 2819 -91 2113 -91 
Q 1303 -91 875 529 
Q 447 1150 447 2328 
Q 447 3434 972 4092 
Q 1497 4750 2381 4750 
Q 2619 4750 2861 4703 
Q 3103 4656 3366 4563 
z
" transform="scale(0.015625)"/>
       </defs>
       <use xlink:href="#DejaVuSans-35"/>
       <use xlink:href="#DejaVuSans-36" transform="translate(63.623047 0)"/>
      </g>
     </g>
    </g>
    <g id="ytick_5">
     <g id="line2d_19">
      <path d="M 45.38 171.531284 
L 709.2 171.531284 
" clip-path="url(#p7138a2f67f)" style="fill: none; stroke: #30363d; stroke-opacity: 0.2; stroke-width: 0.8; stroke-linecap: square"/>
     </g>
     <g id="line2d_20">
      <g>
       <use xlink:href="#m3f275e9da4" x="45.38" y="171.531284" style="fill: #c9d1d9; stroke: #c9d1d9; stroke-width: 0.8"/>
      </g>
     </g>
     <g id="text_11">
      <!-- 58 -->
      <g style="fill: #c9d1d9" transform="translate(25.655 175.330503) scale(0.1 -0.1)">
       <defs>
        <path id="DejaVuSans-38" d="M 2034 2216 
Q 1584 2216 1326 1975 
Q 1069 1734 1069 1313 
Q 1069 891 1326 650 
Q 1584 409 2034 409 
Q 2484 409 2743 651 
Q 3003 894 3003 1313 
Q 3003 1734 2745 1975 
Q 2488 2216 2034 2216 
z
M 1403 2484 
Q 997 2584 770 2862 
Q 544 3141 544 3541 
Q 544 4100 942 4425 
Q 1341 4750 2034 4750 
Q 2731 4750 3128 4425 
Q 3525 4100 3525 3541 
Q 3525 3141 3298 2862 
Q 3072 2584 2669 2484 
Q 3125 2378 3379 2068 
Q 3634 1759 3634 1313 
Q 3634 634 3220 271 
Q 2806 -91 2034 -91 
Q 1263 -91 848 271 
Q 434 634 434 1313 
Q 434 1759 690 2068 
Q 947 2378 1403 2484 
z
M 1172 3481 
Q 1172 3119 1398 2916 
Q 1625 2713 2034 2713 
Q 2441 2713 2670 2916 
Q 2900 3119 2900 3481 
Q 2900 3844 2670 4047 
Q 2441 4250 2034 4250 
Q 1625 4250 1398 4047 
Q 1172 3844 1172 3481 
z
" transform="scale(0.015625)"/>
       </defs>
       <use xlink:href="#DejaVuSans-35"/>
       <use xlink:href="#DejaVuSans-38" transform="translate(63.623047 0)"/>
      </g>
     </g>
    </g>
    <g id="ytick_6">
     <g id="line2d_21">
      <path d="M 45.38 140.865083 
L 709.2 140.865083 
" clip-path="url(#p7138a2f67f)" style="fill: none; stroke: #30363d; stroke-opacity: 0.2; stroke-width: 0.8; stroke-linecap: square"/>
     </g>
     <g id="line2d_22">
      <g>
       <use xlink:href="#m3f275e9da4" x="45.38" y="140.865083" style="fill: #c9d1d9; stroke: #c9d1d9; stroke-width: 0.8"/>
      </g>
     </g>
     <g id="text_12">
      <!-- 60 -->
      <g style="fill: #c9d1d9" transform="translate(25.655 144.664302) scale(0.1 -0.1)">
       <use xlink:href="#DejaVuSans-36"/>
       <use xlink:href="#DejaVuSans-30" transform="translate(63.623047 0)"/>
      </g>
     </g>
    </g>
    <g id="ytick_7">
     <g id="line2d_23">
      <path d="M 45.38 110.198882 
L 709.2 110.198882 
" clip-path="url(#p7138a2f67f)" style="fill: none; stroke: #30363d; stroke-opacity: 0.2; stroke-width: 0.8; stroke-linecap: square"/>
     </g>
     <g id="line2d_24">
      <g>
       <use xlink:href="#m3f275e9da4" x="45.38" y="110.198882" style="fill: #c9d1d9; stroke: #c9d1d9; stroke-width: 0.8"/>
      </g>
     </g>
     <g id="text_13">
      <!-- 62 -->
      <g style="fill: #c9d1d9" transform="translate(25.655 113.998101) scale(0.1 -0.1)">
       <use xlink:href="#DejaVuSans-36"/>
       <use xlink:href="#DejaVuSans-32" transform="translate(63.623047 0)"/>
      </g>
     </g>
    </g>
    <g id="ytick_8">
     <g id="line2d_25">
      <path d="M 45.38 79.532681 
L 709.2 79.532681 
" clip-path="url(#p7138a2f67f)" style="fill: none; stroke: #30363d; stroke-opacity: 0.2; stroke-width: 0.8; stroke-linecap: square"/>
     </g>
     <g id="line2d_26">
      <g>
       <use xlink:href="#m3f275e9da4" x="45.38" y="79.532681" style="fill: #c9d1d9; stroke: #c9d1d9; stroke-width: 0.8"/>
      </g>
     </g>
     <g id="text_14">
      <!-- 64 -->
      <g style="fill: #c9d1d9" transform="translate(25.655 83.3319) scale(0.1 -0.1)">
       <use xlink:href="#DejaVuSans-36"/>
       <use xlink:href="#DejaVuSans-34" transform="translate(63.623047 0)"/>
      </g>
     </g>
    </g>
    <g id="ytick_9">
     <g id="line2d_27">
      <path d="M 45.38 48.86648 
L 709.2 48.86648 
" clip-path="url(#p7138a2f67f)" style="fill: none; stroke: #30363d; stroke-opacity: 0.2; stroke-width: 0.8; stroke-linecap: square"/>
     </g>
     <g id="line2d_28">
      <g>
       <use xlink:href="#m3f275e9da4" x="45.38" y="48.86648" style="fill: #c9d1d9; stroke: #c9d1d9; stroke-width: 0.8"/>
      </g>
     </g>
     <g id="text_15">
      <!-- 66 -->
      <g style="fill: #c9d1d9" transform="translate(25.655 52.665699) scale(0.1 -0.1)">
       <use xlink:href="#DejaVuSans-36"/>
       <use xlink:href="#DejaVuSans-36" transform="translate(63.623047 0)"/>
      </g>
     </g>
    </g>
    <g id="text_16">
     <!-- Count -->
     <g style="fill: #c9d1d9" transform="translate(19.367344 187.864565) rotate(-90) scale(0.11 -0.11)">
      <defs>
       <path id="DejaVuSans-43" d="M 4122 4306 
L 4122 3641 
Q 3803 3938 3442 4084 
Q 3081 4231 2675 4231 
Q 1875 4231 1450 3742 
Q 1025 3253 1025 2328 
Q 1025 1406 1450 917 
Q 1875 428 2675 428 
Q 3081 428 3442 575 
Q 3803 722 4122 1019 
L 4122 359 
Q 3791 134 3420 21 
Q 3050 -91 2638 -91 
Q 1578 -91 968 557 
Q 359 1206 359 2328 
Q 359 3453 968 4101 
Q 1578 4750 2638 4750 
Q 3056 4750 3426 4639 
Q 3797 4528 4122 4306 
z
" transform="scale(0.015625)"/>
       <path id="DejaVuSans-75" d="M 544 1381 
L 544 3500 
L 1119 3500 
L 1119 1403 
Q 1119 906 1312 657 
Q 1506 409 1894 409 
Q 2359 409 2629 706 
Q 2900 1003 2900 1516 
L 2900 3500 
L 3475 3500 
L 3475 0 
L 2900 0 
L 2900 538 
Q 2691 219 2414 64 
Q 2138 -91 1772 -91 
Q 1169 -91 856 284 
Q 544 659 544 1381 
z
M 1991 3584 
L 1991 3584 
z
" transform="scale(0.015625)"/>
      </defs>
      <use xlink:href="#DejaVuSans-43"/>
      <use xlink:href="#DejaVuSans-6f" transform="translate(69.824219 0)"/>
      <use xlink:href="#DejaVuSans-75" transform="translate(131.005859 0)"/>
      <use xlink:href="#DejaVuSans-6e" transform="translate(194.384766 0)"/>
      <use xlink:href="#DejaVuSans-74" transform="translate(257.763672 0)"/>
     </g>
    </g>
   </g>
   <g id="line2d_29">
    <path d="M 75.553636 294.196088 
L 197.879189 294.196088 
L 226.421818 232.863686 
L 242.731892 232.863686 
L 246.80941 217.530586 
L 263.119484 217.530586 
L 271.274521 186.864385 
L 279.429558 186.864385 
L 283.507076 171.531284 
L 287.584595 171.531284 
L 291.662113 140.865083 
L 295.739631 140.865083 
L 299.81715 125.531983 
L 303.894668 125.531983 
L 307.972187 140.865083 
L 356.902408 140.865083 
L 360.979926 156.198184 
L 365.057445 140.865083 
L 369.134963 156.198184 
L 401.755111 156.198184 
L 405.832629 140.865083 
L 409.910147 156.198184 
L 418.065184 156.198184 
L 422.142703 171.531284 
L 426.220221 156.198184 
L 430.29774 156.198184 
L 434.375258 140.865083 
L 499.615553 140.865083 
L 503.693071 156.198184 
L 507.77059 156.198184 
L 511.848108 140.865083 
L 573.010885 140.865083 
L 577.088403 125.531983 
L 601.553514 125.531983 
L 605.631032 110.198882 
L 630.096143 110.198882 
L 634.173661 94.865782 
L 642.328698 94.865782 
L 650.483735 64.199581 
L 654.561253 79.532681 
L 670.871327 79.532681 
L 679.026364 48.86648 
L 679.026364 48.86648 
" clip-path="url(#p7138a2f67f)" style="fill: none; stroke: #58a6ff; stroke-width: 2.5; stroke-linecap: square"/>
    <defs>
     <path id="m0c0317b3c1" d="M 0 2.5 
C 0.663008 2.5 1.29895 2.236584 1.767767 1.767767 
C 2.236584 1.29895 2.5 0.663008 2.5 0 
C 2.5 -0.663008 2.236584 -1.29895 1.767767 -1.767767 
C 1.29895 -2.236584 0.663008 -2.5 0 -2.5 
C -0.663008 -2.5 -1.29895 -2.236584 -1.767767 -1.767767 
C -2.236584 -1.29895 -2.5 -0.663008 -2.5 0 
C -2.5 0.663008 -2.236584 1.29895 -1.767767 1.767767 
C -1.29895 2.236584 -0.663008 2.5 0 2.5 
z
" style="stroke: #58a6ff"/>
    </defs>
    <g clip-path="url(#p7138a2f67f)">
     <use xlink:href="#m0c0317b3c1" x="75.553636" y="294.196088" style="fill: #58a6ff; stroke: #58a6ff"/>
     <use xlink:href="#m0c0317b3c1" x="79.631155" y="294.196088" style="fill: #58a6ff; stroke: #58a6ff"/>
     <use xlink:href="#m0c0317b3c1" x="83.708673" y="294.196088" style="fill: #58a6ff; stroke: #58a6ff"/>
     <use xlink:href="#m0c0317b3c1" x="87.786192" y="294.196088" style="fill: #58a6ff; stroke: #58a6ff"/>
     <use xlink:href="#m0c0317b3c1" x="91.86371" y="294.196088" style="fill: #58a6ff; stroke: #58a6ff"/>
     <use xlink:href="#m0c0317b3c1" x="95.941229" y="294.196088" style="fill: #58a6ff; stroke: #58a6ff"/>
     <use xlink:href="#m0c0317b3c1" x="100.018747" y="294.196088" style="fill: #58a6ff; stroke: #58a6ff"/>
     <use xlink:href="#m0c0317b3c1" x="104.096265" y="294.196088" style="fill: #58a6ff; stroke: #58a6ff"/>
     <use xlink:href="#m0c0317b3c1" x="108.173784" y="294.196088" style="fill: #58a6ff; stroke: #58a6ff"/>
     <use xlink:href="#m0c0317b3c1" x="112.251302" y="294.196088" style="fill: #58a6ff; stroke: #58a6ff"/>
     <use xlink:href="#m0c0317b3c1" x="116.328821" y="294.196088" style="fill: #58a6ff; stroke: #58a6ff"/>
     <use xlink:href="#m0c0317b3c1" x="120.406339" y="294.196088" style="fill: #58a6ff; stroke: #58a6ff"/>
     <use xlink:href="#m0c0317b3c1" x="124.483857" y="294.196088" style="fill: #58a6ff; stroke: #58a6ff"/>
     <use xlink:href="#m0c0317b3c1" x="128.561376" y="294.196088" style="fill: #58a6ff; stroke: #58a6ff"/>
     <use xlink:href="#m0c0317b3c1" x="132.638894" y="294.196088" style="fill: #58a6ff; stroke: #58a6ff"/>
     <use xlink:href="#m0c0317b3c1" x="136.716413" y="294.196088" style="fill: #58a6ff; stroke: #58a6ff"/>
     <use xlink:href="#m0c0317b3c1" x="140.793931" y="294.196088" style="fill: #58a6ff; stroke: #58a6ff"/>
     <use xlink:href="#m0c0317b3c1" x="144.87145" y="294.196088" style="fill: #58a6ff; stroke: #58a6ff"/>
     <use xlink:href="#m0c0317b3c1" x="148.948968" y="294.196088" style="fill: #58a6ff; stroke: #58a6ff"/>
     <use xlink:href="#m0c0317b3c1" x="153.026486" y="294.196088" style="fill: #58a6ff; stroke: #58a6ff"/>
     <use xlink:href="#m0c0317b3c1" x="157.104005" y="294.196088" style="fill: #58a6ff; stroke: #58a6ff"/>
     <use xlink:href="#m0c0317b3c1" x="161.181523" y="294.196088" style="fill: #58a6ff; stroke: #58a6ff"/>
     <use xlink:href="#m0c0317b3c1" x="165.259042" y="294.196088" style="fill: #58a6ff; stroke: #58a6ff"/>
     <use xlink:href="#m0c0317b3c1" x="169.33656" y="294.196088" style="fill: #58a6ff; stroke: #58a6ff"/>
     <use xlink:href="#m0c0317b3c1" x="173.414079" y="294.196088" style="fill: #58a6ff; stroke: #58a6ff"/>
     <use xlink:href="#m0c0317b3c1" x="177.491597" y="294.196088" style="fill: #58a6ff; stroke: #58a6ff"/>
     <use xlink:href="#m0c0317b3c1" x="181.569115" y="294.196088" style="fill: #58a6ff; stroke: #58a6ff"/>
     <use xlink:href="#m0c0317b3c1" x="185.646634" y="294.196088" style="fill: #58a6ff; stroke: #58a6ff"/>
     <use xlink:href="#m0c0317b3c1" x="189.724152" y="294.196088" style="fill: #58a6ff; stroke: #58a6ff"/>
     <use xlink:href="#m0c0317b3c1" x="193.801671" y="294.196088" style="fill: #58a6ff; stroke: #58a6ff"/>
     <use xlink:href="#m0c0317b3c1" x="197.879189" y="294.196088" style="fill: #58a6ff; stroke: #58a6ff"/>
     <use xlink:href="#m0c0317b3c1" x="226.421818" y="232.863686" style="fill: #58a6ff; stroke: #58a6ff"/>
     <use xlink:href="#m0c0317b3c1" x="230.499337" y="232.863686" style="fill: #58a6ff; stroke: #58a6ff"/>
     <use xlink:href="#m0c0317b3c1" x="234.576855" y="232.863686" style="fill: #58a6ff; stroke: #58a6ff"/>
     <use xlink:href="#m0c0317b3c1" x="238.654373" y="232.863686" style="fill: #58a6ff; stroke: #58a6ff"/>
     <use xlink:href="#m0c0317b3c1" x="242.731892" y="232.863686" style="fill: #58a6ff; stroke: #58a6ff"/>
     <use xlink:href="#m0c0317b3c1" x="246.80941" y="217.530586" style="fill: #58a6ff; stroke: #58a6ff"/>
     <use xlink:href="#m0c0317b3c1" x="250.886929" y="217.530586" style="fill: #58a6ff; stroke: #58a6ff"/>
     <use xlink:href="#m0c0317b3c1" x="254.964447" y="217.530586" style="fill: #58a6ff; stroke: #58a6ff"/>
     <use xlink:href="#m0c0317b3c1" x="259.041966" y="217.530586" style="fill: #58a6ff; stroke: #58a6ff"/>
     <use xlink:href="#m0c0317b3c1" x="263.119484" y="217.530586" style="fill: #58a6ff; stroke: #58a6ff"/>
     <use xlink:href="#m0c0317b3c1" x="267.197002" y="202.197485" style="fill: #58a6ff; stroke: #58a6ff"/>
     <use xlink:href="#m0c0317b3c1" x="271.274521" y="186.864385" style="fill: #58a6ff; stroke: #58a6ff"/>
     <use xlink:href="#m0c0317b3c1" x="275.352039" y="186.864385" style="fill: #58a6ff; stroke: #58a6ff"/>
     <use xlink:href="#m0c0317b3c1" x="279.429558" y="186.864385" style="fill: #58a6ff; stroke: #58a6ff"/>
     <use xlink:href="#m0c0317b3c1" x="283.507076" y="171.531284" style="fill: #58a6ff; stroke: #58a6ff"/>
     <use xlink:href="#m0c0317b3c1" x="287.584595" y="171.531284" style="fill: #58a6ff; stroke: #58a6ff"/>
     <use xlink:href="#m0c0317b3c1" x="291.662113" y="140.865083" style="fill: #58a6ff; stroke: #58a6ff"/>
     <use xlink:href="#m0c0317b3c1" x="295.739631" y="140.865083" style="fill: #58a6ff; stroke: #58a6ff"/>
     <use xlink:href="#m0c0317b3c1" x="299.81715" y="125.531983" style="fill: #58a6ff; stroke: #58a6ff"/>
     <use xlink:href="#m0c0317b3c1" x="303.894668" y="125.531983" style="fill: #58a6ff; stroke: #58a6ff"/>
     <use xlink:href="#m0c0317b3c1" x="307.972187" y="140.865083" style="fill: #58a6ff; stroke: #58a6ff"/>
     <use xlink:href="#m0c0317b3c1" x="312.049705" y="140.865083" style="fill: #58a6ff; stroke: #58a6ff"/>
     <use xlink:href="#m0c0317b3c1" x="316.127224" y="140.865083" style="fill: #58a6ff; stroke: #58a6ff"/>
     <use xlink:href="#m0c0317b3c1" x="320.204742" y="140.865083" style="fill: #58a6ff; stroke: #58a6ff"/>
     <use xlink:href="#m0c0317b3c1" x="324.28226" y="140.865083" style="fill: #58a6ff; stroke: #58a6ff"/>
     <use xlink:href="#m0c0317b3c1" x="328.359779" y="140.865083" style="fill: #58a6ff; stroke: #58a6ff"/>
     <use xlink:href="#m0c0317b3c1" x="332.437297" y="140.865083" style="fill: #58a6ff; stroke: #58a6ff"/>
     <use xlink:href="#m0c0317b3c1" x="336.514816" y="140.865083" style="fill: #58a6ff; stroke: #58a6ff"/>
     <use xlink:href="#m0c0317b3c1" x="340.592334" y="140.865083" style="fill: #58a6ff; stroke: #58a6ff"/>
     <use xlink:href="#m0c0317b3c1" x="344.669853" y="140.865083" style="fill: #58a6ff; stroke: #58a6ff"/>
     <use xlink:href="#m0c0317b3c1" x="348.747371" y="140.865083" style="fill: #58a6ff; stroke: #58a6ff"/>
     <use xlink:href="#m0c0317b3c1" x="352.824889" y="140.865083" style="fill: #58a6ff; stroke: #58a6ff"/>
     <use xlink:href="#m0c0317b3c1" x="356.902408" y="140.865083" style="fill: #58a6ff; stroke: #58a6ff"/>
     <use xlink:href="#m0c0317b3c1" x="360.979926" y="156.198184" style="fill: #58a6ff; stroke: #58a6ff"/>
     <use xlink:href="#m0c0317b3c1" x="365.057445" y="140.865083" style="fill: #58a6ff; stroke: #58a6ff"/>
     <use xlink:href="#m0c0317b3c1" x="369.134963" y="156.198184" style="fill: #58a6ff; stroke: #58a6ff"/>
     <use xlink:href="#m0c0317b3c1" x="373.212482" y="156.198184" style="fill: #58a6ff; stroke: #58a6ff"/>
     <use xlink:href="#m0c0317b3c1" x="377.29" y="156.198184" style="fill: #58a6ff; stroke: #58a6ff"/>
     <use xlink:href="#m0c0317b3c1" x="381.367518" y="156.198184" style="fill: #58a6ff; stroke: #58a6ff"/>
     <use xlink:href="#m0c0317b3c1" x="385.445037" y="156.198184" style="fill: #58a6ff; stroke: #58a6ff"/>
     <use xlink:href="#m0c0317b3c1" x="389.522555" y="156.198184" style="fill: #58a6ff; stroke: #58a6ff"/>
     <use xlink:href="#m0c0317b3c1" x="393.600074" y="156.198184" style="fill: #58a6ff; stroke: #58a6ff"/>
     <use xlink:href="#m0c0317b3c1" x="397.677592" y="156.198184" style="fill: #58a6ff; stroke: #58a6ff"/>
     <use xlink:href="#m0c0317b3c1" x="401.755111" y="156.198184" style="fill: #58a6ff; stroke: #58a6ff"/>
     <use xlink:href="#m0c0317b3c1" x="405.832629" y="140.865083" style="fill: #58a6ff; stroke: #58a6ff"/>
     <use xlink:href="#m0c0317b3c1" x="409.910147" y="156.198184" style="fill: #58a6ff; stroke: #58a6ff"/>
     <use xlink:href="#m0c0317b3c1" x="413.987666" y="156.198184" style="fill: #58a6ff; stroke: #58a6ff"/>
     <use xlink:href="#m0c0317b3c1" x="418.065184" y="156.198184" style="fill: #58a6ff; stroke: #58a6ff"/>
     <use xlink:href="#m0c0317b3c1" x="422.142703" y="171.531284" style="fill: #58a6ff; stroke: #58a6ff"/>
     <use xlink:href="#m0c0317b3c1" x="426.220221" y="156.198184" style="fill: #58a6ff; stroke: #58a6ff"/>
     <use xlink:href="#m0c0317b3c1" x="430.29774" y="156.198184" style="fill: #58a6ff; stroke: #58a6ff"/>
     <use xlink:href="#m0c0317b3c1" x="434.375258" y="140.865083" style="fill: #58a6ff; stroke: #58a6ff"/>
     <use xlink:href="#m0c0317b3c1" x="438.452776" y="140.865083" style="fill: #58a6ff; stroke: #58a6ff"/>
     <use xlink:href="#m0c0317b3c1" x="442.530295" y="140.865083" style="fill: #58a6ff; stroke: #58a6ff"/>
     <use xlink:href="#m0c0317b3c1" x="446.607813" y="140.865083" style="fill: #58a6ff; stroke: #58a6ff"/>
     <use xlink:href="#m0c0317b3c1" x="450.685332" y="140.865083" style="fill: #58a6ff; stroke: #58a6ff"/>
     <use xlink:href="#m0c0317b3c1" x="454.76285" y="140.865083" style="fill: #58a6ff; stroke: #58a6ff"/>
     <use xlink:href="#m0c0317b3c1" x="458.840369" y="140.865083" style="fill: #58a6ff; stroke: #58a6ff"/>
     <use xlink:href="#m0c0317b3c1" x="462.917887" y="140.865083" style="fill: #58a6ff; stroke: #58a6ff"/>
     <use xlink:href="#m0c0317b3c1" x="466.995405" y="140.865083" style="fill: #58a6ff; stroke: #58a6ff"/>
     <use xlink:href="#m0c0317b3c1" x="471.072924" y="140.865083" style="fill: #58a6ff; stroke: #58a6ff"/>
     <use xlink:href="#m0c0317b3c1" x="475.150442" y="140.865083" style="fill: #58a6ff; stroke: #58a6ff"/>
     <use xlink:href="#m0c0317b3c1" x="479.227961" y="140.865083" style="fill: #58a6ff; stroke: #58a6ff"/>
     <use xlink:href="#m0c0317b3c1" x="483.305479" y="140.865083" style="fill: #58a6ff; stroke: #58a6ff"/>
     <use xlink:href="#m0c0317b3c1" x="487.382998" y="140.865083" style="fill: #58a6ff; stroke: #58a6ff"/>
     <use xlink:href="#m0c0317b3c1" x="495.538034" y="140.865083" style="fill: #58a6ff; stroke: #58a6ff"/>
     <use xlink:href="#m0c0317b3c1" x="499.615553" y="140.865083" style="fill: #58a6ff; stroke: #58a6ff"/>
     <use xlink:href="#m0c0317b3c1" x="503.693071" y="156.198184" style="fill: #58a6ff; stroke: #58a6ff"/>
     <use xlink:href="#m0c0317b3c1" x="507.77059" y="156.198184" style="fill: #58a6ff; stroke: #58a6ff"/>
     <use xlink:href="#m0c0317b3c1" x="511.848108" y="140.865083" style="fill: #58a6ff; stroke: #58a6ff"/>
     <use xlink:href="#m0c0317b3c1" x="515.925627" y="140.865083" style="fill: #58a6ff; stroke: #58a6ff"/>
     <use xlink:href="#m0c0317b3c1" x="520.003145" y="140.865083" style="fill: #58a6ff; stroke: #58a6ff"/>
     <use xlink:href="#m0c0317b3c1" x="524.080663" y="140.865083" style="fill: #58a6ff; stroke: #58a6ff"/>
     <use xlink:href="#m0c0317b3c1" x="528.158182" y="140.865083" style="fill: #58a6ff; stroke: #58a6ff"/>
     <use xlink:href="#m0c0317b3c1" x="532.2357" y="140.865083" style="fill: #58a6ff; stroke: #58a6ff"/>
     <use xlink:href="#m0c0317b3c1" x="536.313219" y="140.865083" style="fill: #58a6ff; stroke: #58a6ff"/>
     <use xlink:href="#m0c0317b3c1" x="540.390737" y="140.865083" style="fill: #58a6ff; stroke: #58a6ff"/>
     <use xlink:href="#m0c0317b3c1" x="544.468256" y="140.865083" style="fill: #58a6ff; stroke: #58a6ff"/>
     <use xlink:href="#m0c0317b3c1" x="548.545774" y="140.865083" style="fill: #58a6ff; stroke: #58a6ff"/>
     <use xlink:href="#m0c0317b3c1" x="552.623292" y="140.865083" style="fill: #58a6ff; stroke: #58a6ff"/>
     <use xlink:href="#m0c0317b3c1" x="556.700811" y="140.865083" style="fill: #58a6ff; stroke: #58a6ff"/>
     <use xlink:href="#m0c0317b3c1" x="560.778329" y="140.865083" style="fill: #58a6ff; stroke: #58a6ff"/>
     <use xlink:href="#m0c0317b3c1" x="564.855848" y="140.865083" style="fill: #58a6ff; stroke: #58a6ff"/>
     <use xlink:href="#m0c0317b3c1" x="568.933366" y="140.865083" style="fill: #58a6ff; stroke: #58a6ff"/>
     <use xlink:href="#m0c0317b3c1" x="573.010885" y="140.865083" style="fill: #58a6ff; stroke: #58a6ff"/>
     <use xlink:href="#m0c0317b3c1" x="577.088403" y="125.531983" style="fill: #58a6ff; stroke: #58a6ff"/>
     <use xlink:href="#m0c0317b3c1" x="581.165921" y="125.531983" style="fill: #58a6ff; stroke: #58a6ff"/>
     <use xlink:href="#m0c0317b3c1" x="585.24344" y="125.531983" style="fill: #58a6ff; stroke: #58a6ff"/>
     <use xlink:href="#m0c0317b3c1" x="589.320958" y="125.531983" style="fill: #58a6ff; stroke: #58a6ff"/>
     <use xlink:href="#m0c0317b3c1" x="593.398477" y="125.531983" style="fill: #58a6ff; stroke: #58a6ff"/>
     <use xlink:href="#m0c0317b3c1" x="597.475995" y="125.531983" style="fill: #58a6ff; stroke: #58a6ff"/>
     <use xlink:href="#m0c0317b3c1" x="601.553514" y="125.531983" style="fill: #58a6ff; stroke: #58a6ff"/>
     <use xlink:href="#m0c0317b3c1" x="605.631032" y="110.198882" style="fill: #58a6ff; stroke: #58a6ff"/>
     <use xlink:href="#m0c0317b3c1" x="609.70855" y="110.198882" style="fill: #58a6ff; stroke: #58a6ff"/>
     <use xlink:href="#m0c0317b3c1" x="613.786069" y="110.198882" style="fill: #58a6ff; stroke: #58a6ff"/>
     <use xlink:href="#m0c0317b3c1" x="617.863587" y="110.198882" style="fill: #58a6ff; stroke: #58a6ff"/>
     <use xlink:href="#m0c0317b3c1" x="621.941106" y="110.198882" style="fill: #58a6ff; stroke: #58a6ff"/>
     <use xlink:href="#m0c0317b3c1" x="626.018624" y="110.198882" style="fill: #58a6ff; stroke: #58a6ff"/>
     <use xlink:href="#m0c0317b3c1" x="630.096143" y="110.198882" style="fill: #58a6ff; stroke: #58a6ff"/>
     <use xlink:href="#m0c0317b3c1" x="634.173661" y="94.865782" style="fill: #58a6ff; stroke: #58a6ff"/>
     <use xlink:href="#m0c0317b3c1" x="638.251179" y="94.865782" style="fill: #58a6ff; stroke: #58a6ff"/>
     <use xlink:href="#m0c0317b3c1" x="642.328698" y="94.865782" style="fill: #58a6ff; stroke: #58a6ff"/>
     <use xlink:href="#m0c0317b3c1" x="646.406216" y="79.532681" style="fill: #58a6ff; stroke: #58a6ff"/>
     <use xlink:href="#m0c0317b3c1" x="650.483735" y="64.199581" style="fill: #58a6ff; stroke: #58a6ff"/>
     <use xlink:href="#m0c0317b3c1" x="654.561253" y="79.532681" style="fill: #58a6ff; stroke: #58a6ff"/>
     <use xlink:href="#m0c0317b3c1" x="658.638771" y="79.532681" style="fill: #58a6ff; stroke: #58a6ff"/>
     <use xlink:href="#m0c0317b3c1" x="662.71629" y="79.532681" style="fill: #58a6ff; stroke: #58a6ff"/>
     <use xlink:href="#m0c0317b3c1" x="666.793808" y="79.532681" style="fill: #58a6ff; stroke: #58a6ff"/>
     <use xlink:href="#m0c0317b3c1" x="670.871327" y="79.532681" style="fill: #58a6ff; stroke: #58a6ff"/>
     <use xlink:href="#m0c0317b3c1" x="674.948845" y="64.199581" style="fill: #58a6ff; stroke: #58a6ff"/>
     <use xlink:href="#m0c0317b3c1" x="679.026364" y="48.86648" style="fill: #58a6ff; stroke: #58a6ff"/>
    </g>
   </g>
   <g id="patch_3">
    <path d="M 45.38 306.462568 
L 45.38 36.6 
" style="fill: none; stroke: #30363d; stroke-width: 0.8; stroke-linejoin: miter; stroke-linecap: square"/>
   </g>
   <g id="patch_4">
    <path d="M 709.2 306.462568 
L 709.2 36.6 
" style="fill: none; stroke: #30363d; stroke-width: 0.8; stroke-linejoin: miter; stroke-linecap: square"/>
   </g>
   <g id="patch_5">
    <path d="M 45.38 306.462568 
L 709.2 306.462568 
" style="fill: none; stroke: #30363d; stroke-width: 0.8; stroke-linejoin: miter; stroke-linecap: square"/>
   </g>
   <g id="patch_6">
    <path d="M 45.38 36.6 
L 709.2 36.6 
" style="fill: none; stroke: #30363d; stroke-width: 0.8; stroke-linejoin: miter; stroke-linecap: square"/>
   </g>
   <g id="text_17">
    <g id="patch_7">
     <path d="M 633.4161 64.039066 
L 695.9236 64.039066 
Q 699.2236 64.039066 699.2236 60.739066 
L 699.2236 50.093128 
Q 699.2236 46.793128 695.9236 46.793128 
L 633.4161 46.793128 
Q 630.1161 46.793128 630.1161 50.093128 
L 630.1161 60.739066 
Q 630.1161 64.039066 633.4161 64.039066 
z
" style="fill: #30363d; opacity: 0.8; stroke: #58a6ff; stroke-linejoin: miter"/>
    </g>
    <!-- Current: 66 -->
    <g style="fill: #c9d1d9" transform="translate(633.4161 58.45141) scale(0.11 -0.11)">
     <defs>
      <path id="DejaVuSans-72" d="M 2631 2963 
Q 2534 3019 2420 3045 
Q 2306 3072 2169 3072 
Q 1681 3072 1420 2755 
Q 1159 2438 1159 1844 
L 1159 0 
L 581 0 
L 581 3500 
L 1159 3500 
L 1159 2956 
Q 1341 3275 1631 3429 
Q 1922 3584 2338 3584 
Q 2397 3584 2469 3576 
Q 2541 3569 2628 3553 
L 2631 2963 
z
" transform="scale(0.015625)"/>
      <path id="DejaVuSans-3a" d="M 750 794 
L 1409 794 
L 1409 0 
L 750 0 
L 750 794 
z
M 750 3309 
L 1409 3309 
L 1409 2516 
L 750 2516 
L 750 3309 
z
" transform="scale(0.015625)"/>
      <path id="DejaVuSans-20" transform="scale(0.015625)"/>
     </defs>
     <use xlink:href="#DejaVuSans-43"/>
     <use xlink:href="#DejaVuSans-75" transform="translate(69.824219 0)"/>
     <use xlink:href="#DejaVuSans-72" transform="translate(133.203125 0)"/>
     <use xlink:href="#DejaVuSans-72" transform="translate(172.566406 0)"/>
     <use xlink:href="#DejaVuSans-65" transform="translate(211.429688 0)"/>
     <use xlink:href="#DejaVuSans-6e" transform="translate(272.953125 0)"/>
     <use xlink:href="#DejaVuSans-74" transform="translate(336.332031 0)"/>
     <use xlink:href="#DejaVuSans-3a" transform="translate(375.541016 0)"/>
     <use xlink:href="#DejaVuSans-20" transform="translate(409.232422 0)"/>
     <use xlink:href="#DejaVuSans-36" transform="translate(441.019531 0)"/>
     <use xlink:href="#DejaVuSans-36" transform="translate(504.642578 0)"/>
    </g>
   </g>
   <g id="text_18">
    <!-- Followers Over Time -->
    <g style="fill: #c9d1d9" transform="translate(296.732031 21.6) scale(0.14 -0.14)">
     <defs>
      <path id="DejaVuSans-Bold-46" d="M 588 4666 
L 3834 4666 
L 3834 3756 
L 1791 3756 
L 1791 2888 
L 3713 2888 
L 3713 1978 
L 1791 1978 
L 1791 0 
L 588 0 
L 588 4666 
z
" transform="scale(0.015625)"/>
      <path id="DejaVuSans-Bold-6f" d="M 2203 2784 
Q 1831 2784 1636 2517 
Q 1441 2250 1441 1747 
Q 1441 1244 1636 976 
Q 1831 709 2203 709 
Q 2569 709 2762 976 
Q 2956 1244 2956 1747 
Q 2956 2250 2762 2517 
Q 2569 2784 2203 2784 
z
M 2203 3584 
Q 3106 3584 3614 3096 
Q 4122 2609 4122 1747 
Q 4122 884 3614 396 
Q 3106 -91 2203 -91 
Q 1297 -91 786 396 
Q 275 884 275 1747 
Q 275 2609 786 3096 
Q 1297 3584 2203 3584 
z
" transform="scale(0.015625)"/>
      <path id="DejaVuSans-Bold-6c" d="M 538 4863 
L 1656 4863 
L 1656 0 
L 538 0 
L 538 4863 
z
" transform="scale(0.015625)"/>
      <path id="DejaVuSans-Bold-77" d="M 225 3500 
L 1313 3500 
L 1900 1088 
L 2491 3500 
L 3425 3500 
L 4013 1113 
L 4603 3500 
L 5691 3500 
L 4769 0 
L 3547 0 
L 2956 2406 
L 2369 0 
L 1147 0 
L 225 3500 
z
" transform="scale(0.015625)"/>
      <path id="DejaVuSans-Bold-65" d="M 4031 1759 
L 4031 1441 
L 1416 1441 
Q 1456 1047 1700 850 
Q 1944 653 2381 653 
Q 2734 653 3104 758 
Q 3475 863 3866 1075 
L 3866 213 
Q 3469 63 3072 -14 
Q 2675 -91 2278 -91 
Q 1328 -91 801 392 
Q 275 875 275 1747 
Q 275 2603 792 3093 
Q 1309 3584 2216 3584 
Q 3041 3584 3536 3087 
Q 4031 2591 4031 1759 
z
M 2881 2131 
Q 2881 2450 2695 2645 
Q 2509 2841 2209 2841 
Q 1884 2841 1681 2658 
Q 1478 2475 1428 2131 
L 2881 2131 
z
" transform="scale(0.015625)"/>
      <path id="DejaVuSans-Bold-72" d="M 3138 2547 
Q 2991 2616 2845 2648 
Q 2700 2681 2553 2681 
Q 2122 2681 1889 2404 
Q 1656 2128 1656 1613 
L 1656 0 
L 538 0 
L 538 3500 
L 1656 3500 
L 1656 2925 
Q 1872 3269 2151 3426 
Q 2431 3584 2822 3584 
Q 2878 3584 2943 3579 
Q 3009 3575 3134 3559 
L 3138 2547 
z
" transform="scale(0.015625)"/>
      <path id="DejaVuSans-Bold-73" d="M 3272 3391 
L 3272 2541 
Q 2913 2691 2578 2766 
Q 2244 2841 1947 2841 
Q 1628 2841 1473 2761 
Q 1319 2681 1319 2516 
Q 1319 2381 1436 2309 
Q 1553 2238 1856 2203 
L 2053 2175 
Q 2913 2066 3209 1816 
Q 3506 1566 3506 1031 
Q 3506 472 3093 190 
Q 2681 -91 1863 -91 
Q 1516 -91 1145 -36 
Q 775 19 384 128 
L 384 978 
Q 719 816 1070 734 
Q 1422 653 1784 653 
Q 2113 653 2278 743 
Q 2444 834 2444 1013 
Q 2444 1163 2330 1236 
Q 2216 1309 1875 1350 
L 1678 1375 
Q 931 1469 631 1722 
Q 331 1975 331 2491 
Q 331 3047 712 3315 
Q 1094 3584 1881 3584 
Q 2191 3584 2531 3537 
Q 2872 3491 3272 3391 
z
" transform="scale(0.015625)"/>
      <path id="DejaVuSans-Bold-20" transform="scale(0.015625)"/>
      <path id="DejaVuSans-Bold-4f" d="M 2719 3878 
Q 2169 3878 1866 3472 
Q 1563 3066 1563 2328 
Q 1563 1594 1866 1187 
Q 2169 781 2719 781 
Q 3272 781 3575 1187 
Q 3878 1594 3878 2328 
Q 3878 3066 3575 3472 
Q 3272 3878 2719 3878 
z
M 2719 4750 
Q 3844 4750 4481 4106 
Q 5119 3463 5119 2328 
Q 5119 1197 4481 553 
Q 3844 -91 2719 -91 
Q 1597 -91 958 553 
Q 319 1197 319 2328 
Q 319 3463 958 4106 
Q 1597 4750 2719 4750 
z
" transform="scale(0.015625)"/>
      <path id="DejaVuSans-Bold-76" d="M 97 3500 
L 1216 3500 
L 2088 1081 
L 2956 3500 
L 4078 3500 
L 2700 0 
L 1472 0 
L 97 3500 
z
" transform="scale(0.015625)"/>
      <path id="DejaVuSans-Bold-54" d="M 31 4666 
L 4331 4666 
L 4331 3756 
L 2784 3756 
L 2784 0 
L 1581 0 
L 1581 3756 
L 31 3756 
L 31 4666 
z
" transform="scale(0.015625)"/>
      <path id="DejaVuSans-Bold-69" d="M 538 3500 
L 1656 3500 
L 1656 0 
L 538 0 
L 538 3500 
z
M 538 4863 
L 1656 4863 
L 1656 3950 
L 538 3950 
L 538 4863 
z
" transform="scale(0.015625)"/>
      <path id="DejaVuSans-Bold-6d" d="M 3781 2919 
Q 3994 3244 4286 3414 
Q 4578 3584 4928 3584 
Q 5531 3584 5847 3212 
Q 6163 2841 6163 2131 
L 6163 0 
L 5038 0 
L 5038 1825 
Q 5041 1866 5042 1909 
Q 5044 1953 5044 2034 
Q 5044 2406 4934 2573 
Q 4825 2741 4581 2741 
Q 4263 2741 4089 2478 
Q 3916 2216 3909 1719 
L 3909 0 
L 2784 0 
L 2784 1825 
Q 2784 2406 2684 2573 
Q 2584 2741 2328 2741 
Q 2006 2741 1831 2477 
Q 1656 2213 1656 1722 
L 1656 0 
L 531 0 
L 531 3500 
L 1656 3500 
L 1656 2988 
Q 1863 3284 2130 3434 
Q 2397 3584 2719 3584 
Q 3081 3584 3359 3409 
Q 3638 3234 3781 2919 
z
" transform="scale(0.015625)"/>
     </defs>
     <use xlink:href="#DejaVuSans-Bold-46"/>
     <use xlink:href="#DejaVuSans-Bold-6f" transform="translate(64.310547 0)"/>
     <use xlink:href="#DejaVuSans-Bold-6c" transform="translate(133.011719 0)"/>
     <use xlink:href="#DejaVuSans-Bold-6c" transform="translate(167.289062 0)"/>
     <use xlink:href="#DejaVuSans-Bold-6f" transform="translate(201.566406 0)"/>
     <use xlink:href="#DejaVuSans-Bold-77" transform="translate(270.267578 0)"/>
     <use xlink:href="#DejaVuSans-Bold-65" transform="translate(362.650391 0)"/>
     <use xlink:href="#DejaVuSans-Bold-72" transform="translate(430.472656 0)"/>
     <use xlink:href="#DejaVuSans-Bold-73" transform="translate(479.789062 0)"/>
     <use xlink:href="#DejaVuSans-Bold-20" transform="translate(539.310547 0)"/>
     <use xlink:href="#DejaVuSans-Bold-4f" transform="translate(574.125 0)"/>
     <use xlink:href="#DejaVuSans-Bold-76" transform="translate(659.134766 0)"/>
     <use xlink:href="#DejaVuSans-Bold-65" transform="translate(724.320312 0)"/>
     <use xlink:href="#DejaVuSans-Bold-72" transform="translate(792.142578 0)"/>
     <use xlink:href="#DejaVuSans-Bold-20" transform="translate(841.458984 0)"/>
     <use xlink:href="#DejaVuSans-Bold-54" transform="translate(876.273438 0)"/>
     <use xlink:href="#DejaVuSans-Bold-69" transform="translate(944.486328 0)"/>
     <use xlink:href="#DejaVuSans-Bold-6d" transform="translate(978.763672 0)"/>
     <use xlink:href="#DejaVuSans-Bold-65" transform="translate(1082.962891 0)"/>
    </g>
   </g>
  </g>
 </g>
 <defs>
  <clipPath id="p7138a2f67f">
   <rect x="45.38" y="36.6" width="663.82" height="269.862568"/>
  </clipPath>
 </defs>
</svg>
