<?xml version="1.0" encoding="utf-8" standalone="no"?>
<!DOCTYPE svg PUBLIC "-//W3C//DTD SVG 1.1//EN"
  "http://www.w3.org/Graphics/SVG/1.1/DTD/svg11.dtd">
<svg xmlns:xlink="http://www.w3.org/1999/xlink" width="720pt" height="360pt" viewBox="0 0 720 360" xmlns="http://www.w3.org/2000/svg" version="1.1">
 <metadata>
  <rdf:RDF xmlns:dc="http://purl.org/dc/elements/1.1/" xmlns:cc="http://creativecommons.org/ns#" xmlns:rdf="http://www.w3.org/1999/02/22-rdf-syntax-ns#">
   <cc:Work>
    <dc:type rdf:resource="http://purl.org/dc/dcmitype/StillImage"/>
    <dc:date>2026-04-28T00:37:30.600859</dc:date>
    <dc:format>image/svg+xml</dc:format>
    <dc:creator>
     <cc:Agent>
      <dc:title>Matplotlib v3.10.9, https://matplotlib.org/</dc:title>
     </cc:Agent>
    </dc:creator>
   </cc:Work>
  </rdf:RDF>
 </metadata>
 <defs>
  <style type="text/css">*{stroke-linejoin: round; stroke-linecap: butt}</style>
 </defs>
 <g id="figure_1">
  <g id="patch_1">
   <path d="M 0 360 
L 720 360 
L 720 0 
L 0 0 
z
" style="fill: #0d1117"/>
  </g>
  <g id="axes_1">
   <g id="patch_2">
    <path d="M 51.68 305.571614 
L 709.2 305.571614 
L 709.2 36.6 
L 51.68 36.6 
z
" style="fill: #0d1117"/>
   </g>
   <g id="matplotlib.axis_1">
    <g id="xtick_1">
     <g id="line2d_1">
      <path d="M 95.533288 305.571614 
L 95.533288 36.6 
" clip-path="url(#p2f62d01dfa)" style="fill: none; stroke: #30363d; stroke-opacity: 0.2; stroke-width: 0.8; stroke-linecap: square"/>
     </g>
     <g id="line2d_2">
      <defs>
       <path id="mbaf97b3709" d="M 0 0 
L 0 3.5 
" style="stroke: #c9d1d9; stroke-width: 0.8"/>
      </defs>
      <g>
       <use xlink:href="#mbaf97b3709" x="95.533288" y="305.571614" style="fill: #c9d1d9; stroke: #c9d1d9; stroke-width: 0.8"/>
      </g>
     </g>
     <g id="text_1">
      <!-- Oct -->
      <g style="fill: #c9d1d9" transform="translate(81.836409 330.170839) rotate(-45) scale(0.1 -0.1)">
       <defs>
        <path id="DejaVuSans-4f" d="M 2522 4238 
Q 1834 4238 1429 3725 
Q 1025 3213 1025 2328 
Q 1025 1447 1429 934 
Q 1834 422 2522 422 
Q 3209 422 3611 934 
Q 4013 1447 4013 2328 
Q 4013 3213 3611 3725 
Q 3209 4238 2522 4238 
z
M 2522 4750 
Q 3503 4750 4090 4092 
Q 4678 3434 4678 2328 
Q 4678 1225 4090 567 
Q 3503 -91 2522 -91 
Q 1538 -91 948 565 
Q 359 1222 359 2328 
Q 359 3434 948 4092 
Q 1538 4750 2522 4750 
z
" transform="scale(0.015625)"/>
        <path id="DejaVuSans-63" d="M 3122 3366 
L 3122 2828 
Q 2878 2963 2633 3030 
Q 2388 3097 2138 3097 
Q 1578 3097 1268 2742 
Q 959 2388 959 1747 
Q 959 1106 1268 751 
Q 1578 397 2138 397 
Q 2388 397 2633 464 
Q 2878 531 3122 666 
L 3122 134 
Q 2881 22 2623 -34 
Q 2366 -91 2075 -91 
Q 1284 -91 818 406 
Q 353 903 353 1747 
Q 353 2603 823 3093 
Q 1294 3584 2113 3584 
Q 2378 3584 2631 3529 
Q 2884 3475 3122 3366 
z
" transform="scale(0.015625)"/>
        <path id="DejaVuSans-74" d="M 1172 4494 
L 1172 3500 
L 2356 3500 
L 2356 3053 
L 1172 3053 
L 1172 1153 
Q 1172 725 1289 603 
Q 1406 481 1766 481 
L 2356 481 
L 2356 0 
L 1766 0 
Q 1100 0 847 248 
Q 594 497 594 1153 
L 594 3053 
L 172 3053 
L 172 3500 
L 594 3500 
L 594 4494 
L 1172 4494 
z
" transform="scale(0.015625)"/>
       </defs>
       <use xlink:href="#DejaVuSans-4f"/>
       <use xlink:href="#DejaVuSans-63" transform="translate(78.710938 0)"/>
       <use xlink:href="#DejaVuSans-74" transform="translate(133.691406 0)"/>
      </g>
     </g>
    </g>
    <g id="xtick_2">
     <g id="line2d_3">
      <path d="M 182.122583 305.571614 
L 182.122583 36.6 
" clip-path="url(#p2f62d01dfa)" style="fill: none; stroke: #30363d; stroke-opacity: 0.2; stroke-width: 0.8; stroke-linecap: square"/>
     </g>
     <g id="line2d_4">
      <g>
       <use xlink:href="#mbaf97b3709" x="182.122583" y="305.571614" style="fill: #c9d1d9; stroke: #c9d1d9; stroke-width: 0.8"/>
      </g>
     </g>
     <g id="text_2">
      <!-- Nov -->
      <g style="fill: #c9d1d9" transform="translate(166.850181 331.746361) rotate(-45) scale(0.1 -0.1)">
       <defs>
        <path id="DejaVuSans-4e" d="M 628 4666 
L 1478 4666 
L 3547 763 
L 3547 4666 
L 4159 4666 
L 4159 0 
L 3309 0 
L 1241 3903 
L 1241 0 
L 628 0 
L 628 4666 
z
" transform="scale(0.015625)"/>
        <path id="DejaVuSans-6f" d="M 1959 3097 
Q 1497 3097 1228 2736 
Q 959 2375 959 1747 
Q 959 1119 1226 758 
Q 1494 397 1959 397 
Q 2419 397 2687 759 
Q 2956 1122 2956 1747 
Q 2956 2369 2687 2733 
Q 2419 3097 1959 3097 
z
M 1959 3584 
Q 2709 3584 3137 3096 
Q 3566 2609 3566 1747 
Q 3566 888 3137 398 
Q 2709 -91 1959 -91 
Q 1206 -91 779 398 
Q 353 888 353 1747 
Q 353 2609 779 3096 
Q 1206 3584 1959 3584 
z
" transform="scale(0.015625)"/>
        <path id="DejaVuSans-76" d="M 191 3500 
L 800 3500 
L 1894 563 
L 2988 3500 
L 3597 3500 
L 2284 0 
L 1503 0 
L 191 3500 
z
" transform="scale(0.015625)"/>
       </defs>
       <use xlink:href="#DejaVuSans-4e"/>
       <use xlink:href="#DejaVuSans-6f" transform="translate(74.804688 0)"/>
       <use xlink:href="#DejaVuSans-76" transform="translate(135.986328 0)"/>
      </g>
     </g>
    </g>
    <g id="xtick_3">
     <g id="line2d_5">
      <path d="M 265.918675 305.571614 
L 265.918675 36.6 
" clip-path="url(#p2f62d01dfa)" style="fill: none; stroke: #30363d; stroke-opacity: 0.2; stroke-width: 0.8; stroke-linecap: square"/>
     </g>
     <g id="line2d_6">
      <g>
       <use xlink:href="#mbaf97b3709" x="265.918675" y="305.571614" style="fill: #c9d1d9; stroke: #c9d1d9; stroke-width: 0.8"/>
      </g>
     </g>
     <g id="text_3">
      <!-- Dec -->
      <g style="fill: #c9d1d9" transform="translate(250.764492 331.628141) rotate(-45) scale(0.1 -0.1)">
       <defs>
        <path id="DejaVuSans-44" d="M 1259 4147 
L 1259 519 
L 2022 519 
Q 2988 519 3436 956 
Q 3884 1394 3884 2338 
Q 3884 3275 3436 3711 
Q 2988 4147 2022 4147 
L 1259 4147 
z
M 628 4666 
L 1925 4666 
Q 3281 4666 3915 4102 
Q 4550 3538 4550 2338 
Q 4550 1131 3912 565 
Q 3275 0 1925 0 
L 628 0 
L 628 4666 
z
" transform="scale(0.015625)"/>
        <path id="DejaVuSans-65" d="M 3597 1894 
L 3597 1613 
L 953 1613 
Q 991 1019 1311 708 
Q 1631 397 2203 397 
Q 2534 397 2845 478 
Q 3156 559 3463 722 
L 3463 178 
Q 3153 47 2828 -22 
Q 2503 -91 2169 -91 
Q 1331 -91 842 396 
Q 353 884 353 1716 
Q 353 2575 817 3079 
Q 1281 3584 2069 3584 
Q 2775 3584 3186 3129 
Q 3597 2675 3597 1894 
z
M 3022 2063 
Q 3016 2534 2758 2815 
Q 2500 3097 2075 3097 
Q 1594 3097 1305 2825 
Q 1016 2553 972 2059 
L 3022 2063 
z
" transform="scale(0.015625)"/>
       </defs>
       <use xlink:href="#DejaVuSans-44"/>
       <use xlink:href="#DejaVuSans-65" transform="translate(77.001953 0)"/>
       <use xlink:href="#DejaVuSans-63" transform="translate(138.525391 0)"/>
      </g>
     </g>
    </g>
    <g id="xtick_4">
     <g id="line2d_7">
      <path d="M 352.507969 305.571614 
L 352.507969 36.6 
" clip-path="url(#p2f62d01dfa)" style="fill: none; stroke: #30363d; stroke-opacity: 0.2; stroke-width: 0.8; stroke-linecap: square"/>
     </g>
     <g id="line2d_8">
      <g>
       <use xlink:href="#mbaf97b3709" x="352.507969" y="305.571614" style="fill: #c9d1d9; stroke: #c9d1d9; stroke-width: 0.8"/>
      </g>
     </g>
     <g id="text_4">
      <!-- Jan -->
      <g style="fill: #c9d1d9" transform="translate(340.136915 328.845013) rotate(-45) scale(0.1 -0.1)">
       <defs>
        <path id="DejaVuSans-4a" d="M 628 4666 
L 1259 4666 
L 1259 325 
Q 1259 -519 939 -900 
Q 619 -1281 -91 -1281 
L -331 -1281 
L -331 -750 
L -134 -750 
Q 284 -750 456 -515 
Q 628 -281 628 325 
L 628 4666 
z
" transform="scale(0.015625)"/>
        <path id="DejaVuSans-61" d="M 2194 1759 
Q 1497 1759 1228 1600 
Q 959 1441 959 1056 
Q 959 750 1161 570 
Q 1363 391 1709 391 
Q 2188 391 2477 730 
Q 2766 1069 2766 1631 
L 2766 1759 
L 2194 1759 
z
M 3341 1997 
L 3341 0 
L 2766 0 
L 2766 531 
Q 2569 213 2275 61 
Q 1981 -91 1556 -91 
Q 1019 -91 701 211 
Q 384 513 384 1019 
Q 384 1609 779 1909 
Q 1175 2209 1959 2209 
L 2766 2209 
L 2766 2266 
Q 2766 2663 2505 2880 
Q 2244 3097 1772 3097 
Q 1472 3097 1187 3025 
Q 903 2953 641 2809 
L 641 3341 
Q 956 3463 1253 3523 
Q 1550 3584 1831 3584 
Q 2591 3584 2966 3190 
Q 3341 2797 3341 1997 
z
" transform="scale(0.015625)"/>
        <path id="DejaVuSans-6e" d="M 3513 2113 
L 3513 0 
L 2938 0 
L 2938 2094 
Q 2938 2591 2744 2837 
Q 2550 3084 2163 3084 
Q 1697 3084 1428 2787 
Q 1159 2491 1159 1978 
L 1159 0 
L 581 0 
L 581 3500 
L 1159 3500 
L 1159 2956 
Q 1366 3272 1645 3428 
Q 1925 3584 2291 3584 
Q 2894 3584 3203 3211 
Q 3513 2838 3513 2113 
z
" transform="scale(0.015625)"/>
       </defs>
       <use xlink:href="#DejaVuSans-4a"/>
       <use xlink:href="#DejaVuSans-61" transform="translate(29.492188 0)"/>
       <use xlink:href="#DejaVuSans-6e" transform="translate(90.771484 0)"/>
      </g>
     </g>
    </g>
    <g id="xtick_5">
     <g id="line2d_9">
      <path d="M 439.097264 305.571614 
L 439.097264 36.6 
" clip-path="url(#p2f62d01dfa)" style="fill: none; stroke: #30363d; stroke-opacity: 0.2; stroke-width: 0.8; stroke-linecap: square"/>
     </g>
     <g id="line2d_10">
      <g>
       <use xlink:href="#mbaf97b3709" x="439.097264" y="305.571614" style="fill: #c9d1d9; stroke: #c9d1d9; stroke-width: 0.8"/>
      </g>
     </g>
     <g id="text_5">
      <!-- Feb -->
      <g style="fill: #c9d1d9" transform="translate(425.108703 330.46252) rotate(-45) scale(0.1 -0.1)">
       <defs>
        <path id="DejaVuSans-46" d="M 628 4666 
L 3309 4666 
L 3309 4134 
L 1259 4134 
L 1259 2759 
L 3109 2759 
L 3109 2228 
L 1259 2228 
L 1259 0 
L 628 0 
L 628 4666 
z
" transform="scale(0.015625)"/>
        <path id="DejaVuSans-62" d="M 3116 1747 
Q 3116 2381 2855 2742 
Q 2594 3103 2138 3103 
Q 1681 3103 1420 2742 
Q 1159 2381 1159 1747 
Q 1159 1113 1420 752 
Q 1681 391 2138 391 
Q 2594 391 2855 752 
Q 3116 1113 3116 1747 
z
M 1159 2969 
Q 1341 3281 1617 3432 
Q 1894 3584 2278 3584 
Q 2916 3584 3314 3078 
Q 3713 2572 3713 1747 
Q 3713 922 3314 415 
Q 2916 -91 2278 -91 
Q 1894 -91 1617 61 
Q 1341 213 1159 525 
L 1159 0 
L 581 0 
L 581 4863 
L 1159 4863 
L 1159 2969 
z
" transform="scale(0.015625)"/>
       </defs>
       <use xlink:href="#DejaVuSans-46"/>
       <use xlink:href="#DejaVuSans-65" transform="translate(52.019531 0)"/>
       <use xlink:href="#DejaVuSans-62" transform="translate(113.542969 0)"/>
      </g>
     </g>
    </g>
    <g id="xtick_6">
     <g id="line2d_11">
      <path d="M 517.30695 305.571614 
L 517.30695 36.6 
" clip-path="url(#p2f62d01dfa)" style="fill: none; stroke: #30363d; stroke-opacity: 0.2; stroke-width: 0.8; stroke-linecap: square"/>
     </g>
     <g id="line2d_12">
      <g>
       <use xlink:href="#mbaf97b3709" x="517.30695" y="305.571614" style="fill: #c9d1d9; stroke: #c9d1d9; stroke-width: 0.8"/>
      </g>
     </g>
     <g id="text_6">
      <!-- Mar -->
      <g style="fill: #c9d1d9" transform="translate(502.495273 331.285637) rotate(-45) scale(0.1 -0.1)">
       <defs>
        <path id="DejaVuSans-4d" d="M 628 4666 
L 1569 4666 
L 2759 1491 
L 3956 4666 
L 4897 4666 
L 4897 0 
L 4281 0 
L 4281 4097 
L 3078 897 
L 2444 897 
L 1241 4097 
L 1241 0 
L 628 0 
L 628 4666 
z
" transform="scale(0.015625)"/>
        <path id="DejaVuSans-72" d="M 2631 2963 
Q 2534 3019 2420 3045 
Q 2306 3072 2169 3072 
Q 1681 3072 1420 2755 
Q 1159 2438 1159 1844 
L 1159 0 
L 581 0 
L 581 3500 
L 1159 3500 
L 1159 2956 
Q 1341 3275 1631 3429 
Q 1922 3584 2338 3584 
Q 2397 3584 2469 3576 
Q 2541 3569 2628 3553 
L 2631 2963 
z
" transform="scale(0.015625)"/>
       </defs>
       <use xlink:href="#DejaVuSans-4d"/>
       <use xlink:href="#DejaVuSans-61" transform="translate(86.279297 0)"/>
       <use xlink:href="#DejaVuSans-72" transform="translate(147.558594 0)"/>
      </g>
     </g>
    </g>
    <g id="xtick_7">
     <g id="line2d_13">
      <path d="M 603.896245 305.571614 
L 603.896245 36.6 
" clip-path="url(#p2f62d01dfa)" style="fill: none; stroke: #30363d; stroke-opacity: 0.2; stroke-width: 0.8; stroke-linecap: square"/>
     </g>
     <g id="line2d_14">
      <g>
       <use xlink:href="#mbaf97b3709" x="603.896245" y="305.571614" style="fill: #c9d1d9; stroke: #c9d1d9; stroke-width: 0.8"/>
      </g>
     </g>
     <g id="text_7">
      <!-- Apr -->
      <g style="fill: #c9d1d9" transform="translate(590.192736 330.177468) rotate(-45) scale(0.1 -0.1)">
       <defs>
        <path id="DejaVuSans-41" d="M 2188 4044 
L 1331 1722 
L 3047 1722 
L 2188 4044 
z
M 1831 4666 
L 2547 4666 
L 4325 0 
L 3669 0 
L 3244 1197 
L 1141 1197 
L 716 0 
L 50 0 
L 1831 4666 
z
" transform="scale(0.015625)"/>
        <path id="DejaVuSans-70" d="M 1159 525 
L 1159 -1331 
L 581 -1331 
L 581 3500 
L 1159 3500 
L 1159 2969 
Q 1341 3281 1617 3432 
Q 1894 3584 2278 3584 
Q 2916 3584 3314 3078 
Q 3713 2572 3713 1747 
Q 3713 922 3314 415 
Q 2916 -91 2278 -91 
Q 1894 -91 1617 61 
Q 1341 213 1159 525 
z
M 3116 1747 
Q 3116 2381 2855 2742 
Q 2594 3103 2138 3103 
Q 1681 3103 1420 2742 
Q 1159 2381 1159 1747 
Q 1159 1113 1420 752 
Q 1681 391 2138 391 
Q 2594 391 2855 752 
Q 3116 1113 3116 1747 
z
" transform="scale(0.015625)"/>
       </defs>
       <use xlink:href="#DejaVuSans-41"/>
       <use xlink:href="#DejaVuSans-70" transform="translate(68.408203 0)"/>
       <use xlink:href="#DejaVuSans-72" transform="translate(131.884766 0)"/>
      </g>
     </g>
    </g>
    <g id="xtick_8">
     <g id="line2d_15">
      <path d="M 687.692336 305.571614 
L 687.692336 36.6 
" clip-path="url(#p2f62d01dfa)" style="fill: none; stroke: #30363d; stroke-opacity: 0.2; stroke-width: 0.8; stroke-linecap: square"/>
     </g>
     <g id="line2d_16">
      <g>
       <use xlink:href="#mbaf97b3709" x="687.692336" y="305.571614" style="fill: #c9d1d9; stroke: #c9d1d9; stroke-width: 0.8"/>
      </g>
     </g>
     <g id="text_8">
      <!-- May -->
      <g style="fill: #c9d1d9" transform="translate(671.602343 332.563953) rotate(-45) scale(0.1 -0.1)">
       <defs>
        <path id="DejaVuSans-79" d="M 2059 -325 
Q 1816 -950 1584 -1140 
Q 1353 -1331 966 -1331 
L 506 -1331 
L 506 -850 
L 844 -850 
Q 1081 -850 1212 -737 
Q 1344 -625 1503 -206 
L 1606 56 
L 191 3500 
L 800 3500 
L 1894 763 
L 2988 3500 
L 3597 3500 
L 2059 -325 
z
" transform="scale(0.015625)"/>
       </defs>
       <use xlink:href="#DejaVuSans-4d"/>
       <use xlink:href="#DejaVuSans-61" transform="translate(86.279297 0)"/>
       <use xlink:href="#DejaVuSans-79" transform="translate(147.558594 0)"/>
      </g>
     </g>
    </g>
    <g id="text_9">
     <!-- Date -->
     <g style="fill: #c9d1d9" transform="translate(367.294141 346.392795) scale(0.11 -0.11)">
      <use xlink:href="#DejaVuSans-44"/>
      <use xlink:href="#DejaVuSans-61" transform="translate(77.001953 0)"/>
      <use xlink:href="#DejaVuSans-74" transform="translate(138.28125 0)"/>
      <use xlink:href="#DejaVuSans-65" transform="translate(177.490234 0)"/>
     </g>
    </g>
   </g>
   <g id="matplotlib.axis_2">
    <g id="ytick_1">
     <g id="line2d_17">
      <path d="M 51.68 274.16762 
L 709.2 274.16762 
" clip-path="url(#p2f62d01dfa)" style="fill: none; stroke: #30363d; stroke-opacity: 0.2; stroke-width: 0.8; stroke-linecap: square"/>
     </g>
     <g id="line2d_18">
      <defs>
       <path id="m97c104b5be" d="M 0 0 
L -3.5 0 
" style="stroke: #c9d1d9; stroke-width: 0.8"/>
      </defs>
      <g>
       <use xlink:href="#m97c104b5be" x="51.68" y="274.16762" style="fill: #c9d1d9; stroke: #c9d1d9; stroke-width: 0.8"/>
      </g>
     </g>
     <g id="text_10">
      <!-- 70 -->
      <g style="fill: #c9d1d9" transform="translate(31.955 277.966838) scale(0.1 -0.1)">
       <defs>
        <path id="DejaVuSans-37" d="M 525 4666 
L 3525 4666 
L 3525 4397 
L 1831 0 
L 1172 0 
L 2766 4134 
L 525 4134 
L 525 4666 
z
" transform="scale(0.015625)"/>
        <path id="DejaVuSans-30" d="M 2034 4250 
Q 1547 4250 1301 3770 
Q 1056 3291 1056 2328 
Q 1056 1369 1301 889 
Q 1547 409 2034 409 
Q 2525 409 2770 889 
Q 3016 1369 3016 2328 
Q 3016 3291 2770 3770 
Q 2525 4250 2034 4250 
z
M 2034 4750 
Q 2819 4750 3233 4129 
Q 3647 3509 3647 2328 
Q 3647 1150 3233 529 
Q 2819 -91 2034 -91 
Q 1250 -91 836 529 
Q 422 1150 422 2328 
Q 422 3509 836 4129 
Q 1250 4750 2034 4750 
z
" transform="scale(0.015625)"/>
       </defs>
       <use xlink:href="#DejaVuSans-37"/>
       <use xlink:href="#DejaVuSans-30" transform="translate(63.623047 0)"/>
      </g>
     </g>
    </g>
    <g id="ytick_2">
     <g id="line2d_19">
      <path d="M 51.68 226.22259 
L 709.2 226.22259 
" clip-path="url(#p2f62d01dfa)" style="fill: none; stroke: #30363d; stroke-opacity: 0.2; stroke-width: 0.8; stroke-linecap: square"/>
     </g>
     <g id="line2d_20">
      <g>
       <use xlink:href="#m97c104b5be" x="51.68" y="226.22259" style="fill: #c9d1d9; stroke: #c9d1d9; stroke-width: 0.8"/>
      </g>
     </g>
     <g id="text_11">
      <!-- 80 -->
      <g style="fill: #c9d1d9" transform="translate(31.955 230.021809) scale(0.1 -0.1)">
       <defs>
        <path id="DejaVuSans-38" d="M 2034 2216 
Q 1584 2216 1326 1975 
Q 1069 1734 1069 1313 
Q 1069 891 1326 650 
Q 1584 409 2034 409 
Q 2484 409 2743 651 
Q 3003 894 3003 1313 
Q 3003 1734 2745 1975 
Q 2488 2216 2034 2216 
z
M 1403 2484 
Q 997 2584 770 2862 
Q 544 3141 544 3541 
Q 544 4100 942 4425 
Q 1341 4750 2034 4750 
Q 2731 4750 3128 4425 
Q 3525 4100 3525 3541 
Q 3525 3141 3298 2862 
Q 3072 2584 2669 2484 
Q 3125 2378 3379 2068 
Q 3634 1759 3634 1313 
Q 3634 634 3220 271 
Q 2806 -91 2034 -91 
Q 1263 -91 848 271 
Q 434 634 434 1313 
Q 434 1759 690 2068 
Q 947 2378 1403 2484 
z
M 1172 3481 
Q 1172 3119 1398 2916 
Q 1625 2713 2034 2713 
Q 2441 2713 2670 2916 
Q 2900 3119 2900 3481 
Q 2900 3844 2670 4047 
Q 2441 4250 2034 4250 
Q 1625 4250 1398 4047 
Q 1172 3844 1172 3481 
z
" transform="scale(0.015625)"/>
       </defs>
       <use xlink:href="#DejaVuSans-38"/>
       <use xlink:href="#DejaVuSans-30" transform="translate(63.623047 0)"/>
      </g>
     </g>
    </g>
    <g id="ytick_3">
     <g id="line2d_21">
      <path d="M 51.68 178.277561 
L 709.2 178.277561 
" clip-path="url(#p2f62d01dfa)" style="fill: none; stroke: #30363d; stroke-opacity: 0.2; stroke-width: 0.8; stroke-linecap: square"/>
     </g>
     <g id="line2d_22">
      <g>
       <use xlink:href="#m97c104b5be" x="51.68" y="178.277561" style="fill: #c9d1d9; stroke: #c9d1d9; stroke-width: 0.8"/>
      </g>
     </g>
     <g id="text_12">
      <!-- 90 -->
      <g style="fill: #c9d1d9" transform="translate(31.955 182.07678) scale(0.1 -0.1)">
       <defs>
        <path id="DejaVuSans-39" d="M 703 97 
L 703 672 
Q 941 559 1184 500 
Q 1428 441 1663 441 
Q 2288 441 2617 861 
Q 2947 1281 2994 2138 
Q 2813 1869 2534 1725 
Q 2256 1581 1919 1581 
Q 1219 1581 811 2004 
Q 403 2428 403 3163 
Q 403 3881 828 4315 
Q 1253 4750 1959 4750 
Q 2769 4750 3195 4129 
Q 3622 3509 3622 2328 
Q 3622 1225 3098 567 
Q 2575 -91 1691 -91 
Q 1453 -91 1209 -44 
Q 966 3 703 97 
z
M 1959 2075 
Q 2384 2075 2632 2365 
Q 2881 2656 2881 3163 
Q 2881 3666 2632 3958 
Q 2384 4250 1959 4250 
Q 1534 4250 1286 3958 
Q 1038 3666 1038 3163 
Q 1038 2656 1286 2365 
Q 1534 2075 1959 2075 
z
" transform="scale(0.015625)"/>
       </defs>
       <use xlink:href="#DejaVuSans-39"/>
       <use xlink:href="#DejaVuSans-30" transform="translate(63.623047 0)"/>
      </g>
     </g>
    </g>
    <g id="ytick_4">
     <g id="line2d_23">
      <path d="M 51.68 130.332532 
L 709.2 130.332532 
" clip-path="url(#p2f62d01dfa)" style="fill: none; stroke: #30363d; stroke-opacity: 0.2; stroke-width: 0.8; stroke-linecap: square"/>
     </g>
     <g id="line2d_24">
      <g>
       <use xlink:href="#m97c104b5be" x="51.68" y="130.332532" style="fill: #c9d1d9; stroke: #c9d1d9; stroke-width: 0.8"/>
      </g>
     </g>
     <g id="text_13">
      <!-- 100 -->
      <g style="fill: #c9d1d9" transform="translate(25.5925 134.131751) scale(0.1 -0.1)">
       <defs>
        <path id="DejaVuSans-31" d="M 794 531 
L 1825 531 
L 1825 4091 
L 703 3866 
L 703 4441 
L 1819 4666 
L 2450 4666 
L 2450 531 
L 3481 531 
L 3481 0 
L 794 0 
L 794 531 
z
" transform="scale(0.015625)"/>
       </defs>
       <use xlink:href="#DejaVuSans-31"/>
       <use xlink:href="#DejaVuSans-30" transform="translate(63.623047 0)"/>
       <use xlink:href="#DejaVuSans-30" transform="translate(127.246094 0)"/>
      </g>
     </g>
    </g>
    <g id="ytick_5">
     <g id="line2d_25">
      <path d="M 51.68 82.387503 
L 709.2 82.387503 
" clip-path="url(#p2f62d01dfa)" style="fill: none; stroke: #30363d; stroke-opacity: 0.2; stroke-width: 0.8; stroke-linecap: square"/>
     </g>
     <g id="line2d_26">
      <g>
       <use xlink:href="#m97c104b5be" x="51.68" y="82.387503" style="fill: #c9d1d9; stroke: #c9d1d9; stroke-width: 0.8"/>
      </g>
     </g>
     <g id="text_14">
      <!-- 110 -->
      <g style="fill: #c9d1d9" transform="translate(25.5925 86.186722) scale(0.1 -0.1)">
       <use xlink:href="#DejaVuSans-31"/>
       <use xlink:href="#DejaVuSans-31" transform="translate(63.623047 0)"/>
       <use xlink:href="#DejaVuSans-30" transform="translate(127.246094 0)"/>
      </g>
     </g>
    </g>
    <g id="text_15">
     <!-- Count -->
     <g style="fill: #c9d1d9" transform="translate(19.304844 187.419088) rotate(-90) scale(0.11 -0.11)">
      <defs>
       <path id="DejaVuSans-43" d="M 4122 4306 
L 4122 3641 
Q 3803 3938 3442 4084 
Q 3081 4231 2675 4231 
Q 1875 4231 1450 3742 
Q 1025 3253 1025 2328 
Q 1025 1406 1450 917 
Q 1875 428 2675 428 
Q 3081 428 3442 575 
Q 3803 722 4122 1019 
L 4122 359 
Q 3791 134 3420 21 
Q 3050 -91 2638 -91 
Q 1578 -91 968 557 
Q 359 1206 359 2328 
Q 359 3453 968 4101 
Q 1578 4750 2638 4750 
Q 3056 4750 3426 4639 
Q 3797 4528 4122 4306 
z
" transform="scale(0.015625)"/>
       <path id="DejaVuSans-75" d="M 544 1381 
L 544 3500 
L 1119 3500 
L 1119 1403 
Q 1119 906 1312 657 
Q 1506 409 1894 409 
Q 2359 409 2629 706 
Q 2900 1003 2900 1516 
L 2900 3500 
L 3475 3500 
L 3475 0 
L 2900 0 
L 2900 538 
Q 2691 219 2414 64 
Q 2138 -91 1772 -91 
Q 1169 -91 856 284 
Q 544 659 544 1381 
z
M 1991 3584 
L 1991 3584 
z
" transform="scale(0.015625)"/>
      </defs>
      <use xlink:href="#DejaVuSans-43"/>
      <use xlink:href="#DejaVuSans-6f" transform="translate(69.824219 0)"/>
      <use xlink:href="#DejaVuSans-75" transform="translate(131.005859 0)"/>
      <use xlink:href="#DejaVuSans-6e" transform="translate(194.384766 0)"/>
      <use xlink:href="#DejaVuSans-74" transform="translate(257.763672 0)"/>
     </g>
    </g>
   </g>
   <g id="line2d_27">
    <path d="M 81.567273 293.345631 
L 165.363364 293.345631 
L 184.915786 259.784111 
L 187.708989 259.784111 
L 190.502192 254.989608 
L 198.881801 254.989608 
L 201.675004 259.784111 
L 243.57305 259.784111 
L 246.366253 254.989608 
L 257.539065 254.989608 
L 263.125472 245.400602 
L 277.091487 245.400602 
L 279.88469 240.606099 
L 285.471096 240.606099 
L 288.264299 235.811596 
L 299.437111 235.811596 
L 302.230314 231.017093 
L 310.609924 231.017093 
L 313.403127 226.22259 
L 324.575939 226.22259 
L 327.369142 211.839082 
L 332.955548 211.839082 
L 335.748751 207.044579 
L 358.094376 207.044579 
L 360.887579 202.250076 
L 363.680782 202.250076 
L 369.267188 197.455573 
L 372.060391 197.455573 
L 377.646797 187.866567 
L 386.026406 187.866567 
L 388.819609 149.510544 
L 419.544843 149.510544 
L 422.338046 144.716041 
L 430.717655 144.716041 
L 433.510858 139.921538 
L 436.304061 139.921538 
L 439.097264 135.127035 
L 483.788513 135.127035 
L 486.581716 101.565515 
L 503.340935 101.565515 
L 508.927341 91.976509 
L 525.686559 91.976509 
L 528.479762 87.182006 
L 531.272965 87.182006 
L 534.066168 82.387503 
L 542.445777 82.387503 
L 545.23898 77.593 
L 550.825387 77.593 
L 553.61859 72.798497 
L 556.411793 72.798497 
L 559.204996 68.003994 
L 567.584605 68.003994 
L 570.377808 63.209491 
L 595.516636 63.209491 
L 598.309839 58.414988 
L 620.655463 58.414988 
L 623.448666 53.620485 
L 626.241869 53.620485 
L 629.035072 58.414988 
L 637.414681 58.414988 
L 640.207884 53.620485 
L 651.380697 53.620485 
L 654.1739 48.825982 
L 679.312727 48.825982 
L 679.312727 48.825982 
" clip-path="url(#p2f62d01dfa)" style="fill: none; stroke: #3fb950; stroke-width: 2.5; stroke-linecap: square"/>
    <defs>
     <path id="m1e60014818" d="M 0 2.5 
C 0.663008 2.5 1.29895 2.236584 1.767767 1.767767 
C 2.236584 1.29895 2.5 0.663008 2.5 0 
C 2.5 -0.663008 2.236584 -1.29895 1.767767 -1.767767 
C 1.29895 -2.236584 0.663008 -2.5 0 -2.5 
C -0.663008 -2.5 -1.29895 -2.236584 -1.767767 -1.767767 
C -2.236584 -1.29895 -2.5 -0.663008 -2.5 0 
C -2.5 0.663008 -2.236584 1.29895 -1.767767 1.767767 
C -1.29895 2.236584 -0.663008 2.5 0 2.5 
z
" style="stroke: #3fb950"/>
    </defs>
    <g clip-path="url(#p2f62d01dfa)">
     <use xlink:href="#m1e60014818" x="81.567273" y="293.345631" style="fill: #3fb950; stroke: #3fb950"/>
     <use xlink:href="#m1e60014818" x="84.360476" y="293.345631" style="fill: #3fb950; stroke: #3fb950"/>
     <use xlink:href="#m1e60014818" x="87.153679" y="293.345631" style="fill: #3fb950; stroke: #3fb950"/>
     <use xlink:href="#m1e60014818" x="89.946882" y="293.345631" style="fill: #3fb950; stroke: #3fb950"/>
     <use xlink:href="#m1e60014818" x="92.740085" y="293.345631" style="fill: #3fb950; stroke: #3fb950"/>
     <use xlink:href="#m1e60014818" x="95.533288" y="293.345631" style="fill: #3fb950; stroke: #3fb950"/>
     <use xlink:href="#m1e60014818" x="98.326491" y="293.345631" style="fill: #3fb950; stroke: #3fb950"/>
     <use xlink:href="#m1e60014818" x="101.119694" y="293.345631" style="fill: #3fb950; stroke: #3fb950"/>
     <use xlink:href="#m1e60014818" x="103.912897" y="293.345631" style="fill: #3fb950; stroke: #3fb950"/>
     <use xlink:href="#m1e60014818" x="106.7061" y="293.345631" style="fill: #3fb950; stroke: #3fb950"/>
     <use xlink:href="#m1e60014818" x="109.499303" y="293.345631" style="fill: #3fb950; stroke: #3fb950"/>
     <use xlink:href="#m1e60014818" x="112.292506" y="293.345631" style="fill: #3fb950; stroke: #3fb950"/>
     <use xlink:href="#m1e60014818" x="115.085709" y="293.345631" style="fill: #3fb950; stroke: #3fb950"/>
     <use xlink:href="#m1e60014818" x="117.878912" y="293.345631" style="fill: #3fb950; stroke: #3fb950"/>
     <use xlink:href="#m1e60014818" x="120.672116" y="293.345631" style="fill: #3fb950; stroke: #3fb950"/>
     <use xlink:href="#m1e60014818" x="123.465319" y="293.345631" style="fill: #3fb950; stroke: #3fb950"/>
     <use xlink:href="#m1e60014818" x="126.258522" y="293.345631" style="fill: #3fb950; stroke: #3fb950"/>
     <use xlink:href="#m1e60014818" x="129.051725" y="293.345631" style="fill: #3fb950; stroke: #3fb950"/>
     <use xlink:href="#m1e60014818" x="131.844928" y="293.345631" style="fill: #3fb950; stroke: #3fb950"/>
     <use xlink:href="#m1e60014818" x="134.638131" y="293.345631" style="fill: #3fb950; stroke: #3fb950"/>
     <use xlink:href="#m1e60014818" x="137.431334" y="293.345631" style="fill: #3fb950; stroke: #3fb950"/>
     <use xlink:href="#m1e60014818" x="140.224537" y="293.345631" style="fill: #3fb950; stroke: #3fb950"/>
     <use xlink:href="#m1e60014818" x="143.01774" y="293.345631" style="fill: #3fb950; stroke: #3fb950"/>
     <use xlink:href="#m1e60014818" x="145.810943" y="293.345631" style="fill: #3fb950; stroke: #3fb950"/>
     <use xlink:href="#m1e60014818" x="148.604146" y="293.345631" style="fill: #3fb950; stroke: #3fb950"/>
     <use xlink:href="#m1e60014818" x="151.397349" y="293.345631" style="fill: #3fb950; stroke: #3fb950"/>
     <use xlink:href="#m1e60014818" x="154.190552" y="293.345631" style="fill: #3fb950; stroke: #3fb950"/>
     <use xlink:href="#m1e60014818" x="156.983755" y="293.345631" style="fill: #3fb950; stroke: #3fb950"/>
     <use xlink:href="#m1e60014818" x="159.776958" y="293.345631" style="fill: #3fb950; stroke: #3fb950"/>
     <use xlink:href="#m1e60014818" x="162.570161" y="293.345631" style="fill: #3fb950; stroke: #3fb950"/>
     <use xlink:href="#m1e60014818" x="165.363364" y="293.345631" style="fill: #3fb950; stroke: #3fb950"/>
     <use xlink:href="#m1e60014818" x="184.915786" y="259.784111" style="fill: #3fb950; stroke: #3fb950"/>
     <use xlink:href="#m1e60014818" x="187.708989" y="259.784111" style="fill: #3fb950; stroke: #3fb950"/>
     <use xlink:href="#m1e60014818" x="190.502192" y="254.989608" style="fill: #3fb950; stroke: #3fb950"/>
     <use xlink:href="#m1e60014818" x="193.295395" y="254.989608" style="fill: #3fb950; stroke: #3fb950"/>
     <use xlink:href="#m1e60014818" x="196.088598" y="254.989608" style="fill: #3fb950; stroke: #3fb950"/>
     <use xlink:href="#m1e60014818" x="198.881801" y="254.989608" style="fill: #3fb950; stroke: #3fb950"/>
     <use xlink:href="#m1e60014818" x="201.675004" y="259.784111" style="fill: #3fb950; stroke: #3fb950"/>
     <use xlink:href="#m1e60014818" x="204.468207" y="259.784111" style="fill: #3fb950; stroke: #3fb950"/>
     <use xlink:href="#m1e60014818" x="207.26141" y="259.784111" style="fill: #3fb950; stroke: #3fb950"/>
     <use xlink:href="#m1e60014818" x="210.054613" y="259.784111" style="fill: #3fb950; stroke: #3fb950"/>
     <use xlink:href="#m1e60014818" x="212.847816" y="259.784111" style="fill: #3fb950; stroke: #3fb950"/>
     <use xlink:href="#m1e60014818" x="215.64102" y="259.784111" style="fill: #3fb950; stroke: #3fb950"/>
     <use xlink:href="#m1e60014818" x="218.434223" y="259.784111" style="fill: #3fb950; stroke: #3fb950"/>
     <use xlink:href="#m1e60014818" x="221.227426" y="259.784111" style="fill: #3fb950; stroke: #3fb950"/>
     <use xlink:href="#m1e60014818" x="224.020629" y="259.784111" style="fill: #3fb950; stroke: #3fb950"/>
     <use xlink:href="#m1e60014818" x="226.813832" y="259.784111" style="fill: #3fb950; stroke: #3fb950"/>
     <use xlink:href="#m1e60014818" x="229.607035" y="259.784111" style="fill: #3fb950; stroke: #3fb950"/>
     <use xlink:href="#m1e60014818" x="232.400238" y="259.784111" style="fill: #3fb950; stroke: #3fb950"/>
     <use xlink:href="#m1e60014818" x="235.193441" y="259.784111" style="fill: #3fb950; stroke: #3fb950"/>
     <use xlink:href="#m1e60014818" x="237.986644" y="259.784111" style="fill: #3fb950; stroke: #3fb950"/>
     <use xlink:href="#m1e60014818" x="240.779847" y="259.784111" style="fill: #3fb950; stroke: #3fb950"/>
     <use xlink:href="#m1e60014818" x="243.57305" y="259.784111" style="fill: #3fb950; stroke: #3fb950"/>
     <use xlink:href="#m1e60014818" x="246.366253" y="254.989608" style="fill: #3fb950; stroke: #3fb950"/>
     <use xlink:href="#m1e60014818" x="249.159456" y="254.989608" style="fill: #3fb950; stroke: #3fb950"/>
     <use xlink:href="#m1e60014818" x="251.952659" y="254.989608" style="fill: #3fb950; stroke: #3fb950"/>
     <use xlink:href="#m1e60014818" x="254.745862" y="254.989608" style="fill: #3fb950; stroke: #3fb950"/>
     <use xlink:href="#m1e60014818" x="257.539065" y="254.989608" style="fill: #3fb950; stroke: #3fb950"/>
     <use xlink:href="#m1e60014818" x="260.332268" y="250.195105" style="fill: #3fb950; stroke: #3fb950"/>
     <use xlink:href="#m1e60014818" x="263.125472" y="245.400602" style="fill: #3fb950; stroke: #3fb950"/>
     <use xlink:href="#m1e60014818" x="265.918675" y="245.400602" style="fill: #3fb950; stroke: #3fb950"/>
     <use xlink:href="#m1e60014818" x="268.711878" y="245.400602" style="fill: #3fb950; stroke: #3fb950"/>
     <use xlink:href="#m1e60014818" x="271.505081" y="245.400602" style="fill: #3fb950; stroke: #3fb950"/>
     <use xlink:href="#m1e60014818" x="274.298284" y="245.400602" style="fill: #3fb950; stroke: #3fb950"/>
     <use xlink:href="#m1e60014818" x="277.091487" y="245.400602" style="fill: #3fb950; stroke: #3fb950"/>
     <use xlink:href="#m1e60014818" x="279.88469" y="240.606099" style="fill: #3fb950; stroke: #3fb950"/>
     <use xlink:href="#m1e60014818" x="282.677893" y="240.606099" style="fill: #3fb950; stroke: #3fb950"/>
     <use xlink:href="#m1e60014818" x="285.471096" y="240.606099" style="fill: #3fb950; stroke: #3fb950"/>
     <use xlink:href="#m1e60014818" x="288.264299" y="235.811596" style="fill: #3fb950; stroke: #3fb950"/>
     <use xlink:href="#m1e60014818" x="291.057502" y="235.811596" style="fill: #3fb950; stroke: #3fb950"/>
     <use xlink:href="#m1e60014818" x="293.850705" y="235.811596" style="fill: #3fb950; stroke: #3fb950"/>
     <use xlink:href="#m1e60014818" x="296.643908" y="235.811596" style="fill: #3fb950; stroke: #3fb950"/>
     <use xlink:href="#m1e60014818" x="299.437111" y="235.811596" style="fill: #3fb950; stroke: #3fb950"/>
     <use xlink:href="#m1e60014818" x="302.230314" y="231.017093" style="fill: #3fb950; stroke: #3fb950"/>
     <use xlink:href="#m1e60014818" x="305.023517" y="231.017093" style="fill: #3fb950; stroke: #3fb950"/>
     <use xlink:href="#m1e60014818" x="307.81672" y="231.017093" style="fill: #3fb950; stroke: #3fb950"/>
     <use xlink:href="#m1e60014818" x="310.609924" y="231.017093" style="fill: #3fb950; stroke: #3fb950"/>
     <use xlink:href="#m1e60014818" x="313.403127" y="226.22259" style="fill: #3fb950; stroke: #3fb950"/>
     <use xlink:href="#m1e60014818" x="316.19633" y="226.22259" style="fill: #3fb950; stroke: #3fb950"/>
     <use xlink:href="#m1e60014818" x="318.989533" y="226.22259" style="fill: #3fb950; stroke: #3fb950"/>
     <use xlink:href="#m1e60014818" x="321.782736" y="226.22259" style="fill: #3fb950; stroke: #3fb950"/>
     <use xlink:href="#m1e60014818" x="324.575939" y="226.22259" style="fill: #3fb950; stroke: #3fb950"/>
     <use xlink:href="#m1e60014818" x="327.369142" y="211.839082" style="fill: #3fb950; stroke: #3fb950"/>
     <use xlink:href="#m1e60014818" x="330.162345" y="211.839082" style="fill: #3fb950; stroke: #3fb950"/>
     <use xlink:href="#m1e60014818" x="332.955548" y="211.839082" style="fill: #3fb950; stroke: #3fb950"/>
     <use xlink:href="#m1e60014818" x="335.748751" y="207.044579" style="fill: #3fb950; stroke: #3fb950"/>
     <use xlink:href="#m1e60014818" x="338.541954" y="207.044579" style="fill: #3fb950; stroke: #3fb950"/>
     <use xlink:href="#m1e60014818" x="341.335157" y="207.044579" style="fill: #3fb950; stroke: #3fb950"/>
     <use xlink:href="#m1e60014818" x="344.12836" y="207.044579" style="fill: #3fb950; stroke: #3fb950"/>
     <use xlink:href="#m1e60014818" x="346.921563" y="207.044579" style="fill: #3fb950; stroke: #3fb950"/>
     <use xlink:href="#m1e60014818" x="349.714766" y="207.044579" style="fill: #3fb950; stroke: #3fb950"/>
     <use xlink:href="#m1e60014818" x="352.507969" y="207.044579" style="fill: #3fb950; stroke: #3fb950"/>
     <use xlink:href="#m1e60014818" x="355.301172" y="207.044579" style="fill: #3fb950; stroke: #3fb950"/>
     <use xlink:href="#m1e60014818" x="358.094376" y="207.044579" style="fill: #3fb950; stroke: #3fb950"/>
     <use xlink:href="#m1e60014818" x="360.887579" y="202.250076" style="fill: #3fb950; stroke: #3fb950"/>
     <use xlink:href="#m1e60014818" x="363.680782" y="202.250076" style="fill: #3fb950; stroke: #3fb950"/>
     <use xlink:href="#m1e60014818" x="369.267188" y="197.455573" style="fill: #3fb950; stroke: #3fb950"/>
     <use xlink:href="#m1e60014818" x="372.060391" y="197.455573" style="fill: #3fb950; stroke: #3fb950"/>
     <use xlink:href="#m1e60014818" x="374.853594" y="192.66107" style="fill: #3fb950; stroke: #3fb950"/>
     <use xlink:href="#m1e60014818" x="377.646797" y="187.866567" style="fill: #3fb950; stroke: #3fb950"/>
     <use xlink:href="#m1e60014818" x="380.44" y="187.866567" style="fill: #3fb950; stroke: #3fb950"/>
     <use xlink:href="#m1e60014818" x="383.233203" y="187.866567" style="fill: #3fb950; stroke: #3fb950"/>
     <use xlink:href="#m1e60014818" x="386.026406" y="187.866567" style="fill: #3fb950; stroke: #3fb950"/>
     <use xlink:href="#m1e60014818" x="388.819609" y="149.510544" style="fill: #3fb950; stroke: #3fb950"/>
     <use xlink:href="#m1e60014818" x="391.612812" y="149.510544" style="fill: #3fb950; stroke: #3fb950"/>
     <use xlink:href="#m1e60014818" x="394.406015" y="149.510544" style="fill: #3fb950; stroke: #3fb950"/>
     <use xlink:href="#m1e60014818" x="397.199218" y="149.510544" style="fill: #3fb950; stroke: #3fb950"/>
     <use xlink:href="#m1e60014818" x="399.992421" y="149.510544" style="fill: #3fb950; stroke: #3fb950"/>
     <use xlink:href="#m1e60014818" x="402.785624" y="149.510544" style="fill: #3fb950; stroke: #3fb950"/>
     <use xlink:href="#m1e60014818" x="405.578828" y="149.510544" style="fill: #3fb950; stroke: #3fb950"/>
     <use xlink:href="#m1e60014818" x="408.372031" y="149.510544" style="fill: #3fb950; stroke: #3fb950"/>
     <use xlink:href="#m1e60014818" x="411.165234" y="149.510544" style="fill: #3fb950; stroke: #3fb950"/>
     <use xlink:href="#m1e60014818" x="413.958437" y="149.510544" style="fill: #3fb950; stroke: #3fb950"/>
     <use xlink:href="#m1e60014818" x="416.75164" y="149.510544" style="fill: #3fb950; stroke: #3fb950"/>
     <use xlink:href="#m1e60014818" x="419.544843" y="149.510544" style="fill: #3fb950; stroke: #3fb950"/>
     <use xlink:href="#m1e60014818" x="422.338046" y="144.716041" style="fill: #3fb950; stroke: #3fb950"/>
     <use xlink:href="#m1e60014818" x="425.131249" y="144.716041" style="fill: #3fb950; stroke: #3fb950"/>
     <use xlink:href="#m1e60014818" x="427.924452" y="144.716041" style="fill: #3fb950; stroke: #3fb950"/>
     <use xlink:href="#m1e60014818" x="430.717655" y="144.716041" style="fill: #3fb950; stroke: #3fb950"/>
     <use xlink:href="#m1e60014818" x="433.510858" y="139.921538" style="fill: #3fb950; stroke: #3fb950"/>
     <use xlink:href="#m1e60014818" x="436.304061" y="139.921538" style="fill: #3fb950; stroke: #3fb950"/>
     <use xlink:href="#m1e60014818" x="439.097264" y="135.127035" style="fill: #3fb950; stroke: #3fb950"/>
     <use xlink:href="#m1e60014818" x="441.890467" y="135.127035" style="fill: #3fb950; stroke: #3fb950"/>
     <use xlink:href="#m1e60014818" x="444.68367" y="135.127035" style="fill: #3fb950; stroke: #3fb950"/>
     <use xlink:href="#m1e60014818" x="447.476873" y="135.127035" style="fill: #3fb950; stroke: #3fb950"/>
     <use xlink:href="#m1e60014818" x="450.270076" y="135.127035" style="fill: #3fb950; stroke: #3fb950"/>
     <use xlink:href="#m1e60014818" x="453.06328" y="135.127035" style="fill: #3fb950; stroke: #3fb950"/>
     <use xlink:href="#m1e60014818" x="455.856483" y="135.127035" style="fill: #3fb950; stroke: #3fb950"/>
     <use xlink:href="#m1e60014818" x="458.649686" y="135.127035" style="fill: #3fb950; stroke: #3fb950"/>
     <use xlink:href="#m1e60014818" x="461.442889" y="135.127035" style="fill: #3fb950; stroke: #3fb950"/>
     <use xlink:href="#m1e60014818" x="464.236092" y="135.127035" style="fill: #3fb950; stroke: #3fb950"/>
     <use xlink:href="#m1e60014818" x="467.029295" y="135.127035" style="fill: #3fb950; stroke: #3fb950"/>
     <use xlink:href="#m1e60014818" x="469.822498" y="135.127035" style="fill: #3fb950; stroke: #3fb950"/>
     <use xlink:href="#m1e60014818" x="472.615701" y="135.127035" style="fill: #3fb950; stroke: #3fb950"/>
     <use xlink:href="#m1e60014818" x="475.408904" y="135.127035" style="fill: #3fb950; stroke: #3fb950"/>
     <use xlink:href="#m1e60014818" x="478.202107" y="135.127035" style="fill: #3fb950; stroke: #3fb950"/>
     <use xlink:href="#m1e60014818" x="480.99531" y="135.127035" style="fill: #3fb950; stroke: #3fb950"/>
     <use xlink:href="#m1e60014818" x="483.788513" y="135.127035" style="fill: #3fb950; stroke: #3fb950"/>
     <use xlink:href="#m1e60014818" x="486.581716" y="101.565515" style="fill: #3fb950; stroke: #3fb950"/>
     <use xlink:href="#m1e60014818" x="489.374919" y="101.565515" style="fill: #3fb950; stroke: #3fb950"/>
     <use xlink:href="#m1e60014818" x="492.168122" y="101.565515" style="fill: #3fb950; stroke: #3fb950"/>
     <use xlink:href="#m1e60014818" x="494.961325" y="101.565515" style="fill: #3fb950; stroke: #3fb950"/>
     <use xlink:href="#m1e60014818" x="497.754528" y="101.565515" style="fill: #3fb950; stroke: #3fb950"/>
     <use xlink:href="#m1e60014818" x="500.547732" y="101.565515" style="fill: #3fb950; stroke: #3fb950"/>
     <use xlink:href="#m1e60014818" x="503.340935" y="101.565515" style="fill: #3fb950; stroke: #3fb950"/>
     <use xlink:href="#m1e60014818" x="506.134138" y="96.771012" style="fill: #3fb950; stroke: #3fb950"/>
     <use xlink:href="#m1e60014818" x="508.927341" y="91.976509" style="fill: #3fb950; stroke: #3fb950"/>
     <use xlink:href="#m1e60014818" x="511.720544" y="91.976509" style="fill: #3fb950; stroke: #3fb950"/>
     <use xlink:href="#m1e60014818" x="514.513747" y="91.976509" style="fill: #3fb950; stroke: #3fb950"/>
     <use xlink:href="#m1e60014818" x="517.30695" y="91.976509" style="fill: #3fb950; stroke: #3fb950"/>
     <use xlink:href="#m1e60014818" x="520.100153" y="91.976509" style="fill: #3fb950; stroke: #3fb950"/>
     <use xlink:href="#m1e60014818" x="522.893356" y="91.976509" style="fill: #3fb950; stroke: #3fb950"/>
     <use xlink:href="#m1e60014818" x="525.686559" y="91.976509" style="fill: #3fb950; stroke: #3fb950"/>
     <use xlink:href="#m1e60014818" x="528.479762" y="87.182006" style="fill: #3fb950; stroke: #3fb950"/>
     <use xlink:href="#m1e60014818" x="531.272965" y="87.182006" style="fill: #3fb950; stroke: #3fb950"/>
     <use xlink:href="#m1e60014818" x="534.066168" y="82.387503" style="fill: #3fb950; stroke: #3fb950"/>
     <use xlink:href="#m1e60014818" x="536.859371" y="82.387503" style="fill: #3fb950; stroke: #3fb950"/>
     <use xlink:href="#m1e60014818" x="539.652574" y="82.387503" style="fill: #3fb950; stroke: #3fb950"/>
     <use xlink:href="#m1e60014818" x="542.445777" y="82.387503" style="fill: #3fb950; stroke: #3fb950"/>
     <use xlink:href="#m1e60014818" x="545.23898" y="77.593" style="fill: #3fb950; stroke: #3fb950"/>
     <use xlink:href="#m1e60014818" x="548.032184" y="77.593" style="fill: #3fb950; stroke: #3fb950"/>
     <use xlink:href="#m1e60014818" x="550.825387" y="77.593" style="fill: #3fb950; stroke: #3fb950"/>
     <use xlink:href="#m1e60014818" x="553.61859" y="72.798497" style="fill: #3fb950; stroke: #3fb950"/>
     <use xlink:href="#m1e60014818" x="556.411793" y="72.798497" style="fill: #3fb950; stroke: #3fb950"/>
     <use xlink:href="#m1e60014818" x="559.204996" y="68.003994" style="fill: #3fb950; stroke: #3fb950"/>
     <use xlink:href="#m1e60014818" x="561.998199" y="68.003994" style="fill: #3fb950; stroke: #3fb950"/>
     <use xlink:href="#m1e60014818" x="564.791402" y="68.003994" style="fill: #3fb950; stroke: #3fb950"/>
     <use xlink:href="#m1e60014818" x="567.584605" y="68.003994" style="fill: #3fb950; stroke: #3fb950"/>
     <use xlink:href="#m1e60014818" x="570.377808" y="63.209491" style="fill: #3fb950; stroke: #3fb950"/>
     <use xlink:href="#m1e60014818" x="573.171011" y="63.209491" style="fill: #3fb950; stroke: #3fb950"/>
     <use xlink:href="#m1e60014818" x="575.964214" y="63.209491" style="fill: #3fb950; stroke: #3fb950"/>
     <use xlink:href="#m1e60014818" x="578.757417" y="63.209491" style="fill: #3fb950; stroke: #3fb950"/>
     <use xlink:href="#m1e60014818" x="581.55062" y="63.209491" style="fill: #3fb950; stroke: #3fb950"/>
     <use xlink:href="#m1e60014818" x="584.343823" y="63.209491" style="fill: #3fb950; stroke: #3fb950"/>
     <use xlink:href="#m1e60014818" x="587.137026" y="63.209491" style="fill: #3fb950; stroke: #3fb950"/>
     <use xlink:href="#m1e60014818" x="589.930229" y="63.209491" style="fill: #3fb950; stroke: #3fb950"/>
     <use xlink:href="#m1e60014818" x="592.723432" y="63.209491" style="fill: #3fb950; stroke: #3fb950"/>
     <use xlink:href="#m1e60014818" x="595.516636" y="63.209491" style="fill: #3fb950; stroke: #3fb950"/>
     <use xlink:href="#m1e60014818" x="598.309839" y="58.414988" style="fill: #3fb950; stroke: #3fb950"/>
     <use xlink:href="#m1e60014818" x="601.103042" y="58.414988" style="fill: #3fb950; stroke: #3fb950"/>
     <use xlink:href="#m1e60014818" x="603.896245" y="58.414988" style="fill: #3fb950; stroke: #3fb950"/>
     <use xlink:href="#m1e60014818" x="606.689448" y="58.414988" style="fill: #3fb950; stroke: #3fb950"/>
     <use xlink:href="#m1e60014818" x="609.482651" y="58.414988" style="fill: #3fb950; stroke: #3fb950"/>
     <use xlink:href="#m1e60014818" x="612.275854" y="58.414988" style="fill: #3fb950; stroke: #3fb950"/>
     <use xlink:href="#m1e60014818" x="615.069057" y="58.414988" style="fill: #3fb950; stroke: #3fb950"/>
     <use xlink:href="#m1e60014818" x="617.86226" y="58.414988" style="fill: #3fb950; stroke: #3fb950"/>
     <use xlink:href="#m1e60014818" x="620.655463" y="58.414988" style="fill: #3fb950; stroke: #3fb950"/>
     <use xlink:href="#m1e60014818" x="623.448666" y="53.620485" style="fill: #3fb950; stroke: #3fb950"/>
     <use xlink:href="#m1e60014818" x="626.241869" y="53.620485" style="fill: #3fb950; stroke: #3fb950"/>
     <use xlink:href="#m1e60014818" x="629.035072" y="58.414988" style="fill: #3fb950; stroke: #3fb950"/>
     <use xlink:href="#m1e60014818" x="631.828275" y="58.414988" style="fill: #3fb950; stroke: #3fb950"/>
     <use xlink:href="#m1e60014818" x="634.621478" y="58.414988" style="fill: #3fb950; stroke: #3fb950"/>
     <use xlink:href="#m1e60014818" x="637.414681" y="58.414988" style="fill: #3fb950; stroke: #3fb950"/>
     <use xlink:href="#m1e60014818" x="640.207884" y="53.620485" style="fill: #3fb950; stroke: #3fb950"/>
     <use xlink:href="#m1e60014818" x="643.001088" y="53.620485" style="fill: #3fb950; stroke: #3fb950"/>
     <use xlink:href="#m1e60014818" x="645.794291" y="53.620485" style="fill: #3fb950; stroke: #3fb950"/>
     <use xlink:href="#m1e60014818" x="648.587494" y="53.620485" style="fill: #3fb950; stroke: #3fb950"/>
     <use xlink:href="#m1e60014818" x="651.380697" y="53.620485" style="fill: #3fb950; stroke: #3fb950"/>
     <use xlink:href="#m1e60014818" x="654.1739" y="48.825982" style="fill: #3fb950; stroke: #3fb950"/>
     <use xlink:href="#m1e60014818" x="656.967103" y="48.825982" style="fill: #3fb950; stroke: #3fb950"/>
     <use xlink:href="#m1e60014818" x="659.760306" y="48.825982" style="fill: #3fb950; stroke: #3fb950"/>
     <use xlink:href="#m1e60014818" x="662.553509" y="48.825982" style="fill: #3fb950; stroke: #3fb950"/>
     <use xlink:href="#m1e60014818" x="665.346712" y="48.825982" style="fill: #3fb950; stroke: #3fb950"/>
     <use xlink:href="#m1e60014818" x="668.139915" y="48.825982" style="fill: #3fb950; stroke: #3fb950"/>
     <use xlink:href="#m1e60014818" x="670.933118" y="48.825982" style="fill: #3fb950; stroke: #3fb950"/>
     <use xlink:href="#m1e60014818" x="673.726321" y="48.825982" style="fill: #3fb950; stroke: #3fb950"/>
     <use xlink:href="#m1e60014818" x="676.519524" y="48.825982" style="fill: #3fb950; stroke: #3fb950"/>
     <use xlink:href="#m1e60014818" x="679.312727" y="48.825982" style="fill: #3fb950; stroke: #3fb950"/>
    </g>
   </g>
   <g id="patch_3">
    <path d="M 51.68 305.571614 
L 51.68 36.6 
" style="fill: none; stroke: #30363d; stroke-width: 0.8; stroke-linejoin: miter; stroke-linecap: square"/>
   </g>
   <g id="patch_4">
    <path d="M 709.2 305.571614 
L 709.2 36.6 
" style="fill: none; stroke: #30363d; stroke-width: 0.8; stroke-linejoin: miter; stroke-linecap: square"/>
   </g>
   <g id="patch_5">
    <path d="M 51.68 305.571614 
L 709.2 305.571614 
" style="fill: none; stroke: #30363d; stroke-width: 0.8; stroke-linejoin: miter; stroke-linecap: square"/>
   </g>
   <g id="patch_6">
    <path d="M 51.68 36.6 
L 709.2 36.6 
" style="fill: none; stroke: #30363d; stroke-width: 0.8; stroke-linejoin: miter; stroke-linecap: square"/>
   </g>
   <g id="text_16">
    <g id="patch_7">
     <path d="M 626.54335 63.994518 
L 696.0496 63.994518 
Q 699.3496 63.994518 699.3496 60.694518 
L 699.3496 50.048581 
Q 699.3496 46.748581 696.0496 46.748581 
L 626.54335 46.748581 
Q 623.24335 46.748581 623.24335 50.048581 
L 623.24335 60.694518 
Q 623.24335 63.994518 626.54335 63.994518 
z
" style="fill: #30363d; opacity: 0.8; stroke: #3fb950; stroke-linejoin: miter"/>
    </g>
    <!-- Current: 117 -->
    <g style="fill: #c9d1d9" transform="translate(626.54335 58.406862) scale(0.11 -0.11)">
     <defs>
      <path id="DejaVuSans-3a" d="M 750 794 
L 1409 794 
L 1409 0 
L 750 0 
L 750 794 
z
M 750 3309 
L 1409 3309 
L 1409 2516 
L 750 2516 
L 750 3309 
z
" transform="scale(0.015625)"/>
      <path id="DejaVuSans-20" transform="scale(0.015625)"/>
     </defs>
     <use xlink:href="#DejaVuSans-43"/>
     <use xlink:href="#DejaVuSans-75" transform="translate(69.824219 0)"/>
     <use xlink:href="#DejaVuSans-72" transform="translate(133.203125 0)"/>
     <use xlink:href="#DejaVuSans-72" transform="translate(172.566406 0)"/>
     <use xlink:href="#DejaVuSans-65" transform="translate(211.429688 0)"/>
     <use xlink:href="#DejaVuSans-6e" transform="translate(272.953125 0)"/>
     <use xlink:href="#DejaVuSans-74" transform="translate(336.332031 0)"/>
     <use xlink:href="#DejaVuSans-3a" transform="translate(375.541016 0)"/>
     <use xlink:href="#DejaVuSans-20" transform="translate(409.232422 0)"/>
     <use xlink:href="#DejaVuSans-31" transform="translate(441.019531 0)"/>
     <use xlink:href="#DejaVuSans-31" transform="translate(504.642578 0)"/>
     <use xlink:href="#DejaVuSans-37" transform="translate(568.265625 0)"/>
    </g>
   </g>
   <g id="text_17">
    <!-- Total Repository Stars -->
    <g style="fill: #c9d1d9" transform="translate(293.017656 21.6) scale(0.14 -0.14)">
     <defs>
      <path id="DejaVuSans-Bold-54" d="M 31 4666 
L 4331 4666 
L 4331 3756 
L 2784 3756 
L 2784 0 
L 1581 0 
L 1581 3756 
L 31 3756 
L 31 4666 
z
" transform="scale(0.015625)"/>
      <path id="DejaVuSans-Bold-6f" d="M 2203 2784 
Q 1831 2784 1636 2517 
Q 1441 2250 1441 1747 
Q 1441 1244 1636 976 
Q 1831 709 2203 709 
Q 2569 709 2762 976 
Q 2956 1244 2956 1747 
Q 2956 2250 2762 2517 
Q 2569 2784 2203 2784 
z
M 2203 3584 
Q 3106 3584 3614 3096 
Q 4122 2609 4122 1747 
Q 4122 884 3614 396 
Q 3106 -91 2203 -91 
Q 1297 -91 786 396 
Q 275 884 275 1747 
Q 275 2609 786 3096 
Q 1297 3584 2203 3584 
z
" transform="scale(0.015625)"/>
      <path id="DejaVuSans-Bold-74" d="M 1759 4494 
L 1759 3500 
L 2913 3500 
L 2913 2700 
L 1759 2700 
L 1759 1216 
Q 1759 972 1856 886 
Q 1953 800 2241 800 
L 2816 800 
L 2816 0 
L 1856 0 
Q 1194 0 917 276 
Q 641 553 641 1216 
L 641 2700 
L 84 2700 
L 84 3500 
L 641 3500 
L 641 4494 
L 1759 4494 
z
" transform="scale(0.015625)"/>
      <path id="DejaVuSans-Bold-61" d="M 2106 1575 
Q 1756 1575 1579 1456 
Q 1403 1338 1403 1106 
Q 1403 894 1545 773 
Q 1688 653 1941 653 
Q 2256 653 2472 879 
Q 2688 1106 2688 1447 
L 2688 1575 
L 2106 1575 
z
M 3816 1997 
L 3816 0 
L 2688 0 
L 2688 519 
Q 2463 200 2181 54 
Q 1900 -91 1497 -91 
Q 953 -91 614 226 
Q 275 544 275 1050 
Q 275 1666 698 1953 
Q 1122 2241 2028 2241 
L 2688 2241 
L 2688 2328 
Q 2688 2594 2478 2717 
Q 2269 2841 1825 2841 
Q 1466 2841 1156 2769 
Q 847 2697 581 2553 
L 581 3406 
Q 941 3494 1303 3539 
Q 1666 3584 2028 3584 
Q 2975 3584 3395 3211 
Q 3816 2838 3816 1997 
z
" transform="scale(0.015625)"/>
      <path id="DejaVuSans-Bold-6c" d="M 538 4863 
L 1656 4863 
L 1656 0 
L 538 0 
L 538 4863 
z
" transform="scale(0.015625)"/>
      <path id="DejaVuSans-Bold-20" transform="scale(0.015625)"/>
      <path id="DejaVuSans-Bold-52" d="M 2297 2597 
Q 2675 2597 2839 2737 
Q 3003 2878 3003 3200 
Q 3003 3519 2839 3656 
Q 2675 3794 2297 3794 
L 1791 3794 
L 1791 2597 
L 2297 2597 
z
M 1791 1766 
L 1791 0 
L 588 0 
L 588 4666 
L 2425 4666 
Q 3347 4666 3776 4356 
Q 4206 4047 4206 3378 
Q 4206 2916 3982 2619 
Q 3759 2322 3309 2181 
Q 3556 2125 3751 1926 
Q 3947 1728 4147 1325 
L 4800 0 
L 3519 0 
L 2950 1159 
Q 2778 1509 2601 1637 
Q 2425 1766 2131 1766 
L 1791 1766 
z
" transform="scale(0.015625)"/>
      <path id="DejaVuSans-Bold-65" d="M 4031 1759 
L 4031 1441 
L 1416 1441 
Q 1456 1047 1700 850 
Q 1944 653 2381 653 
Q 2734 653 3104 758 
Q 3475 863 3866 1075 
L 3866 213 
Q 3469 63 3072 -14 
Q 2675 -91 2278 -91 
Q 1328 -91 801 392 
Q 275 875 275 1747 
Q 275 2603 792 3093 
Q 1309 3584 2216 3584 
Q 3041 3584 3536 3087 
Q 4031 2591 4031 1759 
z
M 2881 2131 
Q 2881 2450 2695 2645 
Q 2509 2841 2209 2841 
Q 1884 2841 1681 2658 
Q 1478 2475 1428 2131 
L 2881 2131 
z
" transform="scale(0.015625)"/>
      <path id="DejaVuSans-Bold-70" d="M 1656 506 
L 1656 -1331 
L 538 -1331 
L 538 3500 
L 1656 3500 
L 1656 2988 
Q 1888 3294 2169 3439 
Q 2450 3584 2816 3584 
Q 3463 3584 3878 3070 
Q 4294 2556 4294 1747 
Q 4294 938 3878 423 
Q 3463 -91 2816 -91 
Q 2450 -91 2169 54 
Q 1888 200 1656 506 
z
M 2400 2772 
Q 2041 2772 1848 2508 
Q 1656 2244 1656 1747 
Q 1656 1250 1848 986 
Q 2041 722 2400 722 
Q 2759 722 2948 984 
Q 3138 1247 3138 1747 
Q 3138 2247 2948 2509 
Q 2759 2772 2400 2772 
z
" transform="scale(0.015625)"/>
      <path id="DejaVuSans-Bold-73" d="M 3272 3391 
L 3272 2541 
Q 2913 2691 2578 2766 
Q 2244 2841 1947 2841 
Q 1628 2841 1473 2761 
Q 1319 2681 1319 2516 
Q 1319 2381 1436 2309 
Q 1553 2238 1856 2203 
L 2053 2175 
Q 2913 2066 3209 1816 
Q 3506 1566 3506 1031 
Q 3506 472 3093 190 
Q 2681 -91 1863 -91 
Q 1516 -91 1145 -36 
Q 775 19 384 128 
L 384 978 
Q 719 816 1070 734 
Q 1422 653 1784 653 
Q 2113 653 2278 743 
Q 2444 834 2444 1013 
Q 2444 1163 2330 1236 
Q 2216 1309 1875 1350 
L 1678 1375 
Q 931 1469 631 1722 
Q 331 1975 331 2491 
Q 331 3047 712 3315 
Q 1094 3584 1881 3584 
Q 2191 3584 2531 3537 
Q 2872 3491 3272 3391 
z
" transform="scale(0.015625)"/>
      <path id="DejaVuSans-Bold-69" d="M 538 3500 
L 1656 3500 
L 1656 0 
L 538 0 
L 538 3500 
z
M 538 4863 
L 1656 4863 
L 1656 3950 
L 538 3950 
L 538 4863 
z
" transform="scale(0.015625)"/>
      <path id="DejaVuSans-Bold-72" d="M 3138 2547 
Q 2991 2616 2845 2648 
Q 2700 2681 2553 2681 
Q 2122 2681 1889 2404 
Q 1656 2128 1656 1613 
L 1656 0 
L 538 0 
L 538 3500 
L 1656 3500 
L 1656 2925 
Q 1872 3269 2151 3426 
Q 2431 3584 2822 3584 
Q 2878 3584 2943 3579 
Q 3009 3575 3134 3559 
L 3138 2547 
z
" transform="scale(0.015625)"/>
      <path id="DejaVuSans-Bold-79" d="M 78 3500 
L 1197 3500 
L 2138 1125 
L 2938 3500 
L 4056 3500 
L 2584 -331 
Q 2363 -916 2067 -1148 
Q 1772 -1381 1288 -1381 
L 641 -1381 
L 641 -647 
L 991 -647 
Q 1275 -647 1404 -556 
Q 1534 -466 1606 -231 
L 1638 -134 
L 78 3500 
z
" transform="scale(0.015625)"/>
      <path id="DejaVuSans-Bold-53" d="M 3834 4519 
L 3834 3531 
Q 3450 3703 3084 3790 
Q 2719 3878 2394 3878 
Q 1963 3878 1756 3759 
Q 1550 3641 1550 3391 
Q 1550 3203 1689 3098 
Q 1828 2994 2194 2919 
L 2706 2816 
Q 3484 2659 3812 2340 
Q 4141 2022 4141 1434 
Q 4141 663 3683 286 
Q 3225 -91 2284 -91 
Q 1841 -91 1394 -6 
Q 947 78 500 244 
L 500 1259 
Q 947 1022 1364 901 
Q 1781 781 2169 781 
Q 2563 781 2772 912 
Q 2981 1044 2981 1288 
Q 2981 1506 2839 1625 
Q 2697 1744 2272 1838 
L 1806 1941 
Q 1106 2091 782 2419 
Q 459 2747 459 3303 
Q 459 4000 909 4375 
Q 1359 4750 2203 4750 
Q 2588 4750 2994 4692 
Q 3400 4634 3834 4519 
z
" transform="scale(0.015625)"/>
     </defs>
     <use xlink:href="#DejaVuSans-Bold-54"/>
     <use xlink:href="#DejaVuSans-Bold-6f" transform="translate(54.962891 0)"/>
     <use xlink:href="#DejaVuSans-Bold-74" transform="translate(123.664062 0)"/>
     <use xlink:href="#DejaVuSans-Bold-61" transform="translate(171.466797 0)"/>
     <use xlink:href="#DejaVuSans-Bold-6c" transform="translate(238.947266 0)"/>
     <use xlink:href="#DejaVuSans-Bold-20" transform="translate(273.224609 0)"/>
     <use xlink:href="#DejaVuSans-Bold-52" transform="translate(308.039062 0)"/>
     <use xlink:href="#DejaVuSans-Bold-65" transform="translate(385.041016 0)"/>
     <use xlink:href="#DejaVuSans-Bold-70" transform="translate(452.863281 0)"/>
     <use xlink:href="#DejaVuSans-Bold-6f" transform="translate(524.445312 0)"/>
     <use xlink:href="#DejaVuSans-Bold-73" transform="translate(593.146484 0)"/>
     <use xlink:href="#DejaVuSans-Bold-69" transform="translate(652.667969 0)"/>
     <use xlink:href="#DejaVuSans-Bold-74" transform="translate(686.945312 0)"/>
     <use xlink:href="#DejaVuSans-Bold-6f" transform="translate(734.748047 0)"/>
     <use xlink:href="#DejaVuSans-Bold-72" transform="translate(803.449219 0)"/>
     <use xlink:href="#DejaVuSans-Bold-79" transform="translate(852.765625 0)"/>
     <use xlink:href="#DejaVuSans-Bold-20" transform="translate(917.951172 0)"/>
     <use xlink:href="#DejaVuSans-Bold-53" transform="translate(952.765625 0)"/>
     <use xlink:href="#DejaVuSans-Bold-74" transform="translate(1024.787109 0)"/>
     <use xlink:href="#DejaVuSans-Bold-61" transform="translate(1072.589844 0)"/>
     <use xlink:href="#DejaVuSans-Bold-72" transform="translate(1140.070312 0)"/>
     <use xlink:href="#DejaVuSans-Bold-73" transform="translate(1189.386719 0)"/>
    </g>
   </g>
  </g>
 </g>
 <defs>
  <clipPath id="p2f62d01dfa">
   <rect x="51.68" y="36.6" width="657.52" height="268.971614"/>
  </clipPath>
 </defs>
</svg>
