<?xml version="1.0" encoding="utf-8" standalone="no"?>
<!DOCTYPE svg PUBLIC "-//W3C//DTD SVG 1.1//EN"
  "http://www.w3.org/Graphics/SVG/1.1/DTD/svg11.dtd">
<svg xmlns:xlink="http://www.w3.org/1999/xlink" width="720pt" height="360pt" viewBox="0 0 720 360" xmlns="http://www.w3.org/2000/svg" version="1.1">
 <metadata>
  <rdf:RDF xmlns:dc="http://purl.org/dc/elements/1.1/" xmlns:cc="http://creativecommons.org/ns#" xmlns:rdf="http://www.w3.org/1999/02/22-rdf-syntax-ns#">
   <cc:Work>
    <dc:type rdf:resource="http://purl.org/dc/dcmitype/StillImage"/>
    <dc:date>2025-12-27T00:19:00.499227</dc:date>
    <dc:format>image/svg+xml</dc:format>
    <dc:creator>
     <cc:Agent>
      <dc:title>Matplotlib v3.10.8, https://matplotlib.org/</dc:title>
     </cc:Agent>
    </dc:creator>
   </cc:Work>
  </rdf:RDF>
 </metadata>
 <defs>
  <style type="text/css">*{stroke-linejoin: round; stroke-linecap: butt}</style>
 </defs>
 <g id="figure_1">
  <g id="patch_1">
   <path d="M 0 360 
L 720 360 
L 720 0 
L 0 0 
z
" style="fill: #0d1117"/>
  </g>
  <g id="axes_1">
   <g id="patch_2">
    <path d="M 54.74 306.462568 
L 709.2 306.462568 
L 709.2 36.6 
L 54.74 36.6 
z
" style="fill: #0d1117"/>
   </g>
   <g id="matplotlib.axis_1">
    <g id="xtick_1">
     <g id="line2d_1">
      <path d="M 116.823162 306.462568 
L 116.823162 36.6 
" clip-path="url(#p33ae33fe4b)" style="fill: none; stroke: #30363d; stroke-opacity: 0.2; stroke-width: 0.8; stroke-linecap: square"/>
     </g>
     <g id="line2d_2">
      <defs>
       <path id="m763b84aa40" d="M 0 0 
L 0 3.5 
" style="stroke: #c9d1d9; stroke-width: 0.8"/>
      </defs>
      <g>
       <use xlink:href="#m763b84aa40" x="116.823162" y="306.462568" style="fill: #c9d1d9; stroke: #c9d1d9; stroke-width: 0.8"/>
      </g>
     </g>
     <g id="text_1">
      <!-- Oct -->
      <g style="fill: #c9d1d9" transform="translate(103.126283 331.061793) rotate(-45) scale(0.1 -0.1)">
       <defs>
        <path id="DejaVuSans-4f" d="M 2522 4238 
Q 1834 4238 1429 3725 
Q 1025 3213 1025 2328 
Q 1025 1447 1429 934 
Q 1834 422 2522 422 
Q 3209 422 3611 934 
Q 4013 1447 4013 2328 
Q 4013 3213 3611 3725 
Q 3209 4238 2522 4238 
z
M 2522 4750 
Q 3503 4750 4090 4092 
Q 4678 3434 4678 2328 
Q 4678 1225 4090 567 
Q 3503 -91 2522 -91 
Q 1538 -91 948 565 
Q 359 1222 359 2328 
Q 359 3434 948 4092 
Q 1538 4750 2522 4750 
z
" transform="scale(0.015625)"/>
        <path id="DejaVuSans-63" d="M 3122 3366 
L 3122 2828 
Q 2878 2963 2633 3030 
Q 2388 3097 2138 3097 
Q 1578 3097 1268 2742 
Q 959 2388 959 1747 
Q 959 1106 1268 751 
Q 1578 397 2138 397 
Q 2388 397 2633 464 
Q 2878 531 3122 666 
L 3122 134 
Q 2881 22 2623 -34 
Q 2366 -91 2075 -91 
Q 1284 -91 818 406 
Q 353 903 353 1747 
Q 353 2603 823 3093 
Q 1294 3584 2113 3584 
Q 2378 3584 2631 3529 
Q 2884 3475 3122 3366 
z
" transform="scale(0.015625)"/>
        <path id="DejaVuSans-74" d="M 1172 4494 
L 1172 3500 
L 2356 3500 
L 2356 3053 
L 1172 3053 
L 1172 1153 
Q 1172 725 1289 603 
Q 1406 481 1766 481 
L 2356 481 
L 2356 0 
L 1766 0 
Q 1100 0 847 248 
Q 594 497 594 1153 
L 594 3053 
L 172 3053 
L 172 3500 
L 594 3500 
L 594 4494 
L 1172 4494 
z
" transform="scale(0.015625)"/>
       </defs>
       <use xlink:href="#DejaVuSans-4f"/>
       <use xlink:href="#DejaVuSans-63" transform="translate(78.710938 0)"/>
       <use xlink:href="#DejaVuSans-74" transform="translate(133.691406 0)"/>
      </g>
     </g>
    </g>
    <g id="xtick_2">
     <g id="line2d_3">
      <path d="M 317.30004 306.462568 
L 317.30004 36.6 
" clip-path="url(#p33ae33fe4b)" style="fill: none; stroke: #30363d; stroke-opacity: 0.2; stroke-width: 0.8; stroke-linecap: square"/>
     </g>
     <g id="line2d_4">
      <g>
       <use xlink:href="#m763b84aa40" x="317.30004" y="306.462568" style="fill: #c9d1d9; stroke: #c9d1d9; stroke-width: 0.8"/>
      </g>
     </g>
     <g id="text_2">
      <!-- Nov -->
      <g style="fill: #c9d1d9" transform="translate(302.027638 332.637315) rotate(-45) scale(0.1 -0.1)">
       <defs>
        <path id="DejaVuSans-4e" d="M 628 4666 
L 1478 4666 
L 3547 763 
L 3547 4666 
L 4159 4666 
L 4159 0 
L 3309 0 
L 1241 3903 
L 1241 0 
L 628 0 
L 628 4666 
z
" transform="scale(0.015625)"/>
        <path id="DejaVuSans-6f" d="M 1959 3097 
Q 1497 3097 1228 2736 
Q 959 2375 959 1747 
Q 959 1119 1226 758 
Q 1494 397 1959 397 
Q 2419 397 2687 759 
Q 2956 1122 2956 1747 
Q 2956 2369 2687 2733 
Q 2419 3097 1959 3097 
z
M 1959 3584 
Q 2709 3584 3137 3096 
Q 3566 2609 3566 1747 
Q 3566 888 3137 398 
Q 2709 -91 1959 -91 
Q 1206 -91 779 398 
Q 353 888 353 1747 
Q 353 2609 779 3096 
Q 1206 3584 1959 3584 
z
" transform="scale(0.015625)"/>
        <path id="DejaVuSans-76" d="M 191 3500 
L 800 3500 
L 1894 563 
L 2988 3500 
L 3597 3500 
L 2284 0 
L 1503 0 
L 191 3500 
z
" transform="scale(0.015625)"/>
       </defs>
       <use xlink:href="#DejaVuSans-4e"/>
       <use xlink:href="#DejaVuSans-6f" transform="translate(74.804688 0)"/>
       <use xlink:href="#DejaVuSans-76" transform="translate(135.986328 0)"/>
      </g>
     </g>
    </g>
    <g id="xtick_3">
     <g id="line2d_5">
      <path d="M 511.309921 306.462568 
L 511.309921 36.6 
" clip-path="url(#p33ae33fe4b)" style="fill: none; stroke: #30363d; stroke-opacity: 0.2; stroke-width: 0.8; stroke-linecap: square"/>
     </g>
     <g id="line2d_6">
      <g>
       <use xlink:href="#m763b84aa40" x="511.309921" y="306.462568" style="fill: #c9d1d9; stroke: #c9d1d9; stroke-width: 0.8"/>
      </g>
     </g>
     <g id="text_3">
      <!-- Dec -->
      <g style="fill: #c9d1d9" transform="translate(496.155739 332.519096) rotate(-45) scale(0.1 -0.1)">
       <defs>
        <path id="DejaVuSans-44" d="M 1259 4147 
L 1259 519 
L 2022 519 
Q 2988 519 3436 956 
Q 3884 1394 3884 2338 
Q 3884 3275 3436 3711 
Q 2988 4147 2022 4147 
L 1259 4147 
z
M 628 4666 
L 1925 4666 
Q 3281 4666 3915 4102 
Q 4550 3538 4550 2338 
Q 4550 1131 3912 565 
Q 3275 0 1925 0 
L 628 0 
L 628 4666 
z
" transform="scale(0.015625)"/>
        <path id="DejaVuSans-65" d="M 3597 1894 
L 3597 1613 
L 953 1613 
Q 991 1019 1311 708 
Q 1631 397 2203 397 
Q 2534 397 2845 478 
Q 3156 559 3463 722 
L 3463 178 
Q 3153 47 2828 -22 
Q 2503 -91 2169 -91 
Q 1331 -91 842 396 
Q 353 884 353 1716 
Q 353 2575 817 3079 
Q 1281 3584 2069 3584 
Q 2775 3584 3186 3129 
Q 3597 2675 3597 1894 
z
M 3022 2063 
Q 3016 2534 2758 2815 
Q 2500 3097 2075 3097 
Q 1594 3097 1305 2825 
Q 1016 2553 972 2059 
L 3022 2063 
z
" transform="scale(0.015625)"/>
       </defs>
       <use xlink:href="#DejaVuSans-44"/>
       <use xlink:href="#DejaVuSans-65" transform="translate(77.001953 0)"/>
       <use xlink:href="#DejaVuSans-63" transform="translate(138.525391 0)"/>
      </g>
     </g>
    </g>
    <g id="text_4">
     <!-- Date -->
     <g style="fill: #c9d1d9" transform="translate(368.824141 346.466158) scale(0.11 -0.11)">
      <defs>
       <path id="DejaVuSans-61" d="M 2194 1759 
Q 1497 1759 1228 1600 
Q 959 1441 959 1056 
Q 959 750 1161 570 
Q 1363 391 1709 391 
Q 2188 391 2477 730 
Q 2766 1069 2766 1631 
L 2766 1759 
L 2194 1759 
z
M 3341 1997 
L 3341 0 
L 2766 0 
L 2766 531 
Q 2569 213 2275 61 
Q 1981 -91 1556 -91 
Q 1019 -91 701 211 
Q 384 513 384 1019 
Q 384 1609 779 1909 
Q 1175 2209 1959 2209 
L 2766 2209 
L 2766 2266 
Q 2766 2663 2505 2880 
Q 2244 3097 1772 3097 
Q 1472 3097 1187 3025 
Q 903 2953 641 2809 
L 641 3341 
Q 956 3463 1253 3523 
Q 1550 3584 1831 3584 
Q 2591 3584 2966 3190 
Q 3341 2797 3341 1997 
z
" transform="scale(0.015625)"/>
      </defs>
      <use xlink:href="#DejaVuSans-44"/>
      <use xlink:href="#DejaVuSans-61" transform="translate(77.001953 0)"/>
      <use xlink:href="#DejaVuSans-74" transform="translate(138.28125 0)"/>
      <use xlink:href="#DejaVuSans-65" transform="translate(177.490234 0)"/>
     </g>
    </g>
   </g>
   <g id="matplotlib.axis_2">
    <g id="ytick_1">
     <g id="line2d_7">
      <path d="M 54.74 273.751954 
L 709.2 273.751954 
" clip-path="url(#p33ae33fe4b)" style="fill: none; stroke: #30363d; stroke-opacity: 0.2; stroke-width: 0.8; stroke-linecap: square"/>
     </g>
     <g id="line2d_8">
      <defs>
       <path id="mcddea225a3" d="M 0 0 
L -3.5 0 
" style="stroke: #c9d1d9; stroke-width: 0.8"/>
      </defs>
      <g>
       <use xlink:href="#mcddea225a3" x="54.74" y="273.751954" style="fill: #c9d1d9; stroke: #c9d1d9; stroke-width: 0.8"/>
      </g>
     </g>
     <g id="text_5">
      <!-- 67.5 -->
      <g style="fill: #c9d1d9" transform="translate(25.474375 277.551173) scale(0.1 -0.1)">
       <defs>
        <path id="DejaVuSans-36" d="M 2113 2584 
Q 1688 2584 1439 2293 
Q 1191 2003 1191 1497 
Q 1191 994 1439 701 
Q 1688 409 2113 409 
Q 2538 409 2786 701 
Q 3034 994 3034 1497 
Q 3034 2003 2786 2293 
Q 2538 2584 2113 2584 
z
M 3366 4563 
L 3366 3988 
Q 3128 4100 2886 4159 
Q 2644 4219 2406 4219 
Q 1781 4219 1451 3797 
Q 1122 3375 1075 2522 
Q 1259 2794 1537 2939 
Q 1816 3084 2150 3084 
Q 2853 3084 3261 2657 
Q 3669 2231 3669 1497 
Q 3669 778 3244 343 
Q 2819 -91 2113 -91 
Q 1303 -91 875 529 
Q 447 1150 447 2328 
Q 447 3434 972 4092 
Q 1497 4750 2381 4750 
Q 2619 4750 2861 4703 
Q 3103 4656 3366 4563 
z
" transform="scale(0.015625)"/>
        <path id="DejaVuSans-37" d="M 525 4666 
L 3525 4666 
L 3525 4397 
L 1831 0 
L 1172 0 
L 2766 4134 
L 525 4134 
L 525 4666 
z
" transform="scale(0.015625)"/>
        <path id="DejaVuSans-2e" d="M 684 794 
L 1344 794 
L 1344 0 
L 684 0 
L 684 794 
z
" transform="scale(0.015625)"/>
        <path id="DejaVuSans-35" d="M 691 4666 
L 3169 4666 
L 3169 4134 
L 1269 4134 
L 1269 2991 
Q 1406 3038 1543 3061 
Q 1681 3084 1819 3084 
Q 2600 3084 3056 2656 
Q 3513 2228 3513 1497 
Q 3513 744 3044 326 
Q 2575 -91 1722 -91 
Q 1428 -91 1123 -41 
Q 819 9 494 109 
L 494 744 
Q 775 591 1075 516 
Q 1375 441 1709 441 
Q 2250 441 2565 725 
Q 2881 1009 2881 1497 
Q 2881 1984 2565 2268 
Q 2250 2553 1709 2553 
Q 1456 2553 1204 2497 
Q 953 2441 691 2322 
L 691 4666 
z
" transform="scale(0.015625)"/>
       </defs>
       <use xlink:href="#DejaVuSans-36"/>
       <use xlink:href="#DejaVuSans-37" transform="translate(63.623047 0)"/>
       <use xlink:href="#DejaVuSans-2e" transform="translate(127.246094 0)"/>
       <use xlink:href="#DejaVuSans-35" transform="translate(159.033203 0)"/>
      </g>
     </g>
    </g>
    <g id="ytick_2">
     <g id="line2d_9">
      <path d="M 54.74 239.678397 
L 709.2 239.678397 
" clip-path="url(#p33ae33fe4b)" style="fill: none; stroke: #30363d; stroke-opacity: 0.2; stroke-width: 0.8; stroke-linecap: square"/>
     </g>
     <g id="line2d_10">
      <g>
       <use xlink:href="#mcddea225a3" x="54.74" y="239.678397" style="fill: #c9d1d9; stroke: #c9d1d9; stroke-width: 0.8"/>
      </g>
     </g>
     <g id="text_6">
      <!-- 70.0 -->
      <g style="fill: #c9d1d9" transform="translate(25.474375 243.477616) scale(0.1 -0.1)">
       <defs>
        <path id="DejaVuSans-30" d="M 2034 4250 
Q 1547 4250 1301 3770 
Q 1056 3291 1056 2328 
Q 1056 1369 1301 889 
Q 1547 409 2034 409 
Q 2525 409 2770 889 
Q 3016 1369 3016 2328 
Q 3016 3291 2770 3770 
Q 2525 4250 2034 4250 
z
M 2034 4750 
Q 2819 4750 3233 4129 
Q 3647 3509 3647 2328 
Q 3647 1150 3233 529 
Q 2819 -91 2034 -91 
Q 1250 -91 836 529 
Q 422 1150 422 2328 
Q 422 3509 836 4129 
Q 1250 4750 2034 4750 
z
" transform="scale(0.015625)"/>
       </defs>
       <use xlink:href="#DejaVuSans-37"/>
       <use xlink:href="#DejaVuSans-30" transform="translate(63.623047 0)"/>
       <use xlink:href="#DejaVuSans-2e" transform="translate(127.246094 0)"/>
       <use xlink:href="#DejaVuSans-30" transform="translate(159.033203 0)"/>
      </g>
     </g>
    </g>
    <g id="ytick_3">
     <g id="line2d_11">
      <path d="M 54.74 205.604841 
L 709.2 205.604841 
" clip-path="url(#p33ae33fe4b)" style="fill: none; stroke: #30363d; stroke-opacity: 0.2; stroke-width: 0.8; stroke-linecap: square"/>
     </g>
     <g id="line2d_12">
      <g>
       <use xlink:href="#mcddea225a3" x="54.74" y="205.604841" style="fill: #c9d1d9; stroke: #c9d1d9; stroke-width: 0.8"/>
      </g>
     </g>
     <g id="text_7">
      <!-- 72.5 -->
      <g style="fill: #c9d1d9" transform="translate(25.474375 209.404059) scale(0.1 -0.1)">
       <defs>
        <path id="DejaVuSans-32" d="M 1228 531 
L 3431 531 
L 3431 0 
L 469 0 
L 469 531 
Q 828 903 1448 1529 
Q 2069 2156 2228 2338 
Q 2531 2678 2651 2914 
Q 2772 3150 2772 3378 
Q 2772 3750 2511 3984 
Q 2250 4219 1831 4219 
Q 1534 4219 1204 4116 
Q 875 4013 500 3803 
L 500 4441 
Q 881 4594 1212 4672 
Q 1544 4750 1819 4750 
Q 2544 4750 2975 4387 
Q 3406 4025 3406 3419 
Q 3406 3131 3298 2873 
Q 3191 2616 2906 2266 
Q 2828 2175 2409 1742 
Q 1991 1309 1228 531 
z
" transform="scale(0.015625)"/>
       </defs>
       <use xlink:href="#DejaVuSans-37"/>
       <use xlink:href="#DejaVuSans-32" transform="translate(63.623047 0)"/>
       <use xlink:href="#DejaVuSans-2e" transform="translate(127.246094 0)"/>
       <use xlink:href="#DejaVuSans-35" transform="translate(159.033203 0)"/>
      </g>
     </g>
    </g>
    <g id="ytick_4">
     <g id="line2d_13">
      <path d="M 54.74 171.531284 
L 709.2 171.531284 
" clip-path="url(#p33ae33fe4b)" style="fill: none; stroke: #30363d; stroke-opacity: 0.2; stroke-width: 0.8; stroke-linecap: square"/>
     </g>
     <g id="line2d_14">
      <g>
       <use xlink:href="#mcddea225a3" x="54.74" y="171.531284" style="fill: #c9d1d9; stroke: #c9d1d9; stroke-width: 0.8"/>
      </g>
     </g>
     <g id="text_8">
      <!-- 75.0 -->
      <g style="fill: #c9d1d9" transform="translate(25.474375 175.330503) scale(0.1 -0.1)">
       <use xlink:href="#DejaVuSans-37"/>
       <use xlink:href="#DejaVuSans-35" transform="translate(63.623047 0)"/>
       <use xlink:href="#DejaVuSans-2e" transform="translate(127.246094 0)"/>
       <use xlink:href="#DejaVuSans-30" transform="translate(159.033203 0)"/>
      </g>
     </g>
    </g>
    <g id="ytick_5">
     <g id="line2d_15">
      <path d="M 54.74 137.457728 
L 709.2 137.457728 
" clip-path="url(#p33ae33fe4b)" style="fill: none; stroke: #30363d; stroke-opacity: 0.2; stroke-width: 0.8; stroke-linecap: square"/>
     </g>
     <g id="line2d_16">
      <g>
       <use xlink:href="#mcddea225a3" x="54.74" y="137.457728" style="fill: #c9d1d9; stroke: #c9d1d9; stroke-width: 0.8"/>
      </g>
     </g>
     <g id="text_9">
      <!-- 77.5 -->
      <g style="fill: #c9d1d9" transform="translate(25.474375 141.256946) scale(0.1 -0.1)">
       <use xlink:href="#DejaVuSans-37"/>
       <use xlink:href="#DejaVuSans-37" transform="translate(63.623047 0)"/>
       <use xlink:href="#DejaVuSans-2e" transform="translate(127.246094 0)"/>
       <use xlink:href="#DejaVuSans-35" transform="translate(159.033203 0)"/>
      </g>
     </g>
    </g>
    <g id="ytick_6">
     <g id="line2d_17">
      <path d="M 54.74 103.384171 
L 709.2 103.384171 
" clip-path="url(#p33ae33fe4b)" style="fill: none; stroke: #30363d; stroke-opacity: 0.2; stroke-width: 0.8; stroke-linecap: square"/>
     </g>
     <g id="line2d_18">
      <g>
       <use xlink:href="#mcddea225a3" x="54.74" y="103.384171" style="fill: #c9d1d9; stroke: #c9d1d9; stroke-width: 0.8"/>
      </g>
     </g>
     <g id="text_10">
      <!-- 80.0 -->
      <g style="fill: #c9d1d9" transform="translate(25.474375 107.18339) scale(0.1 -0.1)">
       <defs>
        <path id="DejaVuSans-38" d="M 2034 2216 
Q 1584 2216 1326 1975 
Q 1069 1734 1069 1313 
Q 1069 891 1326 650 
Q 1584 409 2034 409 
Q 2484 409 2743 651 
Q 3003 894 3003 1313 
Q 3003 1734 2745 1975 
Q 2488 2216 2034 2216 
z
M 1403 2484 
Q 997 2584 770 2862 
Q 544 3141 544 3541 
Q 544 4100 942 4425 
Q 1341 4750 2034 4750 
Q 2731 4750 3128 4425 
Q 3525 4100 3525 3541 
Q 3525 3141 3298 2862 
Q 3072 2584 2669 2484 
Q 3125 2378 3379 2068 
Q 3634 1759 3634 1313 
Q 3634 634 3220 271 
Q 2806 -91 2034 -91 
Q 1263 -91 848 271 
Q 434 634 434 1313 
Q 434 1759 690 2068 
Q 947 2378 1403 2484 
z
M 1172 3481 
Q 1172 3119 1398 2916 
Q 1625 2713 2034 2713 
Q 2441 2713 2670 2916 
Q 2900 3119 2900 3481 
Q 2900 3844 2670 4047 
Q 2441 4250 2034 4250 
Q 1625 4250 1398 4047 
Q 1172 3844 1172 3481 
z
" transform="scale(0.015625)"/>
       </defs>
       <use xlink:href="#DejaVuSans-38"/>
       <use xlink:href="#DejaVuSans-30" transform="translate(63.623047 0)"/>
       <use xlink:href="#DejaVuSans-2e" transform="translate(127.246094 0)"/>
       <use xlink:href="#DejaVuSans-30" transform="translate(159.033203 0)"/>
      </g>
     </g>
    </g>
    <g id="ytick_7">
     <g id="line2d_19">
      <path d="M 54.74 69.310614 
L 709.2 69.310614 
" clip-path="url(#p33ae33fe4b)" style="fill: none; stroke: #30363d; stroke-opacity: 0.2; stroke-width: 0.8; stroke-linecap: square"/>
     </g>
     <g id="line2d_20">
      <g>
       <use xlink:href="#mcddea225a3" x="54.74" y="69.310614" style="fill: #c9d1d9; stroke: #c9d1d9; stroke-width: 0.8"/>
      </g>
     </g>
     <g id="text_11">
      <!-- 82.5 -->
      <g style="fill: #c9d1d9" transform="translate(25.474375 73.109833) scale(0.1 -0.1)">
       <use xlink:href="#DejaVuSans-38"/>
       <use xlink:href="#DejaVuSans-32" transform="translate(63.623047 0)"/>
       <use xlink:href="#DejaVuSans-2e" transform="translate(127.246094 0)"/>
       <use xlink:href="#DejaVuSans-35" transform="translate(159.033203 0)"/>
      </g>
     </g>
    </g>
    <g id="text_12">
     <!-- Count -->
     <g style="fill: #c9d1d9" transform="translate(19.186719 187.864565) rotate(-90) scale(0.11 -0.11)">
      <defs>
       <path id="DejaVuSans-43" d="M 4122 4306 
L 4122 3641 
Q 3803 3938 3442 4084 
Q 3081 4231 2675 4231 
Q 1875 4231 1450 3742 
Q 1025 3253 1025 2328 
Q 1025 1406 1450 917 
Q 1875 428 2675 428 
Q 3081 428 3442 575 
Q 3803 722 4122 1019 
L 4122 359 
Q 3791 134 3420 21 
Q 3050 -91 2638 -91 
Q 1578 -91 968 557 
Q 359 1206 359 2328 
Q 359 3453 968 4101 
Q 1578 4750 2638 4750 
Q 3056 4750 3426 4639 
Q 3797 4528 4122 4306 
z
" transform="scale(0.015625)"/>
       <path id="DejaVuSans-75" d="M 544 1381 
L 544 3500 
L 1119 3500 
L 1119 1403 
Q 1119 906 1312 657 
Q 1506 409 1894 409 
Q 2359 409 2629 706 
Q 2900 1003 2900 1516 
L 2900 3500 
L 3475 3500 
L 3475 0 
L 2900 0 
L 2900 538 
Q 2691 219 2414 64 
Q 2138 -91 1772 -91 
Q 1169 -91 856 284 
Q 544 659 544 1381 
z
M 1991 3584 
L 1991 3584 
z
" transform="scale(0.015625)"/>
       <path id="DejaVuSans-6e" d="M 3513 2113 
L 3513 0 
L 2938 0 
L 2938 2094 
Q 2938 2591 2744 2837 
Q 2550 3084 2163 3084 
Q 1697 3084 1428 2787 
Q 1159 2491 1159 1978 
L 1159 0 
L 581 0 
L 581 3500 
L 1159 3500 
L 1159 2956 
Q 1366 3272 1645 3428 
Q 1925 3584 2291 3584 
Q 2894 3584 3203 3211 
Q 3513 2838 3513 2113 
z
" transform="scale(0.015625)"/>
      </defs>
      <use xlink:href="#DejaVuSans-43"/>
      <use xlink:href="#DejaVuSans-6f" transform="translate(69.824219 0)"/>
      <use xlink:href="#DejaVuSans-75" transform="translate(131.005859 0)"/>
      <use xlink:href="#DejaVuSans-6e" transform="translate(194.384766 0)"/>
      <use xlink:href="#DejaVuSans-74" transform="translate(257.763672 0)"/>
     </g>
    </g>
   </g>
   <g id="line2d_21">
    <path d="M 84.488182 294.196088 
L 90.955178 294.196088 
L 97.422174 294.196088 
L 103.88917 294.196088 
L 110.356166 294.196088 
L 116.823162 294.196088 
L 123.290158 294.196088 
L 129.757154 294.196088 
L 136.22415 294.196088 
L 142.691146 294.196088 
L 149.158142 294.196088 
L 155.625138 294.196088 
L 162.092134 294.196088 
L 168.55913 294.196088 
L 175.026126 294.196088 
L 181.493123 294.196088 
L 187.960119 294.196088 
L 194.427115 294.196088 
L 200.894111 294.196088 
L 207.361107 294.196088 
L 213.828103 294.196088 
L 220.295099 294.196088 
L 226.762095 294.196088 
L 233.229091 294.196088 
L 239.696087 294.196088 
L 246.163083 294.196088 
L 252.630079 294.196088 
L 259.097075 294.196088 
L 265.564071 294.196088 
L 272.031067 294.196088 
L 278.498063 294.196088 
L 323.767036 198.790129 
L 330.234032 198.790129 
L 336.701028 185.160707 
L 343.168024 185.160707 
L 349.63502 185.160707 
L 356.102016 185.160707 
L 362.569012 198.790129 
L 369.036008 198.790129 
L 375.503004 198.790129 
L 381.97 198.790129 
L 388.436996 198.790129 
L 394.903992 198.790129 
L 401.370988 198.790129 
L 407.837984 198.790129 
L 414.30498 198.790129 
L 420.771976 198.790129 
L 427.238972 198.790129 
L 433.705968 198.790129 
L 440.172964 198.790129 
L 446.63996 198.790129 
L 453.106957 198.790129 
L 459.573953 198.790129 
L 466.040949 185.160707 
L 472.507945 185.160707 
L 478.974941 185.160707 
L 485.441937 185.160707 
L 491.908933 185.160707 
L 498.375929 171.531284 
L 504.842925 157.901861 
L 511.309921 157.901861 
L 517.776917 157.901861 
L 524.243913 157.901861 
L 530.710909 157.901861 
L 537.177905 157.901861 
L 543.644901 144.272439 
L 550.111897 144.272439 
L 556.578893 144.272439 
L 563.045889 130.643016 
L 569.512885 130.643016 
L 575.979881 130.643016 
L 582.446877 130.643016 
L 588.913874 130.643016 
L 595.38087 117.013594 
L 601.847866 117.013594 
L 608.314862 117.013594 
L 614.781858 117.013594 
L 621.248854 103.384171 
L 627.71585 103.384171 
L 634.182846 103.384171 
L 640.649842 103.384171 
L 647.116838 103.384171 
L 653.583834 62.495903 
L 660.05083 62.495903 
L 666.517826 62.495903 
L 672.984822 48.86648 
L 679.451818 48.86648 
" clip-path="url(#p33ae33fe4b)" style="fill: none; stroke: #3fb950; stroke-width: 2.5; stroke-linecap: square"/>
    <defs>
     <path id="m56fb819272" d="M 0 2.5 
C 0.663008 2.5 1.29895 2.236584 1.767767 1.767767 
C 2.236584 1.29895 2.5 0.663008 2.5 0 
C 2.5 -0.663008 2.236584 -1.29895 1.767767 -1.767767 
C 1.29895 -2.236584 0.663008 -2.5 0 -2.5 
C -0.663008 -2.5 -1.29895 -2.236584 -1.767767 -1.767767 
C -2.236584 -1.29895 -2.5 -0.663008 -2.5 0 
C -2.5 0.663008 -2.236584 1.29895 -1.767767 1.767767 
C -1.29895 2.236584 -0.663008 2.5 0 2.5 
z
" style="stroke: #3fb950"/>
    </defs>
    <g clip-path="url(#p33ae33fe4b)">
     <use xlink:href="#m56fb819272" x="84.488182" y="294.196088" style="fill: #3fb950; stroke: #3fb950"/>
     <use xlink:href="#m56fb819272" x="90.955178" y="294.196088" style="fill: #3fb950; stroke: #3fb950"/>
     <use xlink:href="#m56fb819272" x="97.422174" y="294.196088" style="fill: #3fb950; stroke: #3fb950"/>
     <use xlink:href="#m56fb819272" x="103.88917" y="294.196088" style="fill: #3fb950; stroke: #3fb950"/>
     <use xlink:href="#m56fb819272" x="110.356166" y="294.196088" style="fill: #3fb950; stroke: #3fb950"/>
     <use xlink:href="#m56fb819272" x="116.823162" y="294.196088" style="fill: #3fb950; stroke: #3fb950"/>
     <use xlink:href="#m56fb819272" x="123.290158" y="294.196088" style="fill: #3fb950; stroke: #3fb950"/>
     <use xlink:href="#m56fb819272" x="129.757154" y="294.196088" style="fill: #3fb950; stroke: #3fb950"/>
     <use xlink:href="#m56fb819272" x="136.22415" y="294.196088" style="fill: #3fb950; stroke: #3fb950"/>
     <use xlink:href="#m56fb819272" x="142.691146" y="294.196088" style="fill: #3fb950; stroke: #3fb950"/>
     <use xlink:href="#m56fb819272" x="149.158142" y="294.196088" style="fill: #3fb950; stroke: #3fb950"/>
     <use xlink:href="#m56fb819272" x="155.625138" y="294.196088" style="fill: #3fb950; stroke: #3fb950"/>
     <use xlink:href="#m56fb819272" x="162.092134" y="294.196088" style="fill: #3fb950; stroke: #3fb950"/>
     <use xlink:href="#m56fb819272" x="168.55913" y="294.196088" style="fill: #3fb950; stroke: #3fb950"/>
     <use xlink:href="#m56fb819272" x="175.026126" y="294.196088" style="fill: #3fb950; stroke: #3fb950"/>
     <use xlink:href="#m56fb819272" x="181.493123" y="294.196088" style="fill: #3fb950; stroke: #3fb950"/>
     <use xlink:href="#m56fb819272" x="187.960119" y="294.196088" style="fill: #3fb950; stroke: #3fb950"/>
     <use xlink:href="#m56fb819272" x="194.427115" y="294.196088" style="fill: #3fb950; stroke: #3fb950"/>
     <use xlink:href="#m56fb819272" x="200.894111" y="294.196088" style="fill: #3fb950; stroke: #3fb950"/>
     <use xlink:href="#m56fb819272" x="207.361107" y="294.196088" style="fill: #3fb950; stroke: #3fb950"/>
     <use xlink:href="#m56fb819272" x="213.828103" y="294.196088" style="fill: #3fb950; stroke: #3fb950"/>
     <use xlink:href="#m56fb819272" x="220.295099" y="294.196088" style="fill: #3fb950; stroke: #3fb950"/>
     <use xlink:href="#m56fb819272" x="226.762095" y="294.196088" style="fill: #3fb950; stroke: #3fb950"/>
     <use xlink:href="#m56fb819272" x="233.229091" y="294.196088" style="fill: #3fb950; stroke: #3fb950"/>
     <use xlink:href="#m56fb819272" x="239.696087" y="294.196088" style="fill: #3fb950; stroke: #3fb950"/>
     <use xlink:href="#m56fb819272" x="246.163083" y="294.196088" style="fill: #3fb950; stroke: #3fb950"/>
     <use xlink:href="#m56fb819272" x="252.630079" y="294.196088" style="fill: #3fb950; stroke: #3fb950"/>
     <use xlink:href="#m56fb819272" x="259.097075" y="294.196088" style="fill: #3fb950; stroke: #3fb950"/>
     <use xlink:href="#m56fb819272" x="265.564071" y="294.196088" style="fill: #3fb950; stroke: #3fb950"/>
     <use xlink:href="#m56fb819272" x="272.031067" y="294.196088" style="fill: #3fb950; stroke: #3fb950"/>
     <use xlink:href="#m56fb819272" x="278.498063" y="294.196088" style="fill: #3fb950; stroke: #3fb950"/>
     <use xlink:href="#m56fb819272" x="323.767036" y="198.790129" style="fill: #3fb950; stroke: #3fb950"/>
     <use xlink:href="#m56fb819272" x="330.234032" y="198.790129" style="fill: #3fb950; stroke: #3fb950"/>
     <use xlink:href="#m56fb819272" x="336.701028" y="185.160707" style="fill: #3fb950; stroke: #3fb950"/>
     <use xlink:href="#m56fb819272" x="343.168024" y="185.160707" style="fill: #3fb950; stroke: #3fb950"/>
     <use xlink:href="#m56fb819272" x="349.63502" y="185.160707" style="fill: #3fb950; stroke: #3fb950"/>
     <use xlink:href="#m56fb819272" x="356.102016" y="185.160707" style="fill: #3fb950; stroke: #3fb950"/>
     <use xlink:href="#m56fb819272" x="362.569012" y="198.790129" style="fill: #3fb950; stroke: #3fb950"/>
     <use xlink:href="#m56fb819272" x="369.036008" y="198.790129" style="fill: #3fb950; stroke: #3fb950"/>
     <use xlink:href="#m56fb819272" x="375.503004" y="198.790129" style="fill: #3fb950; stroke: #3fb950"/>
     <use xlink:href="#m56fb819272" x="381.97" y="198.790129" style="fill: #3fb950; stroke: #3fb950"/>
     <use xlink:href="#m56fb819272" x="388.436996" y="198.790129" style="fill: #3fb950; stroke: #3fb950"/>
     <use xlink:href="#m56fb819272" x="394.903992" y="198.790129" style="fill: #3fb950; stroke: #3fb950"/>
     <use xlink:href="#m56fb819272" x="401.370988" y="198.790129" style="fill: #3fb950; stroke: #3fb950"/>
     <use xlink:href="#m56fb819272" x="407.837984" y="198.790129" style="fill: #3fb950; stroke: #3fb950"/>
     <use xlink:href="#m56fb819272" x="414.30498" y="198.790129" style="fill: #3fb950; stroke: #3fb950"/>
     <use xlink:href="#m56fb819272" x="420.771976" y="198.790129" style="fill: #3fb950; stroke: #3fb950"/>
     <use xlink:href="#m56fb819272" x="427.238972" y="198.790129" style="fill: #3fb950; stroke: #3fb950"/>
     <use xlink:href="#m56fb819272" x="433.705968" y="198.790129" style="fill: #3fb950; stroke: #3fb950"/>
     <use xlink:href="#m56fb819272" x="440.172964" y="198.790129" style="fill: #3fb950; stroke: #3fb950"/>
     <use xlink:href="#m56fb819272" x="446.63996" y="198.790129" style="fill: #3fb950; stroke: #3fb950"/>
     <use xlink:href="#m56fb819272" x="453.106957" y="198.790129" style="fill: #3fb950; stroke: #3fb950"/>
     <use xlink:href="#m56fb819272" x="459.573953" y="198.790129" style="fill: #3fb950; stroke: #3fb950"/>
     <use xlink:href="#m56fb819272" x="466.040949" y="185.160707" style="fill: #3fb950; stroke: #3fb950"/>
     <use xlink:href="#m56fb819272" x="472.507945" y="185.160707" style="fill: #3fb950; stroke: #3fb950"/>
     <use xlink:href="#m56fb819272" x="478.974941" y="185.160707" style="fill: #3fb950; stroke: #3fb950"/>
     <use xlink:href="#m56fb819272" x="485.441937" y="185.160707" style="fill: #3fb950; stroke: #3fb950"/>
     <use xlink:href="#m56fb819272" x="491.908933" y="185.160707" style="fill: #3fb950; stroke: #3fb950"/>
     <use xlink:href="#m56fb819272" x="498.375929" y="171.531284" style="fill: #3fb950; stroke: #3fb950"/>
     <use xlink:href="#m56fb819272" x="504.842925" y="157.901861" style="fill: #3fb950; stroke: #3fb950"/>
     <use xlink:href="#m56fb819272" x="511.309921" y="157.901861" style="fill: #3fb950; stroke: #3fb950"/>
     <use xlink:href="#m56fb819272" x="517.776917" y="157.901861" style="fill: #3fb950; stroke: #3fb950"/>
     <use xlink:href="#m56fb819272" x="524.243913" y="157.901861" style="fill: #3fb950; stroke: #3fb950"/>
     <use xlink:href="#m56fb819272" x="530.710909" y="157.901861" style="fill: #3fb950; stroke: #3fb950"/>
     <use xlink:href="#m56fb819272" x="537.177905" y="157.901861" style="fill: #3fb950; stroke: #3fb950"/>
     <use xlink:href="#m56fb819272" x="543.644901" y="144.272439" style="fill: #3fb950; stroke: #3fb950"/>
     <use xlink:href="#m56fb819272" x="550.111897" y="144.272439" style="fill: #3fb950; stroke: #3fb950"/>
     <use xlink:href="#m56fb819272" x="556.578893" y="144.272439" style="fill: #3fb950; stroke: #3fb950"/>
     <use xlink:href="#m56fb819272" x="563.045889" y="130.643016" style="fill: #3fb950; stroke: #3fb950"/>
     <use xlink:href="#m56fb819272" x="569.512885" y="130.643016" style="fill: #3fb950; stroke: #3fb950"/>
     <use xlink:href="#m56fb819272" x="575.979881" y="130.643016" style="fill: #3fb950; stroke: #3fb950"/>
     <use xlink:href="#m56fb819272" x="582.446877" y="130.643016" style="fill: #3fb950; stroke: #3fb950"/>
     <use xlink:href="#m56fb819272" x="588.913874" y="130.643016" style="fill: #3fb950; stroke: #3fb950"/>
     <use xlink:href="#m56fb819272" x="595.38087" y="117.013594" style="fill: #3fb950; stroke: #3fb950"/>
     <use xlink:href="#m56fb819272" x="601.847866" y="117.013594" style="fill: #3fb950; stroke: #3fb950"/>
     <use xlink:href="#m56fb819272" x="608.314862" y="117.013594" style="fill: #3fb950; stroke: #3fb950"/>
     <use xlink:href="#m56fb819272" x="614.781858" y="117.013594" style="fill: #3fb950; stroke: #3fb950"/>
     <use xlink:href="#m56fb819272" x="621.248854" y="103.384171" style="fill: #3fb950; stroke: #3fb950"/>
     <use xlink:href="#m56fb819272" x="627.71585" y="103.384171" style="fill: #3fb950; stroke: #3fb950"/>
     <use xlink:href="#m56fb819272" x="634.182846" y="103.384171" style="fill: #3fb950; stroke: #3fb950"/>
     <use xlink:href="#m56fb819272" x="640.649842" y="103.384171" style="fill: #3fb950; stroke: #3fb950"/>
     <use xlink:href="#m56fb819272" x="647.116838" y="103.384171" style="fill: #3fb950; stroke: #3fb950"/>
     <use xlink:href="#m56fb819272" x="653.583834" y="62.495903" style="fill: #3fb950; stroke: #3fb950"/>
     <use xlink:href="#m56fb819272" x="660.05083" y="62.495903" style="fill: #3fb950; stroke: #3fb950"/>
     <use xlink:href="#m56fb819272" x="666.517826" y="62.495903" style="fill: #3fb950; stroke: #3fb950"/>
     <use xlink:href="#m56fb819272" x="672.984822" y="48.86648" style="fill: #3fb950; stroke: #3fb950"/>
     <use xlink:href="#m56fb819272" x="679.451818" y="48.86648" style="fill: #3fb950; stroke: #3fb950"/>
    </g>
   </g>
   <g id="patch_3">
    <path d="M 54.74 306.462568 
L 54.74 36.6 
" style="fill: none; stroke: #30363d; stroke-width: 0.8; stroke-linejoin: miter; stroke-linecap: square"/>
   </g>
   <g id="patch_4">
    <path d="M 709.2 306.462568 
L 709.2 36.6 
" style="fill: none; stroke: #30363d; stroke-width: 0.8; stroke-linejoin: miter; stroke-linecap: square"/>
   </g>
   <g id="patch_5">
    <path d="M 54.74 306.462568 
L 709.2 306.462568 
" style="fill: none; stroke: #30363d; stroke-width: 0.8; stroke-linejoin: miter; stroke-linecap: square"/>
   </g>
   <g id="patch_6">
    <path d="M 54.74 36.6 
L 709.2 36.6 
" style="fill: none; stroke: #30363d; stroke-width: 0.8; stroke-linejoin: miter; stroke-linecap: square"/>
   </g>
   <g id="text_13">
    <g id="patch_7">
     <path d="M 633.6033 64.039066 
L 696.1108 64.039066 
Q 699.4108 64.039066 699.4108 60.739066 
L 699.4108 50.093128 
Q 699.4108 46.793128 696.1108 46.793128 
L 633.6033 46.793128 
Q 630.3033 46.793128 630.3033 50.093128 
L 630.3033 60.739066 
Q 630.3033 64.039066 633.6033 64.039066 
z
" style="fill: #30363d; opacity: 0.8; stroke: #3fb950; stroke-linejoin: miter"/>
    </g>
    <!-- Current: 84 -->
    <g style="fill: #c9d1d9" transform="translate(633.6033 58.45141) scale(0.11 -0.11)">
     <defs>
      <path id="DejaVuSans-72" d="M 2631 2963 
Q 2534 3019 2420 3045 
Q 2306 3072 2169 3072 
Q 1681 3072 1420 2755 
Q 1159 2438 1159 1844 
L 1159 0 
L 581 0 
L 581 3500 
L 1159 3500 
L 1159 2956 
Q 1341 3275 1631 3429 
Q 1922 3584 2338 3584 
Q 2397 3584 2469 3576 
Q 2541 3569 2628 3553 
L 2631 2963 
z
" transform="scale(0.015625)"/>
      <path id="DejaVuSans-3a" d="M 750 794 
L 1409 794 
L 1409 0 
L 750 0 
L 750 794 
z
M 750 3309 
L 1409 3309 
L 1409 2516 
L 750 2516 
L 750 3309 
z
" transform="scale(0.015625)"/>
      <path id="DejaVuSans-20" transform="scale(0.015625)"/>
      <path id="DejaVuSans-34" d="M 2419 4116 
L 825 1625 
L 2419 1625 
L 2419 4116 
z
M 2253 4666 
L 3047 4666 
L 3047 1625 
L 3713 1625 
L 3713 1100 
L 3047 1100 
L 3047 0 
L 2419 0 
L 2419 1100 
L 313 1100 
L 313 1709 
L 2253 4666 
z
" transform="scale(0.015625)"/>
     </defs>
     <use xlink:href="#DejaVuSans-43"/>
     <use xlink:href="#DejaVuSans-75" transform="translate(69.824219 0)"/>
     <use xlink:href="#DejaVuSans-72" transform="translate(133.203125 0)"/>
     <use xlink:href="#DejaVuSans-72" transform="translate(172.566406 0)"/>
     <use xlink:href="#DejaVuSans-65" transform="translate(211.429688 0)"/>
     <use xlink:href="#DejaVuSans-6e" transform="translate(272.953125 0)"/>
     <use xlink:href="#DejaVuSans-74" transform="translate(336.332031 0)"/>
     <use xlink:href="#DejaVuSans-3a" transform="translate(375.541016 0)"/>
     <use xlink:href="#DejaVuSans-20" transform="translate(409.232422 0)"/>
     <use xlink:href="#DejaVuSans-38" transform="translate(441.019531 0)"/>
     <use xlink:href="#DejaVuSans-34" transform="translate(504.642578 0)"/>
    </g>
   </g>
   <g id="text_14">
    <!-- Total Repository Stars -->
    <g style="fill: #c9d1d9" transform="translate(294.547656 21.6) scale(0.14 -0.14)">
     <defs>
      <path id="DejaVuSans-Bold-54" d="M 31 4666 
L 4331 4666 
L 4331 3756 
L 2784 3756 
L 2784 0 
L 1581 0 
L 1581 3756 
L 31 3756 
L 31 4666 
z
" transform="scale(0.015625)"/>
      <path id="DejaVuSans-Bold-6f" d="M 2203 2784 
Q 1831 2784 1636 2517 
Q 1441 2250 1441 1747 
Q 1441 1244 1636 976 
Q 1831 709 2203 709 
Q 2569 709 2762 976 
Q 2956 1244 2956 1747 
Q 2956 2250 2762 2517 
Q 2569 2784 2203 2784 
z
M 2203 3584 
Q 3106 3584 3614 3096 
Q 4122 2609 4122 1747 
Q 4122 884 3614 396 
Q 3106 -91 2203 -91 
Q 1297 -91 786 396 
Q 275 884 275 1747 
Q 275 2609 786 3096 
Q 1297 3584 2203 3584 
z
" transform="scale(0.015625)"/>
      <path id="DejaVuSans-Bold-74" d="M 1759 4494 
L 1759 3500 
L 2913 3500 
L 2913 2700 
L 1759 2700 
L 1759 1216 
Q 1759 972 1856 886 
Q 1953 800 2241 800 
L 2816 800 
L 2816 0 
L 1856 0 
Q 1194 0 917 276 
Q 641 553 641 1216 
L 641 2700 
L 84 2700 
L 84 3500 
L 641 3500 
L 641 4494 
L 1759 4494 
z
" transform="scale(0.015625)"/>
      <path id="DejaVuSans-Bold-61" d="M 2106 1575 
Q 1756 1575 1579 1456 
Q 1403 1338 1403 1106 
Q 1403 894 1545 773 
Q 1688 653 1941 653 
Q 2256 653 2472 879 
Q 2688 1106 2688 1447 
L 2688 1575 
L 2106 1575 
z
M 3816 1997 
L 3816 0 
L 2688 0 
L 2688 519 
Q 2463 200 2181 54 
Q 1900 -91 1497 -91 
Q 953 -91 614 226 
Q 275 544 275 1050 
Q 275 1666 698 1953 
Q 1122 2241 2028 2241 
L 2688 2241 
L 2688 2328 
Q 2688 2594 2478 2717 
Q 2269 2841 1825 2841 
Q 1466 2841 1156 2769 
Q 847 2697 581 2553 
L 581 3406 
Q 941 3494 1303 3539 
Q 1666 3584 2028 3584 
Q 2975 3584 3395 3211 
Q 3816 2838 3816 1997 
z
" transform="scale(0.015625)"/>
      <path id="DejaVuSans-Bold-6c" d="M 538 4863 
L 1656 4863 
L 1656 0 
L 538 0 
L 538 4863 
z
" transform="scale(0.015625)"/>
      <path id="DejaVuSans-Bold-20" transform="scale(0.015625)"/>
      <path id="DejaVuSans-Bold-52" d="M 2297 2597 
Q 2675 2597 2839 2737 
Q 3003 2878 3003 3200 
Q 3003 3519 2839 3656 
Q 2675 3794 2297 3794 
L 1791 3794 
L 1791 2597 
L 2297 2597 
z
M 1791 1766 
L 1791 0 
L 588 0 
L 588 4666 
L 2425 4666 
Q 3347 4666 3776 4356 
Q 4206 4047 4206 3378 
Q 4206 2916 3982 2619 
Q 3759 2322 3309 2181 
Q 3556 2125 3751 1926 
Q 3947 1728 4147 1325 
L 4800 0 
L 3519 0 
L 2950 1159 
Q 2778 1509 2601 1637 
Q 2425 1766 2131 1766 
L 1791 1766 
z
" transform="scale(0.015625)"/>
      <path id="DejaVuSans-Bold-65" d="M 4031 1759 
L 4031 1441 
L 1416 1441 
Q 1456 1047 1700 850 
Q 1944 653 2381 653 
Q 2734 653 3104 758 
Q 3475 863 3866 1075 
L 3866 213 
Q 3469 63 3072 -14 
Q 2675 -91 2278 -91 
Q 1328 -91 801 392 
Q 275 875 275 1747 
Q 275 2603 792 3093 
Q 1309 3584 2216 3584 
Q 3041 3584 3536 3087 
Q 4031 2591 4031 1759 
z
M 2881 2131 
Q 2881 2450 2695 2645 
Q 2509 2841 2209 2841 
Q 1884 2841 1681 2658 
Q 1478 2475 1428 2131 
L 2881 2131 
z
" transform="scale(0.015625)"/>
      <path id="DejaVuSans-Bold-70" d="M 1656 506 
L 1656 -1331 
L 538 -1331 
L 538 3500 
L 1656 3500 
L 1656 2988 
Q 1888 3294 2169 3439 
Q 2450 3584 2816 3584 
Q 3463 3584 3878 3070 
Q 4294 2556 4294 1747 
Q 4294 938 3878 423 
Q 3463 -91 2816 -91 
Q 2450 -91 2169 54 
Q 1888 200 1656 506 
z
M 2400 2772 
Q 2041 2772 1848 2508 
Q 1656 2244 1656 1747 
Q 1656 1250 1848 986 
Q 2041 722 2400 722 
Q 2759 722 2948 984 
Q 3138 1247 3138 1747 
Q 3138 2247 2948 2509 
Q 2759 2772 2400 2772 
z
" transform="scale(0.015625)"/>
      <path id="DejaVuSans-Bold-73" d="M 3272 3391 
L 3272 2541 
Q 2913 2691 2578 2766 
Q 2244 2841 1947 2841 
Q 1628 2841 1473 2761 
Q 1319 2681 1319 2516 
Q 1319 2381 1436 2309 
Q 1553 2238 1856 2203 
L 2053 2175 
Q 2913 2066 3209 1816 
Q 3506 1566 3506 1031 
Q 3506 472 3093 190 
Q 2681 -91 1863 -91 
Q 1516 -91 1145 -36 
Q 775 19 384 128 
L 384 978 
Q 719 816 1070 734 
Q 1422 653 1784 653 
Q 2113 653 2278 743 
Q 2444 834 2444 1013 
Q 2444 1163 2330 1236 
Q 2216 1309 1875 1350 
L 1678 1375 
Q 931 1469 631 1722 
Q 331 1975 331 2491 
Q 331 3047 712 3315 
Q 1094 3584 1881 3584 
Q 2191 3584 2531 3537 
Q 2872 3491 3272 3391 
z
" transform="scale(0.015625)"/>
      <path id="DejaVuSans-Bold-69" d="M 538 3500 
L 1656 3500 
L 1656 0 
L 538 0 
L 538 3500 
z
M 538 4863 
L 1656 4863 
L 1656 3950 
L 538 3950 
L 538 4863 
z
" transform="scale(0.015625)"/>
      <path id="DejaVuSans-Bold-72" d="M 3138 2547 
Q 2991 2616 2845 2648 
Q 2700 2681 2553 2681 
Q 2122 2681 1889 2404 
Q 1656 2128 1656 1613 
L 1656 0 
L 538 0 
L 538 3500 
L 1656 3500 
L 1656 2925 
Q 1872 3269 2151 3426 
Q 2431 3584 2822 3584 
Q 2878 3584 2943 3579 
Q 3009 3575 3134 3559 
L 3138 2547 
z
" transform="scale(0.015625)"/>
      <path id="DejaVuSans-Bold-79" d="M 78 3500 
L 1197 3500 
L 2138 1125 
L 2938 3500 
L 4056 3500 
L 2584 -331 
Q 2363 -916 2067 -1148 
Q 1772 -1381 1288 -1381 
L 641 -1381 
L 641 -647 
L 991 -647 
Q 1275 -647 1404 -556 
Q 1534 -466 1606 -231 
L 1638 -134 
L 78 3500 
z
" transform="scale(0.015625)"/>
      <path id="DejaVuSans-Bold-53" d="M 3834 4519 
L 3834 3531 
Q 3450 3703 3084 3790 
Q 2719 3878 2394 3878 
Q 1963 3878 1756 3759 
Q 1550 3641 1550 3391 
Q 1550 3203 1689 3098 
Q 1828 2994 2194 2919 
L 2706 2816 
Q 3484 2659 3812 2340 
Q 4141 2022 4141 1434 
Q 4141 663 3683 286 
Q 3225 -91 2284 -91 
Q 1841 -91 1394 -6 
Q 947 78 500 244 
L 500 1259 
Q 947 1022 1364 901 
Q 1781 781 2169 781 
Q 2563 781 2772 912 
Q 2981 1044 2981 1288 
Q 2981 1506 2839 1625 
Q 2697 1744 2272 1838 
L 1806 1941 
Q 1106 2091 782 2419 
Q 459 2747 459 3303 
Q 459 4000 909 4375 
Q 1359 4750 2203 4750 
Q 2588 4750 2994 4692 
Q 3400 4634 3834 4519 
z
" transform="scale(0.015625)"/>
     </defs>
     <use xlink:href="#DejaVuSans-Bold-54"/>
     <use xlink:href="#DejaVuSans-Bold-6f" transform="translate(54.962891 0)"/>
     <use xlink:href="#DejaVuSans-Bold-74" transform="translate(123.664062 0)"/>
     <use xlink:href="#DejaVuSans-Bold-61" transform="translate(171.466797 0)"/>
     <use xlink:href="#DejaVuSans-Bold-6c" transform="translate(238.947266 0)"/>
     <use xlink:href="#DejaVuSans-Bold-20" transform="translate(273.224609 0)"/>
     <use xlink:href="#DejaVuSans-Bold-52" transform="translate(308.039062 0)"/>
     <use xlink:href="#DejaVuSans-Bold-65" transform="translate(385.041016 0)"/>
     <use xlink:href="#DejaVuSans-Bold-70" transform="translate(452.863281 0)"/>
     <use xlink:href="#DejaVuSans-Bold-6f" transform="translate(524.445312 0)"/>
     <use xlink:href="#DejaVuSans-Bold-73" transform="translate(593.146484 0)"/>
     <use xlink:href="#DejaVuSans-Bold-69" transform="translate(652.667969 0)"/>
     <use xlink:href="#DejaVuSans-Bold-74" transform="translate(686.945312 0)"/>
     <use xlink:href="#DejaVuSans-Bold-6f" transform="translate(734.748047 0)"/>
     <use xlink:href="#DejaVuSans-Bold-72" transform="translate(803.449219 0)"/>
     <use xlink:href="#DejaVuSans-Bold-79" transform="translate(852.765625 0)"/>
     <use xlink:href="#DejaVuSans-Bold-20" transform="translate(917.951172 0)"/>
     <use xlink:href="#DejaVuSans-Bold-53" transform="translate(952.765625 0)"/>
     <use xlink:href="#DejaVuSans-Bold-74" transform="translate(1024.787109 0)"/>
     <use xlink:href="#DejaVuSans-Bold-61" transform="translate(1072.589844 0)"/>
     <use xlink:href="#DejaVuSans-Bold-72" transform="translate(1140.070312 0)"/>
     <use xlink:href="#DejaVuSans-Bold-73" transform="translate(1189.386719 0)"/>
    </g>
   </g>
  </g>
 </g>
 <defs>
  <clipPath id="p33ae33fe4b">
   <rect x="54.74" y="36.6" width="654.46" height="269.862568"/>
  </clipPath>
 </defs>
</svg>
