<?xml version="1.0" encoding="utf-8" standalone="no"?>
<!DOCTYPE svg PUBLIC "-//W3C//DTD SVG 1.1//EN"
  "http://www.w3.org/Graphics/SVG/1.1/DTD/svg11.dtd">
<svg xmlns:xlink="http://www.w3.org/1999/xlink" width="720pt" height="360pt" viewBox="0 0 720 360" xmlns="http://www.w3.org/2000/svg" version="1.1">
 <metadata>
  <rdf:RDF xmlns:dc="http://purl.org/dc/elements/1.1/" xmlns:cc="http://creativecommons.org/ns#" xmlns:rdf="http://www.w3.org/1999/02/22-rdf-syntax-ns#">
   <cc:Work>
    <dc:type rdf:resource="http://purl.org/dc/dcmitype/StillImage"/>
    <dc:date>2026-02-28T00:21:09.798997</dc:date>
    <dc:format>image/svg+xml</dc:format>
    <dc:creator>
     <cc:Agent>
      <dc:title>Matplotlib v3.10.8, https://matplotlib.org/</dc:title>
     </cc:Agent>
    </dc:creator>
   </cc:Work>
  </rdf:RDF>
 </metadata>
 <defs>
  <style type="text/css">*{stroke-linejoin: round; stroke-linecap: butt}</style>
 </defs>
 <g id="figure_1">
  <g id="patch_1">
   <path d="M 0 360 
L 720 360 
L 720 0 
L 0 0 
z
" style="fill: #0d1117"/>
  </g>
  <g id="axes_1">
   <g id="patch_2">
    <path d="M 51.68 306.462568 
L 709.2 306.462568 
L 709.2 36.6 
L 51.68 36.6 
z
" style="fill: #0d1117"/>
   </g>
   <g id="matplotlib.axis_1">
    <g id="xtick_1">
     <g id="line2d_1">
      <path d="M 100.849384 306.462568 
L 100.849384 36.6 
" clip-path="url(#p6c8e183f3c)" style="fill: none; stroke: #30363d; stroke-opacity: 0.2; stroke-width: 0.8; stroke-linecap: square"/>
     </g>
     <g id="line2d_2">
      <defs>
       <path id="ma042c94a16" d="M 0 0 
L 0 3.5 
" style="stroke: #c9d1d9; stroke-width: 0.8"/>
      </defs>
      <g>
       <use xlink:href="#ma042c94a16" x="100.849384" y="306.462568" style="fill: #c9d1d9; stroke: #c9d1d9; stroke-width: 0.8"/>
      </g>
     </g>
     <g id="text_1">
      <!-- Oct -->
      <g style="fill: #c9d1d9" transform="translate(87.152505 331.061793) rotate(-45) scale(0.1 -0.1)">
       <defs>
        <path id="DejaVuSans-4f" d="M 2522 4238 
Q 1834 4238 1429 3725 
Q 1025 3213 1025 2328 
Q 1025 1447 1429 934 
Q 1834 422 2522 422 
Q 3209 422 3611 934 
Q 4013 1447 4013 2328 
Q 4013 3213 3611 3725 
Q 3209 4238 2522 4238 
z
M 2522 4750 
Q 3503 4750 4090 4092 
Q 4678 3434 4678 2328 
Q 4678 1225 4090 567 
Q 3503 -91 2522 -91 
Q 1538 -91 948 565 
Q 359 1222 359 2328 
Q 359 3434 948 4092 
Q 1538 4750 2522 4750 
z
" transform="scale(0.015625)"/>
        <path id="DejaVuSans-63" d="M 3122 3366 
L 3122 2828 
Q 2878 2963 2633 3030 
Q 2388 3097 2138 3097 
Q 1578 3097 1268 2742 
Q 959 2388 959 1747 
Q 959 1106 1268 751 
Q 1578 397 2138 397 
Q 2388 397 2633 464 
Q 2878 531 3122 666 
L 3122 134 
Q 2881 22 2623 -34 
Q 2366 -91 2075 -91 
Q 1284 -91 818 406 
Q 353 903 353 1747 
Q 353 2603 823 3093 
Q 1294 3584 2113 3584 
Q 2378 3584 2631 3529 
Q 2884 3475 3122 3366 
z
" transform="scale(0.015625)"/>
        <path id="DejaVuSans-74" d="M 1172 4494 
L 1172 3500 
L 2356 3500 
L 2356 3053 
L 1172 3053 
L 1172 1153 
Q 1172 725 1289 603 
Q 1406 481 1766 481 
L 2356 481 
L 2356 0 
L 1766 0 
Q 1100 0 847 248 
Q 594 497 594 1153 
L 594 3053 
L 172 3053 
L 172 3500 
L 594 3500 
L 594 4494 
L 1172 4494 
z
" transform="scale(0.015625)"/>
       </defs>
       <use xlink:href="#DejaVuSans-4f"/>
       <use xlink:href="#DejaVuSans-63" transform="translate(78.710938 0)"/>
       <use xlink:href="#DejaVuSans-74" transform="translate(133.691406 0)"/>
      </g>
     </g>
    </g>
    <g id="xtick_2">
     <g id="line2d_3">
      <path d="M 220.398475 306.462568 
L 220.398475 36.6 
" clip-path="url(#p6c8e183f3c)" style="fill: none; stroke: #30363d; stroke-opacity: 0.2; stroke-width: 0.8; stroke-linecap: square"/>
     </g>
     <g id="line2d_4">
      <g>
       <use xlink:href="#ma042c94a16" x="220.398475" y="306.462568" style="fill: #c9d1d9; stroke: #c9d1d9; stroke-width: 0.8"/>
      </g>
     </g>
     <g id="text_2">
      <!-- Nov -->
      <g style="fill: #c9d1d9" transform="translate(205.126073 332.637315) rotate(-45) scale(0.1 -0.1)">
       <defs>
        <path id="DejaVuSans-4e" d="M 628 4666 
L 1478 4666 
L 3547 763 
L 3547 4666 
L 4159 4666 
L 4159 0 
L 3309 0 
L 1241 3903 
L 1241 0 
L 628 0 
L 628 4666 
z
" transform="scale(0.015625)"/>
        <path id="DejaVuSans-6f" d="M 1959 3097 
Q 1497 3097 1228 2736 
Q 959 2375 959 1747 
Q 959 1119 1226 758 
Q 1494 397 1959 397 
Q 2419 397 2687 759 
Q 2956 1122 2956 1747 
Q 2956 2369 2687 2733 
Q 2419 3097 1959 3097 
z
M 1959 3584 
Q 2709 3584 3137 3096 
Q 3566 2609 3566 1747 
Q 3566 888 3137 398 
Q 2709 -91 1959 -91 
Q 1206 -91 779 398 
Q 353 888 353 1747 
Q 353 2609 779 3096 
Q 1206 3584 1959 3584 
z
" transform="scale(0.015625)"/>
        <path id="DejaVuSans-76" d="M 191 3500 
L 800 3500 
L 1894 563 
L 2988 3500 
L 3597 3500 
L 2284 0 
L 1503 0 
L 191 3500 
z
" transform="scale(0.015625)"/>
       </defs>
       <use xlink:href="#DejaVuSans-4e"/>
       <use xlink:href="#DejaVuSans-6f" transform="translate(74.804688 0)"/>
       <use xlink:href="#DejaVuSans-76" transform="translate(135.986328 0)"/>
      </g>
     </g>
    </g>
    <g id="xtick_3">
     <g id="line2d_5">
      <path d="M 336.091144 306.462568 
L 336.091144 36.6 
" clip-path="url(#p6c8e183f3c)" style="fill: none; stroke: #30363d; stroke-opacity: 0.2; stroke-width: 0.8; stroke-linecap: square"/>
     </g>
     <g id="line2d_6">
      <g>
       <use xlink:href="#ma042c94a16" x="336.091144" y="306.462568" style="fill: #c9d1d9; stroke: #c9d1d9; stroke-width: 0.8"/>
      </g>
     </g>
     <g id="text_3">
      <!-- Dec -->
      <g style="fill: #c9d1d9" transform="translate(320.936961 332.519096) rotate(-45) scale(0.1 -0.1)">
       <defs>
        <path id="DejaVuSans-44" d="M 1259 4147 
L 1259 519 
L 2022 519 
Q 2988 519 3436 956 
Q 3884 1394 3884 2338 
Q 3884 3275 3436 3711 
Q 2988 4147 2022 4147 
L 1259 4147 
z
M 628 4666 
L 1925 4666 
Q 3281 4666 3915 4102 
Q 4550 3538 4550 2338 
Q 4550 1131 3912 565 
Q 3275 0 1925 0 
L 628 0 
L 628 4666 
z
" transform="scale(0.015625)"/>
        <path id="DejaVuSans-65" d="M 3597 1894 
L 3597 1613 
L 953 1613 
Q 991 1019 1311 708 
Q 1631 397 2203 397 
Q 2534 397 2845 478 
Q 3156 559 3463 722 
L 3463 178 
Q 3153 47 2828 -22 
Q 2503 -91 2169 -91 
Q 1331 -91 842 396 
Q 353 884 353 1716 
Q 353 2575 817 3079 
Q 1281 3584 2069 3584 
Q 2775 3584 3186 3129 
Q 3597 2675 3597 1894 
z
M 3022 2063 
Q 3016 2534 2758 2815 
Q 2500 3097 2075 3097 
Q 1594 3097 1305 2825 
Q 1016 2553 972 2059 
L 3022 2063 
z
" transform="scale(0.015625)"/>
       </defs>
       <use xlink:href="#DejaVuSans-44"/>
       <use xlink:href="#DejaVuSans-65" transform="translate(77.001953 0)"/>
       <use xlink:href="#DejaVuSans-63" transform="translate(138.525391 0)"/>
      </g>
     </g>
    </g>
    <g id="xtick_4">
     <g id="line2d_7">
      <path d="M 455.640235 306.462568 
L 455.640235 36.6 
" clip-path="url(#p6c8e183f3c)" style="fill: none; stroke: #30363d; stroke-opacity: 0.2; stroke-width: 0.8; stroke-linecap: square"/>
     </g>
     <g id="line2d_8">
      <g>
       <use xlink:href="#ma042c94a16" x="455.640235" y="306.462568" style="fill: #c9d1d9; stroke: #c9d1d9; stroke-width: 0.8"/>
      </g>
     </g>
     <g id="text_4">
      <!-- Jan -->
      <g style="fill: #c9d1d9" transform="translate(443.26918 329.735968) rotate(-45) scale(0.1 -0.1)">
       <defs>
        <path id="DejaVuSans-4a" d="M 628 4666 
L 1259 4666 
L 1259 325 
Q 1259 -519 939 -900 
Q 619 -1281 -91 -1281 
L -331 -1281 
L -331 -750 
L -134 -750 
Q 284 -750 456 -515 
Q 628 -281 628 325 
L 628 4666 
z
" transform="scale(0.015625)"/>
        <path id="DejaVuSans-61" d="M 2194 1759 
Q 1497 1759 1228 1600 
Q 959 1441 959 1056 
Q 959 750 1161 570 
Q 1363 391 1709 391 
Q 2188 391 2477 730 
Q 2766 1069 2766 1631 
L 2766 1759 
L 2194 1759 
z
M 3341 1997 
L 3341 0 
L 2766 0 
L 2766 531 
Q 2569 213 2275 61 
Q 1981 -91 1556 -91 
Q 1019 -91 701 211 
Q 384 513 384 1019 
Q 384 1609 779 1909 
Q 1175 2209 1959 2209 
L 2766 2209 
L 2766 2266 
Q 2766 2663 2505 2880 
Q 2244 3097 1772 3097 
Q 1472 3097 1187 3025 
Q 903 2953 641 2809 
L 641 3341 
Q 956 3463 1253 3523 
Q 1550 3584 1831 3584 
Q 2591 3584 2966 3190 
Q 3341 2797 3341 1997 
z
" transform="scale(0.015625)"/>
        <path id="DejaVuSans-6e" d="M 3513 2113 
L 3513 0 
L 2938 0 
L 2938 2094 
Q 2938 2591 2744 2837 
Q 2550 3084 2163 3084 
Q 1697 3084 1428 2787 
Q 1159 2491 1159 1978 
L 1159 0 
L 581 0 
L 581 3500 
L 1159 3500 
L 1159 2956 
Q 1366 3272 1645 3428 
Q 1925 3584 2291 3584 
Q 2894 3584 3203 3211 
Q 3513 2838 3513 2113 
z
" transform="scale(0.015625)"/>
       </defs>
       <use xlink:href="#DejaVuSans-4a"/>
       <use xlink:href="#DejaVuSans-61" transform="translate(29.492188 0)"/>
       <use xlink:href="#DejaVuSans-6e" transform="translate(90.771484 0)"/>
      </g>
     </g>
    </g>
    <g id="xtick_5">
     <g id="line2d_9">
      <path d="M 575.189326 306.462568 
L 575.189326 36.6 
" clip-path="url(#p6c8e183f3c)" style="fill: none; stroke: #30363d; stroke-opacity: 0.2; stroke-width: 0.8; stroke-linecap: square"/>
     </g>
     <g id="line2d_10">
      <g>
       <use xlink:href="#ma042c94a16" x="575.189326" y="306.462568" style="fill: #c9d1d9; stroke: #c9d1d9; stroke-width: 0.8"/>
      </g>
     </g>
     <g id="text_5">
      <!-- Feb -->
      <g style="fill: #c9d1d9" transform="translate(561.200765 331.353475) rotate(-45) scale(0.1 -0.1)">
       <defs>
        <path id="DejaVuSans-46" d="M 628 4666 
L 3309 4666 
L 3309 4134 
L 1259 4134 
L 1259 2759 
L 3109 2759 
L 3109 2228 
L 1259 2228 
L 1259 0 
L 628 0 
L 628 4666 
z
" transform="scale(0.015625)"/>
        <path id="DejaVuSans-62" d="M 3116 1747 
Q 3116 2381 2855 2742 
Q 2594 3103 2138 3103 
Q 1681 3103 1420 2742 
Q 1159 2381 1159 1747 
Q 1159 1113 1420 752 
Q 1681 391 2138 391 
Q 2594 391 2855 752 
Q 3116 1113 3116 1747 
z
M 1159 2969 
Q 1341 3281 1617 3432 
Q 1894 3584 2278 3584 
Q 2916 3584 3314 3078 
Q 3713 2572 3713 1747 
Q 3713 922 3314 415 
Q 2916 -91 2278 -91 
Q 1894 -91 1617 61 
Q 1341 213 1159 525 
L 1159 0 
L 581 0 
L 581 4863 
L 1159 4863 
L 1159 2969 
z
" transform="scale(0.015625)"/>
       </defs>
       <use xlink:href="#DejaVuSans-46"/>
       <use xlink:href="#DejaVuSans-65" transform="translate(52.019531 0)"/>
       <use xlink:href="#DejaVuSans-62" transform="translate(113.542969 0)"/>
      </g>
     </g>
    </g>
    <g id="xtick_6">
     <g id="line2d_11">
      <path d="M 683.16915 306.462568 
L 683.16915 36.6 
" clip-path="url(#p6c8e183f3c)" style="fill: none; stroke: #30363d; stroke-opacity: 0.2; stroke-width: 0.8; stroke-linecap: square"/>
     </g>
     <g id="line2d_12">
      <g>
       <use xlink:href="#ma042c94a16" x="683.16915" y="306.462568" style="fill: #c9d1d9; stroke: #c9d1d9; stroke-width: 0.8"/>
      </g>
     </g>
     <g id="text_6">
      <!-- Mar -->
      <g style="fill: #c9d1d9" transform="translate(668.357472 332.176591) rotate(-45) scale(0.1 -0.1)">
       <defs>
        <path id="DejaVuSans-4d" d="M 628 4666 
L 1569 4666 
L 2759 1491 
L 3956 4666 
L 4897 4666 
L 4897 0 
L 4281 0 
L 4281 4097 
L 3078 897 
L 2444 897 
L 1241 4097 
L 1241 0 
L 628 0 
L 628 4666 
z
" transform="scale(0.015625)"/>
        <path id="DejaVuSans-72" d="M 2631 2963 
Q 2534 3019 2420 3045 
Q 2306 3072 2169 3072 
Q 1681 3072 1420 2755 
Q 1159 2438 1159 1844 
L 1159 0 
L 581 0 
L 581 3500 
L 1159 3500 
L 1159 2956 
Q 1341 3275 1631 3429 
Q 1922 3584 2338 3584 
Q 2397 3584 2469 3576 
Q 2541 3569 2628 3553 
L 2631 2963 
z
" transform="scale(0.015625)"/>
       </defs>
       <use xlink:href="#DejaVuSans-4d"/>
       <use xlink:href="#DejaVuSans-61" transform="translate(86.279297 0)"/>
       <use xlink:href="#DejaVuSans-72" transform="translate(147.558594 0)"/>
      </g>
     </g>
    </g>
    <g id="text_7">
     <!-- Date -->
     <g style="fill: #c9d1d9" transform="translate(367.294141 346.466158) scale(0.11 -0.11)">
      <use xlink:href="#DejaVuSans-44"/>
      <use xlink:href="#DejaVuSans-61" transform="translate(77.001953 0)"/>
      <use xlink:href="#DejaVuSans-74" transform="translate(138.28125 0)"/>
      <use xlink:href="#DejaVuSans-65" transform="translate(177.490234 0)"/>
     </g>
    </g>
   </g>
   <g id="matplotlib.axis_2">
    <g id="ytick_1">
     <g id="line2d_13">
      <path d="M 51.68 270.831363 
L 709.2 270.831363 
" clip-path="url(#p6c8e183f3c)" style="fill: none; stroke: #30363d; stroke-opacity: 0.2; stroke-width: 0.8; stroke-linecap: square"/>
     </g>
     <g id="line2d_14">
      <defs>
       <path id="m1057038604" d="M 0 0 
L -3.5 0 
" style="stroke: #c9d1d9; stroke-width: 0.8"/>
      </defs>
      <g>
       <use xlink:href="#m1057038604" x="51.68" y="270.831363" style="fill: #c9d1d9; stroke: #c9d1d9; stroke-width: 0.8"/>
      </g>
     </g>
     <g id="text_8">
      <!-- 70 -->
      <g style="fill: #c9d1d9" transform="translate(31.955 274.630582) scale(0.1 -0.1)">
       <defs>
        <path id="DejaVuSans-37" d="M 525 4666 
L 3525 4666 
L 3525 4397 
L 1831 0 
L 1172 0 
L 2766 4134 
L 525 4134 
L 525 4666 
z
" transform="scale(0.015625)"/>
        <path id="DejaVuSans-30" d="M 2034 4250 
Q 1547 4250 1301 3770 
Q 1056 3291 1056 2328 
Q 1056 1369 1301 889 
Q 1547 409 2034 409 
Q 2525 409 2770 889 
Q 3016 1369 3016 2328 
Q 3016 3291 2770 3770 
Q 2525 4250 2034 4250 
z
M 2034 4750 
Q 2819 4750 3233 4129 
Q 3647 3509 3647 2328 
Q 3647 1150 3233 529 
Q 2819 -91 2034 -91 
Q 1250 -91 836 529 
Q 422 1150 422 2328 
Q 422 3509 836 4129 
Q 1250 4750 2034 4750 
z
" transform="scale(0.015625)"/>
       </defs>
       <use xlink:href="#DejaVuSans-37"/>
       <use xlink:href="#DejaVuSans-30" transform="translate(63.623047 0)"/>
      </g>
     </g>
    </g>
    <g id="ytick_2">
     <g id="line2d_15">
      <path d="M 51.68 212.419552 
L 709.2 212.419552 
" clip-path="url(#p6c8e183f3c)" style="fill: none; stroke: #30363d; stroke-opacity: 0.2; stroke-width: 0.8; stroke-linecap: square"/>
     </g>
     <g id="line2d_16">
      <g>
       <use xlink:href="#m1057038604" x="51.68" y="212.419552" style="fill: #c9d1d9; stroke: #c9d1d9; stroke-width: 0.8"/>
      </g>
     </g>
     <g id="text_9">
      <!-- 80 -->
      <g style="fill: #c9d1d9" transform="translate(31.955 216.218771) scale(0.1 -0.1)">
       <defs>
        <path id="DejaVuSans-38" d="M 2034 2216 
Q 1584 2216 1326 1975 
Q 1069 1734 1069 1313 
Q 1069 891 1326 650 
Q 1584 409 2034 409 
Q 2484 409 2743 651 
Q 3003 894 3003 1313 
Q 3003 1734 2745 1975 
Q 2488 2216 2034 2216 
z
M 1403 2484 
Q 997 2584 770 2862 
Q 544 3141 544 3541 
Q 544 4100 942 4425 
Q 1341 4750 2034 4750 
Q 2731 4750 3128 4425 
Q 3525 4100 3525 3541 
Q 3525 3141 3298 2862 
Q 3072 2584 2669 2484 
Q 3125 2378 3379 2068 
Q 3634 1759 3634 1313 
Q 3634 634 3220 271 
Q 2806 -91 2034 -91 
Q 1263 -91 848 271 
Q 434 634 434 1313 
Q 434 1759 690 2068 
Q 947 2378 1403 2484 
z
M 1172 3481 
Q 1172 3119 1398 2916 
Q 1625 2713 2034 2713 
Q 2441 2713 2670 2916 
Q 2900 3119 2900 3481 
Q 2900 3844 2670 4047 
Q 2441 4250 2034 4250 
Q 1625 4250 1398 4047 
Q 1172 3844 1172 3481 
z
" transform="scale(0.015625)"/>
       </defs>
       <use xlink:href="#DejaVuSans-38"/>
       <use xlink:href="#DejaVuSans-30" transform="translate(63.623047 0)"/>
      </g>
     </g>
    </g>
    <g id="ytick_3">
     <g id="line2d_17">
      <path d="M 51.68 154.007741 
L 709.2 154.007741 
" clip-path="url(#p6c8e183f3c)" style="fill: none; stroke: #30363d; stroke-opacity: 0.2; stroke-width: 0.8; stroke-linecap: square"/>
     </g>
     <g id="line2d_18">
      <g>
       <use xlink:href="#m1057038604" x="51.68" y="154.007741" style="fill: #c9d1d9; stroke: #c9d1d9; stroke-width: 0.8"/>
      </g>
     </g>
     <g id="text_10">
      <!-- 90 -->
      <g style="fill: #c9d1d9" transform="translate(31.955 157.806959) scale(0.1 -0.1)">
       <defs>
        <path id="DejaVuSans-39" d="M 703 97 
L 703 672 
Q 941 559 1184 500 
Q 1428 441 1663 441 
Q 2288 441 2617 861 
Q 2947 1281 2994 2138 
Q 2813 1869 2534 1725 
Q 2256 1581 1919 1581 
Q 1219 1581 811 2004 
Q 403 2428 403 3163 
Q 403 3881 828 4315 
Q 1253 4750 1959 4750 
Q 2769 4750 3195 4129 
Q 3622 3509 3622 2328 
Q 3622 1225 3098 567 
Q 2575 -91 1691 -91 
Q 1453 -91 1209 -44 
Q 966 3 703 97 
z
M 1959 2075 
Q 2384 2075 2632 2365 
Q 2881 2656 2881 3163 
Q 2881 3666 2632 3958 
Q 2384 4250 1959 4250 
Q 1534 4250 1286 3958 
Q 1038 3666 1038 3163 
Q 1038 2656 1286 2365 
Q 1534 2075 1959 2075 
z
" transform="scale(0.015625)"/>
       </defs>
       <use xlink:href="#DejaVuSans-39"/>
       <use xlink:href="#DejaVuSans-30" transform="translate(63.623047 0)"/>
      </g>
     </g>
    </g>
    <g id="ytick_4">
     <g id="line2d_19">
      <path d="M 51.68 95.595929 
L 709.2 95.595929 
" clip-path="url(#p6c8e183f3c)" style="fill: none; stroke: #30363d; stroke-opacity: 0.2; stroke-width: 0.8; stroke-linecap: square"/>
     </g>
     <g id="line2d_20">
      <g>
       <use xlink:href="#m1057038604" x="51.68" y="95.595929" style="fill: #c9d1d9; stroke: #c9d1d9; stroke-width: 0.8"/>
      </g>
     </g>
     <g id="text_11">
      <!-- 100 -->
      <g style="fill: #c9d1d9" transform="translate(25.5925 99.395148) scale(0.1 -0.1)">
       <defs>
        <path id="DejaVuSans-31" d="M 794 531 
L 1825 531 
L 1825 4091 
L 703 3866 
L 703 4441 
L 1819 4666 
L 2450 4666 
L 2450 531 
L 3481 531 
L 3481 0 
L 794 0 
L 794 531 
z
" transform="scale(0.015625)"/>
       </defs>
       <use xlink:href="#DejaVuSans-31"/>
       <use xlink:href="#DejaVuSans-30" transform="translate(63.623047 0)"/>
       <use xlink:href="#DejaVuSans-30" transform="translate(127.246094 0)"/>
      </g>
     </g>
    </g>
    <g id="ytick_5">
     <g id="line2d_21">
      <path d="M 51.68 37.184118 
L 709.2 37.184118 
" clip-path="url(#p6c8e183f3c)" style="fill: none; stroke: #30363d; stroke-opacity: 0.2; stroke-width: 0.8; stroke-linecap: square"/>
     </g>
     <g id="line2d_22">
      <g>
       <use xlink:href="#m1057038604" x="51.68" y="37.184118" style="fill: #c9d1d9; stroke: #c9d1d9; stroke-width: 0.8"/>
      </g>
     </g>
     <g id="text_12">
      <!-- 110 -->
      <g style="fill: #c9d1d9" transform="translate(25.5925 40.983337) scale(0.1 -0.1)">
       <use xlink:href="#DejaVuSans-31"/>
       <use xlink:href="#DejaVuSans-31" transform="translate(63.623047 0)"/>
       <use xlink:href="#DejaVuSans-30" transform="translate(127.246094 0)"/>
      </g>
     </g>
    </g>
    <g id="text_13">
     <!-- Count -->
     <g style="fill: #c9d1d9" transform="translate(19.304844 187.864565) rotate(-90) scale(0.11 -0.11)">
      <defs>
       <path id="DejaVuSans-43" d="M 4122 4306 
L 4122 3641 
Q 3803 3938 3442 4084 
Q 3081 4231 2675 4231 
Q 1875 4231 1450 3742 
Q 1025 3253 1025 2328 
Q 1025 1406 1450 917 
Q 1875 428 2675 428 
Q 3081 428 3442 575 
Q 3803 722 4122 1019 
L 4122 359 
Q 3791 134 3420 21 
Q 3050 -91 2638 -91 
Q 1578 -91 968 557 
Q 359 1206 359 2328 
Q 359 3453 968 4101 
Q 1578 4750 2638 4750 
Q 3056 4750 3426 4639 
Q 3797 4528 4122 4306 
z
" transform="scale(0.015625)"/>
       <path id="DejaVuSans-75" d="M 544 1381 
L 544 3500 
L 1119 3500 
L 1119 1403 
Q 1119 906 1312 657 
Q 1506 409 1894 409 
Q 2359 409 2629 706 
Q 2900 1003 2900 1516 
L 2900 3500 
L 3475 3500 
L 3475 0 
L 2900 0 
L 2900 538 
Q 2691 219 2414 64 
Q 2138 -91 1772 -91 
Q 1169 -91 856 284 
Q 544 659 544 1381 
z
M 1991 3584 
L 1991 3584 
z
" transform="scale(0.015625)"/>
      </defs>
      <use xlink:href="#DejaVuSans-43"/>
      <use xlink:href="#DejaVuSans-6f" transform="translate(69.824219 0)"/>
      <use xlink:href="#DejaVuSans-75" transform="translate(131.005859 0)"/>
      <use xlink:href="#DejaVuSans-6e" transform="translate(194.384766 0)"/>
      <use xlink:href="#DejaVuSans-74" transform="translate(257.763672 0)"/>
     </g>
    </g>
   </g>
   <g id="line2d_23">
    <path d="M 81.567273 294.196088 
L 197.259941 294.196088 
L 224.254897 253.30782 
L 228.11132 253.30782 
L 231.967742 247.466639 
L 243.537009 247.466639 
L 247.393431 253.30782 
L 305.239765 253.30782 
L 309.096188 247.466639 
L 324.521877 247.466639 
L 332.234721 235.784277 
L 351.516833 235.784277 
L 355.373255 229.943095 
L 363.0861 229.943095 
L 366.942522 224.101914 
L 382.368211 224.101914 
L 386.224633 218.260733 
L 397.7939 218.260733 
L 401.650323 212.419552 
L 417.076012 212.419552 
L 420.932434 194.896009 
L 428.645279 194.896009 
L 432.501701 189.054827 
L 463.353079 189.054827 
L 467.209501 183.213646 
L 471.065924 183.213646 
L 478.778768 177.372465 
L 482.635191 177.372465 
L 490.348035 165.690103 
L 501.917302 165.690103 
L 505.773724 118.960654 
L 548.19437 118.960654 
L 552.050792 113.119473 
L 563.620059 113.119473 
L 567.476481 107.278292 
L 571.332903 107.278292 
L 575.189326 101.437111 
L 636.892082 101.437111 
L 640.748504 60.548843 
L 663.887038 60.548843 
L 671.599883 48.86648 
L 679.312727 48.86648 
L 679.312727 48.86648 
" clip-path="url(#p6c8e183f3c)" style="fill: none; stroke: #3fb950; stroke-width: 2.5; stroke-linecap: square"/>
    <defs>
     <path id="m4f0f14ab0a" d="M 0 2.5 
C 0.663008 2.5 1.29895 2.236584 1.767767 1.767767 
C 2.236584 1.29895 2.5 0.663008 2.5 0 
C 2.5 -0.663008 2.236584 -1.29895 1.767767 -1.767767 
C 1.29895 -2.236584 0.663008 -2.5 0 -2.5 
C -0.663008 -2.5 -1.29895 -2.236584 -1.767767 -1.767767 
C -2.236584 -1.29895 -2.5 -0.663008 -2.5 0 
C -2.5 0.663008 -2.236584 1.29895 -1.767767 1.767767 
C -1.29895 2.236584 -0.663008 2.5 0 2.5 
z
" style="stroke: #3fb950"/>
    </defs>
    <g clip-path="url(#p6c8e183f3c)">
     <use xlink:href="#m4f0f14ab0a" x="81.567273" y="294.196088" style="fill: #3fb950; stroke: #3fb950"/>
     <use xlink:href="#m4f0f14ab0a" x="85.423695" y="294.196088" style="fill: #3fb950; stroke: #3fb950"/>
     <use xlink:href="#m4f0f14ab0a" x="89.280117" y="294.196088" style="fill: #3fb950; stroke: #3fb950"/>
     <use xlink:href="#m4f0f14ab0a" x="93.13654" y="294.196088" style="fill: #3fb950; stroke: #3fb950"/>
     <use xlink:href="#m4f0f14ab0a" x="96.992962" y="294.196088" style="fill: #3fb950; stroke: #3fb950"/>
     <use xlink:href="#m4f0f14ab0a" x="100.849384" y="294.196088" style="fill: #3fb950; stroke: #3fb950"/>
     <use xlink:href="#m4f0f14ab0a" x="104.705806" y="294.196088" style="fill: #3fb950; stroke: #3fb950"/>
     <use xlink:href="#m4f0f14ab0a" x="108.562229" y="294.196088" style="fill: #3fb950; stroke: #3fb950"/>
     <use xlink:href="#m4f0f14ab0a" x="112.418651" y="294.196088" style="fill: #3fb950; stroke: #3fb950"/>
     <use xlink:href="#m4f0f14ab0a" x="116.275073" y="294.196088" style="fill: #3fb950; stroke: #3fb950"/>
     <use xlink:href="#m4f0f14ab0a" x="120.131496" y="294.196088" style="fill: #3fb950; stroke: #3fb950"/>
     <use xlink:href="#m4f0f14ab0a" x="123.987918" y="294.196088" style="fill: #3fb950; stroke: #3fb950"/>
     <use xlink:href="#m4f0f14ab0a" x="127.84434" y="294.196088" style="fill: #3fb950; stroke: #3fb950"/>
     <use xlink:href="#m4f0f14ab0a" x="131.700762" y="294.196088" style="fill: #3fb950; stroke: #3fb950"/>
     <use xlink:href="#m4f0f14ab0a" x="135.557185" y="294.196088" style="fill: #3fb950; stroke: #3fb950"/>
     <use xlink:href="#m4f0f14ab0a" x="139.413607" y="294.196088" style="fill: #3fb950; stroke: #3fb950"/>
     <use xlink:href="#m4f0f14ab0a" x="143.270029" y="294.196088" style="fill: #3fb950; stroke: #3fb950"/>
     <use xlink:href="#m4f0f14ab0a" x="147.126452" y="294.196088" style="fill: #3fb950; stroke: #3fb950"/>
     <use xlink:href="#m4f0f14ab0a" x="150.982874" y="294.196088" style="fill: #3fb950; stroke: #3fb950"/>
     <use xlink:href="#m4f0f14ab0a" x="154.839296" y="294.196088" style="fill: #3fb950; stroke: #3fb950"/>
     <use xlink:href="#m4f0f14ab0a" x="158.695718" y="294.196088" style="fill: #3fb950; stroke: #3fb950"/>
     <use xlink:href="#m4f0f14ab0a" x="162.552141" y="294.196088" style="fill: #3fb950; stroke: #3fb950"/>
     <use xlink:href="#m4f0f14ab0a" x="166.408563" y="294.196088" style="fill: #3fb950; stroke: #3fb950"/>
     <use xlink:href="#m4f0f14ab0a" x="170.264985" y="294.196088" style="fill: #3fb950; stroke: #3fb950"/>
     <use xlink:href="#m4f0f14ab0a" x="174.121408" y="294.196088" style="fill: #3fb950; stroke: #3fb950"/>
     <use xlink:href="#m4f0f14ab0a" x="177.97783" y="294.196088" style="fill: #3fb950; stroke: #3fb950"/>
     <use xlink:href="#m4f0f14ab0a" x="181.834252" y="294.196088" style="fill: #3fb950; stroke: #3fb950"/>
     <use xlink:href="#m4f0f14ab0a" x="185.690674" y="294.196088" style="fill: #3fb950; stroke: #3fb950"/>
     <use xlink:href="#m4f0f14ab0a" x="189.547097" y="294.196088" style="fill: #3fb950; stroke: #3fb950"/>
     <use xlink:href="#m4f0f14ab0a" x="193.403519" y="294.196088" style="fill: #3fb950; stroke: #3fb950"/>
     <use xlink:href="#m4f0f14ab0a" x="197.259941" y="294.196088" style="fill: #3fb950; stroke: #3fb950"/>
     <use xlink:href="#m4f0f14ab0a" x="224.254897" y="253.30782" style="fill: #3fb950; stroke: #3fb950"/>
     <use xlink:href="#m4f0f14ab0a" x="228.11132" y="253.30782" style="fill: #3fb950; stroke: #3fb950"/>
     <use xlink:href="#m4f0f14ab0a" x="231.967742" y="247.466639" style="fill: #3fb950; stroke: #3fb950"/>
     <use xlink:href="#m4f0f14ab0a" x="235.824164" y="247.466639" style="fill: #3fb950; stroke: #3fb950"/>
     <use xlink:href="#m4f0f14ab0a" x="239.680587" y="247.466639" style="fill: #3fb950; stroke: #3fb950"/>
     <use xlink:href="#m4f0f14ab0a" x="243.537009" y="247.466639" style="fill: #3fb950; stroke: #3fb950"/>
     <use xlink:href="#m4f0f14ab0a" x="247.393431" y="253.30782" style="fill: #3fb950; stroke: #3fb950"/>
     <use xlink:href="#m4f0f14ab0a" x="251.249853" y="253.30782" style="fill: #3fb950; stroke: #3fb950"/>
     <use xlink:href="#m4f0f14ab0a" x="255.106276" y="253.30782" style="fill: #3fb950; stroke: #3fb950"/>
     <use xlink:href="#m4f0f14ab0a" x="258.962698" y="253.30782" style="fill: #3fb950; stroke: #3fb950"/>
     <use xlink:href="#m4f0f14ab0a" x="262.81912" y="253.30782" style="fill: #3fb950; stroke: #3fb950"/>
     <use xlink:href="#m4f0f14ab0a" x="266.675543" y="253.30782" style="fill: #3fb950; stroke: #3fb950"/>
     <use xlink:href="#m4f0f14ab0a" x="270.531965" y="253.30782" style="fill: #3fb950; stroke: #3fb950"/>
     <use xlink:href="#m4f0f14ab0a" x="274.388387" y="253.30782" style="fill: #3fb950; stroke: #3fb950"/>
     <use xlink:href="#m4f0f14ab0a" x="278.244809" y="253.30782" style="fill: #3fb950; stroke: #3fb950"/>
     <use xlink:href="#m4f0f14ab0a" x="282.101232" y="253.30782" style="fill: #3fb950; stroke: #3fb950"/>
     <use xlink:href="#m4f0f14ab0a" x="285.957654" y="253.30782" style="fill: #3fb950; stroke: #3fb950"/>
     <use xlink:href="#m4f0f14ab0a" x="289.814076" y="253.30782" style="fill: #3fb950; stroke: #3fb950"/>
     <use xlink:href="#m4f0f14ab0a" x="293.670499" y="253.30782" style="fill: #3fb950; stroke: #3fb950"/>
     <use xlink:href="#m4f0f14ab0a" x="297.526921" y="253.30782" style="fill: #3fb950; stroke: #3fb950"/>
     <use xlink:href="#m4f0f14ab0a" x="301.383343" y="253.30782" style="fill: #3fb950; stroke: #3fb950"/>
     <use xlink:href="#m4f0f14ab0a" x="305.239765" y="253.30782" style="fill: #3fb950; stroke: #3fb950"/>
     <use xlink:href="#m4f0f14ab0a" x="309.096188" y="247.466639" style="fill: #3fb950; stroke: #3fb950"/>
     <use xlink:href="#m4f0f14ab0a" x="312.95261" y="247.466639" style="fill: #3fb950; stroke: #3fb950"/>
     <use xlink:href="#m4f0f14ab0a" x="316.809032" y="247.466639" style="fill: #3fb950; stroke: #3fb950"/>
     <use xlink:href="#m4f0f14ab0a" x="320.665455" y="247.466639" style="fill: #3fb950; stroke: #3fb950"/>
     <use xlink:href="#m4f0f14ab0a" x="324.521877" y="247.466639" style="fill: #3fb950; stroke: #3fb950"/>
     <use xlink:href="#m4f0f14ab0a" x="328.378299" y="241.625458" style="fill: #3fb950; stroke: #3fb950"/>
     <use xlink:href="#m4f0f14ab0a" x="332.234721" y="235.784277" style="fill: #3fb950; stroke: #3fb950"/>
     <use xlink:href="#m4f0f14ab0a" x="336.091144" y="235.784277" style="fill: #3fb950; stroke: #3fb950"/>
     <use xlink:href="#m4f0f14ab0a" x="339.947566" y="235.784277" style="fill: #3fb950; stroke: #3fb950"/>
     <use xlink:href="#m4f0f14ab0a" x="343.803988" y="235.784277" style="fill: #3fb950; stroke: #3fb950"/>
     <use xlink:href="#m4f0f14ab0a" x="347.660411" y="235.784277" style="fill: #3fb950; stroke: #3fb950"/>
     <use xlink:href="#m4f0f14ab0a" x="351.516833" y="235.784277" style="fill: #3fb950; stroke: #3fb950"/>
     <use xlink:href="#m4f0f14ab0a" x="355.373255" y="229.943095" style="fill: #3fb950; stroke: #3fb950"/>
     <use xlink:href="#m4f0f14ab0a" x="359.229677" y="229.943095" style="fill: #3fb950; stroke: #3fb950"/>
     <use xlink:href="#m4f0f14ab0a" x="363.0861" y="229.943095" style="fill: #3fb950; stroke: #3fb950"/>
     <use xlink:href="#m4f0f14ab0a" x="366.942522" y="224.101914" style="fill: #3fb950; stroke: #3fb950"/>
     <use xlink:href="#m4f0f14ab0a" x="370.798944" y="224.101914" style="fill: #3fb950; stroke: #3fb950"/>
     <use xlink:href="#m4f0f14ab0a" x="374.655367" y="224.101914" style="fill: #3fb950; stroke: #3fb950"/>
     <use xlink:href="#m4f0f14ab0a" x="378.511789" y="224.101914" style="fill: #3fb950; stroke: #3fb950"/>
     <use xlink:href="#m4f0f14ab0a" x="382.368211" y="224.101914" style="fill: #3fb950; stroke: #3fb950"/>
     <use xlink:href="#m4f0f14ab0a" x="386.224633" y="218.260733" style="fill: #3fb950; stroke: #3fb950"/>
     <use xlink:href="#m4f0f14ab0a" x="390.081056" y="218.260733" style="fill: #3fb950; stroke: #3fb950"/>
     <use xlink:href="#m4f0f14ab0a" x="393.937478" y="218.260733" style="fill: #3fb950; stroke: #3fb950"/>
     <use xlink:href="#m4f0f14ab0a" x="397.7939" y="218.260733" style="fill: #3fb950; stroke: #3fb950"/>
     <use xlink:href="#m4f0f14ab0a" x="401.650323" y="212.419552" style="fill: #3fb950; stroke: #3fb950"/>
     <use xlink:href="#m4f0f14ab0a" x="405.506745" y="212.419552" style="fill: #3fb950; stroke: #3fb950"/>
     <use xlink:href="#m4f0f14ab0a" x="409.363167" y="212.419552" style="fill: #3fb950; stroke: #3fb950"/>
     <use xlink:href="#m4f0f14ab0a" x="413.219589" y="212.419552" style="fill: #3fb950; stroke: #3fb950"/>
     <use xlink:href="#m4f0f14ab0a" x="417.076012" y="212.419552" style="fill: #3fb950; stroke: #3fb950"/>
     <use xlink:href="#m4f0f14ab0a" x="420.932434" y="194.896009" style="fill: #3fb950; stroke: #3fb950"/>
     <use xlink:href="#m4f0f14ab0a" x="424.788856" y="194.896009" style="fill: #3fb950; stroke: #3fb950"/>
     <use xlink:href="#m4f0f14ab0a" x="428.645279" y="194.896009" style="fill: #3fb950; stroke: #3fb950"/>
     <use xlink:href="#m4f0f14ab0a" x="432.501701" y="189.054827" style="fill: #3fb950; stroke: #3fb950"/>
     <use xlink:href="#m4f0f14ab0a" x="436.358123" y="189.054827" style="fill: #3fb950; stroke: #3fb950"/>
     <use xlink:href="#m4f0f14ab0a" x="440.214545" y="189.054827" style="fill: #3fb950; stroke: #3fb950"/>
     <use xlink:href="#m4f0f14ab0a" x="444.070968" y="189.054827" style="fill: #3fb950; stroke: #3fb950"/>
     <use xlink:href="#m4f0f14ab0a" x="447.92739" y="189.054827" style="fill: #3fb950; stroke: #3fb950"/>
     <use xlink:href="#m4f0f14ab0a" x="451.783812" y="189.054827" style="fill: #3fb950; stroke: #3fb950"/>
     <use xlink:href="#m4f0f14ab0a" x="455.640235" y="189.054827" style="fill: #3fb950; stroke: #3fb950"/>
     <use xlink:href="#m4f0f14ab0a" x="459.496657" y="189.054827" style="fill: #3fb950; stroke: #3fb950"/>
     <use xlink:href="#m4f0f14ab0a" x="463.353079" y="189.054827" style="fill: #3fb950; stroke: #3fb950"/>
     <use xlink:href="#m4f0f14ab0a" x="467.209501" y="183.213646" style="fill: #3fb950; stroke: #3fb950"/>
     <use xlink:href="#m4f0f14ab0a" x="471.065924" y="183.213646" style="fill: #3fb950; stroke: #3fb950"/>
     <use xlink:href="#m4f0f14ab0a" x="478.778768" y="177.372465" style="fill: #3fb950; stroke: #3fb950"/>
     <use xlink:href="#m4f0f14ab0a" x="482.635191" y="177.372465" style="fill: #3fb950; stroke: #3fb950"/>
     <use xlink:href="#m4f0f14ab0a" x="486.491613" y="171.531284" style="fill: #3fb950; stroke: #3fb950"/>
     <use xlink:href="#m4f0f14ab0a" x="490.348035" y="165.690103" style="fill: #3fb950; stroke: #3fb950"/>
     <use xlink:href="#m4f0f14ab0a" x="494.204457" y="165.690103" style="fill: #3fb950; stroke: #3fb950"/>
     <use xlink:href="#m4f0f14ab0a" x="498.06088" y="165.690103" style="fill: #3fb950; stroke: #3fb950"/>
     <use xlink:href="#m4f0f14ab0a" x="501.917302" y="165.690103" style="fill: #3fb950; stroke: #3fb950"/>
     <use xlink:href="#m4f0f14ab0a" x="505.773724" y="118.960654" style="fill: #3fb950; stroke: #3fb950"/>
     <use xlink:href="#m4f0f14ab0a" x="509.630147" y="118.960654" style="fill: #3fb950; stroke: #3fb950"/>
     <use xlink:href="#m4f0f14ab0a" x="513.486569" y="118.960654" style="fill: #3fb950; stroke: #3fb950"/>
     <use xlink:href="#m4f0f14ab0a" x="517.342991" y="118.960654" style="fill: #3fb950; stroke: #3fb950"/>
     <use xlink:href="#m4f0f14ab0a" x="521.199413" y="118.960654" style="fill: #3fb950; stroke: #3fb950"/>
     <use xlink:href="#m4f0f14ab0a" x="525.055836" y="118.960654" style="fill: #3fb950; stroke: #3fb950"/>
     <use xlink:href="#m4f0f14ab0a" x="528.912258" y="118.960654" style="fill: #3fb950; stroke: #3fb950"/>
     <use xlink:href="#m4f0f14ab0a" x="532.76868" y="118.960654" style="fill: #3fb950; stroke: #3fb950"/>
     <use xlink:href="#m4f0f14ab0a" x="536.625103" y="118.960654" style="fill: #3fb950; stroke: #3fb950"/>
     <use xlink:href="#m4f0f14ab0a" x="540.481525" y="118.960654" style="fill: #3fb950; stroke: #3fb950"/>
     <use xlink:href="#m4f0f14ab0a" x="544.337947" y="118.960654" style="fill: #3fb950; stroke: #3fb950"/>
     <use xlink:href="#m4f0f14ab0a" x="548.19437" y="118.960654" style="fill: #3fb950; stroke: #3fb950"/>
     <use xlink:href="#m4f0f14ab0a" x="552.050792" y="113.119473" style="fill: #3fb950; stroke: #3fb950"/>
     <use xlink:href="#m4f0f14ab0a" x="555.907214" y="113.119473" style="fill: #3fb950; stroke: #3fb950"/>
     <use xlink:href="#m4f0f14ab0a" x="559.763636" y="113.119473" style="fill: #3fb950; stroke: #3fb950"/>
     <use xlink:href="#m4f0f14ab0a" x="563.620059" y="113.119473" style="fill: #3fb950; stroke: #3fb950"/>
     <use xlink:href="#m4f0f14ab0a" x="567.476481" y="107.278292" style="fill: #3fb950; stroke: #3fb950"/>
     <use xlink:href="#m4f0f14ab0a" x="571.332903" y="107.278292" style="fill: #3fb950; stroke: #3fb950"/>
     <use xlink:href="#m4f0f14ab0a" x="575.189326" y="101.437111" style="fill: #3fb950; stroke: #3fb950"/>
     <use xlink:href="#m4f0f14ab0a" x="579.045748" y="101.437111" style="fill: #3fb950; stroke: #3fb950"/>
     <use xlink:href="#m4f0f14ab0a" x="582.90217" y="101.437111" style="fill: #3fb950; stroke: #3fb950"/>
     <use xlink:href="#m4f0f14ab0a" x="586.758592" y="101.437111" style="fill: #3fb950; stroke: #3fb950"/>
     <use xlink:href="#m4f0f14ab0a" x="590.615015" y="101.437111" style="fill: #3fb950; stroke: #3fb950"/>
     <use xlink:href="#m4f0f14ab0a" x="594.471437" y="101.437111" style="fill: #3fb950; stroke: #3fb950"/>
     <use xlink:href="#m4f0f14ab0a" x="598.327859" y="101.437111" style="fill: #3fb950; stroke: #3fb950"/>
     <use xlink:href="#m4f0f14ab0a" x="602.184282" y="101.437111" style="fill: #3fb950; stroke: #3fb950"/>
     <use xlink:href="#m4f0f14ab0a" x="606.040704" y="101.437111" style="fill: #3fb950; stroke: #3fb950"/>
     <use xlink:href="#m4f0f14ab0a" x="609.897126" y="101.437111" style="fill: #3fb950; stroke: #3fb950"/>
     <use xlink:href="#m4f0f14ab0a" x="613.753548" y="101.437111" style="fill: #3fb950; stroke: #3fb950"/>
     <use xlink:href="#m4f0f14ab0a" x="617.609971" y="101.437111" style="fill: #3fb950; stroke: #3fb950"/>
     <use xlink:href="#m4f0f14ab0a" x="621.466393" y="101.437111" style="fill: #3fb950; stroke: #3fb950"/>
     <use xlink:href="#m4f0f14ab0a" x="625.322815" y="101.437111" style="fill: #3fb950; stroke: #3fb950"/>
     <use xlink:href="#m4f0f14ab0a" x="629.179238" y="101.437111" style="fill: #3fb950; stroke: #3fb950"/>
     <use xlink:href="#m4f0f14ab0a" x="633.03566" y="101.437111" style="fill: #3fb950; stroke: #3fb950"/>
     <use xlink:href="#m4f0f14ab0a" x="636.892082" y="101.437111" style="fill: #3fb950; stroke: #3fb950"/>
     <use xlink:href="#m4f0f14ab0a" x="640.748504" y="60.548843" style="fill: #3fb950; stroke: #3fb950"/>
     <use xlink:href="#m4f0f14ab0a" x="644.604927" y="60.548843" style="fill: #3fb950; stroke: #3fb950"/>
     <use xlink:href="#m4f0f14ab0a" x="648.461349" y="60.548843" style="fill: #3fb950; stroke: #3fb950"/>
     <use xlink:href="#m4f0f14ab0a" x="652.317771" y="60.548843" style="fill: #3fb950; stroke: #3fb950"/>
     <use xlink:href="#m4f0f14ab0a" x="656.174194" y="60.548843" style="fill: #3fb950; stroke: #3fb950"/>
     <use xlink:href="#m4f0f14ab0a" x="660.030616" y="60.548843" style="fill: #3fb950; stroke: #3fb950"/>
     <use xlink:href="#m4f0f14ab0a" x="663.887038" y="60.548843" style="fill: #3fb950; stroke: #3fb950"/>
     <use xlink:href="#m4f0f14ab0a" x="667.74346" y="54.707662" style="fill: #3fb950; stroke: #3fb950"/>
     <use xlink:href="#m4f0f14ab0a" x="671.599883" y="48.86648" style="fill: #3fb950; stroke: #3fb950"/>
     <use xlink:href="#m4f0f14ab0a" x="675.456305" y="48.86648" style="fill: #3fb950; stroke: #3fb950"/>
     <use xlink:href="#m4f0f14ab0a" x="679.312727" y="48.86648" style="fill: #3fb950; stroke: #3fb950"/>
    </g>
   </g>
   <g id="patch_3">
    <path d="M 51.68 306.462568 
L 51.68 36.6 
" style="fill: none; stroke: #30363d; stroke-width: 0.8; stroke-linejoin: miter; stroke-linecap: square"/>
   </g>
   <g id="patch_4">
    <path d="M 709.2 306.462568 
L 709.2 36.6 
" style="fill: none; stroke: #30363d; stroke-width: 0.8; stroke-linejoin: miter; stroke-linecap: square"/>
   </g>
   <g id="patch_5">
    <path d="M 51.68 306.462568 
L 709.2 306.462568 
" style="fill: none; stroke: #30363d; stroke-width: 0.8; stroke-linejoin: miter; stroke-linecap: square"/>
   </g>
   <g id="patch_6">
    <path d="M 51.68 36.6 
L 709.2 36.6 
" style="fill: none; stroke: #30363d; stroke-width: 0.8; stroke-linejoin: miter; stroke-linecap: square"/>
   </g>
   <g id="text_14">
    <g id="patch_7">
     <path d="M 626.54335 64.039066 
L 696.0496 64.039066 
Q 699.3496 64.039066 699.3496 60.739066 
L 699.3496 50.093128 
Q 699.3496 46.793128 696.0496 46.793128 
L 626.54335 46.793128 
Q 623.24335 46.793128 623.24335 50.093128 
L 623.24335 60.739066 
Q 623.24335 64.039066 626.54335 64.039066 
z
" style="fill: #30363d; opacity: 0.8; stroke: #3fb950; stroke-linejoin: miter"/>
    </g>
    <!-- Current: 108 -->
    <g style="fill: #c9d1d9" transform="translate(626.54335 58.45141) scale(0.11 -0.11)">
     <defs>
      <path id="DejaVuSans-3a" d="M 750 794 
L 1409 794 
L 1409 0 
L 750 0 
L 750 794 
z
M 750 3309 
L 1409 3309 
L 1409 2516 
L 750 2516 
L 750 3309 
z
" transform="scale(0.015625)"/>
      <path id="DejaVuSans-20" transform="scale(0.015625)"/>
     </defs>
     <use xlink:href="#DejaVuSans-43"/>
     <use xlink:href="#DejaVuSans-75" transform="translate(69.824219 0)"/>
     <use xlink:href="#DejaVuSans-72" transform="translate(133.203125 0)"/>
     <use xlink:href="#DejaVuSans-72" transform="translate(172.566406 0)"/>
     <use xlink:href="#DejaVuSans-65" transform="translate(211.429688 0)"/>
     <use xlink:href="#DejaVuSans-6e" transform="translate(272.953125 0)"/>
     <use xlink:href="#DejaVuSans-74" transform="translate(336.332031 0)"/>
     <use xlink:href="#DejaVuSans-3a" transform="translate(375.541016 0)"/>
     <use xlink:href="#DejaVuSans-20" transform="translate(409.232422 0)"/>
     <use xlink:href="#DejaVuSans-31" transform="translate(441.019531 0)"/>
     <use xlink:href="#DejaVuSans-30" transform="translate(504.642578 0)"/>
     <use xlink:href="#DejaVuSans-38" transform="translate(568.265625 0)"/>
    </g>
   </g>
   <g id="text_15">
    <!-- Total Repository Stars -->
    <g style="fill: #c9d1d9" transform="translate(293.017656 21.6) scale(0.14 -0.14)">
     <defs>
      <path id="DejaVuSans-Bold-54" d="M 31 4666 
L 4331 4666 
L 4331 3756 
L 2784 3756 
L 2784 0 
L 1581 0 
L 1581 3756 
L 31 3756 
L 31 4666 
z
" transform="scale(0.015625)"/>
      <path id="DejaVuSans-Bold-6f" d="M 2203 2784 
Q 1831 2784 1636 2517 
Q 1441 2250 1441 1747 
Q 1441 1244 1636 976 
Q 1831 709 2203 709 
Q 2569 709 2762 976 
Q 2956 1244 2956 1747 
Q 2956 2250 2762 2517 
Q 2569 2784 2203 2784 
z
M 2203 3584 
Q 3106 3584 3614 3096 
Q 4122 2609 4122 1747 
Q 4122 884 3614 396 
Q 3106 -91 2203 -91 
Q 1297 -91 786 396 
Q 275 884 275 1747 
Q 275 2609 786 3096 
Q 1297 3584 2203 3584 
z
" transform="scale(0.015625)"/>
      <path id="DejaVuSans-Bold-74" d="M 1759 4494 
L 1759 3500 
L 2913 3500 
L 2913 2700 
L 1759 2700 
L 1759 1216 
Q 1759 972 1856 886 
Q 1953 800 2241 800 
L 2816 800 
L 2816 0 
L 1856 0 
Q 1194 0 917 276 
Q 641 553 641 1216 
L 641 2700 
L 84 2700 
L 84 3500 
L 641 3500 
L 641 4494 
L 1759 4494 
z
" transform="scale(0.015625)"/>
      <path id="DejaVuSans-Bold-61" d="M 2106 1575 
Q 1756 1575 1579 1456 
Q 1403 1338 1403 1106 
Q 1403 894 1545 773 
Q 1688 653 1941 653 
Q 2256 653 2472 879 
Q 2688 1106 2688 1447 
L 2688 1575 
L 2106 1575 
z
M 3816 1997 
L 3816 0 
L 2688 0 
L 2688 519 
Q 2463 200 2181 54 
Q 1900 -91 1497 -91 
Q 953 -91 614 226 
Q 275 544 275 1050 
Q 275 1666 698 1953 
Q 1122 2241 2028 2241 
L 2688 2241 
L 2688 2328 
Q 2688 2594 2478 2717 
Q 2269 2841 1825 2841 
Q 1466 2841 1156 2769 
Q 847 2697 581 2553 
L 581 3406 
Q 941 3494 1303 3539 
Q 1666 3584 2028 3584 
Q 2975 3584 3395 3211 
Q 3816 2838 3816 1997 
z
" transform="scale(0.015625)"/>
      <path id="DejaVuSans-Bold-6c" d="M 538 4863 
L 1656 4863 
L 1656 0 
L 538 0 
L 538 4863 
z
" transform="scale(0.015625)"/>
      <path id="DejaVuSans-Bold-20" transform="scale(0.015625)"/>
      <path id="DejaVuSans-Bold-52" d="M 2297 2597 
Q 2675 2597 2839 2737 
Q 3003 2878 3003 3200 
Q 3003 3519 2839 3656 
Q 2675 3794 2297 3794 
L 1791 3794 
L 1791 2597 
L 2297 2597 
z
M 1791 1766 
L 1791 0 
L 588 0 
L 588 4666 
L 2425 4666 
Q 3347 4666 3776 4356 
Q 4206 4047 4206 3378 
Q 4206 2916 3982 2619 
Q 3759 2322 3309 2181 
Q 3556 2125 3751 1926 
Q 3947 1728 4147 1325 
L 4800 0 
L 3519 0 
L 2950 1159 
Q 2778 1509 2601 1637 
Q 2425 1766 2131 1766 
L 1791 1766 
z
" transform="scale(0.015625)"/>
      <path id="DejaVuSans-Bold-65" d="M 4031 1759 
L 4031 1441 
L 1416 1441 
Q 1456 1047 1700 850 
Q 1944 653 2381 653 
Q 2734 653 3104 758 
Q 3475 863 3866 1075 
L 3866 213 
Q 3469 63 3072 -14 
Q 2675 -91 2278 -91 
Q 1328 -91 801 392 
Q 275 875 275 1747 
Q 275 2603 792 3093 
Q 1309 3584 2216 3584 
Q 3041 3584 3536 3087 
Q 4031 2591 4031 1759 
z
M 2881 2131 
Q 2881 2450 2695 2645 
Q 2509 2841 2209 2841 
Q 1884 2841 1681 2658 
Q 1478 2475 1428 2131 
L 2881 2131 
z
" transform="scale(0.015625)"/>
      <path id="DejaVuSans-Bold-70" d="M 1656 506 
L 1656 -1331 
L 538 -1331 
L 538 3500 
L 1656 3500 
L 1656 2988 
Q 1888 3294 2169 3439 
Q 2450 3584 2816 3584 
Q 3463 3584 3878 3070 
Q 4294 2556 4294 1747 
Q 4294 938 3878 423 
Q 3463 -91 2816 -91 
Q 2450 -91 2169 54 
Q 1888 200 1656 506 
z
M 2400 2772 
Q 2041 2772 1848 2508 
Q 1656 2244 1656 1747 
Q 1656 1250 1848 986 
Q 2041 722 2400 722 
Q 2759 722 2948 984 
Q 3138 1247 3138 1747 
Q 3138 2247 2948 2509 
Q 2759 2772 2400 2772 
z
" transform="scale(0.015625)"/>
      <path id="DejaVuSans-Bold-73" d="M 3272 3391 
L 3272 2541 
Q 2913 2691 2578 2766 
Q 2244 2841 1947 2841 
Q 1628 2841 1473 2761 
Q 1319 2681 1319 2516 
Q 1319 2381 1436 2309 
Q 1553 2238 1856 2203 
L 2053 2175 
Q 2913 2066 3209 1816 
Q 3506 1566 3506 1031 
Q 3506 472 3093 190 
Q 2681 -91 1863 -91 
Q 1516 -91 1145 -36 
Q 775 19 384 128 
L 384 978 
Q 719 816 1070 734 
Q 1422 653 1784 653 
Q 2113 653 2278 743 
Q 2444 834 2444 1013 
Q 2444 1163 2330 1236 
Q 2216 1309 1875 1350 
L 1678 1375 
Q 931 1469 631 1722 
Q 331 1975 331 2491 
Q 331 3047 712 3315 
Q 1094 3584 1881 3584 
Q 2191 3584 2531 3537 
Q 2872 3491 3272 3391 
z
" transform="scale(0.015625)"/>
      <path id="DejaVuSans-Bold-69" d="M 538 3500 
L 1656 3500 
L 1656 0 
L 538 0 
L 538 3500 
z
M 538 4863 
L 1656 4863 
L 1656 3950 
L 538 3950 
L 538 4863 
z
" transform="scale(0.015625)"/>
      <path id="DejaVuSans-Bold-72" d="M 3138 2547 
Q 2991 2616 2845 2648 
Q 2700 2681 2553 2681 
Q 2122 2681 1889 2404 
Q 1656 2128 1656 1613 
L 1656 0 
L 538 0 
L 538 3500 
L 1656 3500 
L 1656 2925 
Q 1872 3269 2151 3426 
Q 2431 3584 2822 3584 
Q 2878 3584 2943 3579 
Q 3009 3575 3134 3559 
L 3138 2547 
z
" transform="scale(0.015625)"/>
      <path id="DejaVuSans-Bold-79" d="M 78 3500 
L 1197 3500 
L 2138 1125 
L 2938 3500 
L 4056 3500 
L 2584 -331 
Q 2363 -916 2067 -1148 
Q 1772 -1381 1288 -1381 
L 641 -1381 
L 641 -647 
L 991 -647 
Q 1275 -647 1404 -556 
Q 1534 -466 1606 -231 
L 1638 -134 
L 78 3500 
z
" transform="scale(0.015625)"/>
      <path id="DejaVuSans-Bold-53" d="M 3834 4519 
L 3834 3531 
Q 3450 3703 3084 3790 
Q 2719 3878 2394 3878 
Q 1963 3878 1756 3759 
Q 1550 3641 1550 3391 
Q 1550 3203 1689 3098 
Q 1828 2994 2194 2919 
L 2706 2816 
Q 3484 2659 3812 2340 
Q 4141 2022 4141 1434 
Q 4141 663 3683 286 
Q 3225 -91 2284 -91 
Q 1841 -91 1394 -6 
Q 947 78 500 244 
L 500 1259 
Q 947 1022 1364 901 
Q 1781 781 2169 781 
Q 2563 781 2772 912 
Q 2981 1044 2981 1288 
Q 2981 1506 2839 1625 
Q 2697 1744 2272 1838 
L 1806 1941 
Q 1106 2091 782 2419 
Q 459 2747 459 3303 
Q 459 4000 909 4375 
Q 1359 4750 2203 4750 
Q 2588 4750 2994 4692 
Q 3400 4634 3834 4519 
z
" transform="scale(0.015625)"/>
     </defs>
     <use xlink:href="#DejaVuSans-Bold-54"/>
     <use xlink:href="#DejaVuSans-Bold-6f" transform="translate(54.962891 0)"/>
     <use xlink:href="#DejaVuSans-Bold-74" transform="translate(123.664062 0)"/>
     <use xlink:href="#DejaVuSans-Bold-61" transform="translate(171.466797 0)"/>
     <use xlink:href="#DejaVuSans-Bold-6c" transform="translate(238.947266 0)"/>
     <use xlink:href="#DejaVuSans-Bold-20" transform="translate(273.224609 0)"/>
     <use xlink:href="#DejaVuSans-Bold-52" transform="translate(308.039062 0)"/>
     <use xlink:href="#DejaVuSans-Bold-65" transform="translate(385.041016 0)"/>
     <use xlink:href="#DejaVuSans-Bold-70" transform="translate(452.863281 0)"/>
     <use xlink:href="#DejaVuSans-Bold-6f" transform="translate(524.445312 0)"/>
     <use xlink:href="#DejaVuSans-Bold-73" transform="translate(593.146484 0)"/>
     <use xlink:href="#DejaVuSans-Bold-69" transform="translate(652.667969 0)"/>
     <use xlink:href="#DejaVuSans-Bold-74" transform="translate(686.945312 0)"/>
     <use xlink:href="#DejaVuSans-Bold-6f" transform="translate(734.748047 0)"/>
     <use xlink:href="#DejaVuSans-Bold-72" transform="translate(803.449219 0)"/>
     <use xlink:href="#DejaVuSans-Bold-79" transform="translate(852.765625 0)"/>
     <use xlink:href="#DejaVuSans-Bold-20" transform="translate(917.951172 0)"/>
     <use xlink:href="#DejaVuSans-Bold-53" transform="translate(952.765625 0)"/>
     <use xlink:href="#DejaVuSans-Bold-74" transform="translate(1024.787109 0)"/>
     <use xlink:href="#DejaVuSans-Bold-61" transform="translate(1072.589844 0)"/>
     <use xlink:href="#DejaVuSans-Bold-72" transform="translate(1140.070312 0)"/>
     <use xlink:href="#DejaVuSans-Bold-73" transform="translate(1189.386719 0)"/>
    </g>
   </g>
  </g>
 </g>
 <defs>
  <clipPath id="p6c8e183f3c">
   <rect x="51.68" y="36.6" width="657.52" height="269.862568"/>
  </clipPath>
 </defs>
</svg>
