<?xml version="1.0" encoding="utf-8" standalone="no"?>
<!DOCTYPE svg PUBLIC "-//W3C//DTD SVG 1.1//EN"
  "http://www.w3.org/Graphics/SVG/1.1/DTD/svg11.dtd">
<svg xmlns:xlink="http://www.w3.org/1999/xlink" width="720pt" height="360pt" viewBox="0 0 720 360" xmlns="http://www.w3.org/2000/svg" version="1.1">
 <metadata>
  <rdf:RDF xmlns:dc="http://purl.org/dc/elements/1.1/" xmlns:cc="http://creativecommons.org/ns#" xmlns:rdf="http://www.w3.org/1999/02/22-rdf-syntax-ns#">
   <cc:Work>
    <dc:type rdf:resource="http://purl.org/dc/dcmitype/StillImage"/>
    <dc:date>2026-05-25T00:45:24.586027</dc:date>
    <dc:format>image/svg+xml</dc:format>
    <dc:creator>
     <cc:Agent>
      <dc:title>Matplotlib v3.10.9, https://matplotlib.org/</dc:title>
     </cc:Agent>
    </dc:creator>
   </cc:Work>
  </rdf:RDF>
 </metadata>
 <defs>
  <style type="text/css">*{stroke-linejoin: round; stroke-linecap: butt}</style>
 </defs>
 <g id="figure_1">
  <g id="patch_1">
   <path d="M 0 360 
L 720 360 
L 720 0 
L 0 0 
z
" style="fill: #0d1117"/>
  </g>
  <g id="axes_1">
   <g id="patch_2">
    <path d="M 51.68 305.571614 
L 709.2 305.571614 
L 709.2 36.6 
L 51.68 36.6 
z
" style="fill: #0d1117"/>
   </g>
   <g id="matplotlib.axis_1">
    <g id="xtick_1">
     <g id="line2d_1">
      <path d="M 93.968631 305.571614 
L 93.968631 36.6 
" clip-path="url(#p944ef99e8f)" style="fill: none; stroke: #30363d; stroke-opacity: 0.2; stroke-width: 0.8; stroke-linecap: square"/>
     </g>
     <g id="line2d_2">
      <defs>
       <path id="m31c89f1e4b" d="M 0 0 
L 0 3.5 
" style="stroke: #c9d1d9; stroke-width: 0.8"/>
      </defs>
      <g>
       <use xlink:href="#m31c89f1e4b" x="93.968631" y="305.571614" style="fill: #c9d1d9; stroke: #c9d1d9; stroke-width: 0.8"/>
      </g>
     </g>
     <g id="text_1">
      <!-- Oct -->
      <g style="fill: #c9d1d9" transform="translate(80.271751 330.170839) rotate(-45) scale(0.1 -0.1)">
       <defs>
        <path id="DejaVuSans-4f" d="M 2522 4238 
Q 1834 4238 1429 3725 
Q 1025 3213 1025 2328 
Q 1025 1447 1429 934 
Q 1834 422 2522 422 
Q 3209 422 3611 934 
Q 4013 1447 4013 2328 
Q 4013 3213 3611 3725 
Q 3209 4238 2522 4238 
z
M 2522 4750 
Q 3503 4750 4090 4092 
Q 4678 3434 4678 2328 
Q 4678 1225 4090 567 
Q 3503 -91 2522 -91 
Q 1538 -91 948 565 
Q 359 1222 359 2328 
Q 359 3434 948 4092 
Q 1538 4750 2522 4750 
z
" transform="scale(0.015625)"/>
        <path id="DejaVuSans-63" d="M 3122 3366 
L 3122 2828 
Q 2878 2963 2633 3030 
Q 2388 3097 2138 3097 
Q 1578 3097 1268 2742 
Q 959 2388 959 1747 
Q 959 1106 1268 751 
Q 1578 397 2138 397 
Q 2388 397 2633 464 
Q 2878 531 3122 666 
L 3122 134 
Q 2881 22 2623 -34 
Q 2366 -91 2075 -91 
Q 1284 -91 818 406 
Q 353 903 353 1747 
Q 353 2603 823 3093 
Q 1294 3584 2113 3584 
Q 2378 3584 2631 3529 
Q 2884 3475 3122 3366 
z
" transform="scale(0.015625)"/>
        <path id="DejaVuSans-74" d="M 1172 4494 
L 1172 3500 
L 2356 3500 
L 2356 3053 
L 1172 3053 
L 1172 1153 
Q 1172 725 1289 603 
Q 1406 481 1766 481 
L 2356 481 
L 2356 0 
L 1766 0 
Q 1100 0 847 248 
Q 594 497 594 1153 
L 594 3053 
L 172 3053 
L 172 3500 
L 594 3500 
L 594 4494 
L 1172 4494 
z
" transform="scale(0.015625)"/>
       </defs>
       <use xlink:href="#DejaVuSans-4f"/>
       <use xlink:href="#DejaVuSans-63" transform="translate(78.710938 0)"/>
       <use xlink:href="#DejaVuSans-74" transform="translate(133.691406 0)"/>
      </g>
     </g>
    </g>
    <g id="xtick_2">
     <g id="line2d_3">
      <path d="M 170.85705 305.571614 
L 170.85705 36.6 
" clip-path="url(#p944ef99e8f)" style="fill: none; stroke: #30363d; stroke-opacity: 0.2; stroke-width: 0.8; stroke-linecap: square"/>
     </g>
     <g id="line2d_4">
      <g>
       <use xlink:href="#m31c89f1e4b" x="170.85705" y="305.571614" style="fill: #c9d1d9; stroke: #c9d1d9; stroke-width: 0.8"/>
      </g>
     </g>
     <g id="text_2">
      <!-- Nov -->
      <g style="fill: #c9d1d9" transform="translate(155.584649 331.746361) rotate(-45) scale(0.1 -0.1)">
       <defs>
        <path id="DejaVuSans-4e" d="M 628 4666 
L 1478 4666 
L 3547 763 
L 3547 4666 
L 4159 4666 
L 4159 0 
L 3309 0 
L 1241 3903 
L 1241 0 
L 628 0 
L 628 4666 
z
" transform="scale(0.015625)"/>
        <path id="DejaVuSans-6f" d="M 1959 3097 
Q 1497 3097 1228 2736 
Q 959 2375 959 1747 
Q 959 1119 1226 758 
Q 1494 397 1959 397 
Q 2419 397 2687 759 
Q 2956 1122 2956 1747 
Q 2956 2369 2687 2733 
Q 2419 3097 1959 3097 
z
M 1959 3584 
Q 2709 3584 3137 3096 
Q 3566 2609 3566 1747 
Q 3566 888 3137 398 
Q 2709 -91 1959 -91 
Q 1206 -91 779 398 
Q 353 888 353 1747 
Q 353 2609 779 3096 
Q 1206 3584 1959 3584 
z
" transform="scale(0.015625)"/>
        <path id="DejaVuSans-76" d="M 191 3500 
L 800 3500 
L 1894 563 
L 2988 3500 
L 3597 3500 
L 2284 0 
L 1503 0 
L 191 3500 
z
" transform="scale(0.015625)"/>
       </defs>
       <use xlink:href="#DejaVuSans-4e"/>
       <use xlink:href="#DejaVuSans-6f" transform="translate(74.804688 0)"/>
       <use xlink:href="#DejaVuSans-76" transform="translate(135.986328 0)"/>
      </g>
     </g>
    </g>
    <g id="xtick_3">
     <g id="line2d_5">
      <path d="M 245.265198 305.571614 
L 245.265198 36.6 
" clip-path="url(#p944ef99e8f)" style="fill: none; stroke: #30363d; stroke-opacity: 0.2; stroke-width: 0.8; stroke-linecap: square"/>
     </g>
     <g id="line2d_6">
      <g>
       <use xlink:href="#m31c89f1e4b" x="245.265198" y="305.571614" style="fill: #c9d1d9; stroke: #c9d1d9; stroke-width: 0.8"/>
      </g>
     </g>
     <g id="text_3">
      <!-- Dec -->
      <g style="fill: #c9d1d9" transform="translate(230.111016 331.628141) rotate(-45) scale(0.1 -0.1)">
       <defs>
        <path id="DejaVuSans-44" d="M 1259 4147 
L 1259 519 
L 2022 519 
Q 2988 519 3436 956 
Q 3884 1394 3884 2338 
Q 3884 3275 3436 3711 
Q 2988 4147 2022 4147 
L 1259 4147 
z
M 628 4666 
L 1925 4666 
Q 3281 4666 3915 4102 
Q 4550 3538 4550 2338 
Q 4550 1131 3912 565 
Q 3275 0 1925 0 
L 628 0 
L 628 4666 
z
" transform="scale(0.015625)"/>
        <path id="DejaVuSans-65" d="M 3597 1894 
L 3597 1613 
L 953 1613 
Q 991 1019 1311 708 
Q 1631 397 2203 397 
Q 2534 397 2845 478 
Q 3156 559 3463 722 
L 3463 178 
Q 3153 47 2828 -22 
Q 2503 -91 2169 -91 
Q 1331 -91 842 396 
Q 353 884 353 1716 
Q 353 2575 817 3079 
Q 1281 3584 2069 3584 
Q 2775 3584 3186 3129 
Q 3597 2675 3597 1894 
z
M 3022 2063 
Q 3016 2534 2758 2815 
Q 2500 3097 2075 3097 
Q 1594 3097 1305 2825 
Q 1016 2553 972 2059 
L 3022 2063 
z
" transform="scale(0.015625)"/>
       </defs>
       <use xlink:href="#DejaVuSans-44"/>
       <use xlink:href="#DejaVuSans-65" transform="translate(77.001953 0)"/>
       <use xlink:href="#DejaVuSans-63" transform="translate(138.525391 0)"/>
      </g>
     </g>
    </g>
    <g id="xtick_4">
     <g id="line2d_7">
      <path d="M 322.153618 305.571614 
L 322.153618 36.6 
" clip-path="url(#p944ef99e8f)" style="fill: none; stroke: #30363d; stroke-opacity: 0.2; stroke-width: 0.8; stroke-linecap: square"/>
     </g>
     <g id="line2d_8">
      <g>
       <use xlink:href="#m31c89f1e4b" x="322.153618" y="305.571614" style="fill: #c9d1d9; stroke: #c9d1d9; stroke-width: 0.8"/>
      </g>
     </g>
     <g id="text_4">
      <!-- Jan -->
      <g style="fill: #c9d1d9" transform="translate(309.782563 328.845013) rotate(-45) scale(0.1 -0.1)">
       <defs>
        <path id="DejaVuSans-4a" d="M 628 4666 
L 1259 4666 
L 1259 325 
Q 1259 -519 939 -900 
Q 619 -1281 -91 -1281 
L -331 -1281 
L -331 -750 
L -134 -750 
Q 284 -750 456 -515 
Q 628 -281 628 325 
L 628 4666 
z
" transform="scale(0.015625)"/>
        <path id="DejaVuSans-61" d="M 2194 1759 
Q 1497 1759 1228 1600 
Q 959 1441 959 1056 
Q 959 750 1161 570 
Q 1363 391 1709 391 
Q 2188 391 2477 730 
Q 2766 1069 2766 1631 
L 2766 1759 
L 2194 1759 
z
M 3341 1997 
L 3341 0 
L 2766 0 
L 2766 531 
Q 2569 213 2275 61 
Q 1981 -91 1556 -91 
Q 1019 -91 701 211 
Q 384 513 384 1019 
Q 384 1609 779 1909 
Q 1175 2209 1959 2209 
L 2766 2209 
L 2766 2266 
Q 2766 2663 2505 2880 
Q 2244 3097 1772 3097 
Q 1472 3097 1187 3025 
Q 903 2953 641 2809 
L 641 3341 
Q 956 3463 1253 3523 
Q 1550 3584 1831 3584 
Q 2591 3584 2966 3190 
Q 3341 2797 3341 1997 
z
" transform="scale(0.015625)"/>
        <path id="DejaVuSans-6e" d="M 3513 2113 
L 3513 0 
L 2938 0 
L 2938 2094 
Q 2938 2591 2744 2837 
Q 2550 3084 2163 3084 
Q 1697 3084 1428 2787 
Q 1159 2491 1159 1978 
L 1159 0 
L 581 0 
L 581 3500 
L 1159 3500 
L 1159 2956 
Q 1366 3272 1645 3428 
Q 1925 3584 2291 3584 
Q 2894 3584 3203 3211 
Q 3513 2838 3513 2113 
z
" transform="scale(0.015625)"/>
       </defs>
       <use xlink:href="#DejaVuSans-4a"/>
       <use xlink:href="#DejaVuSans-61" transform="translate(29.492188 0)"/>
       <use xlink:href="#DejaVuSans-6e" transform="translate(90.771484 0)"/>
      </g>
     </g>
    </g>
    <g id="xtick_5">
     <g id="line2d_9">
      <path d="M 399.042037 305.571614 
L 399.042037 36.6 
" clip-path="url(#p944ef99e8f)" style="fill: none; stroke: #30363d; stroke-opacity: 0.2; stroke-width: 0.8; stroke-linecap: square"/>
     </g>
     <g id="line2d_10">
      <g>
       <use xlink:href="#m31c89f1e4b" x="399.042037" y="305.571614" style="fill: #c9d1d9; stroke: #c9d1d9; stroke-width: 0.8"/>
      </g>
     </g>
     <g id="text_5">
      <!-- Feb -->
      <g style="fill: #c9d1d9" transform="translate(385.053476 330.46252) rotate(-45) scale(0.1 -0.1)">
       <defs>
        <path id="DejaVuSans-46" d="M 628 4666 
L 3309 4666 
L 3309 4134 
L 1259 4134 
L 1259 2759 
L 3109 2759 
L 3109 2228 
L 1259 2228 
L 1259 0 
L 628 0 
L 628 4666 
z
" transform="scale(0.015625)"/>
        <path id="DejaVuSans-62" d="M 3116 1747 
Q 3116 2381 2855 2742 
Q 2594 3103 2138 3103 
Q 1681 3103 1420 2742 
Q 1159 2381 1159 1747 
Q 1159 1113 1420 752 
Q 1681 391 2138 391 
Q 2594 391 2855 752 
Q 3116 1113 3116 1747 
z
M 1159 2969 
Q 1341 3281 1617 3432 
Q 1894 3584 2278 3584 
Q 2916 3584 3314 3078 
Q 3713 2572 3713 1747 
Q 3713 922 3314 415 
Q 2916 -91 2278 -91 
Q 1894 -91 1617 61 
Q 1341 213 1159 525 
L 1159 0 
L 581 0 
L 581 4863 
L 1159 4863 
L 1159 2969 
z
" transform="scale(0.015625)"/>
       </defs>
       <use xlink:href="#DejaVuSans-46"/>
       <use xlink:href="#DejaVuSans-65" transform="translate(52.019531 0)"/>
       <use xlink:href="#DejaVuSans-62" transform="translate(113.542969 0)"/>
      </g>
     </g>
    </g>
    <g id="xtick_6">
     <g id="line2d_11">
      <path d="M 468.489642 305.571614 
L 468.489642 36.6 
" clip-path="url(#p944ef99e8f)" style="fill: none; stroke: #30363d; stroke-opacity: 0.2; stroke-width: 0.8; stroke-linecap: square"/>
     </g>
     <g id="line2d_12">
      <g>
       <use xlink:href="#m31c89f1e4b" x="468.489642" y="305.571614" style="fill: #c9d1d9; stroke: #c9d1d9; stroke-width: 0.8"/>
      </g>
     </g>
     <g id="text_6">
      <!-- Mar -->
      <g style="fill: #c9d1d9" transform="translate(453.677964 331.285637) rotate(-45) scale(0.1 -0.1)">
       <defs>
        <path id="DejaVuSans-4d" d="M 628 4666 
L 1569 4666 
L 2759 1491 
L 3956 4666 
L 4897 4666 
L 4897 0 
L 4281 0 
L 4281 4097 
L 3078 897 
L 2444 897 
L 1241 4097 
L 1241 0 
L 628 0 
L 628 4666 
z
" transform="scale(0.015625)"/>
        <path id="DejaVuSans-72" d="M 2631 2963 
Q 2534 3019 2420 3045 
Q 2306 3072 2169 3072 
Q 1681 3072 1420 2755 
Q 1159 2438 1159 1844 
L 1159 0 
L 581 0 
L 581 3500 
L 1159 3500 
L 1159 2956 
Q 1341 3275 1631 3429 
Q 1922 3584 2338 3584 
Q 2397 3584 2469 3576 
Q 2541 3569 2628 3553 
L 2631 2963 
z
" transform="scale(0.015625)"/>
       </defs>
       <use xlink:href="#DejaVuSans-4d"/>
       <use xlink:href="#DejaVuSans-61" transform="translate(86.279297 0)"/>
       <use xlink:href="#DejaVuSans-72" transform="translate(147.558594 0)"/>
      </g>
     </g>
    </g>
    <g id="xtick_7">
     <g id="line2d_13">
      <path d="M 545.378061 305.571614 
L 545.378061 36.6 
" clip-path="url(#p944ef99e8f)" style="fill: none; stroke: #30363d; stroke-opacity: 0.2; stroke-width: 0.8; stroke-linecap: square"/>
     </g>
     <g id="line2d_14">
      <g>
       <use xlink:href="#m31c89f1e4b" x="545.378061" y="305.571614" style="fill: #c9d1d9; stroke: #c9d1d9; stroke-width: 0.8"/>
      </g>
     </g>
     <g id="text_7">
      <!-- Apr -->
      <g style="fill: #c9d1d9" transform="translate(531.674553 330.177468) rotate(-45) scale(0.1 -0.1)">
       <defs>
        <path id="DejaVuSans-41" d="M 2188 4044 
L 1331 1722 
L 3047 1722 
L 2188 4044 
z
M 1831 4666 
L 2547 4666 
L 4325 0 
L 3669 0 
L 3244 1197 
L 1141 1197 
L 716 0 
L 50 0 
L 1831 4666 
z
" transform="scale(0.015625)"/>
        <path id="DejaVuSans-70" d="M 1159 525 
L 1159 -1331 
L 581 -1331 
L 581 3500 
L 1159 3500 
L 1159 2969 
Q 1341 3281 1617 3432 
Q 1894 3584 2278 3584 
Q 2916 3584 3314 3078 
Q 3713 2572 3713 1747 
Q 3713 922 3314 415 
Q 2916 -91 2278 -91 
Q 1894 -91 1617 61 
Q 1341 213 1159 525 
z
M 3116 1747 
Q 3116 2381 2855 2742 
Q 2594 3103 2138 3103 
Q 1681 3103 1420 2742 
Q 1159 2381 1159 1747 
Q 1159 1113 1420 752 
Q 1681 391 2138 391 
Q 2594 391 2855 752 
Q 3116 1113 3116 1747 
z
" transform="scale(0.015625)"/>
       </defs>
       <use xlink:href="#DejaVuSans-41"/>
       <use xlink:href="#DejaVuSans-70" transform="translate(68.408203 0)"/>
       <use xlink:href="#DejaVuSans-72" transform="translate(131.884766 0)"/>
      </g>
     </g>
    </g>
    <g id="xtick_8">
     <g id="line2d_15">
      <path d="M 619.786209 305.571614 
L 619.786209 36.6 
" clip-path="url(#p944ef99e8f)" style="fill: none; stroke: #30363d; stroke-opacity: 0.2; stroke-width: 0.8; stroke-linecap: square"/>
     </g>
     <g id="line2d_16">
      <g>
       <use xlink:href="#m31c89f1e4b" x="619.786209" y="305.571614" style="fill: #c9d1d9; stroke: #c9d1d9; stroke-width: 0.8"/>
      </g>
     </g>
     <g id="text_8">
      <!-- May -->
      <g style="fill: #c9d1d9" transform="translate(603.696215 332.563953) rotate(-45) scale(0.1 -0.1)">
       <defs>
        <path id="DejaVuSans-79" d="M 2059 -325 
Q 1816 -950 1584 -1140 
Q 1353 -1331 966 -1331 
L 506 -1331 
L 506 -850 
L 844 -850 
Q 1081 -850 1212 -737 
Q 1344 -625 1503 -206 
L 1606 56 
L 191 3500 
L 800 3500 
L 1894 763 
L 2988 3500 
L 3597 3500 
L 2059 -325 
z
" transform="scale(0.015625)"/>
       </defs>
       <use xlink:href="#DejaVuSans-4d"/>
       <use xlink:href="#DejaVuSans-61" transform="translate(86.279297 0)"/>
       <use xlink:href="#DejaVuSans-79" transform="translate(147.558594 0)"/>
      </g>
     </g>
    </g>
    <g id="xtick_9">
     <g id="line2d_17">
      <path d="M 696.674628 305.571614 
L 696.674628 36.6 
" clip-path="url(#p944ef99e8f)" style="fill: none; stroke: #30363d; stroke-opacity: 0.2; stroke-width: 0.8; stroke-linecap: square"/>
     </g>
     <g id="line2d_18">
      <g>
       <use xlink:href="#m31c89f1e4b" x="696.674628" y="305.571614" style="fill: #c9d1d9; stroke: #c9d1d9; stroke-width: 0.8"/>
      </g>
     </g>
     <g id="text_9">
      <!-- Jun -->
      <g style="fill: #c9d1d9" transform="translate(684.155524 328.993064) rotate(-45) scale(0.1 -0.1)">
       <defs>
        <path id="DejaVuSans-75" d="M 544 1381 
L 544 3500 
L 1119 3500 
L 1119 1403 
Q 1119 906 1312 657 
Q 1506 409 1894 409 
Q 2359 409 2629 706 
Q 2900 1003 2900 1516 
L 2900 3500 
L 3475 3500 
L 3475 0 
L 2900 0 
L 2900 538 
Q 2691 219 2414 64 
Q 2138 -91 1772 -91 
Q 1169 -91 856 284 
Q 544 659 544 1381 
z
M 1991 3584 
L 1991 3584 
z
" transform="scale(0.015625)"/>
       </defs>
       <use xlink:href="#DejaVuSans-4a"/>
       <use xlink:href="#DejaVuSans-75" transform="translate(29.492188 0)"/>
       <use xlink:href="#DejaVuSans-6e" transform="translate(92.871094 0)"/>
      </g>
     </g>
    </g>
    <g id="text_10">
     <!-- Date -->
     <g style="fill: #c9d1d9" transform="translate(367.294141 346.392795) scale(0.11 -0.11)">
      <use xlink:href="#DejaVuSans-44"/>
      <use xlink:href="#DejaVuSans-61" transform="translate(77.001953 0)"/>
      <use xlink:href="#DejaVuSans-74" transform="translate(138.28125 0)"/>
      <use xlink:href="#DejaVuSans-65" transform="translate(177.490234 0)"/>
     </g>
    </g>
   </g>
   <g id="matplotlib.axis_2">
    <g id="ytick_1">
     <g id="line2d_19">
      <path d="M 51.68 275.879942 
L 709.2 275.879942 
" clip-path="url(#p944ef99e8f)" style="fill: none; stroke: #30363d; stroke-opacity: 0.2; stroke-width: 0.8; stroke-linecap: square"/>
     </g>
     <g id="line2d_20">
      <defs>
       <path id="m401a9dabec" d="M 0 0 
L -3.5 0 
" style="stroke: #c9d1d9; stroke-width: 0.8"/>
      </defs>
      <g>
       <use xlink:href="#m401a9dabec" x="51.68" y="275.879942" style="fill: #c9d1d9; stroke: #c9d1d9; stroke-width: 0.8"/>
      </g>
     </g>
     <g id="text_11">
      <!-- 70 -->
      <g style="fill: #c9d1d9" transform="translate(31.955 279.679161) scale(0.1 -0.1)">
       <defs>
        <path id="DejaVuSans-37" d="M 525 4666 
L 3525 4666 
L 3525 4397 
L 1831 0 
L 1172 0 
L 2766 4134 
L 525 4134 
L 525 4666 
z
" transform="scale(0.015625)"/>
        <path id="DejaVuSans-30" d="M 2034 4250 
Q 1547 4250 1301 3770 
Q 1056 3291 1056 2328 
Q 1056 1369 1301 889 
Q 1547 409 2034 409 
Q 2525 409 2770 889 
Q 3016 1369 3016 2328 
Q 3016 3291 2770 3770 
Q 2525 4250 2034 4250 
z
M 2034 4750 
Q 2819 4750 3233 4129 
Q 3647 3509 3647 2328 
Q 3647 1150 3233 529 
Q 2819 -91 2034 -91 
Q 1250 -91 836 529 
Q 422 1150 422 2328 
Q 422 3509 836 4129 
Q 1250 4750 2034 4750 
z
" transform="scale(0.015625)"/>
       </defs>
       <use xlink:href="#DejaVuSans-37"/>
       <use xlink:href="#DejaVuSans-30" transform="translate(63.623047 0)"/>
      </g>
     </g>
    </g>
    <g id="ytick_2">
     <g id="line2d_21">
      <path d="M 51.68 232.215719 
L 709.2 232.215719 
" clip-path="url(#p944ef99e8f)" style="fill: none; stroke: #30363d; stroke-opacity: 0.2; stroke-width: 0.8; stroke-linecap: square"/>
     </g>
     <g id="line2d_22">
      <g>
       <use xlink:href="#m401a9dabec" x="51.68" y="232.215719" style="fill: #c9d1d9; stroke: #c9d1d9; stroke-width: 0.8"/>
      </g>
     </g>
     <g id="text_12">
      <!-- 80 -->
      <g style="fill: #c9d1d9" transform="translate(31.955 236.014938) scale(0.1 -0.1)">
       <defs>
        <path id="DejaVuSans-38" d="M 2034 2216 
Q 1584 2216 1326 1975 
Q 1069 1734 1069 1313 
Q 1069 891 1326 650 
Q 1584 409 2034 409 
Q 2484 409 2743 651 
Q 3003 894 3003 1313 
Q 3003 1734 2745 1975 
Q 2488 2216 2034 2216 
z
M 1403 2484 
Q 997 2584 770 2862 
Q 544 3141 544 3541 
Q 544 4100 942 4425 
Q 1341 4750 2034 4750 
Q 2731 4750 3128 4425 
Q 3525 4100 3525 3541 
Q 3525 3141 3298 2862 
Q 3072 2584 2669 2484 
Q 3125 2378 3379 2068 
Q 3634 1759 3634 1313 
Q 3634 634 3220 271 
Q 2806 -91 2034 -91 
Q 1263 -91 848 271 
Q 434 634 434 1313 
Q 434 1759 690 2068 
Q 947 2378 1403 2484 
z
M 1172 3481 
Q 1172 3119 1398 2916 
Q 1625 2713 2034 2713 
Q 2441 2713 2670 2916 
Q 2900 3119 2900 3481 
Q 2900 3844 2670 4047 
Q 2441 4250 2034 4250 
Q 1625 4250 1398 4047 
Q 1172 3844 1172 3481 
z
" transform="scale(0.015625)"/>
       </defs>
       <use xlink:href="#DejaVuSans-38"/>
       <use xlink:href="#DejaVuSans-30" transform="translate(63.623047 0)"/>
      </g>
     </g>
    </g>
    <g id="ytick_3">
     <g id="line2d_23">
      <path d="M 51.68 188.551496 
L 709.2 188.551496 
" clip-path="url(#p944ef99e8f)" style="fill: none; stroke: #30363d; stroke-opacity: 0.2; stroke-width: 0.8; stroke-linecap: square"/>
     </g>
     <g id="line2d_24">
      <g>
       <use xlink:href="#m401a9dabec" x="51.68" y="188.551496" style="fill: #c9d1d9; stroke: #c9d1d9; stroke-width: 0.8"/>
      </g>
     </g>
     <g id="text_13">
      <!-- 90 -->
      <g style="fill: #c9d1d9" transform="translate(31.955 192.350715) scale(0.1 -0.1)">
       <defs>
        <path id="DejaVuSans-39" d="M 703 97 
L 703 672 
Q 941 559 1184 500 
Q 1428 441 1663 441 
Q 2288 441 2617 861 
Q 2947 1281 2994 2138 
Q 2813 1869 2534 1725 
Q 2256 1581 1919 1581 
Q 1219 1581 811 2004 
Q 403 2428 403 3163 
Q 403 3881 828 4315 
Q 1253 4750 1959 4750 
Q 2769 4750 3195 4129 
Q 3622 3509 3622 2328 
Q 3622 1225 3098 567 
Q 2575 -91 1691 -91 
Q 1453 -91 1209 -44 
Q 966 3 703 97 
z
M 1959 2075 
Q 2384 2075 2632 2365 
Q 2881 2656 2881 3163 
Q 2881 3666 2632 3958 
Q 2384 4250 1959 4250 
Q 1534 4250 1286 3958 
Q 1038 3666 1038 3163 
Q 1038 2656 1286 2365 
Q 1534 2075 1959 2075 
z
" transform="scale(0.015625)"/>
       </defs>
       <use xlink:href="#DejaVuSans-39"/>
       <use xlink:href="#DejaVuSans-30" transform="translate(63.623047 0)"/>
      </g>
     </g>
    </g>
    <g id="ytick_4">
     <g id="line2d_25">
      <path d="M 51.68 144.887273 
L 709.2 144.887273 
" clip-path="url(#p944ef99e8f)" style="fill: none; stroke: #30363d; stroke-opacity: 0.2; stroke-width: 0.8; stroke-linecap: square"/>
     </g>
     <g id="line2d_26">
      <g>
       <use xlink:href="#m401a9dabec" x="51.68" y="144.887273" style="fill: #c9d1d9; stroke: #c9d1d9; stroke-width: 0.8"/>
      </g>
     </g>
     <g id="text_14">
      <!-- 100 -->
      <g style="fill: #c9d1d9" transform="translate(25.5925 148.686492) scale(0.1 -0.1)">
       <defs>
        <path id="DejaVuSans-31" d="M 794 531 
L 1825 531 
L 1825 4091 
L 703 3866 
L 703 4441 
L 1819 4666 
L 2450 4666 
L 2450 531 
L 3481 531 
L 3481 0 
L 794 0 
L 794 531 
z
" transform="scale(0.015625)"/>
       </defs>
       <use xlink:href="#DejaVuSans-31"/>
       <use xlink:href="#DejaVuSans-30" transform="translate(63.623047 0)"/>
       <use xlink:href="#DejaVuSans-30" transform="translate(127.246094 0)"/>
      </g>
     </g>
    </g>
    <g id="ytick_5">
     <g id="line2d_27">
      <path d="M 51.68 101.22305 
L 709.2 101.22305 
" clip-path="url(#p944ef99e8f)" style="fill: none; stroke: #30363d; stroke-opacity: 0.2; stroke-width: 0.8; stroke-linecap: square"/>
     </g>
     <g id="line2d_28">
      <g>
       <use xlink:href="#m401a9dabec" x="51.68" y="101.22305" style="fill: #c9d1d9; stroke: #c9d1d9; stroke-width: 0.8"/>
      </g>
     </g>
     <g id="text_15">
      <!-- 110 -->
      <g style="fill: #c9d1d9" transform="translate(25.5925 105.022269) scale(0.1 -0.1)">
       <use xlink:href="#DejaVuSans-31"/>
       <use xlink:href="#DejaVuSans-31" transform="translate(63.623047 0)"/>
       <use xlink:href="#DejaVuSans-30" transform="translate(127.246094 0)"/>
      </g>
     </g>
    </g>
    <g id="ytick_6">
     <g id="line2d_29">
      <path d="M 51.68 57.558827 
L 709.2 57.558827 
" clip-path="url(#p944ef99e8f)" style="fill: none; stroke: #30363d; stroke-opacity: 0.2; stroke-width: 0.8; stroke-linecap: square"/>
     </g>
     <g id="line2d_30">
      <g>
       <use xlink:href="#m401a9dabec" x="51.68" y="57.558827" style="fill: #c9d1d9; stroke: #c9d1d9; stroke-width: 0.8"/>
      </g>
     </g>
     <g id="text_16">
      <!-- 120 -->
      <g style="fill: #c9d1d9" transform="translate(25.5925 61.358046) scale(0.1 -0.1)">
       <defs>
        <path id="DejaVuSans-32" d="M 1228 531 
L 3431 531 
L 3431 0 
L 469 0 
L 469 531 
Q 828 903 1448 1529 
Q 2069 2156 2228 2338 
Q 2531 2678 2651 2914 
Q 2772 3150 2772 3378 
Q 2772 3750 2511 3984 
Q 2250 4219 1831 4219 
Q 1534 4219 1204 4116 
Q 875 4013 500 3803 
L 500 4441 
Q 881 4594 1212 4672 
Q 1544 4750 1819 4750 
Q 2544 4750 2975 4387 
Q 3406 4025 3406 3419 
Q 3406 3131 3298 2873 
Q 3191 2616 2906 2266 
Q 2828 2175 2409 1742 
Q 1991 1309 1228 531 
z
" transform="scale(0.015625)"/>
       </defs>
       <use xlink:href="#DejaVuSans-31"/>
       <use xlink:href="#DejaVuSans-32" transform="translate(63.623047 0)"/>
       <use xlink:href="#DejaVuSans-30" transform="translate(127.246094 0)"/>
      </g>
     </g>
    </g>
    <g id="text_17">
     <!-- Count -->
     <g style="fill: #c9d1d9" transform="translate(19.304844 187.419088) rotate(-90) scale(0.11 -0.11)">
      <defs>
       <path id="DejaVuSans-43" d="M 4122 4306 
L 4122 3641 
Q 3803 3938 3442 4084 
Q 3081 4231 2675 4231 
Q 1875 4231 1450 3742 
Q 1025 3253 1025 2328 
Q 1025 1406 1450 917 
Q 1875 428 2675 428 
Q 3081 428 3442 575 
Q 3803 722 4122 1019 
L 4122 359 
Q 3791 134 3420 21 
Q 3050 -91 2638 -91 
Q 1578 -91 968 557 
Q 359 1206 359 2328 
Q 359 3453 968 4101 
Q 1578 4750 2638 4750 
Q 3056 4750 3426 4639 
Q 3797 4528 4122 4306 
z
" transform="scale(0.015625)"/>
      </defs>
      <use xlink:href="#DejaVuSans-43"/>
      <use xlink:href="#DejaVuSans-6f" transform="translate(69.824219 0)"/>
      <use xlink:href="#DejaVuSans-75" transform="translate(131.005859 0)"/>
      <use xlink:href="#DejaVuSans-6e" transform="translate(194.384766 0)"/>
      <use xlink:href="#DejaVuSans-74" transform="translate(257.763672 0)"/>
     </g>
    </g>
   </g>
   <g id="line2d_31">
    <path d="M 81.567273 293.345631 
L 155.975421 293.345631 
L 173.337322 262.780675 
L 175.817593 262.780675 
L 178.297865 258.414253 
L 185.73868 258.414253 
L 188.218951 262.780675 
L 225.423025 262.780675 
L 227.903297 258.414253 
L 237.824383 258.414253 
L 242.784926 249.681408 
L 255.186284 249.681408 
L 257.666556 245.314986 
L 262.627099 245.314986 
L 265.107371 240.948564 
L 275.028457 240.948564 
L 277.508729 236.582141 
L 284.949544 236.582141 
L 287.429815 232.215719 
L 297.350902 232.215719 
L 299.831173 219.116452 
L 304.791716 219.116452 
L 307.271988 214.75003 
L 327.114161 214.75003 
L 329.594432 210.383608 
L 332.074704 210.383608 
L 337.035247 206.017185 
L 339.515519 206.017185 
L 344.476062 197.284341 
L 351.916877 197.284341 
L 354.397148 162.352962 
L 381.680136 162.352962 
L 384.160407 157.98654 
L 391.601222 157.98654 
L 394.081494 153.620118 
L 396.561765 153.620118 
L 399.042037 149.253695 
L 438.726382 149.253695 
L 441.206654 118.688739 
L 456.088284 118.688739 
L 461.048827 109.955895 
L 475.930456 109.955895 
L 478.410728 105.589472 
L 480.891 105.589472 
L 483.371271 101.22305 
L 490.812086 101.22305 
L 493.292358 96.856628 
L 498.252901 96.856628 
L 500.733172 92.490205 
L 503.213444 92.490205 
L 505.693716 88.123783 
L 513.13453 88.123783 
L 515.614802 83.757361 
L 537.937246 83.757361 
L 540.417518 79.390939 
L 560.259691 79.390939 
L 562.739962 75.024516 
L 565.220234 75.024516 
L 567.700505 79.390939 
L 575.14132 79.390939 
L 577.621592 75.024516 
L 587.542678 75.024516 
L 590.02295 70.658094 
L 622.266481 70.658094 
L 624.746752 61.925249 
L 627.227024 61.925249 
L 629.707295 53.192405 
L 674.352184 53.192405 
L 676.832456 48.825982 
L 679.312727 48.825982 
L 679.312727 48.825982 
" clip-path="url(#p944ef99e8f)" style="fill: none; stroke: #3fb950; stroke-width: 2.5; stroke-linecap: square"/>
    <defs>
     <path id="me48e14248f" d="M 0 2.5 
C 0.663008 2.5 1.29895 2.236584 1.767767 1.767767 
C 2.236584 1.29895 2.5 0.663008 2.5 0 
C 2.5 -0.663008 2.236584 -1.29895 1.767767 -1.767767 
C 1.29895 -2.236584 0.663008 -2.5 0 -2.5 
C -0.663008 -2.5 -1.29895 -2.236584 -1.767767 -1.767767 
C -2.236584 -1.29895 -2.5 -0.663008 -2.5 0 
C -2.5 0.663008 -2.236584 1.29895 -1.767767 1.767767 
C -1.29895 2.236584 -0.663008 2.5 0 2.5 
z
" style="stroke: #3fb950"/>
    </defs>
    <g clip-path="url(#p944ef99e8f)">
     <use xlink:href="#me48e14248f" x="81.567273" y="293.345631" style="fill: #3fb950; stroke: #3fb950"/>
     <use xlink:href="#me48e14248f" x="84.047544" y="293.345631" style="fill: #3fb950; stroke: #3fb950"/>
     <use xlink:href="#me48e14248f" x="86.527816" y="293.345631" style="fill: #3fb950; stroke: #3fb950"/>
     <use xlink:href="#me48e14248f" x="89.008088" y="293.345631" style="fill: #3fb950; stroke: #3fb950"/>
     <use xlink:href="#me48e14248f" x="91.488359" y="293.345631" style="fill: #3fb950; stroke: #3fb950"/>
     <use xlink:href="#me48e14248f" x="93.968631" y="293.345631" style="fill: #3fb950; stroke: #3fb950"/>
     <use xlink:href="#me48e14248f" x="96.448902" y="293.345631" style="fill: #3fb950; stroke: #3fb950"/>
     <use xlink:href="#me48e14248f" x="98.929174" y="293.345631" style="fill: #3fb950; stroke: #3fb950"/>
     <use xlink:href="#me48e14248f" x="101.409445" y="293.345631" style="fill: #3fb950; stroke: #3fb950"/>
     <use xlink:href="#me48e14248f" x="103.889717" y="293.345631" style="fill: #3fb950; stroke: #3fb950"/>
     <use xlink:href="#me48e14248f" x="106.369989" y="293.345631" style="fill: #3fb950; stroke: #3fb950"/>
     <use xlink:href="#me48e14248f" x="108.85026" y="293.345631" style="fill: #3fb950; stroke: #3fb950"/>
     <use xlink:href="#me48e14248f" x="111.330532" y="293.345631" style="fill: #3fb950; stroke: #3fb950"/>
     <use xlink:href="#me48e14248f" x="113.810803" y="293.345631" style="fill: #3fb950; stroke: #3fb950"/>
     <use xlink:href="#me48e14248f" x="116.291075" y="293.345631" style="fill: #3fb950; stroke: #3fb950"/>
     <use xlink:href="#me48e14248f" x="118.771347" y="293.345631" style="fill: #3fb950; stroke: #3fb950"/>
     <use xlink:href="#me48e14248f" x="121.251618" y="293.345631" style="fill: #3fb950; stroke: #3fb950"/>
     <use xlink:href="#me48e14248f" x="123.73189" y="293.345631" style="fill: #3fb950; stroke: #3fb950"/>
     <use xlink:href="#me48e14248f" x="126.212161" y="293.345631" style="fill: #3fb950; stroke: #3fb950"/>
     <use xlink:href="#me48e14248f" x="128.692433" y="293.345631" style="fill: #3fb950; stroke: #3fb950"/>
     <use xlink:href="#me48e14248f" x="131.172705" y="293.345631" style="fill: #3fb950; stroke: #3fb950"/>
     <use xlink:href="#me48e14248f" x="133.652976" y="293.345631" style="fill: #3fb950; stroke: #3fb950"/>
     <use xlink:href="#me48e14248f" x="136.133248" y="293.345631" style="fill: #3fb950; stroke: #3fb950"/>
     <use xlink:href="#me48e14248f" x="138.613519" y="293.345631" style="fill: #3fb950; stroke: #3fb950"/>
     <use xlink:href="#me48e14248f" x="141.093791" y="293.345631" style="fill: #3fb950; stroke: #3fb950"/>
     <use xlink:href="#me48e14248f" x="143.574063" y="293.345631" style="fill: #3fb950; stroke: #3fb950"/>
     <use xlink:href="#me48e14248f" x="146.054334" y="293.345631" style="fill: #3fb950; stroke: #3fb950"/>
     <use xlink:href="#me48e14248f" x="148.534606" y="293.345631" style="fill: #3fb950; stroke: #3fb950"/>
     <use xlink:href="#me48e14248f" x="151.014877" y="293.345631" style="fill: #3fb950; stroke: #3fb950"/>
     <use xlink:href="#me48e14248f" x="153.495149" y="293.345631" style="fill: #3fb950; stroke: #3fb950"/>
     <use xlink:href="#me48e14248f" x="155.975421" y="293.345631" style="fill: #3fb950; stroke: #3fb950"/>
     <use xlink:href="#me48e14248f" x="173.337322" y="262.780675" style="fill: #3fb950; stroke: #3fb950"/>
     <use xlink:href="#me48e14248f" x="175.817593" y="262.780675" style="fill: #3fb950; stroke: #3fb950"/>
     <use xlink:href="#me48e14248f" x="178.297865" y="258.414253" style="fill: #3fb950; stroke: #3fb950"/>
     <use xlink:href="#me48e14248f" x="180.778137" y="258.414253" style="fill: #3fb950; stroke: #3fb950"/>
     <use xlink:href="#me48e14248f" x="183.258408" y="258.414253" style="fill: #3fb950; stroke: #3fb950"/>
     <use xlink:href="#me48e14248f" x="185.73868" y="258.414253" style="fill: #3fb950; stroke: #3fb950"/>
     <use xlink:href="#me48e14248f" x="188.218951" y="262.780675" style="fill: #3fb950; stroke: #3fb950"/>
     <use xlink:href="#me48e14248f" x="190.699223" y="262.780675" style="fill: #3fb950; stroke: #3fb950"/>
     <use xlink:href="#me48e14248f" x="193.179495" y="262.780675" style="fill: #3fb950; stroke: #3fb950"/>
     <use xlink:href="#me48e14248f" x="195.659766" y="262.780675" style="fill: #3fb950; stroke: #3fb950"/>
     <use xlink:href="#me48e14248f" x="198.140038" y="262.780675" style="fill: #3fb950; stroke: #3fb950"/>
     <use xlink:href="#me48e14248f" x="200.620309" y="262.780675" style="fill: #3fb950; stroke: #3fb950"/>
     <use xlink:href="#me48e14248f" x="203.100581" y="262.780675" style="fill: #3fb950; stroke: #3fb950"/>
     <use xlink:href="#me48e14248f" x="205.580853" y="262.780675" style="fill: #3fb950; stroke: #3fb950"/>
     <use xlink:href="#me48e14248f" x="208.061124" y="262.780675" style="fill: #3fb950; stroke: #3fb950"/>
     <use xlink:href="#me48e14248f" x="210.541396" y="262.780675" style="fill: #3fb950; stroke: #3fb950"/>
     <use xlink:href="#me48e14248f" x="213.021667" y="262.780675" style="fill: #3fb950; stroke: #3fb950"/>
     <use xlink:href="#me48e14248f" x="215.501939" y="262.780675" style="fill: #3fb950; stroke: #3fb950"/>
     <use xlink:href="#me48e14248f" x="217.98221" y="262.780675" style="fill: #3fb950; stroke: #3fb950"/>
     <use xlink:href="#me48e14248f" x="220.462482" y="262.780675" style="fill: #3fb950; stroke: #3fb950"/>
     <use xlink:href="#me48e14248f" x="222.942754" y="262.780675" style="fill: #3fb950; stroke: #3fb950"/>
     <use xlink:href="#me48e14248f" x="225.423025" y="262.780675" style="fill: #3fb950; stroke: #3fb950"/>
     <use xlink:href="#me48e14248f" x="227.903297" y="258.414253" style="fill: #3fb950; stroke: #3fb950"/>
     <use xlink:href="#me48e14248f" x="230.383568" y="258.414253" style="fill: #3fb950; stroke: #3fb950"/>
     <use xlink:href="#me48e14248f" x="232.86384" y="258.414253" style="fill: #3fb950; stroke: #3fb950"/>
     <use xlink:href="#me48e14248f" x="235.344112" y="258.414253" style="fill: #3fb950; stroke: #3fb950"/>
     <use xlink:href="#me48e14248f" x="237.824383" y="258.414253" style="fill: #3fb950; stroke: #3fb950"/>
     <use xlink:href="#me48e14248f" x="240.304655" y="254.047831" style="fill: #3fb950; stroke: #3fb950"/>
     <use xlink:href="#me48e14248f" x="242.784926" y="249.681408" style="fill: #3fb950; stroke: #3fb950"/>
     <use xlink:href="#me48e14248f" x="245.265198" y="249.681408" style="fill: #3fb950; stroke: #3fb950"/>
     <use xlink:href="#me48e14248f" x="247.74547" y="249.681408" style="fill: #3fb950; stroke: #3fb950"/>
     <use xlink:href="#me48e14248f" x="250.225741" y="249.681408" style="fill: #3fb950; stroke: #3fb950"/>
     <use xlink:href="#me48e14248f" x="252.706013" y="249.681408" style="fill: #3fb950; stroke: #3fb950"/>
     <use xlink:href="#me48e14248f" x="255.186284" y="249.681408" style="fill: #3fb950; stroke: #3fb950"/>
     <use xlink:href="#me48e14248f" x="257.666556" y="245.314986" style="fill: #3fb950; stroke: #3fb950"/>
     <use xlink:href="#me48e14248f" x="260.146828" y="245.314986" style="fill: #3fb950; stroke: #3fb950"/>
     <use xlink:href="#me48e14248f" x="262.627099" y="245.314986" style="fill: #3fb950; stroke: #3fb950"/>
     <use xlink:href="#me48e14248f" x="265.107371" y="240.948564" style="fill: #3fb950; stroke: #3fb950"/>
     <use xlink:href="#me48e14248f" x="267.587642" y="240.948564" style="fill: #3fb950; stroke: #3fb950"/>
     <use xlink:href="#me48e14248f" x="270.067914" y="240.948564" style="fill: #3fb950; stroke: #3fb950"/>
     <use xlink:href="#me48e14248f" x="272.548186" y="240.948564" style="fill: #3fb950; stroke: #3fb950"/>
     <use xlink:href="#me48e14248f" x="275.028457" y="240.948564" style="fill: #3fb950; stroke: #3fb950"/>
     <use xlink:href="#me48e14248f" x="277.508729" y="236.582141" style="fill: #3fb950; stroke: #3fb950"/>
     <use xlink:href="#me48e14248f" x="279.989" y="236.582141" style="fill: #3fb950; stroke: #3fb950"/>
     <use xlink:href="#me48e14248f" x="282.469272" y="236.582141" style="fill: #3fb950; stroke: #3fb950"/>
     <use xlink:href="#me48e14248f" x="284.949544" y="236.582141" style="fill: #3fb950; stroke: #3fb950"/>
     <use xlink:href="#me48e14248f" x="287.429815" y="232.215719" style="fill: #3fb950; stroke: #3fb950"/>
     <use xlink:href="#me48e14248f" x="289.910087" y="232.215719" style="fill: #3fb950; stroke: #3fb950"/>
     <use xlink:href="#me48e14248f" x="292.390358" y="232.215719" style="fill: #3fb950; stroke: #3fb950"/>
     <use xlink:href="#me48e14248f" x="294.87063" y="232.215719" style="fill: #3fb950; stroke: #3fb950"/>
     <use xlink:href="#me48e14248f" x="297.350902" y="232.215719" style="fill: #3fb950; stroke: #3fb950"/>
     <use xlink:href="#me48e14248f" x="299.831173" y="219.116452" style="fill: #3fb950; stroke: #3fb950"/>
     <use xlink:href="#me48e14248f" x="302.311445" y="219.116452" style="fill: #3fb950; stroke: #3fb950"/>
     <use xlink:href="#me48e14248f" x="304.791716" y="219.116452" style="fill: #3fb950; stroke: #3fb950"/>
     <use xlink:href="#me48e14248f" x="307.271988" y="214.75003" style="fill: #3fb950; stroke: #3fb950"/>
     <use xlink:href="#me48e14248f" x="309.75226" y="214.75003" style="fill: #3fb950; stroke: #3fb950"/>
     <use xlink:href="#me48e14248f" x="312.232531" y="214.75003" style="fill: #3fb950; stroke: #3fb950"/>
     <use xlink:href="#me48e14248f" x="314.712803" y="214.75003" style="fill: #3fb950; stroke: #3fb950"/>
     <use xlink:href="#me48e14248f" x="317.193074" y="214.75003" style="fill: #3fb950; stroke: #3fb950"/>
     <use xlink:href="#me48e14248f" x="319.673346" y="214.75003" style="fill: #3fb950; stroke: #3fb950"/>
     <use xlink:href="#me48e14248f" x="322.153618" y="214.75003" style="fill: #3fb950; stroke: #3fb950"/>
     <use xlink:href="#me48e14248f" x="324.633889" y="214.75003" style="fill: #3fb950; stroke: #3fb950"/>
     <use xlink:href="#me48e14248f" x="327.114161" y="214.75003" style="fill: #3fb950; stroke: #3fb950"/>
     <use xlink:href="#me48e14248f" x="329.594432" y="210.383608" style="fill: #3fb950; stroke: #3fb950"/>
     <use xlink:href="#me48e14248f" x="332.074704" y="210.383608" style="fill: #3fb950; stroke: #3fb950"/>
     <use xlink:href="#me48e14248f" x="337.035247" y="206.017185" style="fill: #3fb950; stroke: #3fb950"/>
     <use xlink:href="#me48e14248f" x="339.515519" y="206.017185" style="fill: #3fb950; stroke: #3fb950"/>
     <use xlink:href="#me48e14248f" x="341.99579" y="201.650763" style="fill: #3fb950; stroke: #3fb950"/>
     <use xlink:href="#me48e14248f" x="344.476062" y="197.284341" style="fill: #3fb950; stroke: #3fb950"/>
     <use xlink:href="#me48e14248f" x="346.956333" y="197.284341" style="fill: #3fb950; stroke: #3fb950"/>
     <use xlink:href="#me48e14248f" x="349.436605" y="197.284341" style="fill: #3fb950; stroke: #3fb950"/>
     <use xlink:href="#me48e14248f" x="351.916877" y="197.284341" style="fill: #3fb950; stroke: #3fb950"/>
     <use xlink:href="#me48e14248f" x="354.397148" y="162.352962" style="fill: #3fb950; stroke: #3fb950"/>
     <use xlink:href="#me48e14248f" x="356.87742" y="162.352962" style="fill: #3fb950; stroke: #3fb950"/>
     <use xlink:href="#me48e14248f" x="359.357691" y="162.352962" style="fill: #3fb950; stroke: #3fb950"/>
     <use xlink:href="#me48e14248f" x="361.837963" y="162.352962" style="fill: #3fb950; stroke: #3fb950"/>
     <use xlink:href="#me48e14248f" x="364.318235" y="162.352962" style="fill: #3fb950; stroke: #3fb950"/>
     <use xlink:href="#me48e14248f" x="366.798506" y="162.352962" style="fill: #3fb950; stroke: #3fb950"/>
     <use xlink:href="#me48e14248f" x="369.278778" y="162.352962" style="fill: #3fb950; stroke: #3fb950"/>
     <use xlink:href="#me48e14248f" x="371.759049" y="162.352962" style="fill: #3fb950; stroke: #3fb950"/>
     <use xlink:href="#me48e14248f" x="374.239321" y="162.352962" style="fill: #3fb950; stroke: #3fb950"/>
     <use xlink:href="#me48e14248f" x="376.719593" y="162.352962" style="fill: #3fb950; stroke: #3fb950"/>
     <use xlink:href="#me48e14248f" x="379.199864" y="162.352962" style="fill: #3fb950; stroke: #3fb950"/>
     <use xlink:href="#me48e14248f" x="381.680136" y="162.352962" style="fill: #3fb950; stroke: #3fb950"/>
     <use xlink:href="#me48e14248f" x="384.160407" y="157.98654" style="fill: #3fb950; stroke: #3fb950"/>
     <use xlink:href="#me48e14248f" x="386.640679" y="157.98654" style="fill: #3fb950; stroke: #3fb950"/>
     <use xlink:href="#me48e14248f" x="389.120951" y="157.98654" style="fill: #3fb950; stroke: #3fb950"/>
     <use xlink:href="#me48e14248f" x="391.601222" y="157.98654" style="fill: #3fb950; stroke: #3fb950"/>
     <use xlink:href="#me48e14248f" x="394.081494" y="153.620118" style="fill: #3fb950; stroke: #3fb950"/>
     <use xlink:href="#me48e14248f" x="396.561765" y="153.620118" style="fill: #3fb950; stroke: #3fb950"/>
     <use xlink:href="#me48e14248f" x="399.042037" y="149.253695" style="fill: #3fb950; stroke: #3fb950"/>
     <use xlink:href="#me48e14248f" x="401.522309" y="149.253695" style="fill: #3fb950; stroke: #3fb950"/>
     <use xlink:href="#me48e14248f" x="404.00258" y="149.253695" style="fill: #3fb950; stroke: #3fb950"/>
     <use xlink:href="#me48e14248f" x="406.482852" y="149.253695" style="fill: #3fb950; stroke: #3fb950"/>
     <use xlink:href="#me48e14248f" x="408.963123" y="149.253695" style="fill: #3fb950; stroke: #3fb950"/>
     <use xlink:href="#me48e14248f" x="411.443395" y="149.253695" style="fill: #3fb950; stroke: #3fb950"/>
     <use xlink:href="#me48e14248f" x="413.923667" y="149.253695" style="fill: #3fb950; stroke: #3fb950"/>
     <use xlink:href="#me48e14248f" x="416.403938" y="149.253695" style="fill: #3fb950; stroke: #3fb950"/>
     <use xlink:href="#me48e14248f" x="418.88421" y="149.253695" style="fill: #3fb950; stroke: #3fb950"/>
     <use xlink:href="#me48e14248f" x="421.364481" y="149.253695" style="fill: #3fb950; stroke: #3fb950"/>
     <use xlink:href="#me48e14248f" x="423.844753" y="149.253695" style="fill: #3fb950; stroke: #3fb950"/>
     <use xlink:href="#me48e14248f" x="426.325025" y="149.253695" style="fill: #3fb950; stroke: #3fb950"/>
     <use xlink:href="#me48e14248f" x="428.805296" y="149.253695" style="fill: #3fb950; stroke: #3fb950"/>
     <use xlink:href="#me48e14248f" x="431.285568" y="149.253695" style="fill: #3fb950; stroke: #3fb950"/>
     <use xlink:href="#me48e14248f" x="433.765839" y="149.253695" style="fill: #3fb950; stroke: #3fb950"/>
     <use xlink:href="#me48e14248f" x="436.246111" y="149.253695" style="fill: #3fb950; stroke: #3fb950"/>
     <use xlink:href="#me48e14248f" x="438.726382" y="149.253695" style="fill: #3fb950; stroke: #3fb950"/>
     <use xlink:href="#me48e14248f" x="441.206654" y="118.688739" style="fill: #3fb950; stroke: #3fb950"/>
     <use xlink:href="#me48e14248f" x="443.686926" y="118.688739" style="fill: #3fb950; stroke: #3fb950"/>
     <use xlink:href="#me48e14248f" x="446.167197" y="118.688739" style="fill: #3fb950; stroke: #3fb950"/>
     <use xlink:href="#me48e14248f" x="448.647469" y="118.688739" style="fill: #3fb950; stroke: #3fb950"/>
     <use xlink:href="#me48e14248f" x="451.12774" y="118.688739" style="fill: #3fb950; stroke: #3fb950"/>
     <use xlink:href="#me48e14248f" x="453.608012" y="118.688739" style="fill: #3fb950; stroke: #3fb950"/>
     <use xlink:href="#me48e14248f" x="456.088284" y="118.688739" style="fill: #3fb950; stroke: #3fb950"/>
     <use xlink:href="#me48e14248f" x="458.568555" y="114.322317" style="fill: #3fb950; stroke: #3fb950"/>
     <use xlink:href="#me48e14248f" x="461.048827" y="109.955895" style="fill: #3fb950; stroke: #3fb950"/>
     <use xlink:href="#me48e14248f" x="463.529098" y="109.955895" style="fill: #3fb950; stroke: #3fb950"/>
     <use xlink:href="#me48e14248f" x="466.00937" y="109.955895" style="fill: #3fb950; stroke: #3fb950"/>
     <use xlink:href="#me48e14248f" x="468.489642" y="109.955895" style="fill: #3fb950; stroke: #3fb950"/>
     <use xlink:href="#me48e14248f" x="470.969913" y="109.955895" style="fill: #3fb950; stroke: #3fb950"/>
     <use xlink:href="#me48e14248f" x="473.450185" y="109.955895" style="fill: #3fb950; stroke: #3fb950"/>
     <use xlink:href="#me48e14248f" x="475.930456" y="109.955895" style="fill: #3fb950; stroke: #3fb950"/>
     <use xlink:href="#me48e14248f" x="478.410728" y="105.589472" style="fill: #3fb950; stroke: #3fb950"/>
     <use xlink:href="#me48e14248f" x="480.891" y="105.589472" style="fill: #3fb950; stroke: #3fb950"/>
     <use xlink:href="#me48e14248f" x="483.371271" y="101.22305" style="fill: #3fb950; stroke: #3fb950"/>
     <use xlink:href="#me48e14248f" x="485.851543" y="101.22305" style="fill: #3fb950; stroke: #3fb950"/>
     <use xlink:href="#me48e14248f" x="488.331814" y="101.22305" style="fill: #3fb950; stroke: #3fb950"/>
     <use xlink:href="#me48e14248f" x="490.812086" y="101.22305" style="fill: #3fb950; stroke: #3fb950"/>
     <use xlink:href="#me48e14248f" x="493.292358" y="96.856628" style="fill: #3fb950; stroke: #3fb950"/>
     <use xlink:href="#me48e14248f" x="495.772629" y="96.856628" style="fill: #3fb950; stroke: #3fb950"/>
     <use xlink:href="#me48e14248f" x="498.252901" y="96.856628" style="fill: #3fb950; stroke: #3fb950"/>
     <use xlink:href="#me48e14248f" x="500.733172" y="92.490205" style="fill: #3fb950; stroke: #3fb950"/>
     <use xlink:href="#me48e14248f" x="503.213444" y="92.490205" style="fill: #3fb950; stroke: #3fb950"/>
     <use xlink:href="#me48e14248f" x="505.693716" y="88.123783" style="fill: #3fb950; stroke: #3fb950"/>
     <use xlink:href="#me48e14248f" x="508.173987" y="88.123783" style="fill: #3fb950; stroke: #3fb950"/>
     <use xlink:href="#me48e14248f" x="510.654259" y="88.123783" style="fill: #3fb950; stroke: #3fb950"/>
     <use xlink:href="#me48e14248f" x="513.13453" y="88.123783" style="fill: #3fb950; stroke: #3fb950"/>
     <use xlink:href="#me48e14248f" x="515.614802" y="83.757361" style="fill: #3fb950; stroke: #3fb950"/>
     <use xlink:href="#me48e14248f" x="518.095074" y="83.757361" style="fill: #3fb950; stroke: #3fb950"/>
     <use xlink:href="#me48e14248f" x="520.575345" y="83.757361" style="fill: #3fb950; stroke: #3fb950"/>
     <use xlink:href="#me48e14248f" x="523.055617" y="83.757361" style="fill: #3fb950; stroke: #3fb950"/>
     <use xlink:href="#me48e14248f" x="525.535888" y="83.757361" style="fill: #3fb950; stroke: #3fb950"/>
     <use xlink:href="#me48e14248f" x="528.01616" y="83.757361" style="fill: #3fb950; stroke: #3fb950"/>
     <use xlink:href="#me48e14248f" x="530.496432" y="83.757361" style="fill: #3fb950; stroke: #3fb950"/>
     <use xlink:href="#me48e14248f" x="532.976703" y="83.757361" style="fill: #3fb950; stroke: #3fb950"/>
     <use xlink:href="#me48e14248f" x="535.456975" y="83.757361" style="fill: #3fb950; stroke: #3fb950"/>
     <use xlink:href="#me48e14248f" x="537.937246" y="83.757361" style="fill: #3fb950; stroke: #3fb950"/>
     <use xlink:href="#me48e14248f" x="540.417518" y="79.390939" style="fill: #3fb950; stroke: #3fb950"/>
     <use xlink:href="#me48e14248f" x="542.89779" y="79.390939" style="fill: #3fb950; stroke: #3fb950"/>
     <use xlink:href="#me48e14248f" x="545.378061" y="79.390939" style="fill: #3fb950; stroke: #3fb950"/>
     <use xlink:href="#me48e14248f" x="547.858333" y="79.390939" style="fill: #3fb950; stroke: #3fb950"/>
     <use xlink:href="#me48e14248f" x="550.338604" y="79.390939" style="fill: #3fb950; stroke: #3fb950"/>
     <use xlink:href="#me48e14248f" x="552.818876" y="79.390939" style="fill: #3fb950; stroke: #3fb950"/>
     <use xlink:href="#me48e14248f" x="555.299147" y="79.390939" style="fill: #3fb950; stroke: #3fb950"/>
     <use xlink:href="#me48e14248f" x="557.779419" y="79.390939" style="fill: #3fb950; stroke: #3fb950"/>
     <use xlink:href="#me48e14248f" x="560.259691" y="79.390939" style="fill: #3fb950; stroke: #3fb950"/>
     <use xlink:href="#me48e14248f" x="562.739962" y="75.024516" style="fill: #3fb950; stroke: #3fb950"/>
     <use xlink:href="#me48e14248f" x="565.220234" y="75.024516" style="fill: #3fb950; stroke: #3fb950"/>
     <use xlink:href="#me48e14248f" x="567.700505" y="79.390939" style="fill: #3fb950; stroke: #3fb950"/>
     <use xlink:href="#me48e14248f" x="570.180777" y="79.390939" style="fill: #3fb950; stroke: #3fb950"/>
     <use xlink:href="#me48e14248f" x="572.661049" y="79.390939" style="fill: #3fb950; stroke: #3fb950"/>
     <use xlink:href="#me48e14248f" x="575.14132" y="79.390939" style="fill: #3fb950; stroke: #3fb950"/>
     <use xlink:href="#me48e14248f" x="577.621592" y="75.024516" style="fill: #3fb950; stroke: #3fb950"/>
     <use xlink:href="#me48e14248f" x="580.101863" y="75.024516" style="fill: #3fb950; stroke: #3fb950"/>
     <use xlink:href="#me48e14248f" x="582.582135" y="75.024516" style="fill: #3fb950; stroke: #3fb950"/>
     <use xlink:href="#me48e14248f" x="585.062407" y="75.024516" style="fill: #3fb950; stroke: #3fb950"/>
     <use xlink:href="#me48e14248f" x="587.542678" y="75.024516" style="fill: #3fb950; stroke: #3fb950"/>
     <use xlink:href="#me48e14248f" x="590.02295" y="70.658094" style="fill: #3fb950; stroke: #3fb950"/>
     <use xlink:href="#me48e14248f" x="592.503221" y="70.658094" style="fill: #3fb950; stroke: #3fb950"/>
     <use xlink:href="#me48e14248f" x="594.983493" y="70.658094" style="fill: #3fb950; stroke: #3fb950"/>
     <use xlink:href="#me48e14248f" x="597.463765" y="70.658094" style="fill: #3fb950; stroke: #3fb950"/>
     <use xlink:href="#me48e14248f" x="599.944036" y="70.658094" style="fill: #3fb950; stroke: #3fb950"/>
     <use xlink:href="#me48e14248f" x="602.424308" y="70.658094" style="fill: #3fb950; stroke: #3fb950"/>
     <use xlink:href="#me48e14248f" x="604.904579" y="70.658094" style="fill: #3fb950; stroke: #3fb950"/>
     <use xlink:href="#me48e14248f" x="607.384851" y="70.658094" style="fill: #3fb950; stroke: #3fb950"/>
     <use xlink:href="#me48e14248f" x="609.865123" y="70.658094" style="fill: #3fb950; stroke: #3fb950"/>
     <use xlink:href="#me48e14248f" x="612.345394" y="70.658094" style="fill: #3fb950; stroke: #3fb950"/>
     <use xlink:href="#me48e14248f" x="614.825666" y="70.658094" style="fill: #3fb950; stroke: #3fb950"/>
     <use xlink:href="#me48e14248f" x="617.305937" y="70.658094" style="fill: #3fb950; stroke: #3fb950"/>
     <use xlink:href="#me48e14248f" x="619.786209" y="70.658094" style="fill: #3fb950; stroke: #3fb950"/>
     <use xlink:href="#me48e14248f" x="622.266481" y="70.658094" style="fill: #3fb950; stroke: #3fb950"/>
     <use xlink:href="#me48e14248f" x="624.746752" y="61.925249" style="fill: #3fb950; stroke: #3fb950"/>
     <use xlink:href="#me48e14248f" x="627.227024" y="61.925249" style="fill: #3fb950; stroke: #3fb950"/>
     <use xlink:href="#me48e14248f" x="629.707295" y="53.192405" style="fill: #3fb950; stroke: #3fb950"/>
     <use xlink:href="#me48e14248f" x="632.187567" y="53.192405" style="fill: #3fb950; stroke: #3fb950"/>
     <use xlink:href="#me48e14248f" x="634.667839" y="53.192405" style="fill: #3fb950; stroke: #3fb950"/>
     <use xlink:href="#me48e14248f" x="637.14811" y="53.192405" style="fill: #3fb950; stroke: #3fb950"/>
     <use xlink:href="#me48e14248f" x="639.628382" y="53.192405" style="fill: #3fb950; stroke: #3fb950"/>
     <use xlink:href="#me48e14248f" x="642.108653" y="53.192405" style="fill: #3fb950; stroke: #3fb950"/>
     <use xlink:href="#me48e14248f" x="644.588925" y="53.192405" style="fill: #3fb950; stroke: #3fb950"/>
     <use xlink:href="#me48e14248f" x="647.069197" y="53.192405" style="fill: #3fb950; stroke: #3fb950"/>
     <use xlink:href="#me48e14248f" x="649.549468" y="53.192405" style="fill: #3fb950; stroke: #3fb950"/>
     <use xlink:href="#me48e14248f" x="652.02974" y="53.192405" style="fill: #3fb950; stroke: #3fb950"/>
     <use xlink:href="#me48e14248f" x="654.510011" y="53.192405" style="fill: #3fb950; stroke: #3fb950"/>
     <use xlink:href="#me48e14248f" x="656.990283" y="53.192405" style="fill: #3fb950; stroke: #3fb950"/>
     <use xlink:href="#me48e14248f" x="659.470555" y="53.192405" style="fill: #3fb950; stroke: #3fb950"/>
     <use xlink:href="#me48e14248f" x="661.950826" y="53.192405" style="fill: #3fb950; stroke: #3fb950"/>
     <use xlink:href="#me48e14248f" x="664.431098" y="53.192405" style="fill: #3fb950; stroke: #3fb950"/>
     <use xlink:href="#me48e14248f" x="666.911369" y="53.192405" style="fill: #3fb950; stroke: #3fb950"/>
     <use xlink:href="#me48e14248f" x="669.391641" y="53.192405" style="fill: #3fb950; stroke: #3fb950"/>
     <use xlink:href="#me48e14248f" x="671.871912" y="53.192405" style="fill: #3fb950; stroke: #3fb950"/>
     <use xlink:href="#me48e14248f" x="674.352184" y="53.192405" style="fill: #3fb950; stroke: #3fb950"/>
     <use xlink:href="#me48e14248f" x="676.832456" y="48.825982" style="fill: #3fb950; stroke: #3fb950"/>
     <use xlink:href="#me48e14248f" x="679.312727" y="48.825982" style="fill: #3fb950; stroke: #3fb950"/>
    </g>
   </g>
   <g id="patch_3">
    <path d="M 51.68 305.571614 
L 51.68 36.6 
" style="fill: none; stroke: #30363d; stroke-width: 0.8; stroke-linejoin: miter; stroke-linecap: square"/>
   </g>
   <g id="patch_4">
    <path d="M 709.2 305.571614 
L 709.2 36.6 
" style="fill: none; stroke: #30363d; stroke-width: 0.8; stroke-linejoin: miter; stroke-linecap: square"/>
   </g>
   <g id="patch_5">
    <path d="M 51.68 305.571614 
L 709.2 305.571614 
" style="fill: none; stroke: #30363d; stroke-width: 0.8; stroke-linejoin: miter; stroke-linecap: square"/>
   </g>
   <g id="patch_6">
    <path d="M 51.68 36.6 
L 709.2 36.6 
" style="fill: none; stroke: #30363d; stroke-width: 0.8; stroke-linejoin: miter; stroke-linecap: square"/>
   </g>
   <g id="text_18">
    <g id="patch_7">
     <path d="M 626.54335 63.994518 
L 696.0496 63.994518 
Q 699.3496 63.994518 699.3496 60.694518 
L 699.3496 50.048581 
Q 699.3496 46.748581 696.0496 46.748581 
L 626.54335 46.748581 
Q 623.24335 46.748581 623.24335 50.048581 
L 623.24335 60.694518 
Q 623.24335 63.994518 626.54335 63.994518 
z
" style="fill: #30363d; opacity: 0.8; stroke: #3fb950; stroke-linejoin: miter"/>
    </g>
    <!-- Current: 122 -->
    <g style="fill: #c9d1d9" transform="translate(626.54335 58.406862) scale(0.11 -0.11)">
     <defs>
      <path id="DejaVuSans-3a" d="M 750 794 
L 1409 794 
L 1409 0 
L 750 0 
L 750 794 
z
M 750 3309 
L 1409 3309 
L 1409 2516 
L 750 2516 
L 750 3309 
z
" transform="scale(0.015625)"/>
      <path id="DejaVuSans-20" transform="scale(0.015625)"/>
     </defs>
     <use xlink:href="#DejaVuSans-43"/>
     <use xlink:href="#DejaVuSans-75" transform="translate(69.824219 0)"/>
     <use xlink:href="#DejaVuSans-72" transform="translate(133.203125 0)"/>
     <use xlink:href="#DejaVuSans-72" transform="translate(172.566406 0)"/>
     <use xlink:href="#DejaVuSans-65" transform="translate(211.429688 0)"/>
     <use xlink:href="#DejaVuSans-6e" transform="translate(272.953125 0)"/>
     <use xlink:href="#DejaVuSans-74" transform="translate(336.332031 0)"/>
     <use xlink:href="#DejaVuSans-3a" transform="translate(375.541016 0)"/>
     <use xlink:href="#DejaVuSans-20" transform="translate(409.232422 0)"/>
     <use xlink:href="#DejaVuSans-31" transform="translate(441.019531 0)"/>
     <use xlink:href="#DejaVuSans-32" transform="translate(504.642578 0)"/>
     <use xlink:href="#DejaVuSans-32" transform="translate(568.265625 0)"/>
    </g>
   </g>
   <g id="text_19">
    <!-- Total Repository Stars -->
    <g style="fill: #c9d1d9" transform="translate(293.017656 21.6) scale(0.14 -0.14)">
     <defs>
      <path id="DejaVuSans-Bold-54" d="M 31 4666 
L 4331 4666 
L 4331 3756 
L 2784 3756 
L 2784 0 
L 1581 0 
L 1581 3756 
L 31 3756 
L 31 4666 
z
" transform="scale(0.015625)"/>
      <path id="DejaVuSans-Bold-6f" d="M 2203 2784 
Q 1831 2784 1636 2517 
Q 1441 2250 1441 1747 
Q 1441 1244 1636 976 
Q 1831 709 2203 709 
Q 2569 709 2762 976 
Q 2956 1244 2956 1747 
Q 2956 2250 2762 2517 
Q 2569 2784 2203 2784 
z
M 2203 3584 
Q 3106 3584 3614 3096 
Q 4122 2609 4122 1747 
Q 4122 884 3614 396 
Q 3106 -91 2203 -91 
Q 1297 -91 786 396 
Q 275 884 275 1747 
Q 275 2609 786 3096 
Q 1297 3584 2203 3584 
z
" transform="scale(0.015625)"/>
      <path id="DejaVuSans-Bold-74" d="M 1759 4494 
L 1759 3500 
L 2913 3500 
L 2913 2700 
L 1759 2700 
L 1759 1216 
Q 1759 972 1856 886 
Q 1953 800 2241 800 
L 2816 800 
L 2816 0 
L 1856 0 
Q 1194 0 917 276 
Q 641 553 641 1216 
L 641 2700 
L 84 2700 
L 84 3500 
L 641 3500 
L 641 4494 
L 1759 4494 
z
" transform="scale(0.015625)"/>
      <path id="DejaVuSans-Bold-61" d="M 2106 1575 
Q 1756 1575 1579 1456 
Q 1403 1338 1403 1106 
Q 1403 894 1545 773 
Q 1688 653 1941 653 
Q 2256 653 2472 879 
Q 2688 1106 2688 1447 
L 2688 1575 
L 2106 1575 
z
M 3816 1997 
L 3816 0 
L 2688 0 
L 2688 519 
Q 2463 200 2181 54 
Q 1900 -91 1497 -91 
Q 953 -91 614 226 
Q 275 544 275 1050 
Q 275 1666 698 1953 
Q 1122 2241 2028 2241 
L 2688 2241 
L 2688 2328 
Q 2688 2594 2478 2717 
Q 2269 2841 1825 2841 
Q 1466 2841 1156 2769 
Q 847 2697 581 2553 
L 581 3406 
Q 941 3494 1303 3539 
Q 1666 3584 2028 3584 
Q 2975 3584 3395 3211 
Q 3816 2838 3816 1997 
z
" transform="scale(0.015625)"/>
      <path id="DejaVuSans-Bold-6c" d="M 538 4863 
L 1656 4863 
L 1656 0 
L 538 0 
L 538 4863 
z
" transform="scale(0.015625)"/>
      <path id="DejaVuSans-Bold-20" transform="scale(0.015625)"/>
      <path id="DejaVuSans-Bold-52" d="M 2297 2597 
Q 2675 2597 2839 2737 
Q 3003 2878 3003 3200 
Q 3003 3519 2839 3656 
Q 2675 3794 2297 3794 
L 1791 3794 
L 1791 2597 
L 2297 2597 
z
M 1791 1766 
L 1791 0 
L 588 0 
L 588 4666 
L 2425 4666 
Q 3347 4666 3776 4356 
Q 4206 4047 4206 3378 
Q 4206 2916 3982 2619 
Q 3759 2322 3309 2181 
Q 3556 2125 3751 1926 
Q 3947 1728 4147 1325 
L 4800 0 
L 3519 0 
L 2950 1159 
Q 2778 1509 2601 1637 
Q 2425 1766 2131 1766 
L 1791 1766 
z
" transform="scale(0.015625)"/>
      <path id="DejaVuSans-Bold-65" d="M 4031 1759 
L 4031 1441 
L 1416 1441 
Q 1456 1047 1700 850 
Q 1944 653 2381 653 
Q 2734 653 3104 758 
Q 3475 863 3866 1075 
L 3866 213 
Q 3469 63 3072 -14 
Q 2675 -91 2278 -91 
Q 1328 -91 801 392 
Q 275 875 275 1747 
Q 275 2603 792 3093 
Q 1309 3584 2216 3584 
Q 3041 3584 3536 3087 
Q 4031 2591 4031 1759 
z
M 2881 2131 
Q 2881 2450 2695 2645 
Q 2509 2841 2209 2841 
Q 1884 2841 1681 2658 
Q 1478 2475 1428 2131 
L 2881 2131 
z
" transform="scale(0.015625)"/>
      <path id="DejaVuSans-Bold-70" d="M 1656 506 
L 1656 -1331 
L 538 -1331 
L 538 3500 
L 1656 3500 
L 1656 2988 
Q 1888 3294 2169 3439 
Q 2450 3584 2816 3584 
Q 3463 3584 3878 3070 
Q 4294 2556 4294 1747 
Q 4294 938 3878 423 
Q 3463 -91 2816 -91 
Q 2450 -91 2169 54 
Q 1888 200 1656 506 
z
M 2400 2772 
Q 2041 2772 1848 2508 
Q 1656 2244 1656 1747 
Q 1656 1250 1848 986 
Q 2041 722 2400 722 
Q 2759 722 2948 984 
Q 3138 1247 3138 1747 
Q 3138 2247 2948 2509 
Q 2759 2772 2400 2772 
z
" transform="scale(0.015625)"/>
      <path id="DejaVuSans-Bold-73" d="M 3272 3391 
L 3272 2541 
Q 2913 2691 2578 2766 
Q 2244 2841 1947 2841 
Q 1628 2841 1473 2761 
Q 1319 2681 1319 2516 
Q 1319 2381 1436 2309 
Q 1553 2238 1856 2203 
L 2053 2175 
Q 2913 2066 3209 1816 
Q 3506 1566 3506 1031 
Q 3506 472 3093 190 
Q 2681 -91 1863 -91 
Q 1516 -91 1145 -36 
Q 775 19 384 128 
L 384 978 
Q 719 816 1070 734 
Q 1422 653 1784 653 
Q 2113 653 2278 743 
Q 2444 834 2444 1013 
Q 2444 1163 2330 1236 
Q 2216 1309 1875 1350 
L 1678 1375 
Q 931 1469 631 1722 
Q 331 1975 331 2491 
Q 331 3047 712 3315 
Q 1094 3584 1881 3584 
Q 2191 3584 2531 3537 
Q 2872 3491 3272 3391 
z
" transform="scale(0.015625)"/>
      <path id="DejaVuSans-Bold-69" d="M 538 3500 
L 1656 3500 
L 1656 0 
L 538 0 
L 538 3500 
z
M 538 4863 
L 1656 4863 
L 1656 3950 
L 538 3950 
L 538 4863 
z
" transform="scale(0.015625)"/>
      <path id="DejaVuSans-Bold-72" d="M 3138 2547 
Q 2991 2616 2845 2648 
Q 2700 2681 2553 2681 
Q 2122 2681 1889 2404 
Q 1656 2128 1656 1613 
L 1656 0 
L 538 0 
L 538 3500 
L 1656 3500 
L 1656 2925 
Q 1872 3269 2151 3426 
Q 2431 3584 2822 3584 
Q 2878 3584 2943 3579 
Q 3009 3575 3134 3559 
L 3138 2547 
z
" transform="scale(0.015625)"/>
      <path id="DejaVuSans-Bold-79" d="M 78 3500 
L 1197 3500 
L 2138 1125 
L 2938 3500 
L 4056 3500 
L 2584 -331 
Q 2363 -916 2067 -1148 
Q 1772 -1381 1288 -1381 
L 641 -1381 
L 641 -647 
L 991 -647 
Q 1275 -647 1404 -556 
Q 1534 -466 1606 -231 
L 1638 -134 
L 78 3500 
z
" transform="scale(0.015625)"/>
      <path id="DejaVuSans-Bold-53" d="M 3834 4519 
L 3834 3531 
Q 3450 3703 3084 3790 
Q 2719 3878 2394 3878 
Q 1963 3878 1756 3759 
Q 1550 3641 1550 3391 
Q 1550 3203 1689 3098 
Q 1828 2994 2194 2919 
L 2706 2816 
Q 3484 2659 3812 2340 
Q 4141 2022 4141 1434 
Q 4141 663 3683 286 
Q 3225 -91 2284 -91 
Q 1841 -91 1394 -6 
Q 947 78 500 244 
L 500 1259 
Q 947 1022 1364 901 
Q 1781 781 2169 781 
Q 2563 781 2772 912 
Q 2981 1044 2981 1288 
Q 2981 1506 2839 1625 
Q 2697 1744 2272 1838 
L 1806 1941 
Q 1106 2091 782 2419 
Q 459 2747 459 3303 
Q 459 4000 909 4375 
Q 1359 4750 2203 4750 
Q 2588 4750 2994 4692 
Q 3400 4634 3834 4519 
z
" transform="scale(0.015625)"/>
     </defs>
     <use xlink:href="#DejaVuSans-Bold-54"/>
     <use xlink:href="#DejaVuSans-Bold-6f" transform="translate(54.962891 0)"/>
     <use xlink:href="#DejaVuSans-Bold-74" transform="translate(123.664062 0)"/>
     <use xlink:href="#DejaVuSans-Bold-61" transform="translate(171.466797 0)"/>
     <use xlink:href="#DejaVuSans-Bold-6c" transform="translate(238.947266 0)"/>
     <use xlink:href="#DejaVuSans-Bold-20" transform="translate(273.224609 0)"/>
     <use xlink:href="#DejaVuSans-Bold-52" transform="translate(308.039062 0)"/>
     <use xlink:href="#DejaVuSans-Bold-65" transform="translate(385.041016 0)"/>
     <use xlink:href="#DejaVuSans-Bold-70" transform="translate(452.863281 0)"/>
     <use xlink:href="#DejaVuSans-Bold-6f" transform="translate(524.445312 0)"/>
     <use xlink:href="#DejaVuSans-Bold-73" transform="translate(593.146484 0)"/>
     <use xlink:href="#DejaVuSans-Bold-69" transform="translate(652.667969 0)"/>
     <use xlink:href="#DejaVuSans-Bold-74" transform="translate(686.945312 0)"/>
     <use xlink:href="#DejaVuSans-Bold-6f" transform="translate(734.748047 0)"/>
     <use xlink:href="#DejaVuSans-Bold-72" transform="translate(803.449219 0)"/>
     <use xlink:href="#DejaVuSans-Bold-79" transform="translate(852.765625 0)"/>
     <use xlink:href="#DejaVuSans-Bold-20" transform="translate(917.951172 0)"/>
     <use xlink:href="#DejaVuSans-Bold-53" transform="translate(952.765625 0)"/>
     <use xlink:href="#DejaVuSans-Bold-74" transform="translate(1024.787109 0)"/>
     <use xlink:href="#DejaVuSans-Bold-61" transform="translate(1072.589844 0)"/>
     <use xlink:href="#DejaVuSans-Bold-72" transform="translate(1140.070312 0)"/>
     <use xlink:href="#DejaVuSans-Bold-73" transform="translate(1189.386719 0)"/>
    </g>
   </g>
  </g>
 </g>
 <defs>
  <clipPath id="p944ef99e8f">
   <rect x="51.68" y="36.6" width="657.52" height="268.971614"/>
  </clipPath>
 </defs>
</svg>
