<?xml version="1.0" encoding="utf-8" standalone="no"?>
<!DOCTYPE svg PUBLIC "-//W3C//DTD SVG 1.1//EN"
  "http://www.w3.org/Graphics/SVG/1.1/DTD/svg11.dtd">
<svg xmlns:xlink="http://www.w3.org/1999/xlink" width="720pt" height="360pt" viewBox="0 0 720 360" xmlns="http://www.w3.org/2000/svg" version="1.1">
 <metadata>
  <rdf:RDF xmlns:dc="http://purl.org/dc/elements/1.1/" xmlns:cc="http://creativecommons.org/ns#" xmlns:rdf="http://www.w3.org/1999/02/22-rdf-syntax-ns#">
   <cc:Work>
    <dc:type rdf:resource="http://purl.org/dc/dcmitype/StillImage"/>
    <dc:date>2026-06-15T00:53:04.145761</dc:date>
    <dc:format>image/svg+xml</dc:format>
    <dc:creator>
     <cc:Agent>
      <dc:title>Matplotlib v3.11.0, https://matplotlib.org/</dc:title>
     </cc:Agent>
    </dc:creator>
   </cc:Work>
  </rdf:RDF>
 </metadata>
 <defs>
  <style type="text/css">*{stroke-linejoin: round; stroke-linecap: butt}</style>
 </defs>
 <g id="figure_1">
  <g id="patch_1">
   <path d="M 0 360 
L 720 360 
L 720 0 
L 0 0 
z
" style="fill: #0d1117"/>
  </g>
  <g id="axes_1">
   <g id="patch_2">
    <path d="M 52.24 305.364543 
L 709.2 305.364543 
L 709.2 36.436719 
L 52.24 36.436719 
z
" style="fill: #0d1117"/>
   </g>
   <g id="matplotlib.axis_1">
    <g id="xtick_1">
     <g id="line2d_1">
      <path d="M 93.499459 305.364543 
L 93.499459 36.436719 
" clip-path="url(#p9d8299c694)" style="fill: none; stroke: #30363d; stroke-opacity: 0.2; stroke-width: 0.8; stroke-linecap: square"/>
     </g>
     <g id="line2d_2">
      <defs>
       <path id="m19fb1a9285" d="M 0 0 
L 0 3.5 
" style="stroke: #c9d1d9; stroke-width: 0.8"/>
      </defs>
      <g>
       <use xlink:href="#m19fb1a9285" x="93.499459" y="305.364543" style="fill: #c9d1d9; stroke: #c9d1d9; stroke-width: 0.8"/>
      </g>
     </g>
     <g id="text_1">
      <!-- Oct -->
      <g style="fill: #c9d1d9" transform="translate(79.574427 329.963215) rotate(-45) scale(0.1 -0.1)">
       <defs>
        <path id="DejaVuSans-32" d="M 2522 4238 
Q 1834 4238 1429 3725 
Q 1025 3213 1025 2328 
Q 1025 1447 1429 934 
Q 1834 422 2522 422 
Q 3209 422 3611 934 
Q 4013 1447 4013 2328 
Q 4013 3213 3611 3725 
Q 3209 4238 2522 4238 
z
M 2522 4750 
Q 3503 4750 4090 4092 
Q 4678 3434 4678 2328 
Q 4678 1225 4090 567 
Q 3503 -91 2522 -91 
Q 1538 -91 948 565 
Q 359 1222 359 2328 
Q 359 3434 948 4092 
Q 1538 4750 2522 4750 
z
" transform="scale(0.015625)"/>
        <path id="DejaVuSans-46" d="M 3122 3366 
L 3122 2828 
Q 2878 2963 2633 3030 
Q 2388 3097 2138 3097 
Q 1578 3097 1268 2742 
Q 959 2388 959 1747 
Q 959 1106 1268 751 
Q 1578 397 2138 397 
Q 2388 397 2633 464 
Q 2878 531 3122 666 
L 3122 134 
Q 2881 22 2623 -34 
Q 2366 -91 2075 -91 
Q 1284 -91 818 406 
Q 353 903 353 1747 
Q 353 2603 823 3093 
Q 1294 3584 2113 3584 
Q 2378 3584 2631 3529 
Q 2884 3475 3122 3366 
z
" transform="scale(0.015625)"/>
        <path id="DejaVuSans-57" d="M 1172 4494 
L 1172 3500 
L 2356 3500 
L 2356 3053 
L 1172 3053 
L 1172 1153 
Q 1172 725 1289 603 
Q 1406 481 1766 481 
L 2356 481 
L 2356 0 
L 1766 0 
Q 1100 0 847 248 
Q 594 497 594 1153 
L 594 3053 
L 172 3053 
L 172 3500 
L 594 3500 
L 594 4494 
L 1172 4494 
z
" transform="scale(0.015625)"/>
       </defs>
       <use xlink:href="#DejaVuSans-32"/>
       <use xlink:href="#DejaVuSans-46" transform="translate(78.71875 0)"/>
       <use xlink:href="#DejaVuSans-57" transform="translate(133.703125 0)"/>
      </g>
     </g>
    </g>
    <g id="xtick_2">
     <g id="line2d_3">
      <path d="M 164.16483 305.364543 
L 164.16483 36.436719 
" clip-path="url(#p9d8299c694)" style="fill: none; stroke: #30363d; stroke-opacity: 0.2; stroke-width: 0.8; stroke-linecap: square"/>
     </g>
     <g id="line2d_4">
      <g>
       <use xlink:href="#m19fb1a9285" x="164.16483" y="305.364543" style="fill: #c9d1d9; stroke: #c9d1d9; stroke-width: 0.8"/>
      </g>
     </g>
     <g id="text_2">
      <!-- Nov -->
      <g style="fill: #c9d1d9" transform="translate(148.664276 331.538737) rotate(-45) scale(0.1 -0.1)">
       <defs>
        <path id="DejaVuSans-31" d="M 628 4666 
L 1478 4666 
L 3547 763 
L 3547 4666 
L 4159 4666 
L 4159 0 
L 3309 0 
L 1241 3903 
L 1241 0 
L 628 0 
L 628 4666 
z
" transform="scale(0.015625)"/>
        <path id="DejaVuSans-52" d="M 1959 3097 
Q 1497 3097 1228 2736 
Q 959 2375 959 1747 
Q 959 1119 1226 758 
Q 1494 397 1959 397 
Q 2419 397 2687 759 
Q 2956 1122 2956 1747 
Q 2956 2369 2687 2733 
Q 2419 3097 1959 3097 
z
M 1959 3584 
Q 2709 3584 3137 3096 
Q 3566 2609 3566 1747 
Q 3566 888 3137 398 
Q 2709 -91 1959 -91 
Q 1206 -91 779 398 
Q 353 888 353 1747 
Q 353 2609 779 3096 
Q 1206 3584 1959 3584 
z
" transform="scale(0.015625)"/>
        <path id="DejaVuSans-59" d="M 191 3500 
L 800 3500 
L 1894 563 
L 2988 3500 
L 3597 3500 
L 2284 0 
L 1503 0 
L 191 3500 
z
" transform="scale(0.015625)"/>
       </defs>
       <use xlink:href="#DejaVuSans-31"/>
       <use xlink:href="#DejaVuSans-52" transform="translate(74.8125 0)"/>
       <use xlink:href="#DejaVuSans-59" transform="translate(136 0)"/>
      </g>
     </g>
    </g>
    <g id="xtick_3">
     <g id="line2d_5">
      <path d="M 232.550673 305.364543 
L 232.550673 36.436719 
" clip-path="url(#p9d8299c694)" style="fill: none; stroke: #30363d; stroke-opacity: 0.2; stroke-width: 0.8; stroke-linecap: square"/>
     </g>
     <g id="line2d_6">
      <g>
       <use xlink:href="#m19fb1a9285" x="232.550673" y="305.364543" style="fill: #c9d1d9; stroke: #c9d1d9; stroke-width: 0.8"/>
      </g>
     </g>
     <g id="text_3">
      <!-- Dec -->
      <g style="fill: #c9d1d9" transform="translate(217.168339 331.420518) rotate(-45) scale(0.1 -0.1)">
       <defs>
        <path id="DejaVuSans-27" d="M 1259 4147 
L 1259 519 
L 2022 519 
Q 2988 519 3436 956 
Q 3884 1394 3884 2338 
Q 3884 3275 3436 3711 
Q 2988 4147 2022 4147 
L 1259 4147 
z
M 628 4666 
L 1925 4666 
Q 3281 4666 3915 4102 
Q 4550 3538 4550 2338 
Q 4550 1131 3912 565 
Q 3275 0 1925 0 
L 628 0 
L 628 4666 
z
" transform="scale(0.015625)"/>
        <path id="DejaVuSans-48" d="M 3597 1894 
L 3597 1613 
L 953 1613 
Q 991 1019 1311 708 
Q 1631 397 2203 397 
Q 2534 397 2845 478 
Q 3156 559 3463 722 
L 3463 178 
Q 3153 47 2828 -22 
Q 2503 -91 2169 -91 
Q 1331 -91 842 396 
Q 353 884 353 1716 
Q 353 2575 817 3079 
Q 1281 3584 2069 3584 
Q 2775 3584 3186 3129 
Q 3597 2675 3597 1894 
z
M 3022 2063 
Q 3016 2534 2758 2815 
Q 2500 3097 2075 3097 
Q 1594 3097 1305 2825 
Q 1016 2553 972 2059 
L 3022 2063 
z
" transform="scale(0.015625)"/>
       </defs>
       <use xlink:href="#DejaVuSans-27"/>
       <use xlink:href="#DejaVuSans-48" transform="translate(77 0)"/>
       <use xlink:href="#DejaVuSans-46" transform="translate(138.53125 0)"/>
      </g>
     </g>
    </g>
    <g id="xtick_4">
     <g id="line2d_7">
      <path d="M 303.216044 305.364543 
L 303.216044 36.436719 
" clip-path="url(#p9d8299c694)" style="fill: none; stroke: #30363d; stroke-opacity: 0.2; stroke-width: 0.8; stroke-linecap: square"/>
     </g>
     <g id="line2d_8">
      <g>
       <use xlink:href="#m19fb1a9285" x="303.216044" y="305.364543" style="fill: #c9d1d9; stroke: #c9d1d9; stroke-width: 0.8"/>
      </g>
     </g>
     <g id="text_4">
      <!-- Jan -->
      <g style="fill: #c9d1d9" transform="translate(290.616838 328.63739) rotate(-45) scale(0.1 -0.1)">
       <defs>
        <path id="DejaVuSans-2d" d="M 628 4666 
L 1259 4666 
L 1259 325 
Q 1259 -519 939 -900 
Q 619 -1281 -91 -1281 
L -331 -1281 
L -331 -750 
L -134 -750 
Q 284 -750 456 -515 
Q 628 -281 628 325 
L 628 4666 
z
" transform="scale(0.015625)"/>
        <path id="DejaVuSans-44" d="M 2194 1759 
Q 1497 1759 1228 1600 
Q 959 1441 959 1056 
Q 959 750 1161 570 
Q 1363 391 1709 391 
Q 2188 391 2477 730 
Q 2766 1069 2766 1631 
L 2766 1759 
L 2194 1759 
z
M 3341 1997 
L 3341 0 
L 2766 0 
L 2766 531 
Q 2569 213 2275 61 
Q 1981 -91 1556 -91 
Q 1019 -91 701 211 
Q 384 513 384 1019 
Q 384 1609 779 1909 
Q 1175 2209 1959 2209 
L 2766 2209 
L 2766 2266 
Q 2766 2663 2505 2880 
Q 2244 3097 1772 3097 
Q 1472 3097 1187 3025 
Q 903 2953 641 2809 
L 641 3341 
Q 956 3463 1253 3523 
Q 1550 3584 1831 3584 
Q 2591 3584 2966 3190 
Q 3341 2797 3341 1997 
z
" transform="scale(0.015625)"/>
        <path id="DejaVuSans-51" d="M 3513 2113 
L 3513 0 
L 2938 0 
L 2938 2094 
Q 2938 2591 2744 2837 
Q 2550 3084 2163 3084 
Q 1697 3084 1428 2787 
Q 1159 2491 1159 1978 
L 1159 0 
L 581 0 
L 581 3500 
L 1159 3500 
L 1159 2956 
Q 1366 3272 1645 3428 
Q 1925 3584 2291 3584 
Q 2894 3584 3203 3211 
Q 3513 2838 3513 2113 
z
" transform="scale(0.015625)"/>
       </defs>
       <use xlink:href="#DejaVuSans-2d"/>
       <use xlink:href="#DejaVuSans-44" transform="translate(29.5 0)"/>
       <use xlink:href="#DejaVuSans-51" transform="translate(90.78125 0)"/>
      </g>
     </g>
    </g>
    <g id="xtick_5">
     <g id="line2d_9">
      <path d="M 373.881416 305.364543 
L 373.881416 36.436719 
" clip-path="url(#p9d8299c694)" style="fill: none; stroke: #30363d; stroke-opacity: 0.2; stroke-width: 0.8; stroke-linecap: square"/>
     </g>
     <g id="line2d_10">
      <g>
       <use xlink:href="#m19fb1a9285" x="373.881416" y="305.364543" style="fill: #c9d1d9; stroke: #c9d1d9; stroke-width: 0.8"/>
      </g>
     </g>
     <g id="text_5">
      <!-- Feb -->
      <g style="fill: #c9d1d9" transform="translate(359.662493 330.257659) rotate(-45) scale(0.1 -0.1)">
       <defs>
        <path id="DejaVuSans-29" d="M 628 4666 
L 3309 4666 
L 3309 4134 
L 1259 4134 
L 1259 2759 
L 3109 2759 
L 3109 2228 
L 1259 2228 
L 1259 0 
L 628 0 
L 628 4666 
z
" transform="scale(0.015625)"/>
        <path id="DejaVuSans-45" d="M 3116 1747 
Q 3116 2381 2855 2742 
Q 2594 3103 2138 3103 
Q 1681 3103 1420 2742 
Q 1159 2381 1159 1747 
Q 1159 1113 1420 752 
Q 1681 391 2138 391 
Q 2594 391 2855 752 
Q 3116 1113 3116 1747 
z
M 1159 2969 
Q 1341 3281 1617 3432 
Q 1894 3584 2278 3584 
Q 2916 3584 3314 3078 
Q 3713 2572 3713 1747 
Q 3713 922 3314 415 
Q 2916 -91 2278 -91 
Q 1894 -91 1617 61 
Q 1341 213 1159 525 
L 1159 0 
L 581 0 
L 581 4863 
L 1159 4863 
L 1159 2969 
z
" transform="scale(0.015625)"/>
       </defs>
       <use xlink:href="#DejaVuSans-29"/>
       <use xlink:href="#DejaVuSans-48" transform="translate(52.046875 0)"/>
       <use xlink:href="#DejaVuSans-45" transform="translate(113.578125 0)"/>
      </g>
     </g>
    </g>
    <g id="xtick_6">
     <g id="line2d_11">
      <path d="M 437.708203 305.364543 
L 437.708203 36.436719 
" clip-path="url(#p9d8299c694)" style="fill: none; stroke: #30363d; stroke-opacity: 0.2; stroke-width: 0.8; stroke-linecap: square"/>
     </g>
     <g id="line2d_12">
      <g>
       <use xlink:href="#m19fb1a9285" x="437.708203" y="305.364543" style="fill: #c9d1d9; stroke: #c9d1d9; stroke-width: 0.8"/>
      </g>
     </g>
     <g id="text_6">
      <!-- Mar -->
      <g style="fill: #c9d1d9" transform="translate(422.668373 331.078013) rotate(-45) scale(0.1 -0.1)">
       <defs>
        <path id="DejaVuSans-30" d="M 628 4666 
L 1569 4666 
L 2759 1491 
L 3956 4666 
L 4897 4666 
L 4897 0 
L 4281 0 
L 4281 4097 
L 3078 897 
L 2444 897 
L 1241 4097 
L 1241 0 
L 628 0 
L 628 4666 
z
" transform="scale(0.015625)"/>
        <path id="DejaVuSans-55" d="M 2631 2963 
Q 2534 3019 2420 3045 
Q 2306 3072 2169 3072 
Q 1681 3072 1420 2755 
Q 1159 2438 1159 1844 
L 1159 0 
L 581 0 
L 581 3500 
L 1159 3500 
L 1159 2956 
Q 1341 3275 1631 3429 
Q 1922 3584 2338 3584 
Q 2397 3584 2469 3576 
Q 2541 3569 2628 3553 
L 2631 2963 
z
" transform="scale(0.015625)"/>
       </defs>
       <use xlink:href="#DejaVuSans-30"/>
       <use xlink:href="#DejaVuSans-44" transform="translate(86.28125 0)"/>
       <use xlink:href="#DejaVuSans-55" transform="translate(147.5625 0)"/>
      </g>
     </g>
    </g>
    <g id="xtick_7">
     <g id="line2d_13">
      <path d="M 508.373574 305.364543 
L 508.373574 36.436719 
" clip-path="url(#p9d8299c694)" style="fill: none; stroke: #30363d; stroke-opacity: 0.2; stroke-width: 0.8; stroke-linecap: square"/>
     </g>
     <g id="line2d_14">
      <g>
       <use xlink:href="#m19fb1a9285" x="508.373574" y="305.364543" style="fill: #c9d1d9; stroke: #c9d1d9; stroke-width: 0.8"/>
      </g>
     </g>
     <g id="text_7">
      <!-- Apr -->
      <g style="fill: #c9d1d9" transform="translate(494.441913 329.969844) rotate(-45) scale(0.1 -0.1)">
       <defs>
        <path id="DejaVuSans-24" d="M 2188 4044 
L 1331 1722 
L 3047 1722 
L 2188 4044 
z
M 1831 4666 
L 2547 4666 
L 4325 0 
L 3669 0 
L 3244 1197 
L 1141 1197 
L 716 0 
L 50 0 
L 1831 4666 
z
" transform="scale(0.015625)"/>
        <path id="DejaVuSans-53" d="M 1159 525 
L 1159 -1331 
L 581 -1331 
L 581 3500 
L 1159 3500 
L 1159 2969 
Q 1341 3281 1617 3432 
Q 1894 3584 2278 3584 
Q 2916 3584 3314 3078 
Q 3713 2572 3713 1747 
Q 3713 922 3314 415 
Q 2916 -91 2278 -91 
Q 1894 -91 1617 61 
Q 1341 213 1159 525 
z
M 3116 1747 
Q 3116 2381 2855 2742 
Q 2594 3103 2138 3103 
Q 1681 3103 1420 2742 
Q 1159 2381 1159 1747 
Q 1159 1113 1420 752 
Q 1681 391 2138 391 
Q 2594 391 2855 752 
Q 3116 1113 3116 1747 
z
" transform="scale(0.015625)"/>
       </defs>
       <use xlink:href="#DejaVuSans-24"/>
       <use xlink:href="#DejaVuSans-53" transform="translate(68.40625 0)"/>
       <use xlink:href="#DejaVuSans-55" transform="translate(131.890625 0)"/>
      </g>
     </g>
    </g>
    <g id="xtick_8">
     <g id="line2d_15">
      <path d="M 576.759417 305.364543 
L 576.759417 36.436719 
" clip-path="url(#p9d8299c694)" style="fill: none; stroke: #30363d; stroke-opacity: 0.2; stroke-width: 0.8; stroke-linecap: square"/>
     </g>
     <g id="line2d_16">
      <g>
       <use xlink:href="#m19fb1a9285" x="576.759417" y="305.364543" style="fill: #c9d1d9; stroke: #c9d1d9; stroke-width: 0.8"/>
      </g>
     </g>
     <g id="text_8">
      <!-- May -->
      <g style="fill: #c9d1d9" transform="translate(560.441271 332.35633) rotate(-45) scale(0.1 -0.1)">
       <defs>
        <path id="DejaVuSans-5c" d="M 2059 -325 
Q 1816 -950 1584 -1140 
Q 1353 -1331 966 -1331 
L 506 -1331 
L 506 -850 
L 844 -850 
Q 1081 -850 1212 -737 
Q 1344 -625 1503 -206 
L 1606 56 
L 191 3500 
L 800 3500 
L 1894 763 
L 2988 3500 
L 3597 3500 
L 2059 -325 
z
" transform="scale(0.015625)"/>
       </defs>
       <use xlink:href="#DejaVuSans-30"/>
       <use xlink:href="#DejaVuSans-44" transform="translate(86.28125 0)"/>
       <use xlink:href="#DejaVuSans-5c" transform="translate(147.5625 0)"/>
      </g>
     </g>
    </g>
    <g id="xtick_9">
     <g id="line2d_17">
      <path d="M 647.424788 305.364543 
L 647.424788 36.436719 
" clip-path="url(#p9d8299c694)" style="fill: none; stroke: #30363d; stroke-opacity: 0.2; stroke-width: 0.8; stroke-linecap: square"/>
     </g>
     <g id="line2d_18">
      <g>
       <use xlink:href="#m19fb1a9285" x="647.424788" y="305.364543" style="fill: #c9d1d9; stroke: #c9d1d9; stroke-width: 0.8"/>
      </g>
     </g>
     <g id="text_9">
      <!-- Jun -->
      <g style="fill: #c9d1d9" transform="translate(634.677531 328.78544) rotate(-45) scale(0.1 -0.1)">
       <defs>
        <path id="DejaVuSans-58" d="M 544 1381 
L 544 3500 
L 1119 3500 
L 1119 1403 
Q 1119 906 1312 657 
Q 1506 409 1894 409 
Q 2359 409 2629 706 
Q 2900 1003 2900 1516 
L 2900 3500 
L 3475 3500 
L 3475 0 
L 2900 0 
L 2900 538 
Q 2691 219 2414 64 
Q 2138 -91 1772 -91 
Q 1169 -91 856 284 
Q 544 659 544 1381 
z
M 1991 3584 
L 1991 3584 
z
" transform="scale(0.015625)"/>
       </defs>
       <use xlink:href="#DejaVuSans-2d"/>
       <use xlink:href="#DejaVuSans-58" transform="translate(29.5 0)"/>
       <use xlink:href="#DejaVuSans-51" transform="translate(92.875 0)"/>
      </g>
     </g>
    </g>
    <g id="text_10">
     <!-- Date -->
     <g style="fill: #c9d1d9" transform="translate(367.574141 346.412465) scale(0.11 -0.11)">
      <use xlink:href="#DejaVuSans-27"/>
      <use xlink:href="#DejaVuSans-44" transform="translate(77 0)"/>
      <use xlink:href="#DejaVuSans-57" transform="translate(138.28125 0)"/>
      <use xlink:href="#DejaVuSans-48" transform="translate(177.484375 0)"/>
     </g>
    </g>
   </g>
   <g id="matplotlib.axis_2">
    <g id="ytick_1">
     <g id="line2d_19">
      <path d="M 52.24 276.841895 
L 709.2 276.841895 
" clip-path="url(#p9d8299c694)" style="fill: none; stroke: #30363d; stroke-opacity: 0.2; stroke-width: 0.8; stroke-linecap: square"/>
     </g>
     <g id="line2d_20">
      <defs>
       <path id="me300237c58" d="M 0 0 
L -3.5 0 
" style="stroke: #c9d1d9; stroke-width: 0.8"/>
      </defs>
      <g>
       <use xlink:href="#me300237c58" x="52.24" y="276.841895" style="fill: #c9d1d9; stroke: #c9d1d9; stroke-width: 0.8"/>
      </g>
     </g>
     <g id="text_11">
      <!-- 70 -->
      <g style="fill: #c9d1d9" transform="translate(32.515 280.640723) scale(0.1 -0.1)">
       <defs>
        <path id="DejaVuSans-1a" d="M 525 4666 
L 3525 4666 
L 3525 4397 
L 1831 0 
L 1172 0 
L 2766 4134 
L 525 4134 
L 525 4666 
z
" transform="scale(0.015625)"/>
        <path id="DejaVuSans-13" d="M 2034 4250 
Q 1547 4250 1301 3770 
Q 1056 3291 1056 2328 
Q 1056 1369 1301 889 
Q 1547 409 2034 409 
Q 2525 409 2770 889 
Q 3016 1369 3016 2328 
Q 3016 3291 2770 3770 
Q 2525 4250 2034 4250 
z
M 2034 4750 
Q 2819 4750 3233 4129 
Q 3647 3509 3647 2328 
Q 3647 1150 3233 529 
Q 2819 -91 2034 -91 
Q 1250 -91 836 529 
Q 422 1150 422 2328 
Q 422 3509 836 4129 
Q 1250 4750 2034 4750 
z
" transform="scale(0.015625)"/>
       </defs>
       <use xlink:href="#DejaVuSans-1a"/>
       <use xlink:href="#DejaVuSans-13" transform="translate(63.625 0)"/>
      </g>
     </g>
    </g>
    <g id="ytick_2">
     <g id="line2d_21">
      <path d="M 52.24 236.095255 
L 709.2 236.095255 
" clip-path="url(#p9d8299c694)" style="fill: none; stroke: #30363d; stroke-opacity: 0.2; stroke-width: 0.8; stroke-linecap: square"/>
     </g>
     <g id="line2d_22">
      <g>
       <use xlink:href="#me300237c58" x="52.24" y="236.095255" style="fill: #c9d1d9; stroke: #c9d1d9; stroke-width: 0.8"/>
      </g>
     </g>
     <g id="text_12">
      <!-- 80 -->
      <g style="fill: #c9d1d9" transform="translate(32.515 239.894083) scale(0.1 -0.1)">
       <defs>
        <path id="DejaVuSans-1b" d="M 2034 2216 
Q 1584 2216 1326 1975 
Q 1069 1734 1069 1313 
Q 1069 891 1326 650 
Q 1584 409 2034 409 
Q 2484 409 2743 651 
Q 3003 894 3003 1313 
Q 3003 1734 2745 1975 
Q 2488 2216 2034 2216 
z
M 1403 2484 
Q 997 2584 770 2862 
Q 544 3141 544 3541 
Q 544 4100 942 4425 
Q 1341 4750 2034 4750 
Q 2731 4750 3128 4425 
Q 3525 4100 3525 3541 
Q 3525 3141 3298 2862 
Q 3072 2584 2669 2484 
Q 3125 2378 3379 2068 
Q 3634 1759 3634 1313 
Q 3634 634 3220 271 
Q 2806 -91 2034 -91 
Q 1263 -91 848 271 
Q 434 634 434 1313 
Q 434 1759 690 2068 
Q 947 2378 1403 2484 
z
M 1172 3481 
Q 1172 3119 1398 2916 
Q 1625 2713 2034 2713 
Q 2441 2713 2670 2916 
Q 2900 3119 2900 3481 
Q 2900 3844 2670 4047 
Q 2441 4250 2034 4250 
Q 1625 4250 1398 4047 
Q 1172 3844 1172 3481 
z
" transform="scale(0.015625)"/>
       </defs>
       <use xlink:href="#DejaVuSans-1b"/>
       <use xlink:href="#DejaVuSans-13" transform="translate(63.625 0)"/>
      </g>
     </g>
    </g>
    <g id="ytick_3">
     <g id="line2d_23">
      <path d="M 52.24 195.348615 
L 709.2 195.348615 
" clip-path="url(#p9d8299c694)" style="fill: none; stroke: #30363d; stroke-opacity: 0.2; stroke-width: 0.8; stroke-linecap: square"/>
     </g>
     <g id="line2d_24">
      <g>
       <use xlink:href="#me300237c58" x="52.24" y="195.348615" style="fill: #c9d1d9; stroke: #c9d1d9; stroke-width: 0.8"/>
      </g>
     </g>
     <g id="text_13">
      <!-- 90 -->
      <g style="fill: #c9d1d9" transform="translate(32.515 199.147443) scale(0.1 -0.1)">
       <defs>
        <path id="DejaVuSans-1c" d="M 703 97 
L 703 672 
Q 941 559 1184 500 
Q 1428 441 1663 441 
Q 2288 441 2617 861 
Q 2947 1281 2994 2138 
Q 2813 1869 2534 1725 
Q 2256 1581 1919 1581 
Q 1219 1581 811 2004 
Q 403 2428 403 3163 
Q 403 3881 828 4315 
Q 1253 4750 1959 4750 
Q 2769 4750 3195 4129 
Q 3622 3509 3622 2328 
Q 3622 1225 3098 567 
Q 2575 -91 1691 -91 
Q 1453 -91 1209 -44 
Q 966 3 703 97 
z
M 1959 2075 
Q 2384 2075 2632 2365 
Q 2881 2656 2881 3163 
Q 2881 3666 2632 3958 
Q 2384 4250 1959 4250 
Q 1534 4250 1286 3958 
Q 1038 3666 1038 3163 
Q 1038 2656 1286 2365 
Q 1534 2075 1959 2075 
z
" transform="scale(0.015625)"/>
       </defs>
       <use xlink:href="#DejaVuSans-1c"/>
       <use xlink:href="#DejaVuSans-13" transform="translate(63.625 0)"/>
      </g>
     </g>
    </g>
    <g id="ytick_4">
     <g id="line2d_25">
      <path d="M 52.24 154.601975 
L 709.2 154.601975 
" clip-path="url(#p9d8299c694)" style="fill: none; stroke: #30363d; stroke-opacity: 0.2; stroke-width: 0.8; stroke-linecap: square"/>
     </g>
     <g id="line2d_26">
      <g>
       <use xlink:href="#me300237c58" x="52.24" y="154.601975" style="fill: #c9d1d9; stroke: #c9d1d9; stroke-width: 0.8"/>
      </g>
     </g>
     <g id="text_14">
      <!-- 100 -->
      <g style="fill: #c9d1d9" transform="translate(26.1525 158.400803) scale(0.1 -0.1)">
       <defs>
        <path id="DejaVuSans-14" d="M 794 531 
L 1825 531 
L 1825 4091 
L 703 3866 
L 703 4441 
L 1819 4666 
L 2450 4666 
L 2450 531 
L 3481 531 
L 3481 0 
L 794 0 
L 794 531 
z
" transform="scale(0.015625)"/>
       </defs>
       <use xlink:href="#DejaVuSans-14"/>
       <use xlink:href="#DejaVuSans-13" transform="translate(63.625 0)"/>
       <use xlink:href="#DejaVuSans-13" transform="translate(127.25 0)"/>
      </g>
     </g>
    </g>
    <g id="ytick_5">
     <g id="line2d_27">
      <path d="M 52.24 113.855335 
L 709.2 113.855335 
" clip-path="url(#p9d8299c694)" style="fill: none; stroke: #30363d; stroke-opacity: 0.2; stroke-width: 0.8; stroke-linecap: square"/>
     </g>
     <g id="line2d_28">
      <g>
       <use xlink:href="#me300237c58" x="52.24" y="113.855335" style="fill: #c9d1d9; stroke: #c9d1d9; stroke-width: 0.8"/>
      </g>
     </g>
     <g id="text_15">
      <!-- 110 -->
      <g style="fill: #c9d1d9" transform="translate(26.1525 117.654163) scale(0.1 -0.1)">
       <use xlink:href="#DejaVuSans-14"/>
       <use xlink:href="#DejaVuSans-14" transform="translate(63.625 0)"/>
       <use xlink:href="#DejaVuSans-13" transform="translate(127.25 0)"/>
      </g>
     </g>
    </g>
    <g id="ytick_6">
     <g id="line2d_29">
      <path d="M 52.24 73.108695 
L 709.2 73.108695 
" clip-path="url(#p9d8299c694)" style="fill: none; stroke: #30363d; stroke-opacity: 0.2; stroke-width: 0.8; stroke-linecap: square"/>
     </g>
     <g id="line2d_30">
      <g>
       <use xlink:href="#me300237c58" x="52.24" y="73.108695" style="fill: #c9d1d9; stroke: #c9d1d9; stroke-width: 0.8"/>
      </g>
     </g>
     <g id="text_16">
      <!-- 120 -->
      <g style="fill: #c9d1d9" transform="translate(26.1525 76.907523) scale(0.1 -0.1)">
       <defs>
        <path id="DejaVuSans-15" d="M 1228 531 
L 3431 531 
L 3431 0 
L 469 0 
L 469 531 
Q 828 903 1448 1529 
Q 2069 2156 2228 2338 
Q 2531 2678 2651 2914 
Q 2772 3150 2772 3378 
Q 2772 3750 2511 3984 
Q 2250 4219 1831 4219 
Q 1534 4219 1204 4116 
Q 875 4013 500 3803 
L 500 4441 
Q 881 4594 1212 4672 
Q 1544 4750 1819 4750 
Q 2544 4750 2975 4387 
Q 3406 4025 3406 3419 
Q 3406 3131 3298 2873 
Q 3191 2616 2906 2266 
Q 2828 2175 2409 1742 
Q 1991 1309 1228 531 
z
" transform="scale(0.015625)"/>
       </defs>
       <use xlink:href="#DejaVuSans-14"/>
       <use xlink:href="#DejaVuSans-15" transform="translate(63.625 0)"/>
       <use xlink:href="#DejaVuSans-13" transform="translate(127.25 0)"/>
      </g>
     </g>
    </g>
    <g id="text_17">
     <!-- Count -->
     <g style="fill: #c9d1d9" transform="translate(19.509922 187.233912) rotate(-90) scale(0.11 -0.11)">
      <defs>
       <path id="DejaVuSans-26" d="M 4122 4306 
L 4122 3641 
Q 3803 3938 3442 4084 
Q 3081 4231 2675 4231 
Q 1875 4231 1450 3742 
Q 1025 3253 1025 2328 
Q 1025 1406 1450 917 
Q 1875 428 2675 428 
Q 3081 428 3442 575 
Q 3803 722 4122 1019 
L 4122 359 
Q 3791 134 3420 21 
Q 3050 -91 2638 -91 
Q 1578 -91 968 557 
Q 359 1206 359 2328 
Q 359 3453 968 4101 
Q 1578 4750 2638 4750 
Q 3056 4750 3426 4639 
Q 3797 4528 4122 4306 
z
" transform="scale(0.015625)"/>
      </defs>
      <use xlink:href="#DejaVuSans-26"/>
      <use xlink:href="#DejaVuSans-52" transform="translate(69.828125 0)"/>
      <use xlink:href="#DejaVuSans-58" transform="translate(131.015625 0)"/>
      <use xlink:href="#DejaVuSans-51" transform="translate(194.390625 0)"/>
      <use xlink:href="#DejaVuSans-57" transform="translate(257.765625 0)"/>
     </g>
    </g>
   </g>
   <g id="line2d_31">
    <path d="M 82.101818 293.140551 
L 150.487661 293.140551 
L 166.444358 264.617903 
L 168.723886 264.617903 
L 171.003414 260.543239 
L 177.841999 260.543239 
L 180.121527 264.617903 
L 214.314448 264.617903 
L 216.593976 260.543239 
L 225.712089 260.543239 
L 230.271145 252.393911 
L 241.668786 252.393911 
L 243.948314 248.319247 
L 248.50737 248.319247 
L 250.786898 244.244583 
L 259.90501 244.244583 
L 262.184539 240.169919 
L 269.023123 240.169919 
L 271.302651 236.095255 
L 280.420763 236.095255 
L 282.700291 223.871263 
L 287.259348 223.871263 
L 289.538876 219.796599 
L 307.775101 219.796599 
L 310.054629 215.721935 
L 312.334157 215.721935 
L 316.893213 211.647271 
L 319.172741 211.647271 
L 323.731797 203.497943 
L 330.570382 203.497943 
L 332.84991 170.900631 
L 357.924719 170.900631 
L 360.204247 166.825967 
L 367.042831 166.825967 
L 369.322359 162.751303 
L 371.601888 162.751303 
L 373.881416 158.676639 
L 410.353865 158.676639 
L 412.633393 130.153991 
L 426.310562 130.153991 
L 430.869618 122.004663 
L 444.546787 122.004663 
L 446.826315 117.929999 
L 449.105843 117.929999 
L 451.385371 113.855335 
L 458.223956 113.855335 
L 460.503484 109.780671 
L 465.06254 109.780671 
L 467.342068 105.706007 
L 469.621596 105.706007 
L 471.901124 101.631343 
L 478.739709 101.631343 
L 481.019237 97.556679 
L 501.53499 97.556679 
L 503.814518 93.482015 
L 522.050743 93.482015 
L 524.330271 89.407351 
L 526.609799 89.407351 
L 528.889327 93.482015 
L 535.727911 93.482015 
L 538.007439 89.407351 
L 547.125552 89.407351 
L 549.40508 85.332687 
L 579.038945 85.332687 
L 581.318473 77.183359 
L 583.598001 77.183359 
L 585.877529 69.034031 
L 626.909035 69.034031 
L 629.188563 64.959367 
L 636.027148 64.959367 
L 640.586204 56.810039 
L 663.381485 56.810039 
L 665.661013 52.735375 
L 677.058654 52.735375 
L 679.338182 48.660711 
L 679.338182 48.660711 
" clip-path="url(#p9d8299c694)" style="fill: none; stroke: #3fb950; stroke-width: 2.5; stroke-linecap: square"/>
    <defs>
     <path id="mdb2a45611e" d="M 0 2.5 
C 0.663008 2.5 1.29895 2.236584 1.767767 1.767767 
C 2.236584 1.29895 2.5 0.663008 2.5 0 
C 2.5 -0.663008 2.236584 -1.29895 1.767767 -1.767767 
C 1.29895 -2.236584 0.663008 -2.5 0 -2.5 
C -0.663008 -2.5 -1.29895 -2.236584 -1.767767 -1.767767 
C -2.236584 -1.29895 -2.5 -0.663008 -2.5 0 
C -2.5 0.663008 -2.236584 1.29895 -1.767767 1.767767 
C -1.29895 2.236584 -0.663008 2.5 0 2.5 
z
" style="stroke: #3fb950"/>
    </defs>
    <g clip-path="url(#p9d8299c694)">
     <use xlink:href="#mdb2a45611e" x="82.101818" y="293.140551" style="fill: #3fb950; stroke: #3fb950"/>
     <use xlink:href="#mdb2a45611e" x="84.381346" y="293.140551" style="fill: #3fb950; stroke: #3fb950"/>
     <use xlink:href="#mdb2a45611e" x="86.660874" y="293.140551" style="fill: #3fb950; stroke: #3fb950"/>
     <use xlink:href="#mdb2a45611e" x="88.940402" y="293.140551" style="fill: #3fb950; stroke: #3fb950"/>
     <use xlink:href="#mdb2a45611e" x="91.219931" y="293.140551" style="fill: #3fb950; stroke: #3fb950"/>
     <use xlink:href="#mdb2a45611e" x="93.499459" y="293.140551" style="fill: #3fb950; stroke: #3fb950"/>
     <use xlink:href="#mdb2a45611e" x="95.778987" y="293.140551" style="fill: #3fb950; stroke: #3fb950"/>
     <use xlink:href="#mdb2a45611e" x="98.058515" y="293.140551" style="fill: #3fb950; stroke: #3fb950"/>
     <use xlink:href="#mdb2a45611e" x="100.338043" y="293.140551" style="fill: #3fb950; stroke: #3fb950"/>
     <use xlink:href="#mdb2a45611e" x="102.617571" y="293.140551" style="fill: #3fb950; stroke: #3fb950"/>
     <use xlink:href="#mdb2a45611e" x="104.897099" y="293.140551" style="fill: #3fb950; stroke: #3fb950"/>
     <use xlink:href="#mdb2a45611e" x="107.176627" y="293.140551" style="fill: #3fb950; stroke: #3fb950"/>
     <use xlink:href="#mdb2a45611e" x="109.456155" y="293.140551" style="fill: #3fb950; stroke: #3fb950"/>
     <use xlink:href="#mdb2a45611e" x="111.735684" y="293.140551" style="fill: #3fb950; stroke: #3fb950"/>
     <use xlink:href="#mdb2a45611e" x="114.015212" y="293.140551" style="fill: #3fb950; stroke: #3fb950"/>
     <use xlink:href="#mdb2a45611e" x="116.29474" y="293.140551" style="fill: #3fb950; stroke: #3fb950"/>
     <use xlink:href="#mdb2a45611e" x="118.574268" y="293.140551" style="fill: #3fb950; stroke: #3fb950"/>
     <use xlink:href="#mdb2a45611e" x="120.853796" y="293.140551" style="fill: #3fb950; stroke: #3fb950"/>
     <use xlink:href="#mdb2a45611e" x="123.133324" y="293.140551" style="fill: #3fb950; stroke: #3fb950"/>
     <use xlink:href="#mdb2a45611e" x="125.412852" y="293.140551" style="fill: #3fb950; stroke: #3fb950"/>
     <use xlink:href="#mdb2a45611e" x="127.69238" y="293.140551" style="fill: #3fb950; stroke: #3fb950"/>
     <use xlink:href="#mdb2a45611e" x="129.971908" y="293.140551" style="fill: #3fb950; stroke: #3fb950"/>
     <use xlink:href="#mdb2a45611e" x="132.251437" y="293.140551" style="fill: #3fb950; stroke: #3fb950"/>
     <use xlink:href="#mdb2a45611e" x="134.530965" y="293.140551" style="fill: #3fb950; stroke: #3fb950"/>
     <use xlink:href="#mdb2a45611e" x="136.810493" y="293.140551" style="fill: #3fb950; stroke: #3fb950"/>
     <use xlink:href="#mdb2a45611e" x="139.090021" y="293.140551" style="fill: #3fb950; stroke: #3fb950"/>
     <use xlink:href="#mdb2a45611e" x="141.369549" y="293.140551" style="fill: #3fb950; stroke: #3fb950"/>
     <use xlink:href="#mdb2a45611e" x="143.649077" y="293.140551" style="fill: #3fb950; stroke: #3fb950"/>
     <use xlink:href="#mdb2a45611e" x="145.928605" y="293.140551" style="fill: #3fb950; stroke: #3fb950"/>
     <use xlink:href="#mdb2a45611e" x="148.208133" y="293.140551" style="fill: #3fb950; stroke: #3fb950"/>
     <use xlink:href="#mdb2a45611e" x="150.487661" y="293.140551" style="fill: #3fb950; stroke: #3fb950"/>
     <use xlink:href="#mdb2a45611e" x="166.444358" y="264.617903" style="fill: #3fb950; stroke: #3fb950"/>
     <use xlink:href="#mdb2a45611e" x="168.723886" y="264.617903" style="fill: #3fb950; stroke: #3fb950"/>
     <use xlink:href="#mdb2a45611e" x="171.003414" y="260.543239" style="fill: #3fb950; stroke: #3fb950"/>
     <use xlink:href="#mdb2a45611e" x="173.282942" y="260.543239" style="fill: #3fb950; stroke: #3fb950"/>
     <use xlink:href="#mdb2a45611e" x="175.562471" y="260.543239" style="fill: #3fb950; stroke: #3fb950"/>
     <use xlink:href="#mdb2a45611e" x="177.841999" y="260.543239" style="fill: #3fb950; stroke: #3fb950"/>
     <use xlink:href="#mdb2a45611e" x="180.121527" y="264.617903" style="fill: #3fb950; stroke: #3fb950"/>
     <use xlink:href="#mdb2a45611e" x="182.401055" y="264.617903" style="fill: #3fb950; stroke: #3fb950"/>
     <use xlink:href="#mdb2a45611e" x="184.680583" y="264.617903" style="fill: #3fb950; stroke: #3fb950"/>
     <use xlink:href="#mdb2a45611e" x="186.960111" y="264.617903" style="fill: #3fb950; stroke: #3fb950"/>
     <use xlink:href="#mdb2a45611e" x="189.239639" y="264.617903" style="fill: #3fb950; stroke: #3fb950"/>
     <use xlink:href="#mdb2a45611e" x="191.519167" y="264.617903" style="fill: #3fb950; stroke: #3fb950"/>
     <use xlink:href="#mdb2a45611e" x="193.798695" y="264.617903" style="fill: #3fb950; stroke: #3fb950"/>
     <use xlink:href="#mdb2a45611e" x="196.078223" y="264.617903" style="fill: #3fb950; stroke: #3fb950"/>
     <use xlink:href="#mdb2a45611e" x="198.357752" y="264.617903" style="fill: #3fb950; stroke: #3fb950"/>
     <use xlink:href="#mdb2a45611e" x="200.63728" y="264.617903" style="fill: #3fb950; stroke: #3fb950"/>
     <use xlink:href="#mdb2a45611e" x="202.916808" y="264.617903" style="fill: #3fb950; stroke: #3fb950"/>
     <use xlink:href="#mdb2a45611e" x="205.196336" y="264.617903" style="fill: #3fb950; stroke: #3fb950"/>
     <use xlink:href="#mdb2a45611e" x="207.475864" y="264.617903" style="fill: #3fb950; stroke: #3fb950"/>
     <use xlink:href="#mdb2a45611e" x="209.755392" y="264.617903" style="fill: #3fb950; stroke: #3fb950"/>
     <use xlink:href="#mdb2a45611e" x="212.03492" y="264.617903" style="fill: #3fb950; stroke: #3fb950"/>
     <use xlink:href="#mdb2a45611e" x="214.314448" y="264.617903" style="fill: #3fb950; stroke: #3fb950"/>
     <use xlink:href="#mdb2a45611e" x="216.593976" y="260.543239" style="fill: #3fb950; stroke: #3fb950"/>
     <use xlink:href="#mdb2a45611e" x="218.873505" y="260.543239" style="fill: #3fb950; stroke: #3fb950"/>
     <use xlink:href="#mdb2a45611e" x="221.153033" y="260.543239" style="fill: #3fb950; stroke: #3fb950"/>
     <use xlink:href="#mdb2a45611e" x="223.432561" y="260.543239" style="fill: #3fb950; stroke: #3fb950"/>
     <use xlink:href="#mdb2a45611e" x="225.712089" y="260.543239" style="fill: #3fb950; stroke: #3fb950"/>
     <use xlink:href="#mdb2a45611e" x="227.991617" y="256.468575" style="fill: #3fb950; stroke: #3fb950"/>
     <use xlink:href="#mdb2a45611e" x="230.271145" y="252.393911" style="fill: #3fb950; stroke: #3fb950"/>
     <use xlink:href="#mdb2a45611e" x="232.550673" y="252.393911" style="fill: #3fb950; stroke: #3fb950"/>
     <use xlink:href="#mdb2a45611e" x="234.830201" y="252.393911" style="fill: #3fb950; stroke: #3fb950"/>
     <use xlink:href="#mdb2a45611e" x="237.109729" y="252.393911" style="fill: #3fb950; stroke: #3fb950"/>
     <use xlink:href="#mdb2a45611e" x="239.389257" y="252.393911" style="fill: #3fb950; stroke: #3fb950"/>
     <use xlink:href="#mdb2a45611e" x="241.668786" y="252.393911" style="fill: #3fb950; stroke: #3fb950"/>
     <use xlink:href="#mdb2a45611e" x="243.948314" y="248.319247" style="fill: #3fb950; stroke: #3fb950"/>
     <use xlink:href="#mdb2a45611e" x="246.227842" y="248.319247" style="fill: #3fb950; stroke: #3fb950"/>
     <use xlink:href="#mdb2a45611e" x="248.50737" y="248.319247" style="fill: #3fb950; stroke: #3fb950"/>
     <use xlink:href="#mdb2a45611e" x="250.786898" y="244.244583" style="fill: #3fb950; stroke: #3fb950"/>
     <use xlink:href="#mdb2a45611e" x="253.066426" y="244.244583" style="fill: #3fb950; stroke: #3fb950"/>
     <use xlink:href="#mdb2a45611e" x="255.345954" y="244.244583" style="fill: #3fb950; stroke: #3fb950"/>
     <use xlink:href="#mdb2a45611e" x="257.625482" y="244.244583" style="fill: #3fb950; stroke: #3fb950"/>
     <use xlink:href="#mdb2a45611e" x="259.90501" y="244.244583" style="fill: #3fb950; stroke: #3fb950"/>
     <use xlink:href="#mdb2a45611e" x="262.184539" y="240.169919" style="fill: #3fb950; stroke: #3fb950"/>
     <use xlink:href="#mdb2a45611e" x="264.464067" y="240.169919" style="fill: #3fb950; stroke: #3fb950"/>
     <use xlink:href="#mdb2a45611e" x="266.743595" y="240.169919" style="fill: #3fb950; stroke: #3fb950"/>
     <use xlink:href="#mdb2a45611e" x="269.023123" y="240.169919" style="fill: #3fb950; stroke: #3fb950"/>
     <use xlink:href="#mdb2a45611e" x="271.302651" y="236.095255" style="fill: #3fb950; stroke: #3fb950"/>
     <use xlink:href="#mdb2a45611e" x="273.582179" y="236.095255" style="fill: #3fb950; stroke: #3fb950"/>
     <use xlink:href="#mdb2a45611e" x="275.861707" y="236.095255" style="fill: #3fb950; stroke: #3fb950"/>
     <use xlink:href="#mdb2a45611e" x="278.141235" y="236.095255" style="fill: #3fb950; stroke: #3fb950"/>
     <use xlink:href="#mdb2a45611e" x="280.420763" y="236.095255" style="fill: #3fb950; stroke: #3fb950"/>
     <use xlink:href="#mdb2a45611e" x="282.700291" y="223.871263" style="fill: #3fb950; stroke: #3fb950"/>
     <use xlink:href="#mdb2a45611e" x="284.97982" y="223.871263" style="fill: #3fb950; stroke: #3fb950"/>
     <use xlink:href="#mdb2a45611e" x="287.259348" y="223.871263" style="fill: #3fb950; stroke: #3fb950"/>
     <use xlink:href="#mdb2a45611e" x="289.538876" y="219.796599" style="fill: #3fb950; stroke: #3fb950"/>
     <use xlink:href="#mdb2a45611e" x="291.818404" y="219.796599" style="fill: #3fb950; stroke: #3fb950"/>
     <use xlink:href="#mdb2a45611e" x="294.097932" y="219.796599" style="fill: #3fb950; stroke: #3fb950"/>
     <use xlink:href="#mdb2a45611e" x="296.37746" y="219.796599" style="fill: #3fb950; stroke: #3fb950"/>
     <use xlink:href="#mdb2a45611e" x="298.656988" y="219.796599" style="fill: #3fb950; stroke: #3fb950"/>
     <use xlink:href="#mdb2a45611e" x="300.936516" y="219.796599" style="fill: #3fb950; stroke: #3fb950"/>
     <use xlink:href="#mdb2a45611e" x="303.216044" y="219.796599" style="fill: #3fb950; stroke: #3fb950"/>
     <use xlink:href="#mdb2a45611e" x="305.495573" y="219.796599" style="fill: #3fb950; stroke: #3fb950"/>
     <use xlink:href="#mdb2a45611e" x="307.775101" y="219.796599" style="fill: #3fb950; stroke: #3fb950"/>
     <use xlink:href="#mdb2a45611e" x="310.054629" y="215.721935" style="fill: #3fb950; stroke: #3fb950"/>
     <use xlink:href="#mdb2a45611e" x="312.334157" y="215.721935" style="fill: #3fb950; stroke: #3fb950"/>
     <use xlink:href="#mdb2a45611e" x="316.893213" y="211.647271" style="fill: #3fb950; stroke: #3fb950"/>
     <use xlink:href="#mdb2a45611e" x="319.172741" y="211.647271" style="fill: #3fb950; stroke: #3fb950"/>
     <use xlink:href="#mdb2a45611e" x="321.452269" y="207.572607" style="fill: #3fb950; stroke: #3fb950"/>
     <use xlink:href="#mdb2a45611e" x="323.731797" y="203.497943" style="fill: #3fb950; stroke: #3fb950"/>
     <use xlink:href="#mdb2a45611e" x="326.011325" y="203.497943" style="fill: #3fb950; stroke: #3fb950"/>
     <use xlink:href="#mdb2a45611e" x="328.290854" y="203.497943" style="fill: #3fb950; stroke: #3fb950"/>
     <use xlink:href="#mdb2a45611e" x="330.570382" y="203.497943" style="fill: #3fb950; stroke: #3fb950"/>
     <use xlink:href="#mdb2a45611e" x="332.84991" y="170.900631" style="fill: #3fb950; stroke: #3fb950"/>
     <use xlink:href="#mdb2a45611e" x="335.129438" y="170.900631" style="fill: #3fb950; stroke: #3fb950"/>
     <use xlink:href="#mdb2a45611e" x="337.408966" y="170.900631" style="fill: #3fb950; stroke: #3fb950"/>
     <use xlink:href="#mdb2a45611e" x="339.688494" y="170.900631" style="fill: #3fb950; stroke: #3fb950"/>
     <use xlink:href="#mdb2a45611e" x="341.968022" y="170.900631" style="fill: #3fb950; stroke: #3fb950"/>
     <use xlink:href="#mdb2a45611e" x="344.24755" y="170.900631" style="fill: #3fb950; stroke: #3fb950"/>
     <use xlink:href="#mdb2a45611e" x="346.527078" y="170.900631" style="fill: #3fb950; stroke: #3fb950"/>
     <use xlink:href="#mdb2a45611e" x="348.806607" y="170.900631" style="fill: #3fb950; stroke: #3fb950"/>
     <use xlink:href="#mdb2a45611e" x="351.086135" y="170.900631" style="fill: #3fb950; stroke: #3fb950"/>
     <use xlink:href="#mdb2a45611e" x="353.365663" y="170.900631" style="fill: #3fb950; stroke: #3fb950"/>
     <use xlink:href="#mdb2a45611e" x="355.645191" y="170.900631" style="fill: #3fb950; stroke: #3fb950"/>
     <use xlink:href="#mdb2a45611e" x="357.924719" y="170.900631" style="fill: #3fb950; stroke: #3fb950"/>
     <use xlink:href="#mdb2a45611e" x="360.204247" y="166.825967" style="fill: #3fb950; stroke: #3fb950"/>
     <use xlink:href="#mdb2a45611e" x="362.483775" y="166.825967" style="fill: #3fb950; stroke: #3fb950"/>
     <use xlink:href="#mdb2a45611e" x="364.763303" y="166.825967" style="fill: #3fb950; stroke: #3fb950"/>
     <use xlink:href="#mdb2a45611e" x="367.042831" y="166.825967" style="fill: #3fb950; stroke: #3fb950"/>
     <use xlink:href="#mdb2a45611e" x="369.322359" y="162.751303" style="fill: #3fb950; stroke: #3fb950"/>
     <use xlink:href="#mdb2a45611e" x="371.601888" y="162.751303" style="fill: #3fb950; stroke: #3fb950"/>
     <use xlink:href="#mdb2a45611e" x="373.881416" y="158.676639" style="fill: #3fb950; stroke: #3fb950"/>
     <use xlink:href="#mdb2a45611e" x="376.160944" y="158.676639" style="fill: #3fb950; stroke: #3fb950"/>
     <use xlink:href="#mdb2a45611e" x="378.440472" y="158.676639" style="fill: #3fb950; stroke: #3fb950"/>
     <use xlink:href="#mdb2a45611e" x="380.72" y="158.676639" style="fill: #3fb950; stroke: #3fb950"/>
     <use xlink:href="#mdb2a45611e" x="382.999528" y="158.676639" style="fill: #3fb950; stroke: #3fb950"/>
     <use xlink:href="#mdb2a45611e" x="385.279056" y="158.676639" style="fill: #3fb950; stroke: #3fb950"/>
     <use xlink:href="#mdb2a45611e" x="387.558584" y="158.676639" style="fill: #3fb950; stroke: #3fb950"/>
     <use xlink:href="#mdb2a45611e" x="389.838112" y="158.676639" style="fill: #3fb950; stroke: #3fb950"/>
     <use xlink:href="#mdb2a45611e" x="392.117641" y="158.676639" style="fill: #3fb950; stroke: #3fb950"/>
     <use xlink:href="#mdb2a45611e" x="394.397169" y="158.676639" style="fill: #3fb950; stroke: #3fb950"/>
     <use xlink:href="#mdb2a45611e" x="396.676697" y="158.676639" style="fill: #3fb950; stroke: #3fb950"/>
     <use xlink:href="#mdb2a45611e" x="398.956225" y="158.676639" style="fill: #3fb950; stroke: #3fb950"/>
     <use xlink:href="#mdb2a45611e" x="401.235753" y="158.676639" style="fill: #3fb950; stroke: #3fb950"/>
     <use xlink:href="#mdb2a45611e" x="403.515281" y="158.676639" style="fill: #3fb950; stroke: #3fb950"/>
     <use xlink:href="#mdb2a45611e" x="405.794809" y="158.676639" style="fill: #3fb950; stroke: #3fb950"/>
     <use xlink:href="#mdb2a45611e" x="408.074337" y="158.676639" style="fill: #3fb950; stroke: #3fb950"/>
     <use xlink:href="#mdb2a45611e" x="410.353865" y="158.676639" style="fill: #3fb950; stroke: #3fb950"/>
     <use xlink:href="#mdb2a45611e" x="412.633393" y="130.153991" style="fill: #3fb950; stroke: #3fb950"/>
     <use xlink:href="#mdb2a45611e" x="414.912922" y="130.153991" style="fill: #3fb950; stroke: #3fb950"/>
     <use xlink:href="#mdb2a45611e" x="417.19245" y="130.153991" style="fill: #3fb950; stroke: #3fb950"/>
     <use xlink:href="#mdb2a45611e" x="419.471978" y="130.153991" style="fill: #3fb950; stroke: #3fb950"/>
     <use xlink:href="#mdb2a45611e" x="421.751506" y="130.153991" style="fill: #3fb950; stroke: #3fb950"/>
     <use xlink:href="#mdb2a45611e" x="424.031034" y="130.153991" style="fill: #3fb950; stroke: #3fb950"/>
     <use xlink:href="#mdb2a45611e" x="426.310562" y="130.153991" style="fill: #3fb950; stroke: #3fb950"/>
     <use xlink:href="#mdb2a45611e" x="428.59009" y="126.079327" style="fill: #3fb950; stroke: #3fb950"/>
     <use xlink:href="#mdb2a45611e" x="430.869618" y="122.004663" style="fill: #3fb950; stroke: #3fb950"/>
     <use xlink:href="#mdb2a45611e" x="433.149146" y="122.004663" style="fill: #3fb950; stroke: #3fb950"/>
     <use xlink:href="#mdb2a45611e" x="435.428675" y="122.004663" style="fill: #3fb950; stroke: #3fb950"/>
     <use xlink:href="#mdb2a45611e" x="437.708203" y="122.004663" style="fill: #3fb950; stroke: #3fb950"/>
     <use xlink:href="#mdb2a45611e" x="439.987731" y="122.004663" style="fill: #3fb950; stroke: #3fb950"/>
     <use xlink:href="#mdb2a45611e" x="442.267259" y="122.004663" style="fill: #3fb950; stroke: #3fb950"/>
     <use xlink:href="#mdb2a45611e" x="444.546787" y="122.004663" style="fill: #3fb950; stroke: #3fb950"/>
     <use xlink:href="#mdb2a45611e" x="446.826315" y="117.929999" style="fill: #3fb950; stroke: #3fb950"/>
     <use xlink:href="#mdb2a45611e" x="449.105843" y="117.929999" style="fill: #3fb950; stroke: #3fb950"/>
     <use xlink:href="#mdb2a45611e" x="451.385371" y="113.855335" style="fill: #3fb950; stroke: #3fb950"/>
     <use xlink:href="#mdb2a45611e" x="453.664899" y="113.855335" style="fill: #3fb950; stroke: #3fb950"/>
     <use xlink:href="#mdb2a45611e" x="455.944427" y="113.855335" style="fill: #3fb950; stroke: #3fb950"/>
     <use xlink:href="#mdb2a45611e" x="458.223956" y="113.855335" style="fill: #3fb950; stroke: #3fb950"/>
     <use xlink:href="#mdb2a45611e" x="460.503484" y="109.780671" style="fill: #3fb950; stroke: #3fb950"/>
     <use xlink:href="#mdb2a45611e" x="462.783012" y="109.780671" style="fill: #3fb950; stroke: #3fb950"/>
     <use xlink:href="#mdb2a45611e" x="465.06254" y="109.780671" style="fill: #3fb950; stroke: #3fb950"/>
     <use xlink:href="#mdb2a45611e" x="467.342068" y="105.706007" style="fill: #3fb950; stroke: #3fb950"/>
     <use xlink:href="#mdb2a45611e" x="469.621596" y="105.706007" style="fill: #3fb950; stroke: #3fb950"/>
     <use xlink:href="#mdb2a45611e" x="471.901124" y="101.631343" style="fill: #3fb950; stroke: #3fb950"/>
     <use xlink:href="#mdb2a45611e" x="474.180652" y="101.631343" style="fill: #3fb950; stroke: #3fb950"/>
     <use xlink:href="#mdb2a45611e" x="476.46018" y="101.631343" style="fill: #3fb950; stroke: #3fb950"/>
     <use xlink:href="#mdb2a45611e" x="478.739709" y="101.631343" style="fill: #3fb950; stroke: #3fb950"/>
     <use xlink:href="#mdb2a45611e" x="481.019237" y="97.556679" style="fill: #3fb950; stroke: #3fb950"/>
     <use xlink:href="#mdb2a45611e" x="483.298765" y="97.556679" style="fill: #3fb950; stroke: #3fb950"/>
     <use xlink:href="#mdb2a45611e" x="485.578293" y="97.556679" style="fill: #3fb950; stroke: #3fb950"/>
     <use xlink:href="#mdb2a45611e" x="487.857821" y="97.556679" style="fill: #3fb950; stroke: #3fb950"/>
     <use xlink:href="#mdb2a45611e" x="490.137349" y="97.556679" style="fill: #3fb950; stroke: #3fb950"/>
     <use xlink:href="#mdb2a45611e" x="492.416877" y="97.556679" style="fill: #3fb950; stroke: #3fb950"/>
     <use xlink:href="#mdb2a45611e" x="494.696405" y="97.556679" style="fill: #3fb950; stroke: #3fb950"/>
     <use xlink:href="#mdb2a45611e" x="496.975933" y="97.556679" style="fill: #3fb950; stroke: #3fb950"/>
     <use xlink:href="#mdb2a45611e" x="499.255461" y="97.556679" style="fill: #3fb950; stroke: #3fb950"/>
     <use xlink:href="#mdb2a45611e" x="501.53499" y="97.556679" style="fill: #3fb950; stroke: #3fb950"/>
     <use xlink:href="#mdb2a45611e" x="503.814518" y="93.482015" style="fill: #3fb950; stroke: #3fb950"/>
     <use xlink:href="#mdb2a45611e" x="506.094046" y="93.482015" style="fill: #3fb950; stroke: #3fb950"/>
     <use xlink:href="#mdb2a45611e" x="508.373574" y="93.482015" style="fill: #3fb950; stroke: #3fb950"/>
     <use xlink:href="#mdb2a45611e" x="510.653102" y="93.482015" style="fill: #3fb950; stroke: #3fb950"/>
     <use xlink:href="#mdb2a45611e" x="512.93263" y="93.482015" style="fill: #3fb950; stroke: #3fb950"/>
     <use xlink:href="#mdb2a45611e" x="515.212158" y="93.482015" style="fill: #3fb950; stroke: #3fb950"/>
     <use xlink:href="#mdb2a45611e" x="517.491686" y="93.482015" style="fill: #3fb950; stroke: #3fb950"/>
     <use xlink:href="#mdb2a45611e" x="519.771214" y="93.482015" style="fill: #3fb950; stroke: #3fb950"/>
     <use xlink:href="#mdb2a45611e" x="522.050743" y="93.482015" style="fill: #3fb950; stroke: #3fb950"/>
     <use xlink:href="#mdb2a45611e" x="524.330271" y="89.407351" style="fill: #3fb950; stroke: #3fb950"/>
     <use xlink:href="#mdb2a45611e" x="526.609799" y="89.407351" style="fill: #3fb950; stroke: #3fb950"/>
     <use xlink:href="#mdb2a45611e" x="528.889327" y="93.482015" style="fill: #3fb950; stroke: #3fb950"/>
     <use xlink:href="#mdb2a45611e" x="531.168855" y="93.482015" style="fill: #3fb950; stroke: #3fb950"/>
     <use xlink:href="#mdb2a45611e" x="533.448383" y="93.482015" style="fill: #3fb950; stroke: #3fb950"/>
     <use xlink:href="#mdb2a45611e" x="535.727911" y="93.482015" style="fill: #3fb950; stroke: #3fb950"/>
     <use xlink:href="#mdb2a45611e" x="538.007439" y="89.407351" style="fill: #3fb950; stroke: #3fb950"/>
     <use xlink:href="#mdb2a45611e" x="540.286967" y="89.407351" style="fill: #3fb950; stroke: #3fb950"/>
     <use xlink:href="#mdb2a45611e" x="542.566495" y="89.407351" style="fill: #3fb950; stroke: #3fb950"/>
     <use xlink:href="#mdb2a45611e" x="544.846024" y="89.407351" style="fill: #3fb950; stroke: #3fb950"/>
     <use xlink:href="#mdb2a45611e" x="547.125552" y="89.407351" style="fill: #3fb950; stroke: #3fb950"/>
     <use xlink:href="#mdb2a45611e" x="549.40508" y="85.332687" style="fill: #3fb950; stroke: #3fb950"/>
     <use xlink:href="#mdb2a45611e" x="551.684608" y="85.332687" style="fill: #3fb950; stroke: #3fb950"/>
     <use xlink:href="#mdb2a45611e" x="553.964136" y="85.332687" style="fill: #3fb950; stroke: #3fb950"/>
     <use xlink:href="#mdb2a45611e" x="556.243664" y="85.332687" style="fill: #3fb950; stroke: #3fb950"/>
     <use xlink:href="#mdb2a45611e" x="558.523192" y="85.332687" style="fill: #3fb950; stroke: #3fb950"/>
     <use xlink:href="#mdb2a45611e" x="560.80272" y="85.332687" style="fill: #3fb950; stroke: #3fb950"/>
     <use xlink:href="#mdb2a45611e" x="563.082248" y="85.332687" style="fill: #3fb950; stroke: #3fb950"/>
     <use xlink:href="#mdb2a45611e" x="565.361777" y="85.332687" style="fill: #3fb950; stroke: #3fb950"/>
     <use xlink:href="#mdb2a45611e" x="567.641305" y="85.332687" style="fill: #3fb950; stroke: #3fb950"/>
     <use xlink:href="#mdb2a45611e" x="569.920833" y="85.332687" style="fill: #3fb950; stroke: #3fb950"/>
     <use xlink:href="#mdb2a45611e" x="572.200361" y="85.332687" style="fill: #3fb950; stroke: #3fb950"/>
     <use xlink:href="#mdb2a45611e" x="574.479889" y="85.332687" style="fill: #3fb950; stroke: #3fb950"/>
     <use xlink:href="#mdb2a45611e" x="576.759417" y="85.332687" style="fill: #3fb950; stroke: #3fb950"/>
     <use xlink:href="#mdb2a45611e" x="579.038945" y="85.332687" style="fill: #3fb950; stroke: #3fb950"/>
     <use xlink:href="#mdb2a45611e" x="581.318473" y="77.183359" style="fill: #3fb950; stroke: #3fb950"/>
     <use xlink:href="#mdb2a45611e" x="583.598001" y="77.183359" style="fill: #3fb950; stroke: #3fb950"/>
     <use xlink:href="#mdb2a45611e" x="585.877529" y="69.034031" style="fill: #3fb950; stroke: #3fb950"/>
     <use xlink:href="#mdb2a45611e" x="588.157058" y="69.034031" style="fill: #3fb950; stroke: #3fb950"/>
     <use xlink:href="#mdb2a45611e" x="590.436586" y="69.034031" style="fill: #3fb950; stroke: #3fb950"/>
     <use xlink:href="#mdb2a45611e" x="592.716114" y="69.034031" style="fill: #3fb950; stroke: #3fb950"/>
     <use xlink:href="#mdb2a45611e" x="594.995642" y="69.034031" style="fill: #3fb950; stroke: #3fb950"/>
     <use xlink:href="#mdb2a45611e" x="597.27517" y="69.034031" style="fill: #3fb950; stroke: #3fb950"/>
     <use xlink:href="#mdb2a45611e" x="599.554698" y="69.034031" style="fill: #3fb950; stroke: #3fb950"/>
     <use xlink:href="#mdb2a45611e" x="601.834226" y="69.034031" style="fill: #3fb950; stroke: #3fb950"/>
     <use xlink:href="#mdb2a45611e" x="604.113754" y="69.034031" style="fill: #3fb950; stroke: #3fb950"/>
     <use xlink:href="#mdb2a45611e" x="606.393282" y="69.034031" style="fill: #3fb950; stroke: #3fb950"/>
     <use xlink:href="#mdb2a45611e" x="608.672811" y="69.034031" style="fill: #3fb950; stroke: #3fb950"/>
     <use xlink:href="#mdb2a45611e" x="610.952339" y="69.034031" style="fill: #3fb950; stroke: #3fb950"/>
     <use xlink:href="#mdb2a45611e" x="613.231867" y="69.034031" style="fill: #3fb950; stroke: #3fb950"/>
     <use xlink:href="#mdb2a45611e" x="615.511395" y="69.034031" style="fill: #3fb950; stroke: #3fb950"/>
     <use xlink:href="#mdb2a45611e" x="617.790923" y="69.034031" style="fill: #3fb950; stroke: #3fb950"/>
     <use xlink:href="#mdb2a45611e" x="620.070451" y="69.034031" style="fill: #3fb950; stroke: #3fb950"/>
     <use xlink:href="#mdb2a45611e" x="622.349979" y="69.034031" style="fill: #3fb950; stroke: #3fb950"/>
     <use xlink:href="#mdb2a45611e" x="624.629507" y="69.034031" style="fill: #3fb950; stroke: #3fb950"/>
     <use xlink:href="#mdb2a45611e" x="626.909035" y="69.034031" style="fill: #3fb950; stroke: #3fb950"/>
     <use xlink:href="#mdb2a45611e" x="629.188563" y="64.959367" style="fill: #3fb950; stroke: #3fb950"/>
     <use xlink:href="#mdb2a45611e" x="631.468092" y="64.959367" style="fill: #3fb950; stroke: #3fb950"/>
     <use xlink:href="#mdb2a45611e" x="633.74762" y="64.959367" style="fill: #3fb950; stroke: #3fb950"/>
     <use xlink:href="#mdb2a45611e" x="636.027148" y="64.959367" style="fill: #3fb950; stroke: #3fb950"/>
     <use xlink:href="#mdb2a45611e" x="638.306676" y="60.884703" style="fill: #3fb950; stroke: #3fb950"/>
     <use xlink:href="#mdb2a45611e" x="640.586204" y="56.810039" style="fill: #3fb950; stroke: #3fb950"/>
     <use xlink:href="#mdb2a45611e" x="642.865732" y="56.810039" style="fill: #3fb950; stroke: #3fb950"/>
     <use xlink:href="#mdb2a45611e" x="645.14526" y="56.810039" style="fill: #3fb950; stroke: #3fb950"/>
     <use xlink:href="#mdb2a45611e" x="647.424788" y="56.810039" style="fill: #3fb950; stroke: #3fb950"/>
     <use xlink:href="#mdb2a45611e" x="649.704316" y="56.810039" style="fill: #3fb950; stroke: #3fb950"/>
     <use xlink:href="#mdb2a45611e" x="651.983845" y="56.810039" style="fill: #3fb950; stroke: #3fb950"/>
     <use xlink:href="#mdb2a45611e" x="654.263373" y="56.810039" style="fill: #3fb950; stroke: #3fb950"/>
     <use xlink:href="#mdb2a45611e" x="656.542901" y="56.810039" style="fill: #3fb950; stroke: #3fb950"/>
     <use xlink:href="#mdb2a45611e" x="658.822429" y="56.810039" style="fill: #3fb950; stroke: #3fb950"/>
     <use xlink:href="#mdb2a45611e" x="661.101957" y="56.810039" style="fill: #3fb950; stroke: #3fb950"/>
     <use xlink:href="#mdb2a45611e" x="663.381485" y="56.810039" style="fill: #3fb950; stroke: #3fb950"/>
     <use xlink:href="#mdb2a45611e" x="665.661013" y="52.735375" style="fill: #3fb950; stroke: #3fb950"/>
     <use xlink:href="#mdb2a45611e" x="667.940541" y="52.735375" style="fill: #3fb950; stroke: #3fb950"/>
     <use xlink:href="#mdb2a45611e" x="670.220069" y="52.735375" style="fill: #3fb950; stroke: #3fb950"/>
     <use xlink:href="#mdb2a45611e" x="672.499598" y="52.735375" style="fill: #3fb950; stroke: #3fb950"/>
     <use xlink:href="#mdb2a45611e" x="674.779126" y="52.735375" style="fill: #3fb950; stroke: #3fb950"/>
     <use xlink:href="#mdb2a45611e" x="677.058654" y="52.735375" style="fill: #3fb950; stroke: #3fb950"/>
     <use xlink:href="#mdb2a45611e" x="679.338182" y="48.660711" style="fill: #3fb950; stroke: #3fb950"/>
    </g>
   </g>
   <g id="patch_3">
    <path d="M 52.24 305.364543 
L 52.24 36.436719 
" style="fill: none; stroke: #30363d; stroke-width: 0.8; stroke-linejoin: miter; stroke-linecap: square"/>
   </g>
   <g id="patch_4">
    <path d="M 709.2 305.364543 
L 709.2 36.436719 
" style="fill: none; stroke: #30363d; stroke-width: 0.8; stroke-linejoin: miter; stroke-linecap: square"/>
   </g>
   <g id="patch_5">
    <path d="M 52.24 305.364543 
L 709.2 305.364543 
" style="fill: none; stroke: #30363d; stroke-width: 0.8; stroke-linejoin: miter; stroke-linecap: square"/>
   </g>
   <g id="patch_6">
    <path d="M 52.24 36.436719 
L 709.2 36.436719 
" style="fill: none; stroke: #30363d; stroke-width: 0.8; stroke-linejoin: miter; stroke-linecap: square"/>
   </g>
   <g id="text_18">
    <g id="patch_7">
     <path d="M 626.549394 64.18311 
L 696.0608 64.18311 
Q 699.3608 64.18311 699.3608 60.88311 
L 699.3608 49.88311 
Q 699.3608 46.58311 696.0608 46.58311 
L 626.549394 46.58311 
Q 623.249394 46.58311 623.249394 49.88311 
L 623.249394 60.88311 
Q 623.249394 64.18311 626.549394 64.18311 
z
" style="fill: #30363d; opacity: 0.8; stroke: #3fb950; stroke-linejoin: miter"/>
    </g>
    <!-- Current: 126 -->
    <g style="fill: #c9d1d9" transform="translate(626.549394 58.240532) scale(0.11 -0.11)">
     <defs>
      <path id="DejaVuSans-1d" d="M 750 794 
L 1409 794 
L 1409 0 
L 750 0 
L 750 794 
z
M 750 3309 
L 1409 3309 
L 1409 2516 
L 750 2516 
L 750 3309 
z
" transform="scale(0.015625)"/>
      <path id="DejaVuSans-3" transform="scale(0.015625)"/>
      <path id="DejaVuSans-19" d="M 2113 2584 
Q 1688 2584 1439 2293 
Q 1191 2003 1191 1497 
Q 1191 994 1439 701 
Q 1688 409 2113 409 
Q 2538 409 2786 701 
Q 3034 994 3034 1497 
Q 3034 2003 2786 2293 
Q 2538 2584 2113 2584 
z
M 3366 4563 
L 3366 3988 
Q 3128 4100 2886 4159 
Q 2644 4219 2406 4219 
Q 1781 4219 1451 3797 
Q 1122 3375 1075 2522 
Q 1259 2794 1537 2939 
Q 1816 3084 2150 3084 
Q 2853 3084 3261 2657 
Q 3669 2231 3669 1497 
Q 3669 778 3244 343 
Q 2819 -91 2113 -91 
Q 1303 -91 875 529 
Q 447 1150 447 2328 
Q 447 3434 972 4092 
Q 1497 4750 2381 4750 
Q 2619 4750 2861 4703 
Q 3103 4656 3366 4563 
z
" transform="scale(0.015625)"/>
     </defs>
     <use xlink:href="#DejaVuSans-26"/>
     <use xlink:href="#DejaVuSans-58" transform="translate(69.828125 0)"/>
     <use xlink:href="#DejaVuSans-55" transform="translate(133.203125 0)"/>
     <use xlink:href="#DejaVuSans-55" transform="translate(172.5625 0)"/>
     <use xlink:href="#DejaVuSans-48" transform="translate(211.46875 0)"/>
     <use xlink:href="#DejaVuSans-51" transform="translate(273 0)"/>
     <use xlink:href="#DejaVuSans-57" transform="translate(336.375 0)"/>
     <use xlink:href="#DejaVuSans-1d" transform="translate(375.578125 0)"/>
     <use xlink:href="#DejaVuSans-3" transform="translate(409.265625 0)"/>
     <use xlink:href="#DejaVuSans-14" transform="translate(441.046875 0)"/>
     <use xlink:href="#DejaVuSans-15" transform="translate(504.671875 0)"/>
     <use xlink:href="#DejaVuSans-19" transform="translate(568.296875 0)"/>
    </g>
   </g>
   <g id="text_19">
    <!-- Total Repository Stars -->
    <g style="fill: #c9d1d9" transform="translate(293.299844 21.436719) scale(0.14 -0.14)">
     <defs>
      <path id="DejaVuSans-Bold-37" d="M 31 4666 
L 4331 4666 
L 4331 3756 
L 2784 3756 
L 2784 0 
L 1581 0 
L 1581 3756 
L 31 3756 
L 31 4666 
z
" transform="scale(0.015625)"/>
      <path id="DejaVuSans-Bold-52" d="M 2203 2784 
Q 1831 2784 1636 2517 
Q 1441 2250 1441 1747 
Q 1441 1244 1636 976 
Q 1831 709 2203 709 
Q 2569 709 2762 976 
Q 2956 1244 2956 1747 
Q 2956 2250 2762 2517 
Q 2569 2784 2203 2784 
z
M 2203 3584 
Q 3106 3584 3614 3096 
Q 4122 2609 4122 1747 
Q 4122 884 3614 396 
Q 3106 -91 2203 -91 
Q 1297 -91 786 396 
Q 275 884 275 1747 
Q 275 2609 786 3096 
Q 1297 3584 2203 3584 
z
" transform="scale(0.015625)"/>
      <path id="DejaVuSans-Bold-57" d="M 1759 4494 
L 1759 3500 
L 2913 3500 
L 2913 2700 
L 1759 2700 
L 1759 1216 
Q 1759 972 1856 886 
Q 1953 800 2241 800 
L 2816 800 
L 2816 0 
L 1856 0 
Q 1194 0 917 276 
Q 641 553 641 1216 
L 641 2700 
L 84 2700 
L 84 3500 
L 641 3500 
L 641 4494 
L 1759 4494 
z
" transform="scale(0.015625)"/>
      <path id="DejaVuSans-Bold-44" d="M 2106 1575 
Q 1756 1575 1579 1456 
Q 1403 1338 1403 1106 
Q 1403 894 1545 773 
Q 1688 653 1941 653 
Q 2256 653 2472 879 
Q 2688 1106 2688 1447 
L 2688 1575 
L 2106 1575 
z
M 3816 1997 
L 3816 0 
L 2688 0 
L 2688 519 
Q 2463 200 2181 54 
Q 1900 -91 1497 -91 
Q 953 -91 614 226 
Q 275 544 275 1050 
Q 275 1666 698 1953 
Q 1122 2241 2028 2241 
L 2688 2241 
L 2688 2328 
Q 2688 2594 2478 2717 
Q 2269 2841 1825 2841 
Q 1466 2841 1156 2769 
Q 847 2697 581 2553 
L 581 3406 
Q 941 3494 1303 3539 
Q 1666 3584 2028 3584 
Q 2975 3584 3395 3211 
Q 3816 2838 3816 1997 
z
" transform="scale(0.015625)"/>
      <path id="DejaVuSans-Bold-4f" d="M 538 4863 
L 1656 4863 
L 1656 0 
L 538 0 
L 538 4863 
z
" transform="scale(0.015625)"/>
      <path id="DejaVuSans-Bold-3" transform="scale(0.015625)"/>
      <path id="DejaVuSans-Bold-35" d="M 2297 2597 
Q 2675 2597 2839 2737 
Q 3003 2878 3003 3200 
Q 3003 3519 2839 3656 
Q 2675 3794 2297 3794 
L 1791 3794 
L 1791 2597 
L 2297 2597 
z
M 1791 1766 
L 1791 0 
L 588 0 
L 588 4666 
L 2425 4666 
Q 3347 4666 3776 4356 
Q 4206 4047 4206 3378 
Q 4206 2916 3982 2619 
Q 3759 2322 3309 2181 
Q 3556 2125 3751 1926 
Q 3947 1728 4147 1325 
L 4800 0 
L 3519 0 
L 2950 1159 
Q 2778 1509 2601 1637 
Q 2425 1766 2131 1766 
L 1791 1766 
z
" transform="scale(0.015625)"/>
      <path id="DejaVuSans-Bold-48" d="M 4031 1759 
L 4031 1441 
L 1416 1441 
Q 1456 1047 1700 850 
Q 1944 653 2381 653 
Q 2734 653 3104 758 
Q 3475 863 3866 1075 
L 3866 213 
Q 3469 63 3072 -14 
Q 2675 -91 2278 -91 
Q 1328 -91 801 392 
Q 275 875 275 1747 
Q 275 2603 792 3093 
Q 1309 3584 2216 3584 
Q 3041 3584 3536 3087 
Q 4031 2591 4031 1759 
z
M 2881 2131 
Q 2881 2450 2695 2645 
Q 2509 2841 2209 2841 
Q 1884 2841 1681 2658 
Q 1478 2475 1428 2131 
L 2881 2131 
z
" transform="scale(0.015625)"/>
      <path id="DejaVuSans-Bold-53" d="M 1656 506 
L 1656 -1331 
L 538 -1331 
L 538 3500 
L 1656 3500 
L 1656 2988 
Q 1888 3294 2169 3439 
Q 2450 3584 2816 3584 
Q 3463 3584 3878 3070 
Q 4294 2556 4294 1747 
Q 4294 938 3878 423 
Q 3463 -91 2816 -91 
Q 2450 -91 2169 54 
Q 1888 200 1656 506 
z
M 2400 2772 
Q 2041 2772 1848 2508 
Q 1656 2244 1656 1747 
Q 1656 1250 1848 986 
Q 2041 722 2400 722 
Q 2759 722 2948 984 
Q 3138 1247 3138 1747 
Q 3138 2247 2948 2509 
Q 2759 2772 2400 2772 
z
" transform="scale(0.015625)"/>
      <path id="DejaVuSans-Bold-56" d="M 3272 3391 
L 3272 2541 
Q 2913 2691 2578 2766 
Q 2244 2841 1947 2841 
Q 1628 2841 1473 2761 
Q 1319 2681 1319 2516 
Q 1319 2381 1436 2309 
Q 1553 2238 1856 2203 
L 2053 2175 
Q 2913 2066 3209 1816 
Q 3506 1566 3506 1031 
Q 3506 472 3093 190 
Q 2681 -91 1863 -91 
Q 1516 -91 1145 -36 
Q 775 19 384 128 
L 384 978 
Q 719 816 1070 734 
Q 1422 653 1784 653 
Q 2113 653 2278 743 
Q 2444 834 2444 1013 
Q 2444 1163 2330 1236 
Q 2216 1309 1875 1350 
L 1678 1375 
Q 931 1469 631 1722 
Q 331 1975 331 2491 
Q 331 3047 712 3315 
Q 1094 3584 1881 3584 
Q 2191 3584 2531 3537 
Q 2872 3491 3272 3391 
z
" transform="scale(0.015625)"/>
      <path id="DejaVuSans-Bold-4c" d="M 538 3500 
L 1656 3500 
L 1656 0 
L 538 0 
L 538 3500 
z
M 538 4863 
L 1656 4863 
L 1656 3950 
L 538 3950 
L 538 4863 
z
" transform="scale(0.015625)"/>
      <path id="DejaVuSans-Bold-55" d="M 3138 2547 
Q 2991 2616 2845 2648 
Q 2700 2681 2553 2681 
Q 2122 2681 1889 2404 
Q 1656 2128 1656 1613 
L 1656 0 
L 538 0 
L 538 3500 
L 1656 3500 
L 1656 2925 
Q 1872 3269 2151 3426 
Q 2431 3584 2822 3584 
Q 2878 3584 2943 3579 
Q 3009 3575 3134 3559 
L 3138 2547 
z
" transform="scale(0.015625)"/>
      <path id="DejaVuSans-Bold-5c" d="M 78 3500 
L 1197 3500 
L 2138 1125 
L 2938 3500 
L 4056 3500 
L 2584 -331 
Q 2363 -916 2067 -1148 
Q 1772 -1381 1288 -1381 
L 641 -1381 
L 641 -647 
L 991 -647 
Q 1275 -647 1404 -556 
Q 1534 -466 1606 -231 
L 1638 -134 
L 78 3500 
z
" transform="scale(0.015625)"/>
      <path id="DejaVuSans-Bold-36" d="M 3834 4519 
L 3834 3531 
Q 3450 3703 3084 3790 
Q 2719 3878 2394 3878 
Q 1963 3878 1756 3759 
Q 1550 3641 1550 3391 
Q 1550 3203 1689 3098 
Q 1828 2994 2194 2919 
L 2706 2816 
Q 3484 2659 3812 2340 
Q 4141 2022 4141 1434 
Q 4141 663 3683 286 
Q 3225 -91 2284 -91 
Q 1841 -91 1394 -6 
Q 947 78 500 244 
L 500 1259 
Q 947 1022 1364 901 
Q 1781 781 2169 781 
Q 2563 781 2772 912 
Q 2981 1044 2981 1288 
Q 2981 1506 2839 1625 
Q 2697 1744 2272 1838 
L 1806 1941 
Q 1106 2091 782 2419 
Q 459 2747 459 3303 
Q 459 4000 909 4375 
Q 1359 4750 2203 4750 
Q 2588 4750 2994 4692 
Q 3400 4634 3834 4519 
z
" transform="scale(0.015625)"/>
     </defs>
     <use xlink:href="#DejaVuSans-Bold-37"/>
     <use xlink:href="#DejaVuSans-Bold-52" transform="translate(54.9375 0)"/>
     <use xlink:href="#DejaVuSans-Bold-57" transform="translate(123.640625 0)"/>
     <use xlink:href="#DejaVuSans-Bold-44" transform="translate(171.4375 0)"/>
     <use xlink:href="#DejaVuSans-Bold-4f" transform="translate(238.921875 0)"/>
     <use xlink:href="#DejaVuSans-Bold-3" transform="translate(273.203125 0)"/>
     <use xlink:href="#DejaVuSans-Bold-35" transform="translate(308.015625 0)"/>
     <use xlink:href="#DejaVuSans-Bold-48" transform="translate(385.015625 0)"/>
     <use xlink:href="#DejaVuSans-Bold-53" transform="translate(452.84375 0)"/>
     <use xlink:href="#DejaVuSans-Bold-52" transform="translate(524.421875 0)"/>
     <use xlink:href="#DejaVuSans-Bold-56" transform="translate(593.125 0)"/>
     <use xlink:href="#DejaVuSans-Bold-4c" transform="translate(652.640625 0)"/>
     <use xlink:href="#DejaVuSans-Bold-57" transform="translate(686.921875 0)"/>
     <use xlink:href="#DejaVuSans-Bold-52" transform="translate(734.71875 0)"/>
     <use xlink:href="#DejaVuSans-Bold-55" transform="translate(803.421875 0)"/>
     <use xlink:href="#DejaVuSans-Bold-5c" transform="translate(852.734375 0)"/>
     <use xlink:href="#DejaVuSans-Bold-3" transform="translate(917.921875 0)"/>
     <use xlink:href="#DejaVuSans-Bold-36" transform="translate(952.734375 0)"/>
     <use xlink:href="#DejaVuSans-Bold-57" transform="translate(1024.75 0)"/>
     <use xlink:href="#DejaVuSans-Bold-44" transform="translate(1072.546875 0)"/>
     <use xlink:href="#DejaVuSans-Bold-55" transform="translate(1140.03125 0)"/>
     <use xlink:href="#DejaVuSans-Bold-56" transform="translate(1189.34375 0)"/>
    </g>
   </g>
  </g>
 </g>
 <defs>
  <clipPath id="p9d8299c694">
   <rect x="52.24" y="36.436719" width="656.96" height="268.927824"/>
  </clipPath>
 </defs>
</svg>
