<?xml version="1.0" encoding="utf-8" standalone="no"?>
<!DOCTYPE svg PUBLIC "-//W3C//DTD SVG 1.1//EN"
  "http://www.w3.org/Graphics/SVG/1.1/DTD/svg11.dtd">
<svg xmlns:xlink="http://www.w3.org/1999/xlink" width="720pt" height="360pt" viewBox="0 0 720 360" xmlns="http://www.w3.org/2000/svg" version="1.1">
 <metadata>
  <rdf:RDF xmlns:dc="http://purl.org/dc/elements/1.1/" xmlns:cc="http://creativecommons.org/ns#" xmlns:rdf="http://www.w3.org/1999/02/22-rdf-syntax-ns#">
   <cc:Work>
    <dc:type rdf:resource="http://purl.org/dc/dcmitype/StillImage"/>
    <dc:date>2026-02-25T00:26:50.871180</dc:date>
    <dc:format>image/svg+xml</dc:format>
    <dc:creator>
     <cc:Agent>
      <dc:title>Matplotlib v3.10.8, https://matplotlib.org/</dc:title>
     </cc:Agent>
    </dc:creator>
   </cc:Work>
  </rdf:RDF>
 </metadata>
 <defs>
  <style type="text/css">*{stroke-linejoin: round; stroke-linecap: butt}</style>
 </defs>
 <g id="figure_1">
  <g id="patch_1">
   <path d="M 0 360 
L 720 360 
L 720 0 
L 0 0 
z
" style="fill: #0d1117"/>
  </g>
  <g id="axes_1">
   <g id="patch_2">
    <path d="M 51.59 306.462568 
L 709.2 306.462568 
L 709.2 36.6 
L 51.59 36.6 
z
" style="fill: #0d1117"/>
   </g>
   <g id="matplotlib.axis_1">
    <g id="xtick_1">
     <g id="line2d_1">
      <path d="M 101.146734 306.462568 
L 101.146734 36.6 
" clip-path="url(#p078ecca96d)" style="fill: none; stroke: #30363d; stroke-opacity: 0.2; stroke-width: 0.8; stroke-linecap: square"/>
     </g>
     <g id="line2d_2">
      <defs>
       <path id="m6cb411a99f" d="M 0 0 
L 0 3.5 
" style="stroke: #c9d1d9; stroke-width: 0.8"/>
      </defs>
      <g>
       <use xlink:href="#m6cb411a99f" x="101.146734" y="306.462568" style="fill: #c9d1d9; stroke: #c9d1d9; stroke-width: 0.8"/>
      </g>
     </g>
     <g id="text_1">
      <!-- Oct -->
      <g style="fill: #c9d1d9" transform="translate(87.449855 331.061793) rotate(-45) scale(0.1 -0.1)">
       <defs>
        <path id="DejaVuSans-4f" d="M 2522 4238 
Q 1834 4238 1429 3725 
Q 1025 3213 1025 2328 
Q 1025 1447 1429 934 
Q 1834 422 2522 422 
Q 3209 422 3611 934 
Q 4013 1447 4013 2328 
Q 4013 3213 3611 3725 
Q 3209 4238 2522 4238 
z
M 2522 4750 
Q 3503 4750 4090 4092 
Q 4678 3434 4678 2328 
Q 4678 1225 4090 567 
Q 3503 -91 2522 -91 
Q 1538 -91 948 565 
Q 359 1222 359 2328 
Q 359 3434 948 4092 
Q 1538 4750 2522 4750 
z
" transform="scale(0.015625)"/>
        <path id="DejaVuSans-63" d="M 3122 3366 
L 3122 2828 
Q 2878 2963 2633 3030 
Q 2388 3097 2138 3097 
Q 1578 3097 1268 2742 
Q 959 2388 959 1747 
Q 959 1106 1268 751 
Q 1578 397 2138 397 
Q 2388 397 2633 464 
Q 2878 531 3122 666 
L 3122 134 
Q 2881 22 2623 -34 
Q 2366 -91 2075 -91 
Q 1284 -91 818 406 
Q 353 903 353 1747 
Q 353 2603 823 3093 
Q 1294 3584 2113 3584 
Q 2378 3584 2631 3529 
Q 2884 3475 3122 3366 
z
" transform="scale(0.015625)"/>
        <path id="DejaVuSans-74" d="M 1172 4494 
L 1172 3500 
L 2356 3500 
L 2356 3053 
L 1172 3053 
L 1172 1153 
Q 1172 725 1289 603 
Q 1406 481 1766 481 
L 2356 481 
L 2356 0 
L 1766 0 
Q 1100 0 847 248 
Q 594 497 594 1153 
L 594 3053 
L 172 3053 
L 172 3500 
L 594 3500 
L 594 4494 
L 1172 4494 
z
" transform="scale(0.015625)"/>
       </defs>
       <use xlink:href="#DejaVuSans-4f"/>
       <use xlink:href="#DejaVuSans-63" transform="translate(78.710938 0)"/>
       <use xlink:href="#DejaVuSans-74" transform="translate(133.691406 0)"/>
      </g>
     </g>
    </g>
    <g id="xtick_2">
     <g id="line2d_3">
      <path d="M 223.072033 306.462568 
L 223.072033 36.6 
" clip-path="url(#p078ecca96d)" style="fill: none; stroke: #30363d; stroke-opacity: 0.2; stroke-width: 0.8; stroke-linecap: square"/>
     </g>
     <g id="line2d_4">
      <g>
       <use xlink:href="#m6cb411a99f" x="223.072033" y="306.462568" style="fill: #c9d1d9; stroke: #c9d1d9; stroke-width: 0.8"/>
      </g>
     </g>
     <g id="text_2">
      <!-- Nov -->
      <g style="fill: #c9d1d9" transform="translate(207.799632 332.637315) rotate(-45) scale(0.1 -0.1)">
       <defs>
        <path id="DejaVuSans-4e" d="M 628 4666 
L 1478 4666 
L 3547 763 
L 3547 4666 
L 4159 4666 
L 4159 0 
L 3309 0 
L 1241 3903 
L 1241 0 
L 628 0 
L 628 4666 
z
" transform="scale(0.015625)"/>
        <path id="DejaVuSans-6f" d="M 1959 3097 
Q 1497 3097 1228 2736 
Q 959 2375 959 1747 
Q 959 1119 1226 758 
Q 1494 397 1959 397 
Q 2419 397 2687 759 
Q 2956 1122 2956 1747 
Q 2956 2369 2687 2733 
Q 2419 3097 1959 3097 
z
M 1959 3584 
Q 2709 3584 3137 3096 
Q 3566 2609 3566 1747 
Q 3566 888 3137 398 
Q 2709 -91 1959 -91 
Q 1206 -91 779 398 
Q 353 888 353 1747 
Q 353 2609 779 3096 
Q 1206 3584 1959 3584 
z
" transform="scale(0.015625)"/>
        <path id="DejaVuSans-76" d="M 191 3500 
L 800 3500 
L 1894 563 
L 2988 3500 
L 3597 3500 
L 2284 0 
L 1503 0 
L 191 3500 
z
" transform="scale(0.015625)"/>
       </defs>
       <use xlink:href="#DejaVuSans-4e"/>
       <use xlink:href="#DejaVuSans-6f" transform="translate(74.804688 0)"/>
       <use xlink:href="#DejaVuSans-76" transform="translate(135.986328 0)"/>
      </g>
     </g>
    </g>
    <g id="xtick_3">
     <g id="line2d_5">
      <path d="M 341.064258 306.462568 
L 341.064258 36.6 
" clip-path="url(#p078ecca96d)" style="fill: none; stroke: #30363d; stroke-opacity: 0.2; stroke-width: 0.8; stroke-linecap: square"/>
     </g>
     <g id="line2d_6">
      <g>
       <use xlink:href="#m6cb411a99f" x="341.064258" y="306.462568" style="fill: #c9d1d9; stroke: #c9d1d9; stroke-width: 0.8"/>
      </g>
     </g>
     <g id="text_3">
      <!-- Dec -->
      <g style="fill: #c9d1d9" transform="translate(325.910076 332.519096) rotate(-45) scale(0.1 -0.1)">
       <defs>
        <path id="DejaVuSans-44" d="M 1259 4147 
L 1259 519 
L 2022 519 
Q 2988 519 3436 956 
Q 3884 1394 3884 2338 
Q 3884 3275 3436 3711 
Q 2988 4147 2022 4147 
L 1259 4147 
z
M 628 4666 
L 1925 4666 
Q 3281 4666 3915 4102 
Q 4550 3538 4550 2338 
Q 4550 1131 3912 565 
Q 3275 0 1925 0 
L 628 0 
L 628 4666 
z
" transform="scale(0.015625)"/>
        <path id="DejaVuSans-65" d="M 3597 1894 
L 3597 1613 
L 953 1613 
Q 991 1019 1311 708 
Q 1631 397 2203 397 
Q 2534 397 2845 478 
Q 3156 559 3463 722 
L 3463 178 
Q 3153 47 2828 -22 
Q 2503 -91 2169 -91 
Q 1331 -91 842 396 
Q 353 884 353 1716 
Q 353 2575 817 3079 
Q 1281 3584 2069 3584 
Q 2775 3584 3186 3129 
Q 3597 2675 3597 1894 
z
M 3022 2063 
Q 3016 2534 2758 2815 
Q 2500 3097 2075 3097 
Q 1594 3097 1305 2825 
Q 1016 2553 972 2059 
L 3022 2063 
z
" transform="scale(0.015625)"/>
       </defs>
       <use xlink:href="#DejaVuSans-44"/>
       <use xlink:href="#DejaVuSans-65" transform="translate(77.001953 0)"/>
       <use xlink:href="#DejaVuSans-63" transform="translate(138.525391 0)"/>
      </g>
     </g>
    </g>
    <g id="xtick_4">
     <g id="line2d_7">
      <path d="M 462.989557 306.462568 
L 462.989557 36.6 
" clip-path="url(#p078ecca96d)" style="fill: none; stroke: #30363d; stroke-opacity: 0.2; stroke-width: 0.8; stroke-linecap: square"/>
     </g>
     <g id="line2d_8">
      <g>
       <use xlink:href="#m6cb411a99f" x="462.989557" y="306.462568" style="fill: #c9d1d9; stroke: #c9d1d9; stroke-width: 0.8"/>
      </g>
     </g>
     <g id="text_4">
      <!-- Jan -->
      <g style="fill: #c9d1d9" transform="translate(450.618503 329.735968) rotate(-45) scale(0.1 -0.1)">
       <defs>
        <path id="DejaVuSans-4a" d="M 628 4666 
L 1259 4666 
L 1259 325 
Q 1259 -519 939 -900 
Q 619 -1281 -91 -1281 
L -331 -1281 
L -331 -750 
L -134 -750 
Q 284 -750 456 -515 
Q 628 -281 628 325 
L 628 4666 
z
" transform="scale(0.015625)"/>
        <path id="DejaVuSans-61" d="M 2194 1759 
Q 1497 1759 1228 1600 
Q 959 1441 959 1056 
Q 959 750 1161 570 
Q 1363 391 1709 391 
Q 2188 391 2477 730 
Q 2766 1069 2766 1631 
L 2766 1759 
L 2194 1759 
z
M 3341 1997 
L 3341 0 
L 2766 0 
L 2766 531 
Q 2569 213 2275 61 
Q 1981 -91 1556 -91 
Q 1019 -91 701 211 
Q 384 513 384 1019 
Q 384 1609 779 1909 
Q 1175 2209 1959 2209 
L 2766 2209 
L 2766 2266 
Q 2766 2663 2505 2880 
Q 2244 3097 1772 3097 
Q 1472 3097 1187 3025 
Q 903 2953 641 2809 
L 641 3341 
Q 956 3463 1253 3523 
Q 1550 3584 1831 3584 
Q 2591 3584 2966 3190 
Q 3341 2797 3341 1997 
z
" transform="scale(0.015625)"/>
        <path id="DejaVuSans-6e" d="M 3513 2113 
L 3513 0 
L 2938 0 
L 2938 2094 
Q 2938 2591 2744 2837 
Q 2550 3084 2163 3084 
Q 1697 3084 1428 2787 
Q 1159 2491 1159 1978 
L 1159 0 
L 581 0 
L 581 3500 
L 1159 3500 
L 1159 2956 
Q 1366 3272 1645 3428 
Q 1925 3584 2291 3584 
Q 2894 3584 3203 3211 
Q 3513 2838 3513 2113 
z
" transform="scale(0.015625)"/>
       </defs>
       <use xlink:href="#DejaVuSans-4a"/>
       <use xlink:href="#DejaVuSans-61" transform="translate(29.492188 0)"/>
       <use xlink:href="#DejaVuSans-6e" transform="translate(90.771484 0)"/>
      </g>
     </g>
    </g>
    <g id="xtick_5">
     <g id="line2d_9">
      <path d="M 584.914856 306.462568 
L 584.914856 36.6 
" clip-path="url(#p078ecca96d)" style="fill: none; stroke: #30363d; stroke-opacity: 0.2; stroke-width: 0.8; stroke-linecap: square"/>
     </g>
     <g id="line2d_10">
      <g>
       <use xlink:href="#m6cb411a99f" x="584.914856" y="306.462568" style="fill: #c9d1d9; stroke: #c9d1d9; stroke-width: 0.8"/>
      </g>
     </g>
     <g id="text_5">
      <!-- Feb -->
      <g style="fill: #c9d1d9" transform="translate(570.926296 331.353475) rotate(-45) scale(0.1 -0.1)">
       <defs>
        <path id="DejaVuSans-46" d="M 628 4666 
L 3309 4666 
L 3309 4134 
L 1259 4134 
L 1259 2759 
L 3109 2759 
L 3109 2228 
L 1259 2228 
L 1259 0 
L 628 0 
L 628 4666 
z
" transform="scale(0.015625)"/>
        <path id="DejaVuSans-62" d="M 3116 1747 
Q 3116 2381 2855 2742 
Q 2594 3103 2138 3103 
Q 1681 3103 1420 2742 
Q 1159 2381 1159 1747 
Q 1159 1113 1420 752 
Q 1681 391 2138 391 
Q 2594 391 2855 752 
Q 3116 1113 3116 1747 
z
M 1159 2969 
Q 1341 3281 1617 3432 
Q 1894 3584 2278 3584 
Q 2916 3584 3314 3078 
Q 3713 2572 3713 1747 
Q 3713 922 3314 415 
Q 2916 -91 2278 -91 
Q 1894 -91 1617 61 
Q 1341 213 1159 525 
L 1159 0 
L 581 0 
L 581 4863 
L 1159 4863 
L 1159 2969 
z
" transform="scale(0.015625)"/>
       </defs>
       <use xlink:href="#DejaVuSans-46"/>
       <use xlink:href="#DejaVuSans-65" transform="translate(52.019531 0)"/>
       <use xlink:href="#DejaVuSans-62" transform="translate(113.542969 0)"/>
      </g>
     </g>
    </g>
    <g id="xtick_6">
     <g id="line2d_11">
      <path d="M 695.040933 306.462568 
L 695.040933 36.6 
" clip-path="url(#p078ecca96d)" style="fill: none; stroke: #30363d; stroke-opacity: 0.2; stroke-width: 0.8; stroke-linecap: square"/>
     </g>
     <g id="line2d_12">
      <g>
       <use xlink:href="#m6cb411a99f" x="695.040933" y="306.462568" style="fill: #c9d1d9; stroke: #c9d1d9; stroke-width: 0.8"/>
      </g>
     </g>
     <g id="text_6">
      <!-- Mar -->
      <g style="fill: #c9d1d9" transform="translate(680.229256 332.176591) rotate(-45) scale(0.1 -0.1)">
       <defs>
        <path id="DejaVuSans-4d" d="M 628 4666 
L 1569 4666 
L 2759 1491 
L 3956 4666 
L 4897 4666 
L 4897 0 
L 4281 0 
L 4281 4097 
L 3078 897 
L 2444 897 
L 1241 4097 
L 1241 0 
L 628 0 
L 628 4666 
z
" transform="scale(0.015625)"/>
        <path id="DejaVuSans-72" d="M 2631 2963 
Q 2534 3019 2420 3045 
Q 2306 3072 2169 3072 
Q 1681 3072 1420 2755 
Q 1159 2438 1159 1844 
L 1159 0 
L 581 0 
L 581 3500 
L 1159 3500 
L 1159 2956 
Q 1341 3275 1631 3429 
Q 1922 3584 2338 3584 
Q 2397 3584 2469 3576 
Q 2541 3569 2628 3553 
L 2631 2963 
z
" transform="scale(0.015625)"/>
       </defs>
       <use xlink:href="#DejaVuSans-4d"/>
       <use xlink:href="#DejaVuSans-61" transform="translate(86.279297 0)"/>
       <use xlink:href="#DejaVuSans-72" transform="translate(147.558594 0)"/>
      </g>
     </g>
    </g>
    <g id="text_7">
     <!-- Date -->
     <g style="fill: #c9d1d9" transform="translate(367.249141 346.466158) scale(0.11 -0.11)">
      <use xlink:href="#DejaVuSans-44"/>
      <use xlink:href="#DejaVuSans-61" transform="translate(77.001953 0)"/>
      <use xlink:href="#DejaVuSans-74" transform="translate(138.28125 0)"/>
      <use xlink:href="#DejaVuSans-65" transform="translate(177.490234 0)"/>
     </g>
    </g>
   </g>
   <g id="matplotlib.axis_2">
    <g id="ytick_1">
     <g id="line2d_13">
      <path d="M 51.59 270.261492 
L 709.2 270.261492 
" clip-path="url(#p078ecca96d)" style="fill: none; stroke: #30363d; stroke-opacity: 0.2; stroke-width: 0.8; stroke-linecap: square"/>
     </g>
     <g id="line2d_14">
      <defs>
       <path id="m02c7434452" d="M 0 0 
L -3.5 0 
" style="stroke: #c9d1d9; stroke-width: 0.8"/>
      </defs>
      <g>
       <use xlink:href="#m02c7434452" x="51.59" y="270.261492" style="fill: #c9d1d9; stroke: #c9d1d9; stroke-width: 0.8"/>
      </g>
     </g>
     <g id="text_8">
      <!-- 70 -->
      <g style="fill: #c9d1d9" transform="translate(31.865 274.060711) scale(0.1 -0.1)">
       <defs>
        <path id="DejaVuSans-37" d="M 525 4666 
L 3525 4666 
L 3525 4397 
L 1831 0 
L 1172 0 
L 2766 4134 
L 525 4134 
L 525 4666 
z
" transform="scale(0.015625)"/>
        <path id="DejaVuSans-30" d="M 2034 4250 
Q 1547 4250 1301 3770 
Q 1056 3291 1056 2328 
Q 1056 1369 1301 889 
Q 1547 409 2034 409 
Q 2525 409 2770 889 
Q 3016 1369 3016 2328 
Q 3016 3291 2770 3770 
Q 2525 4250 2034 4250 
z
M 2034 4750 
Q 2819 4750 3233 4129 
Q 3647 3509 3647 2328 
Q 3647 1150 3233 529 
Q 2819 -91 2034 -91 
Q 1250 -91 836 529 
Q 422 1150 422 2328 
Q 422 3509 836 4129 
Q 1250 4750 2034 4750 
z
" transform="scale(0.015625)"/>
       </defs>
       <use xlink:href="#DejaVuSans-37"/>
       <use xlink:href="#DejaVuSans-30" transform="translate(63.623047 0)"/>
      </g>
     </g>
    </g>
    <g id="ytick_2">
     <g id="line2d_15">
      <path d="M 51.59 210.425002 
L 709.2 210.425002 
" clip-path="url(#p078ecca96d)" style="fill: none; stroke: #30363d; stroke-opacity: 0.2; stroke-width: 0.8; stroke-linecap: square"/>
     </g>
     <g id="line2d_16">
      <g>
       <use xlink:href="#m02c7434452" x="51.59" y="210.425002" style="fill: #c9d1d9; stroke: #c9d1d9; stroke-width: 0.8"/>
      </g>
     </g>
     <g id="text_9">
      <!-- 80 -->
      <g style="fill: #c9d1d9" transform="translate(31.865 214.224221) scale(0.1 -0.1)">
       <defs>
        <path id="DejaVuSans-38" d="M 2034 2216 
Q 1584 2216 1326 1975 
Q 1069 1734 1069 1313 
Q 1069 891 1326 650 
Q 1584 409 2034 409 
Q 2484 409 2743 651 
Q 3003 894 3003 1313 
Q 3003 1734 2745 1975 
Q 2488 2216 2034 2216 
z
M 1403 2484 
Q 997 2584 770 2862 
Q 544 3141 544 3541 
Q 544 4100 942 4425 
Q 1341 4750 2034 4750 
Q 2731 4750 3128 4425 
Q 3525 4100 3525 3541 
Q 3525 3141 3298 2862 
Q 3072 2584 2669 2484 
Q 3125 2378 3379 2068 
Q 3634 1759 3634 1313 
Q 3634 634 3220 271 
Q 2806 -91 2034 -91 
Q 1263 -91 848 271 
Q 434 634 434 1313 
Q 434 1759 690 2068 
Q 947 2378 1403 2484 
z
M 1172 3481 
Q 1172 3119 1398 2916 
Q 1625 2713 2034 2713 
Q 2441 2713 2670 2916 
Q 2900 3119 2900 3481 
Q 2900 3844 2670 4047 
Q 2441 4250 2034 4250 
Q 1625 4250 1398 4047 
Q 1172 3844 1172 3481 
z
" transform="scale(0.015625)"/>
       </defs>
       <use xlink:href="#DejaVuSans-38"/>
       <use xlink:href="#DejaVuSans-30" transform="translate(63.623047 0)"/>
      </g>
     </g>
    </g>
    <g id="ytick_3">
     <g id="line2d_17">
      <path d="M 51.59 150.588513 
L 709.2 150.588513 
" clip-path="url(#p078ecca96d)" style="fill: none; stroke: #30363d; stroke-opacity: 0.2; stroke-width: 0.8; stroke-linecap: square"/>
     </g>
     <g id="line2d_18">
      <g>
       <use xlink:href="#m02c7434452" x="51.59" y="150.588513" style="fill: #c9d1d9; stroke: #c9d1d9; stroke-width: 0.8"/>
      </g>
     </g>
     <g id="text_10">
      <!-- 90 -->
      <g style="fill: #c9d1d9" transform="translate(31.865 154.387731) scale(0.1 -0.1)">
       <defs>
        <path id="DejaVuSans-39" d="M 703 97 
L 703 672 
Q 941 559 1184 500 
Q 1428 441 1663 441 
Q 2288 441 2617 861 
Q 2947 1281 2994 2138 
Q 2813 1869 2534 1725 
Q 2256 1581 1919 1581 
Q 1219 1581 811 2004 
Q 403 2428 403 3163 
Q 403 3881 828 4315 
Q 1253 4750 1959 4750 
Q 2769 4750 3195 4129 
Q 3622 3509 3622 2328 
Q 3622 1225 3098 567 
Q 2575 -91 1691 -91 
Q 1453 -91 1209 -44 
Q 966 3 703 97 
z
M 1959 2075 
Q 2384 2075 2632 2365 
Q 2881 2656 2881 3163 
Q 2881 3666 2632 3958 
Q 2384 4250 1959 4250 
Q 1534 4250 1286 3958 
Q 1038 3666 1038 3163 
Q 1038 2656 1286 2365 
Q 1534 2075 1959 2075 
z
" transform="scale(0.015625)"/>
       </defs>
       <use xlink:href="#DejaVuSans-39"/>
       <use xlink:href="#DejaVuSans-30" transform="translate(63.623047 0)"/>
      </g>
     </g>
    </g>
    <g id="ytick_4">
     <g id="line2d_19">
      <path d="M 51.59 90.752023 
L 709.2 90.752023 
" clip-path="url(#p078ecca96d)" style="fill: none; stroke: #30363d; stroke-opacity: 0.2; stroke-width: 0.8; stroke-linecap: square"/>
     </g>
     <g id="line2d_20">
      <g>
       <use xlink:href="#m02c7434452" x="51.59" y="90.752023" style="fill: #c9d1d9; stroke: #c9d1d9; stroke-width: 0.8"/>
      </g>
     </g>
     <g id="text_11">
      <!-- 100 -->
      <g style="fill: #c9d1d9" transform="translate(25.5025 94.551242) scale(0.1 -0.1)">
       <defs>
        <path id="DejaVuSans-31" d="M 794 531 
L 1825 531 
L 1825 4091 
L 703 3866 
L 703 4441 
L 1819 4666 
L 2450 4666 
L 2450 531 
L 3481 531 
L 3481 0 
L 794 0 
L 794 531 
z
" transform="scale(0.015625)"/>
       </defs>
       <use xlink:href="#DejaVuSans-31"/>
       <use xlink:href="#DejaVuSans-30" transform="translate(63.623047 0)"/>
       <use xlink:href="#DejaVuSans-30" transform="translate(127.246094 0)"/>
      </g>
     </g>
    </g>
    <g id="text_12">
     <!-- Count -->
     <g style="fill: #c9d1d9" transform="translate(19.214844 187.864565) rotate(-90) scale(0.11 -0.11)">
      <defs>
       <path id="DejaVuSans-43" d="M 4122 4306 
L 4122 3641 
Q 3803 3938 3442 4084 
Q 3081 4231 2675 4231 
Q 1875 4231 1450 3742 
Q 1025 3253 1025 2328 
Q 1025 1406 1450 917 
Q 1875 428 2675 428 
Q 3081 428 3442 575 
Q 3803 722 4122 1019 
L 4122 359 
Q 3791 134 3420 21 
Q 3050 -91 2638 -91 
Q 1578 -91 968 557 
Q 359 1206 359 2328 
Q 359 3453 968 4101 
Q 1578 4750 2638 4750 
Q 3056 4750 3426 4639 
Q 3797 4528 4122 4306 
z
" transform="scale(0.015625)"/>
       <path id="DejaVuSans-75" d="M 544 1381 
L 544 3500 
L 1119 3500 
L 1119 1403 
Q 1119 906 1312 657 
Q 1506 409 1894 409 
Q 2359 409 2629 706 
Q 2900 1003 2900 1516 
L 2900 3500 
L 3475 3500 
L 3475 0 
L 2900 0 
L 2900 538 
Q 2691 219 2414 64 
Q 2138 -91 1772 -91 
Q 1169 -91 856 284 
Q 544 659 544 1381 
z
M 1991 3584 
L 1991 3584 
z
" transform="scale(0.015625)"/>
      </defs>
      <use xlink:href="#DejaVuSans-43"/>
      <use xlink:href="#DejaVuSans-6f" transform="translate(69.824219 0)"/>
      <use xlink:href="#DejaVuSans-75" transform="translate(131.005859 0)"/>
      <use xlink:href="#DejaVuSans-6e" transform="translate(194.384766 0)"/>
      <use xlink:href="#DejaVuSans-74" transform="translate(257.763672 0)"/>
     </g>
    </g>
   </g>
   <g id="line2d_21">
    <path d="M 81.481364 294.196088 
L 199.473589 294.196088 
L 227.005108 252.310545 
L 230.938182 252.310545 
L 234.871256 246.326896 
L 246.670478 246.326896 
L 250.603553 252.310545 
L 309.599665 252.310545 
L 313.532739 246.326896 
L 329.265036 246.326896 
L 337.131184 234.359598 
L 356.796555 234.359598 
L 360.729629 228.375949 
L 368.595778 228.375949 
L 372.528852 222.3923 
L 388.261148 222.3923 
L 392.194222 216.408651 
L 403.993445 216.408651 
L 407.926519 210.425002 
L 423.658816 210.425002 
L 427.59189 192.474055 
L 435.458038 192.474055 
L 439.391112 186.490407 
L 470.855706 186.490407 
L 474.78878 180.506758 
L 478.721854 180.506758 
L 486.588002 174.523109 
L 490.521077 174.523109 
L 498.387225 162.555811 
L 510.186447 162.555811 
L 514.119522 114.686619 
L 557.383337 114.686619 
L 561.316411 108.70297 
L 573.115634 108.70297 
L 577.048708 102.719321 
L 580.981782 102.719321 
L 584.914856 96.735672 
L 647.844043 96.735672 
L 651.777117 54.850129 
L 675.375562 54.850129 
L 679.308636 48.86648 
L 679.308636 48.86648 
" clip-path="url(#p078ecca96d)" style="fill: none; stroke: #3fb950; stroke-width: 2.5; stroke-linecap: square"/>
    <defs>
     <path id="m41f27d31e4" d="M 0 2.5 
C 0.663008 2.5 1.29895 2.236584 1.767767 1.767767 
C 2.236584 1.29895 2.5 0.663008 2.5 0 
C 2.5 -0.663008 2.236584 -1.29895 1.767767 -1.767767 
C 1.29895 -2.236584 0.663008 -2.5 0 -2.5 
C -0.663008 -2.5 -1.29895 -2.236584 -1.767767 -1.767767 
C -2.236584 -1.29895 -2.5 -0.663008 -2.5 0 
C -2.5 0.663008 -2.236584 1.29895 -1.767767 1.767767 
C -1.29895 2.236584 -0.663008 2.5 0 2.5 
z
" style="stroke: #3fb950"/>
    </defs>
    <g clip-path="url(#p078ecca96d)">
     <use xlink:href="#m41f27d31e4" x="81.481364" y="294.196088" style="fill: #3fb950; stroke: #3fb950"/>
     <use xlink:href="#m41f27d31e4" x="85.414438" y="294.196088" style="fill: #3fb950; stroke: #3fb950"/>
     <use xlink:href="#m41f27d31e4" x="89.347512" y="294.196088" style="fill: #3fb950; stroke: #3fb950"/>
     <use xlink:href="#m41f27d31e4" x="93.280586" y="294.196088" style="fill: #3fb950; stroke: #3fb950"/>
     <use xlink:href="#m41f27d31e4" x="97.21366" y="294.196088" style="fill: #3fb950; stroke: #3fb950"/>
     <use xlink:href="#m41f27d31e4" x="101.146734" y="294.196088" style="fill: #3fb950; stroke: #3fb950"/>
     <use xlink:href="#m41f27d31e4" x="105.079809" y="294.196088" style="fill: #3fb950; stroke: #3fb950"/>
     <use xlink:href="#m41f27d31e4" x="109.012883" y="294.196088" style="fill: #3fb950; stroke: #3fb950"/>
     <use xlink:href="#m41f27d31e4" x="112.945957" y="294.196088" style="fill: #3fb950; stroke: #3fb950"/>
     <use xlink:href="#m41f27d31e4" x="116.879031" y="294.196088" style="fill: #3fb950; stroke: #3fb950"/>
     <use xlink:href="#m41f27d31e4" x="120.812105" y="294.196088" style="fill: #3fb950; stroke: #3fb950"/>
     <use xlink:href="#m41f27d31e4" x="124.745179" y="294.196088" style="fill: #3fb950; stroke: #3fb950"/>
     <use xlink:href="#m41f27d31e4" x="128.678254" y="294.196088" style="fill: #3fb950; stroke: #3fb950"/>
     <use xlink:href="#m41f27d31e4" x="132.611328" y="294.196088" style="fill: #3fb950; stroke: #3fb950"/>
     <use xlink:href="#m41f27d31e4" x="136.544402" y="294.196088" style="fill: #3fb950; stroke: #3fb950"/>
     <use xlink:href="#m41f27d31e4" x="140.477476" y="294.196088" style="fill: #3fb950; stroke: #3fb950"/>
     <use xlink:href="#m41f27d31e4" x="144.41055" y="294.196088" style="fill: #3fb950; stroke: #3fb950"/>
     <use xlink:href="#m41f27d31e4" x="148.343624" y="294.196088" style="fill: #3fb950; stroke: #3fb950"/>
     <use xlink:href="#m41f27d31e4" x="152.276699" y="294.196088" style="fill: #3fb950; stroke: #3fb950"/>
     <use xlink:href="#m41f27d31e4" x="156.209773" y="294.196088" style="fill: #3fb950; stroke: #3fb950"/>
     <use xlink:href="#m41f27d31e4" x="160.142847" y="294.196088" style="fill: #3fb950; stroke: #3fb950"/>
     <use xlink:href="#m41f27d31e4" x="164.075921" y="294.196088" style="fill: #3fb950; stroke: #3fb950"/>
     <use xlink:href="#m41f27d31e4" x="168.008995" y="294.196088" style="fill: #3fb950; stroke: #3fb950"/>
     <use xlink:href="#m41f27d31e4" x="171.942069" y="294.196088" style="fill: #3fb950; stroke: #3fb950"/>
     <use xlink:href="#m41f27d31e4" x="175.875144" y="294.196088" style="fill: #3fb950; stroke: #3fb950"/>
     <use xlink:href="#m41f27d31e4" x="179.808218" y="294.196088" style="fill: #3fb950; stroke: #3fb950"/>
     <use xlink:href="#m41f27d31e4" x="183.741292" y="294.196088" style="fill: #3fb950; stroke: #3fb950"/>
     <use xlink:href="#m41f27d31e4" x="187.674366" y="294.196088" style="fill: #3fb950; stroke: #3fb950"/>
     <use xlink:href="#m41f27d31e4" x="191.60744" y="294.196088" style="fill: #3fb950; stroke: #3fb950"/>
     <use xlink:href="#m41f27d31e4" x="195.540514" y="294.196088" style="fill: #3fb950; stroke: #3fb950"/>
     <use xlink:href="#m41f27d31e4" x="199.473589" y="294.196088" style="fill: #3fb950; stroke: #3fb950"/>
     <use xlink:href="#m41f27d31e4" x="227.005108" y="252.310545" style="fill: #3fb950; stroke: #3fb950"/>
     <use xlink:href="#m41f27d31e4" x="230.938182" y="252.310545" style="fill: #3fb950; stroke: #3fb950"/>
     <use xlink:href="#m41f27d31e4" x="234.871256" y="246.326896" style="fill: #3fb950; stroke: #3fb950"/>
     <use xlink:href="#m41f27d31e4" x="238.80433" y="246.326896" style="fill: #3fb950; stroke: #3fb950"/>
     <use xlink:href="#m41f27d31e4" x="242.737404" y="246.326896" style="fill: #3fb950; stroke: #3fb950"/>
     <use xlink:href="#m41f27d31e4" x="246.670478" y="246.326896" style="fill: #3fb950; stroke: #3fb950"/>
     <use xlink:href="#m41f27d31e4" x="250.603553" y="252.310545" style="fill: #3fb950; stroke: #3fb950"/>
     <use xlink:href="#m41f27d31e4" x="254.536627" y="252.310545" style="fill: #3fb950; stroke: #3fb950"/>
     <use xlink:href="#m41f27d31e4" x="258.469701" y="252.310545" style="fill: #3fb950; stroke: #3fb950"/>
     <use xlink:href="#m41f27d31e4" x="262.402775" y="252.310545" style="fill: #3fb950; stroke: #3fb950"/>
     <use xlink:href="#m41f27d31e4" x="266.335849" y="252.310545" style="fill: #3fb950; stroke: #3fb950"/>
     <use xlink:href="#m41f27d31e4" x="270.268923" y="252.310545" style="fill: #3fb950; stroke: #3fb950"/>
     <use xlink:href="#m41f27d31e4" x="274.201998" y="252.310545" style="fill: #3fb950; stroke: #3fb950"/>
     <use xlink:href="#m41f27d31e4" x="278.135072" y="252.310545" style="fill: #3fb950; stroke: #3fb950"/>
     <use xlink:href="#m41f27d31e4" x="282.068146" y="252.310545" style="fill: #3fb950; stroke: #3fb950"/>
     <use xlink:href="#m41f27d31e4" x="286.00122" y="252.310545" style="fill: #3fb950; stroke: #3fb950"/>
     <use xlink:href="#m41f27d31e4" x="289.934294" y="252.310545" style="fill: #3fb950; stroke: #3fb950"/>
     <use xlink:href="#m41f27d31e4" x="293.867368" y="252.310545" style="fill: #3fb950; stroke: #3fb950"/>
     <use xlink:href="#m41f27d31e4" x="297.800443" y="252.310545" style="fill: #3fb950; stroke: #3fb950"/>
     <use xlink:href="#m41f27d31e4" x="301.733517" y="252.310545" style="fill: #3fb950; stroke: #3fb950"/>
     <use xlink:href="#m41f27d31e4" x="305.666591" y="252.310545" style="fill: #3fb950; stroke: #3fb950"/>
     <use xlink:href="#m41f27d31e4" x="309.599665" y="252.310545" style="fill: #3fb950; stroke: #3fb950"/>
     <use xlink:href="#m41f27d31e4" x="313.532739" y="246.326896" style="fill: #3fb950; stroke: #3fb950"/>
     <use xlink:href="#m41f27d31e4" x="317.465813" y="246.326896" style="fill: #3fb950; stroke: #3fb950"/>
     <use xlink:href="#m41f27d31e4" x="321.398888" y="246.326896" style="fill: #3fb950; stroke: #3fb950"/>
     <use xlink:href="#m41f27d31e4" x="325.331962" y="246.326896" style="fill: #3fb950; stroke: #3fb950"/>
     <use xlink:href="#m41f27d31e4" x="329.265036" y="246.326896" style="fill: #3fb950; stroke: #3fb950"/>
     <use xlink:href="#m41f27d31e4" x="333.19811" y="240.343247" style="fill: #3fb950; stroke: #3fb950"/>
     <use xlink:href="#m41f27d31e4" x="337.131184" y="234.359598" style="fill: #3fb950; stroke: #3fb950"/>
     <use xlink:href="#m41f27d31e4" x="341.064258" y="234.359598" style="fill: #3fb950; stroke: #3fb950"/>
     <use xlink:href="#m41f27d31e4" x="344.997333" y="234.359598" style="fill: #3fb950; stroke: #3fb950"/>
     <use xlink:href="#m41f27d31e4" x="348.930407" y="234.359598" style="fill: #3fb950; stroke: #3fb950"/>
     <use xlink:href="#m41f27d31e4" x="352.863481" y="234.359598" style="fill: #3fb950; stroke: #3fb950"/>
     <use xlink:href="#m41f27d31e4" x="356.796555" y="234.359598" style="fill: #3fb950; stroke: #3fb950"/>
     <use xlink:href="#m41f27d31e4" x="360.729629" y="228.375949" style="fill: #3fb950; stroke: #3fb950"/>
     <use xlink:href="#m41f27d31e4" x="364.662703" y="228.375949" style="fill: #3fb950; stroke: #3fb950"/>
     <use xlink:href="#m41f27d31e4" x="368.595778" y="228.375949" style="fill: #3fb950; stroke: #3fb950"/>
     <use xlink:href="#m41f27d31e4" x="372.528852" y="222.3923" style="fill: #3fb950; stroke: #3fb950"/>
     <use xlink:href="#m41f27d31e4" x="376.461926" y="222.3923" style="fill: #3fb950; stroke: #3fb950"/>
     <use xlink:href="#m41f27d31e4" x="380.395" y="222.3923" style="fill: #3fb950; stroke: #3fb950"/>
     <use xlink:href="#m41f27d31e4" x="384.328074" y="222.3923" style="fill: #3fb950; stroke: #3fb950"/>
     <use xlink:href="#m41f27d31e4" x="388.261148" y="222.3923" style="fill: #3fb950; stroke: #3fb950"/>
     <use xlink:href="#m41f27d31e4" x="392.194222" y="216.408651" style="fill: #3fb950; stroke: #3fb950"/>
     <use xlink:href="#m41f27d31e4" x="396.127297" y="216.408651" style="fill: #3fb950; stroke: #3fb950"/>
     <use xlink:href="#m41f27d31e4" x="400.060371" y="216.408651" style="fill: #3fb950; stroke: #3fb950"/>
     <use xlink:href="#m41f27d31e4" x="403.993445" y="216.408651" style="fill: #3fb950; stroke: #3fb950"/>
     <use xlink:href="#m41f27d31e4" x="407.926519" y="210.425002" style="fill: #3fb950; stroke: #3fb950"/>
     <use xlink:href="#m41f27d31e4" x="411.859593" y="210.425002" style="fill: #3fb950; stroke: #3fb950"/>
     <use xlink:href="#m41f27d31e4" x="415.792667" y="210.425002" style="fill: #3fb950; stroke: #3fb950"/>
     <use xlink:href="#m41f27d31e4" x="419.725742" y="210.425002" style="fill: #3fb950; stroke: #3fb950"/>
     <use xlink:href="#m41f27d31e4" x="423.658816" y="210.425002" style="fill: #3fb950; stroke: #3fb950"/>
     <use xlink:href="#m41f27d31e4" x="427.59189" y="192.474055" style="fill: #3fb950; stroke: #3fb950"/>
     <use xlink:href="#m41f27d31e4" x="431.524964" y="192.474055" style="fill: #3fb950; stroke: #3fb950"/>
     <use xlink:href="#m41f27d31e4" x="435.458038" y="192.474055" style="fill: #3fb950; stroke: #3fb950"/>
     <use xlink:href="#m41f27d31e4" x="439.391112" y="186.490407" style="fill: #3fb950; stroke: #3fb950"/>
     <use xlink:href="#m41f27d31e4" x="443.324187" y="186.490407" style="fill: #3fb950; stroke: #3fb950"/>
     <use xlink:href="#m41f27d31e4" x="447.257261" y="186.490407" style="fill: #3fb950; stroke: #3fb950"/>
     <use xlink:href="#m41f27d31e4" x="451.190335" y="186.490407" style="fill: #3fb950; stroke: #3fb950"/>
     <use xlink:href="#m41f27d31e4" x="455.123409" y="186.490407" style="fill: #3fb950; stroke: #3fb950"/>
     <use xlink:href="#m41f27d31e4" x="459.056483" y="186.490407" style="fill: #3fb950; stroke: #3fb950"/>
     <use xlink:href="#m41f27d31e4" x="462.989557" y="186.490407" style="fill: #3fb950; stroke: #3fb950"/>
     <use xlink:href="#m41f27d31e4" x="466.922632" y="186.490407" style="fill: #3fb950; stroke: #3fb950"/>
     <use xlink:href="#m41f27d31e4" x="470.855706" y="186.490407" style="fill: #3fb950; stroke: #3fb950"/>
     <use xlink:href="#m41f27d31e4" x="474.78878" y="180.506758" style="fill: #3fb950; stroke: #3fb950"/>
     <use xlink:href="#m41f27d31e4" x="478.721854" y="180.506758" style="fill: #3fb950; stroke: #3fb950"/>
     <use xlink:href="#m41f27d31e4" x="486.588002" y="174.523109" style="fill: #3fb950; stroke: #3fb950"/>
     <use xlink:href="#m41f27d31e4" x="490.521077" y="174.523109" style="fill: #3fb950; stroke: #3fb950"/>
     <use xlink:href="#m41f27d31e4" x="494.454151" y="168.53946" style="fill: #3fb950; stroke: #3fb950"/>
     <use xlink:href="#m41f27d31e4" x="498.387225" y="162.555811" style="fill: #3fb950; stroke: #3fb950"/>
     <use xlink:href="#m41f27d31e4" x="502.320299" y="162.555811" style="fill: #3fb950; stroke: #3fb950"/>
     <use xlink:href="#m41f27d31e4" x="506.253373" y="162.555811" style="fill: #3fb950; stroke: #3fb950"/>
     <use xlink:href="#m41f27d31e4" x="510.186447" y="162.555811" style="fill: #3fb950; stroke: #3fb950"/>
     <use xlink:href="#m41f27d31e4" x="514.119522" y="114.686619" style="fill: #3fb950; stroke: #3fb950"/>
     <use xlink:href="#m41f27d31e4" x="518.052596" y="114.686619" style="fill: #3fb950; stroke: #3fb950"/>
     <use xlink:href="#m41f27d31e4" x="521.98567" y="114.686619" style="fill: #3fb950; stroke: #3fb950"/>
     <use xlink:href="#m41f27d31e4" x="525.918744" y="114.686619" style="fill: #3fb950; stroke: #3fb950"/>
     <use xlink:href="#m41f27d31e4" x="529.851818" y="114.686619" style="fill: #3fb950; stroke: #3fb950"/>
     <use xlink:href="#m41f27d31e4" x="533.784892" y="114.686619" style="fill: #3fb950; stroke: #3fb950"/>
     <use xlink:href="#m41f27d31e4" x="537.717967" y="114.686619" style="fill: #3fb950; stroke: #3fb950"/>
     <use xlink:href="#m41f27d31e4" x="541.651041" y="114.686619" style="fill: #3fb950; stroke: #3fb950"/>
     <use xlink:href="#m41f27d31e4" x="545.584115" y="114.686619" style="fill: #3fb950; stroke: #3fb950"/>
     <use xlink:href="#m41f27d31e4" x="549.517189" y="114.686619" style="fill: #3fb950; stroke: #3fb950"/>
     <use xlink:href="#m41f27d31e4" x="553.450263" y="114.686619" style="fill: #3fb950; stroke: #3fb950"/>
     <use xlink:href="#m41f27d31e4" x="557.383337" y="114.686619" style="fill: #3fb950; stroke: #3fb950"/>
     <use xlink:href="#m41f27d31e4" x="561.316411" y="108.70297" style="fill: #3fb950; stroke: #3fb950"/>
     <use xlink:href="#m41f27d31e4" x="565.249486" y="108.70297" style="fill: #3fb950; stroke: #3fb950"/>
     <use xlink:href="#m41f27d31e4" x="569.18256" y="108.70297" style="fill: #3fb950; stroke: #3fb950"/>
     <use xlink:href="#m41f27d31e4" x="573.115634" y="108.70297" style="fill: #3fb950; stroke: #3fb950"/>
     <use xlink:href="#m41f27d31e4" x="577.048708" y="102.719321" style="fill: #3fb950; stroke: #3fb950"/>
     <use xlink:href="#m41f27d31e4" x="580.981782" y="102.719321" style="fill: #3fb950; stroke: #3fb950"/>
     <use xlink:href="#m41f27d31e4" x="584.914856" y="96.735672" style="fill: #3fb950; stroke: #3fb950"/>
     <use xlink:href="#m41f27d31e4" x="588.847931" y="96.735672" style="fill: #3fb950; stroke: #3fb950"/>
     <use xlink:href="#m41f27d31e4" x="592.781005" y="96.735672" style="fill: #3fb950; stroke: #3fb950"/>
     <use xlink:href="#m41f27d31e4" x="596.714079" y="96.735672" style="fill: #3fb950; stroke: #3fb950"/>
     <use xlink:href="#m41f27d31e4" x="600.647153" y="96.735672" style="fill: #3fb950; stroke: #3fb950"/>
     <use xlink:href="#m41f27d31e4" x="604.580227" y="96.735672" style="fill: #3fb950; stroke: #3fb950"/>
     <use xlink:href="#m41f27d31e4" x="608.513301" y="96.735672" style="fill: #3fb950; stroke: #3fb950"/>
     <use xlink:href="#m41f27d31e4" x="612.446376" y="96.735672" style="fill: #3fb950; stroke: #3fb950"/>
     <use xlink:href="#m41f27d31e4" x="616.37945" y="96.735672" style="fill: #3fb950; stroke: #3fb950"/>
     <use xlink:href="#m41f27d31e4" x="620.312524" y="96.735672" style="fill: #3fb950; stroke: #3fb950"/>
     <use xlink:href="#m41f27d31e4" x="624.245598" y="96.735672" style="fill: #3fb950; stroke: #3fb950"/>
     <use xlink:href="#m41f27d31e4" x="628.178672" y="96.735672" style="fill: #3fb950; stroke: #3fb950"/>
     <use xlink:href="#m41f27d31e4" x="632.111746" y="96.735672" style="fill: #3fb950; stroke: #3fb950"/>
     <use xlink:href="#m41f27d31e4" x="636.044821" y="96.735672" style="fill: #3fb950; stroke: #3fb950"/>
     <use xlink:href="#m41f27d31e4" x="639.977895" y="96.735672" style="fill: #3fb950; stroke: #3fb950"/>
     <use xlink:href="#m41f27d31e4" x="643.910969" y="96.735672" style="fill: #3fb950; stroke: #3fb950"/>
     <use xlink:href="#m41f27d31e4" x="647.844043" y="96.735672" style="fill: #3fb950; stroke: #3fb950"/>
     <use xlink:href="#m41f27d31e4" x="651.777117" y="54.850129" style="fill: #3fb950; stroke: #3fb950"/>
     <use xlink:href="#m41f27d31e4" x="655.710191" y="54.850129" style="fill: #3fb950; stroke: #3fb950"/>
     <use xlink:href="#m41f27d31e4" x="659.643266" y="54.850129" style="fill: #3fb950; stroke: #3fb950"/>
     <use xlink:href="#m41f27d31e4" x="663.57634" y="54.850129" style="fill: #3fb950; stroke: #3fb950"/>
     <use xlink:href="#m41f27d31e4" x="667.509414" y="54.850129" style="fill: #3fb950; stroke: #3fb950"/>
     <use xlink:href="#m41f27d31e4" x="671.442488" y="54.850129" style="fill: #3fb950; stroke: #3fb950"/>
     <use xlink:href="#m41f27d31e4" x="675.375562" y="54.850129" style="fill: #3fb950; stroke: #3fb950"/>
     <use xlink:href="#m41f27d31e4" x="679.308636" y="48.86648" style="fill: #3fb950; stroke: #3fb950"/>
    </g>
   </g>
   <g id="patch_3">
    <path d="M 51.59 306.462568 
L 51.59 36.6 
" style="fill: none; stroke: #30363d; stroke-width: 0.8; stroke-linejoin: miter; stroke-linecap: square"/>
   </g>
   <g id="patch_4">
    <path d="M 709.2 306.462568 
L 709.2 36.6 
" style="fill: none; stroke: #30363d; stroke-width: 0.8; stroke-linejoin: miter; stroke-linecap: square"/>
   </g>
   <g id="patch_5">
    <path d="M 51.59 306.462568 
L 709.2 306.462568 
" style="fill: none; stroke: #30363d; stroke-width: 0.8; stroke-linejoin: miter; stroke-linecap: square"/>
   </g>
   <g id="patch_6">
    <path d="M 51.59 36.6 
L 709.2 36.6 
" style="fill: none; stroke: #30363d; stroke-width: 0.8; stroke-linejoin: miter; stroke-linecap: square"/>
   </g>
   <g id="text_13">
    <g id="patch_7">
     <path d="M 626.54155 64.039066 
L 696.0478 64.039066 
Q 699.3478 64.039066 699.3478 60.739066 
L 699.3478 50.093128 
Q 699.3478 46.793128 696.0478 46.793128 
L 626.54155 46.793128 
Q 623.24155 46.793128 623.24155 50.093128 
L 623.24155 60.739066 
Q 623.24155 64.039066 626.54155 64.039066 
z
" style="fill: #30363d; opacity: 0.8; stroke: #3fb950; stroke-linejoin: miter"/>
    </g>
    <!-- Current: 107 -->
    <g style="fill: #c9d1d9" transform="translate(626.54155 58.45141) scale(0.11 -0.11)">
     <defs>
      <path id="DejaVuSans-3a" d="M 750 794 
L 1409 794 
L 1409 0 
L 750 0 
L 750 794 
z
M 750 3309 
L 1409 3309 
L 1409 2516 
L 750 2516 
L 750 3309 
z
" transform="scale(0.015625)"/>
      <path id="DejaVuSans-20" transform="scale(0.015625)"/>
     </defs>
     <use xlink:href="#DejaVuSans-43"/>
     <use xlink:href="#DejaVuSans-75" transform="translate(69.824219 0)"/>
     <use xlink:href="#DejaVuSans-72" transform="translate(133.203125 0)"/>
     <use xlink:href="#DejaVuSans-72" transform="translate(172.566406 0)"/>
     <use xlink:href="#DejaVuSans-65" transform="translate(211.429688 0)"/>
     <use xlink:href="#DejaVuSans-6e" transform="translate(272.953125 0)"/>
     <use xlink:href="#DejaVuSans-74" transform="translate(336.332031 0)"/>
     <use xlink:href="#DejaVuSans-3a" transform="translate(375.541016 0)"/>
     <use xlink:href="#DejaVuSans-20" transform="translate(409.232422 0)"/>
     <use xlink:href="#DejaVuSans-31" transform="translate(441.019531 0)"/>
     <use xlink:href="#DejaVuSans-30" transform="translate(504.642578 0)"/>
     <use xlink:href="#DejaVuSans-37" transform="translate(568.265625 0)"/>
    </g>
   </g>
   <g id="text_14">
    <!-- Total Repository Stars -->
    <g style="fill: #c9d1d9" transform="translate(292.972656 21.6) scale(0.14 -0.14)">
     <defs>
      <path id="DejaVuSans-Bold-54" d="M 31 4666 
L 4331 4666 
L 4331 3756 
L 2784 3756 
L 2784 0 
L 1581 0 
L 1581 3756 
L 31 3756 
L 31 4666 
z
" transform="scale(0.015625)"/>
      <path id="DejaVuSans-Bold-6f" d="M 2203 2784 
Q 1831 2784 1636 2517 
Q 1441 2250 1441 1747 
Q 1441 1244 1636 976 
Q 1831 709 2203 709 
Q 2569 709 2762 976 
Q 2956 1244 2956 1747 
Q 2956 2250 2762 2517 
Q 2569 2784 2203 2784 
z
M 2203 3584 
Q 3106 3584 3614 3096 
Q 4122 2609 4122 1747 
Q 4122 884 3614 396 
Q 3106 -91 2203 -91 
Q 1297 -91 786 396 
Q 275 884 275 1747 
Q 275 2609 786 3096 
Q 1297 3584 2203 3584 
z
" transform="scale(0.015625)"/>
      <path id="DejaVuSans-Bold-74" d="M 1759 4494 
L 1759 3500 
L 2913 3500 
L 2913 2700 
L 1759 2700 
L 1759 1216 
Q 1759 972 1856 886 
Q 1953 800 2241 800 
L 2816 800 
L 2816 0 
L 1856 0 
Q 1194 0 917 276 
Q 641 553 641 1216 
L 641 2700 
L 84 2700 
L 84 3500 
L 641 3500 
L 641 4494 
L 1759 4494 
z
" transform="scale(0.015625)"/>
      <path id="DejaVuSans-Bold-61" d="M 2106 1575 
Q 1756 1575 1579 1456 
Q 1403 1338 1403 1106 
Q 1403 894 1545 773 
Q 1688 653 1941 653 
Q 2256 653 2472 879 
Q 2688 1106 2688 1447 
L 2688 1575 
L 2106 1575 
z
M 3816 1997 
L 3816 0 
L 2688 0 
L 2688 519 
Q 2463 200 2181 54 
Q 1900 -91 1497 -91 
Q 953 -91 614 226 
Q 275 544 275 1050 
Q 275 1666 698 1953 
Q 1122 2241 2028 2241 
L 2688 2241 
L 2688 2328 
Q 2688 2594 2478 2717 
Q 2269 2841 1825 2841 
Q 1466 2841 1156 2769 
Q 847 2697 581 2553 
L 581 3406 
Q 941 3494 1303 3539 
Q 1666 3584 2028 3584 
Q 2975 3584 3395 3211 
Q 3816 2838 3816 1997 
z
" transform="scale(0.015625)"/>
      <path id="DejaVuSans-Bold-6c" d="M 538 4863 
L 1656 4863 
L 1656 0 
L 538 0 
L 538 4863 
z
" transform="scale(0.015625)"/>
      <path id="DejaVuSans-Bold-20" transform="scale(0.015625)"/>
      <path id="DejaVuSans-Bold-52" d="M 2297 2597 
Q 2675 2597 2839 2737 
Q 3003 2878 3003 3200 
Q 3003 3519 2839 3656 
Q 2675 3794 2297 3794 
L 1791 3794 
L 1791 2597 
L 2297 2597 
z
M 1791 1766 
L 1791 0 
L 588 0 
L 588 4666 
L 2425 4666 
Q 3347 4666 3776 4356 
Q 4206 4047 4206 3378 
Q 4206 2916 3982 2619 
Q 3759 2322 3309 2181 
Q 3556 2125 3751 1926 
Q 3947 1728 4147 1325 
L 4800 0 
L 3519 0 
L 2950 1159 
Q 2778 1509 2601 1637 
Q 2425 1766 2131 1766 
L 1791 1766 
z
" transform="scale(0.015625)"/>
      <path id="DejaVuSans-Bold-65" d="M 4031 1759 
L 4031 1441 
L 1416 1441 
Q 1456 1047 1700 850 
Q 1944 653 2381 653 
Q 2734 653 3104 758 
Q 3475 863 3866 1075 
L 3866 213 
Q 3469 63 3072 -14 
Q 2675 -91 2278 -91 
Q 1328 -91 801 392 
Q 275 875 275 1747 
Q 275 2603 792 3093 
Q 1309 3584 2216 3584 
Q 3041 3584 3536 3087 
Q 4031 2591 4031 1759 
z
M 2881 2131 
Q 2881 2450 2695 2645 
Q 2509 2841 2209 2841 
Q 1884 2841 1681 2658 
Q 1478 2475 1428 2131 
L 2881 2131 
z
" transform="scale(0.015625)"/>
      <path id="DejaVuSans-Bold-70" d="M 1656 506 
L 1656 -1331 
L 538 -1331 
L 538 3500 
L 1656 3500 
L 1656 2988 
Q 1888 3294 2169 3439 
Q 2450 3584 2816 3584 
Q 3463 3584 3878 3070 
Q 4294 2556 4294 1747 
Q 4294 938 3878 423 
Q 3463 -91 2816 -91 
Q 2450 -91 2169 54 
Q 1888 200 1656 506 
z
M 2400 2772 
Q 2041 2772 1848 2508 
Q 1656 2244 1656 1747 
Q 1656 1250 1848 986 
Q 2041 722 2400 722 
Q 2759 722 2948 984 
Q 3138 1247 3138 1747 
Q 3138 2247 2948 2509 
Q 2759 2772 2400 2772 
z
" transform="scale(0.015625)"/>
      <path id="DejaVuSans-Bold-73" d="M 3272 3391 
L 3272 2541 
Q 2913 2691 2578 2766 
Q 2244 2841 1947 2841 
Q 1628 2841 1473 2761 
Q 1319 2681 1319 2516 
Q 1319 2381 1436 2309 
Q 1553 2238 1856 2203 
L 2053 2175 
Q 2913 2066 3209 1816 
Q 3506 1566 3506 1031 
Q 3506 472 3093 190 
Q 2681 -91 1863 -91 
Q 1516 -91 1145 -36 
Q 775 19 384 128 
L 384 978 
Q 719 816 1070 734 
Q 1422 653 1784 653 
Q 2113 653 2278 743 
Q 2444 834 2444 1013 
Q 2444 1163 2330 1236 
Q 2216 1309 1875 1350 
L 1678 1375 
Q 931 1469 631 1722 
Q 331 1975 331 2491 
Q 331 3047 712 3315 
Q 1094 3584 1881 3584 
Q 2191 3584 2531 3537 
Q 2872 3491 3272 3391 
z
" transform="scale(0.015625)"/>
      <path id="DejaVuSans-Bold-69" d="M 538 3500 
L 1656 3500 
L 1656 0 
L 538 0 
L 538 3500 
z
M 538 4863 
L 1656 4863 
L 1656 3950 
L 538 3950 
L 538 4863 
z
" transform="scale(0.015625)"/>
      <path id="DejaVuSans-Bold-72" d="M 3138 2547 
Q 2991 2616 2845 2648 
Q 2700 2681 2553 2681 
Q 2122 2681 1889 2404 
Q 1656 2128 1656 1613 
L 1656 0 
L 538 0 
L 538 3500 
L 1656 3500 
L 1656 2925 
Q 1872 3269 2151 3426 
Q 2431 3584 2822 3584 
Q 2878 3584 2943 3579 
Q 3009 3575 3134 3559 
L 3138 2547 
z
" transform="scale(0.015625)"/>
      <path id="DejaVuSans-Bold-79" d="M 78 3500 
L 1197 3500 
L 2138 1125 
L 2938 3500 
L 4056 3500 
L 2584 -331 
Q 2363 -916 2067 -1148 
Q 1772 -1381 1288 -1381 
L 641 -1381 
L 641 -647 
L 991 -647 
Q 1275 -647 1404 -556 
Q 1534 -466 1606 -231 
L 1638 -134 
L 78 3500 
z
" transform="scale(0.015625)"/>
      <path id="DejaVuSans-Bold-53" d="M 3834 4519 
L 3834 3531 
Q 3450 3703 3084 3790 
Q 2719 3878 2394 3878 
Q 1963 3878 1756 3759 
Q 1550 3641 1550 3391 
Q 1550 3203 1689 3098 
Q 1828 2994 2194 2919 
L 2706 2816 
Q 3484 2659 3812 2340 
Q 4141 2022 4141 1434 
Q 4141 663 3683 286 
Q 3225 -91 2284 -91 
Q 1841 -91 1394 -6 
Q 947 78 500 244 
L 500 1259 
Q 947 1022 1364 901 
Q 1781 781 2169 781 
Q 2563 781 2772 912 
Q 2981 1044 2981 1288 
Q 2981 1506 2839 1625 
Q 2697 1744 2272 1838 
L 1806 1941 
Q 1106 2091 782 2419 
Q 459 2747 459 3303 
Q 459 4000 909 4375 
Q 1359 4750 2203 4750 
Q 2588 4750 2994 4692 
Q 3400 4634 3834 4519 
z
" transform="scale(0.015625)"/>
     </defs>
     <use xlink:href="#DejaVuSans-Bold-54"/>
     <use xlink:href="#DejaVuSans-Bold-6f" transform="translate(54.962891 0)"/>
     <use xlink:href="#DejaVuSans-Bold-74" transform="translate(123.664062 0)"/>
     <use xlink:href="#DejaVuSans-Bold-61" transform="translate(171.466797 0)"/>
     <use xlink:href="#DejaVuSans-Bold-6c" transform="translate(238.947266 0)"/>
     <use xlink:href="#DejaVuSans-Bold-20" transform="translate(273.224609 0)"/>
     <use xlink:href="#DejaVuSans-Bold-52" transform="translate(308.039062 0)"/>
     <use xlink:href="#DejaVuSans-Bold-65" transform="translate(385.041016 0)"/>
     <use xlink:href="#DejaVuSans-Bold-70" transform="translate(452.863281 0)"/>
     <use xlink:href="#DejaVuSans-Bold-6f" transform="translate(524.445312 0)"/>
     <use xlink:href="#DejaVuSans-Bold-73" transform="translate(593.146484 0)"/>
     <use xlink:href="#DejaVuSans-Bold-69" transform="translate(652.667969 0)"/>
     <use xlink:href="#DejaVuSans-Bold-74" transform="translate(686.945312 0)"/>
     <use xlink:href="#DejaVuSans-Bold-6f" transform="translate(734.748047 0)"/>
     <use xlink:href="#DejaVuSans-Bold-72" transform="translate(803.449219 0)"/>
     <use xlink:href="#DejaVuSans-Bold-79" transform="translate(852.765625 0)"/>
     <use xlink:href="#DejaVuSans-Bold-20" transform="translate(917.951172 0)"/>
     <use xlink:href="#DejaVuSans-Bold-53" transform="translate(952.765625 0)"/>
     <use xlink:href="#DejaVuSans-Bold-74" transform="translate(1024.787109 0)"/>
     <use xlink:href="#DejaVuSans-Bold-61" transform="translate(1072.589844 0)"/>
     <use xlink:href="#DejaVuSans-Bold-72" transform="translate(1140.070312 0)"/>
     <use xlink:href="#DejaVuSans-Bold-73" transform="translate(1189.386719 0)"/>
    </g>
   </g>
  </g>
 </g>
 <defs>
  <clipPath id="p078ecca96d">
   <rect x="51.59" y="36.6" width="657.61" height="269.862568"/>
  </clipPath>
 </defs>
</svg>
