<?xml version="1.0" encoding="utf-8" standalone="no"?>
<!DOCTYPE svg PUBLIC "-//W3C//DTD SVG 1.1//EN"
  "http://www.w3.org/Graphics/SVG/1.1/DTD/svg11.dtd">
<svg xmlns:xlink="http://www.w3.org/1999/xlink" width="720pt" height="360pt" viewBox="0 0 720 360" xmlns="http://www.w3.org/2000/svg" version="1.1">
 <metadata>
  <rdf:RDF xmlns:dc="http://purl.org/dc/elements/1.1/" xmlns:cc="http://creativecommons.org/ns#" xmlns:rdf="http://www.w3.org/1999/02/22-rdf-syntax-ns#">
   <cc:Work>
    <dc:type rdf:resource="http://purl.org/dc/dcmitype/StillImage"/>
    <dc:date>2026-06-13T00:51:31.504082</dc:date>
    <dc:format>image/svg+xml</dc:format>
    <dc:creator>
     <cc:Agent>
      <dc:title>Matplotlib v3.11.0, https://matplotlib.org/</dc:title>
     </cc:Agent>
    </dc:creator>
   </cc:Work>
  </rdf:RDF>
 </metadata>
 <defs>
  <style type="text/css">*{stroke-linejoin: round; stroke-linecap: butt}</style>
 </defs>
 <g id="figure_1">
  <g id="patch_1">
   <path d="M 0 360 
L 720 360 
L 720 0 
L 0 0 
z
" style="fill: #0d1117"/>
  </g>
  <g id="axes_1">
   <g id="patch_2">
    <path d="M 52.24 305.364543 
L 709.2 305.364543 
L 709.2 36.436719 
L 52.24 36.436719 
z
" style="fill: #0d1117"/>
   </g>
   <g id="matplotlib.axis_1">
    <g id="xtick_1">
     <g id="line2d_1">
      <path d="M 93.587133 305.364543 
L 93.587133 36.436719 
" clip-path="url(#p16dfad4819)" style="fill: none; stroke: #30363d; stroke-opacity: 0.2; stroke-width: 0.8; stroke-linecap: square"/>
     </g>
     <g id="line2d_2">
      <defs>
       <path id="ma40db7f26c" d="M 0 0 
L 0 3.5 
" style="stroke: #c9d1d9; stroke-width: 0.8"/>
      </defs>
      <g>
       <use xlink:href="#ma40db7f26c" x="93.587133" y="305.364543" style="fill: #c9d1d9; stroke: #c9d1d9; stroke-width: 0.8"/>
      </g>
     </g>
     <g id="text_1">
      <!-- Oct -->
      <g style="fill: #c9d1d9" transform="translate(79.662101 329.963215) rotate(-45) scale(0.1 -0.1)">
       <defs>
        <path id="DejaVuSans-32" d="M 2522 4238 
Q 1834 4238 1429 3725 
Q 1025 3213 1025 2328 
Q 1025 1447 1429 934 
Q 1834 422 2522 422 
Q 3209 422 3611 934 
Q 4013 1447 4013 2328 
Q 4013 3213 3611 3725 
Q 3209 4238 2522 4238 
z
M 2522 4750 
Q 3503 4750 4090 4092 
Q 4678 3434 4678 2328 
Q 4678 1225 4090 567 
Q 3503 -91 2522 -91 
Q 1538 -91 948 565 
Q 359 1222 359 2328 
Q 359 3434 948 4092 
Q 1538 4750 2522 4750 
z
" transform="scale(0.015625)"/>
        <path id="DejaVuSans-46" d="M 3122 3366 
L 3122 2828 
Q 2878 2963 2633 3030 
Q 2388 3097 2138 3097 
Q 1578 3097 1268 2742 
Q 959 2388 959 1747 
Q 959 1106 1268 751 
Q 1578 397 2138 397 
Q 2388 397 2633 464 
Q 2878 531 3122 666 
L 3122 134 
Q 2881 22 2623 -34 
Q 2366 -91 2075 -91 
Q 1284 -91 818 406 
Q 353 903 353 1747 
Q 353 2603 823 3093 
Q 1294 3584 2113 3584 
Q 2378 3584 2631 3529 
Q 2884 3475 3122 3366 
z
" transform="scale(0.015625)"/>
        <path id="DejaVuSans-57" d="M 1172 4494 
L 1172 3500 
L 2356 3500 
L 2356 3053 
L 1172 3053 
L 1172 1153 
Q 1172 725 1289 603 
Q 1406 481 1766 481 
L 2356 481 
L 2356 0 
L 1766 0 
Q 1100 0 847 248 
Q 594 497 594 1153 
L 594 3053 
L 172 3053 
L 172 3500 
L 594 3500 
L 594 4494 
L 1172 4494 
z
" transform="scale(0.015625)"/>
       </defs>
       <use xlink:href="#DejaVuSans-32"/>
       <use xlink:href="#DejaVuSans-46" transform="translate(78.71875 0)"/>
       <use xlink:href="#DejaVuSans-57" transform="translate(133.703125 0)"/>
      </g>
     </g>
    </g>
    <g id="xtick_2">
     <g id="line2d_3">
      <path d="M 164.796084 305.364543 
L 164.796084 36.436719 
" clip-path="url(#p16dfad4819)" style="fill: none; stroke: #30363d; stroke-opacity: 0.2; stroke-width: 0.8; stroke-linecap: square"/>
     </g>
     <g id="line2d_4">
      <g>
       <use xlink:href="#ma40db7f26c" x="164.796084" y="305.364543" style="fill: #c9d1d9; stroke: #c9d1d9; stroke-width: 0.8"/>
      </g>
     </g>
     <g id="text_2">
      <!-- Nov -->
      <g style="fill: #c9d1d9" transform="translate(149.29553 331.538737) rotate(-45) scale(0.1 -0.1)">
       <defs>
        <path id="DejaVuSans-31" d="M 628 4666 
L 1478 4666 
L 3547 763 
L 3547 4666 
L 4159 4666 
L 4159 0 
L 3309 0 
L 1241 3903 
L 1241 0 
L 628 0 
L 628 4666 
z
" transform="scale(0.015625)"/>
        <path id="DejaVuSans-52" d="M 1959 3097 
Q 1497 3097 1228 2736 
Q 959 2375 959 1747 
Q 959 1119 1226 758 
Q 1494 397 1959 397 
Q 2419 397 2687 759 
Q 2956 1122 2956 1747 
Q 2956 2369 2687 2733 
Q 2419 3097 1959 3097 
z
M 1959 3584 
Q 2709 3584 3137 3096 
Q 3566 2609 3566 1747 
Q 3566 888 3137 398 
Q 2709 -91 1959 -91 
Q 1206 -91 779 398 
Q 353 888 353 1747 
Q 353 2609 779 3096 
Q 1206 3584 1959 3584 
z
" transform="scale(0.015625)"/>
        <path id="DejaVuSans-59" d="M 191 3500 
L 800 3500 
L 1894 563 
L 2988 3500 
L 3597 3500 
L 2284 0 
L 1503 0 
L 191 3500 
z
" transform="scale(0.015625)"/>
       </defs>
       <use xlink:href="#DejaVuSans-31"/>
       <use xlink:href="#DejaVuSans-52" transform="translate(74.8125 0)"/>
       <use xlink:href="#DejaVuSans-59" transform="translate(136 0)"/>
      </g>
     </g>
    </g>
    <g id="xtick_3">
     <g id="line2d_5">
      <path d="M 233.707972 305.364543 
L 233.707972 36.436719 
" clip-path="url(#p16dfad4819)" style="fill: none; stroke: #30363d; stroke-opacity: 0.2; stroke-width: 0.8; stroke-linecap: square"/>
     </g>
     <g id="line2d_6">
      <g>
       <use xlink:href="#ma40db7f26c" x="233.707972" y="305.364543" style="fill: #c9d1d9; stroke: #c9d1d9; stroke-width: 0.8"/>
      </g>
     </g>
     <g id="text_3">
      <!-- Dec -->
      <g style="fill: #c9d1d9" transform="translate(218.325637 331.420518) rotate(-45) scale(0.1 -0.1)">
       <defs>
        <path id="DejaVuSans-27" d="M 1259 4147 
L 1259 519 
L 2022 519 
Q 2988 519 3436 956 
Q 3884 1394 3884 2338 
Q 3884 3275 3436 3711 
Q 2988 4147 2022 4147 
L 1259 4147 
z
M 628 4666 
L 1925 4666 
Q 3281 4666 3915 4102 
Q 4550 3538 4550 2338 
Q 4550 1131 3912 565 
Q 3275 0 1925 0 
L 628 0 
L 628 4666 
z
" transform="scale(0.015625)"/>
        <path id="DejaVuSans-48" d="M 3597 1894 
L 3597 1613 
L 953 1613 
Q 991 1019 1311 708 
Q 1631 397 2203 397 
Q 2534 397 2845 478 
Q 3156 559 3463 722 
L 3463 178 
Q 3153 47 2828 -22 
Q 2503 -91 2169 -91 
Q 1331 -91 842 396 
Q 353 884 353 1716 
Q 353 2575 817 3079 
Q 1281 3584 2069 3584 
Q 2775 3584 3186 3129 
Q 3597 2675 3597 1894 
z
M 3022 2063 
Q 3016 2534 2758 2815 
Q 2500 3097 2075 3097 
Q 1594 3097 1305 2825 
Q 1016 2553 972 2059 
L 3022 2063 
z
" transform="scale(0.015625)"/>
       </defs>
       <use xlink:href="#DejaVuSans-27"/>
       <use xlink:href="#DejaVuSans-48" transform="translate(77 0)"/>
       <use xlink:href="#DejaVuSans-46" transform="translate(138.53125 0)"/>
      </g>
     </g>
    </g>
    <g id="xtick_4">
     <g id="line2d_7">
      <path d="M 304.916923 305.364543 
L 304.916923 36.436719 
" clip-path="url(#p16dfad4819)" style="fill: none; stroke: #30363d; stroke-opacity: 0.2; stroke-width: 0.8; stroke-linecap: square"/>
     </g>
     <g id="line2d_8">
      <g>
       <use xlink:href="#ma40db7f26c" x="304.916923" y="305.364543" style="fill: #c9d1d9; stroke: #c9d1d9; stroke-width: 0.8"/>
      </g>
     </g>
     <g id="text_4">
      <!-- Jan -->
      <g style="fill: #c9d1d9" transform="translate(292.317717 328.63739) rotate(-45) scale(0.1 -0.1)">
       <defs>
        <path id="DejaVuSans-2d" d="M 628 4666 
L 1259 4666 
L 1259 325 
Q 1259 -519 939 -900 
Q 619 -1281 -91 -1281 
L -331 -1281 
L -331 -750 
L -134 -750 
Q 284 -750 456 -515 
Q 628 -281 628 325 
L 628 4666 
z
" transform="scale(0.015625)"/>
        <path id="DejaVuSans-44" d="M 2194 1759 
Q 1497 1759 1228 1600 
Q 959 1441 959 1056 
Q 959 750 1161 570 
Q 1363 391 1709 391 
Q 2188 391 2477 730 
Q 2766 1069 2766 1631 
L 2766 1759 
L 2194 1759 
z
M 3341 1997 
L 3341 0 
L 2766 0 
L 2766 531 
Q 2569 213 2275 61 
Q 1981 -91 1556 -91 
Q 1019 -91 701 211 
Q 384 513 384 1019 
Q 384 1609 779 1909 
Q 1175 2209 1959 2209 
L 2766 2209 
L 2766 2266 
Q 2766 2663 2505 2880 
Q 2244 3097 1772 3097 
Q 1472 3097 1187 3025 
Q 903 2953 641 2809 
L 641 3341 
Q 956 3463 1253 3523 
Q 1550 3584 1831 3584 
Q 2591 3584 2966 3190 
Q 3341 2797 3341 1997 
z
" transform="scale(0.015625)"/>
        <path id="DejaVuSans-51" d="M 3513 2113 
L 3513 0 
L 2938 0 
L 2938 2094 
Q 2938 2591 2744 2837 
Q 2550 3084 2163 3084 
Q 1697 3084 1428 2787 
Q 1159 2491 1159 1978 
L 1159 0 
L 581 0 
L 581 3500 
L 1159 3500 
L 1159 2956 
Q 1366 3272 1645 3428 
Q 1925 3584 2291 3584 
Q 2894 3584 3203 3211 
Q 3513 2838 3513 2113 
z
" transform="scale(0.015625)"/>
       </defs>
       <use xlink:href="#DejaVuSans-2d"/>
       <use xlink:href="#DejaVuSans-44" transform="translate(29.5 0)"/>
       <use xlink:href="#DejaVuSans-51" transform="translate(90.78125 0)"/>
      </g>
     </g>
    </g>
    <g id="xtick_5">
     <g id="line2d_9">
      <path d="M 376.125874 305.364543 
L 376.125874 36.436719 
" clip-path="url(#p16dfad4819)" style="fill: none; stroke: #30363d; stroke-opacity: 0.2; stroke-width: 0.8; stroke-linecap: square"/>
     </g>
     <g id="line2d_10">
      <g>
       <use xlink:href="#ma40db7f26c" x="376.125874" y="305.364543" style="fill: #c9d1d9; stroke: #c9d1d9; stroke-width: 0.8"/>
      </g>
     </g>
     <g id="text_5">
      <!-- Feb -->
      <g style="fill: #c9d1d9" transform="translate(361.906951 330.257659) rotate(-45) scale(0.1 -0.1)">
       <defs>
        <path id="DejaVuSans-29" d="M 628 4666 
L 3309 4666 
L 3309 4134 
L 1259 4134 
L 1259 2759 
L 3109 2759 
L 3109 2228 
L 1259 2228 
L 1259 0 
L 628 0 
L 628 4666 
z
" transform="scale(0.015625)"/>
        <path id="DejaVuSans-45" d="M 3116 1747 
Q 3116 2381 2855 2742 
Q 2594 3103 2138 3103 
Q 1681 3103 1420 2742 
Q 1159 2381 1159 1747 
Q 1159 1113 1420 752 
Q 1681 391 2138 391 
Q 2594 391 2855 752 
Q 3116 1113 3116 1747 
z
M 1159 2969 
Q 1341 3281 1617 3432 
Q 1894 3584 2278 3584 
Q 2916 3584 3314 3078 
Q 3713 2572 3713 1747 
Q 3713 922 3314 415 
Q 2916 -91 2278 -91 
Q 1894 -91 1617 61 
Q 1341 213 1159 525 
L 1159 0 
L 581 0 
L 581 4863 
L 1159 4863 
L 1159 2969 
z
" transform="scale(0.015625)"/>
       </defs>
       <use xlink:href="#DejaVuSans-29"/>
       <use xlink:href="#DejaVuSans-48" transform="translate(52.046875 0)"/>
       <use xlink:href="#DejaVuSans-45" transform="translate(113.578125 0)"/>
      </g>
     </g>
    </g>
    <g id="xtick_6">
     <g id="line2d_11">
      <path d="M 440.443636 305.364543 
L 440.443636 36.436719 
" clip-path="url(#p16dfad4819)" style="fill: none; stroke: #30363d; stroke-opacity: 0.2; stroke-width: 0.8; stroke-linecap: square"/>
     </g>
     <g id="line2d_12">
      <g>
       <use xlink:href="#ma40db7f26c" x="440.443636" y="305.364543" style="fill: #c9d1d9; stroke: #c9d1d9; stroke-width: 0.8"/>
      </g>
     </g>
     <g id="text_6">
      <!-- Mar -->
      <g style="fill: #c9d1d9" transform="translate(425.403807 331.078013) rotate(-45) scale(0.1 -0.1)">
       <defs>
        <path id="DejaVuSans-30" d="M 628 4666 
L 1569 4666 
L 2759 1491 
L 3956 4666 
L 4897 4666 
L 4897 0 
L 4281 0 
L 4281 4097 
L 3078 897 
L 2444 897 
L 1241 4097 
L 1241 0 
L 628 0 
L 628 4666 
z
" transform="scale(0.015625)"/>
        <path id="DejaVuSans-55" d="M 2631 2963 
Q 2534 3019 2420 3045 
Q 2306 3072 2169 3072 
Q 1681 3072 1420 2755 
Q 1159 2438 1159 1844 
L 1159 0 
L 581 0 
L 581 3500 
L 1159 3500 
L 1159 2956 
Q 1341 3275 1631 3429 
Q 1922 3584 2338 3584 
Q 2397 3584 2469 3576 
Q 2541 3569 2628 3553 
L 2631 2963 
z
" transform="scale(0.015625)"/>
       </defs>
       <use xlink:href="#DejaVuSans-30"/>
       <use xlink:href="#DejaVuSans-44" transform="translate(86.28125 0)"/>
       <use xlink:href="#DejaVuSans-55" transform="translate(147.5625 0)"/>
      </g>
     </g>
    </g>
    <g id="xtick_7">
     <g id="line2d_13">
      <path d="M 511.652587 305.364543 
L 511.652587 36.436719 
" clip-path="url(#p16dfad4819)" style="fill: none; stroke: #30363d; stroke-opacity: 0.2; stroke-width: 0.8; stroke-linecap: square"/>
     </g>
     <g id="line2d_14">
      <g>
       <use xlink:href="#ma40db7f26c" x="511.652587" y="305.364543" style="fill: #c9d1d9; stroke: #c9d1d9; stroke-width: 0.8"/>
      </g>
     </g>
     <g id="text_7">
      <!-- Apr -->
      <g style="fill: #c9d1d9" transform="translate(497.720927 329.969844) rotate(-45) scale(0.1 -0.1)">
       <defs>
        <path id="DejaVuSans-24" d="M 2188 4044 
L 1331 1722 
L 3047 1722 
L 2188 4044 
z
M 1831 4666 
L 2547 4666 
L 4325 0 
L 3669 0 
L 3244 1197 
L 1141 1197 
L 716 0 
L 50 0 
L 1831 4666 
z
" transform="scale(0.015625)"/>
        <path id="DejaVuSans-53" d="M 1159 525 
L 1159 -1331 
L 581 -1331 
L 581 3500 
L 1159 3500 
L 1159 2969 
Q 1341 3281 1617 3432 
Q 1894 3584 2278 3584 
Q 2916 3584 3314 3078 
Q 3713 2572 3713 1747 
Q 3713 922 3314 415 
Q 2916 -91 2278 -91 
Q 1894 -91 1617 61 
Q 1341 213 1159 525 
z
M 3116 1747 
Q 3116 2381 2855 2742 
Q 2594 3103 2138 3103 
Q 1681 3103 1420 2742 
Q 1159 2381 1159 1747 
Q 1159 1113 1420 752 
Q 1681 391 2138 391 
Q 2594 391 2855 752 
Q 3116 1113 3116 1747 
z
" transform="scale(0.015625)"/>
       </defs>
       <use xlink:href="#DejaVuSans-24"/>
       <use xlink:href="#DejaVuSans-53" transform="translate(68.40625 0)"/>
       <use xlink:href="#DejaVuSans-55" transform="translate(131.890625 0)"/>
      </g>
     </g>
    </g>
    <g id="xtick_8">
     <g id="line2d_15">
      <path d="M 580.564476 305.364543 
L 580.564476 36.436719 
" clip-path="url(#p16dfad4819)" style="fill: none; stroke: #30363d; stroke-opacity: 0.2; stroke-width: 0.8; stroke-linecap: square"/>
     </g>
     <g id="line2d_16">
      <g>
       <use xlink:href="#ma40db7f26c" x="580.564476" y="305.364543" style="fill: #c9d1d9; stroke: #c9d1d9; stroke-width: 0.8"/>
      </g>
     </g>
     <g id="text_8">
      <!-- May -->
      <g style="fill: #c9d1d9" transform="translate(564.246329 332.35633) rotate(-45) scale(0.1 -0.1)">
       <defs>
        <path id="DejaVuSans-5c" d="M 2059 -325 
Q 1816 -950 1584 -1140 
Q 1353 -1331 966 -1331 
L 506 -1331 
L 506 -850 
L 844 -850 
Q 1081 -850 1212 -737 
Q 1344 -625 1503 -206 
L 1606 56 
L 191 3500 
L 800 3500 
L 1894 763 
L 2988 3500 
L 3597 3500 
L 2059 -325 
z
" transform="scale(0.015625)"/>
       </defs>
       <use xlink:href="#DejaVuSans-30"/>
       <use xlink:href="#DejaVuSans-44" transform="translate(86.28125 0)"/>
       <use xlink:href="#DejaVuSans-5c" transform="translate(147.5625 0)"/>
      </g>
     </g>
    </g>
    <g id="xtick_9">
     <g id="line2d_17">
      <path d="M 651.773427 305.364543 
L 651.773427 36.436719 
" clip-path="url(#p16dfad4819)" style="fill: none; stroke: #30363d; stroke-opacity: 0.2; stroke-width: 0.8; stroke-linecap: square"/>
     </g>
     <g id="line2d_18">
      <g>
       <use xlink:href="#ma40db7f26c" x="651.773427" y="305.364543" style="fill: #c9d1d9; stroke: #c9d1d9; stroke-width: 0.8"/>
      </g>
     </g>
     <g id="text_9">
      <!-- Jun -->
      <g style="fill: #c9d1d9" transform="translate(639.02617 328.78544) rotate(-45) scale(0.1 -0.1)">
       <defs>
        <path id="DejaVuSans-58" d="M 544 1381 
L 544 3500 
L 1119 3500 
L 1119 1403 
Q 1119 906 1312 657 
Q 1506 409 1894 409 
Q 2359 409 2629 706 
Q 2900 1003 2900 1516 
L 2900 3500 
L 3475 3500 
L 3475 0 
L 2900 0 
L 2900 538 
Q 2691 219 2414 64 
Q 2138 -91 1772 -91 
Q 1169 -91 856 284 
Q 544 659 544 1381 
z
M 1991 3584 
L 1991 3584 
z
" transform="scale(0.015625)"/>
       </defs>
       <use xlink:href="#DejaVuSans-2d"/>
       <use xlink:href="#DejaVuSans-58" transform="translate(29.5 0)"/>
       <use xlink:href="#DejaVuSans-51" transform="translate(92.875 0)"/>
      </g>
     </g>
    </g>
    <g id="text_10">
     <!-- Date -->
     <g style="fill: #c9d1d9" transform="translate(367.574141 346.412465) scale(0.11 -0.11)">
      <use xlink:href="#DejaVuSans-27"/>
      <use xlink:href="#DejaVuSans-44" transform="translate(77 0)"/>
      <use xlink:href="#DejaVuSans-57" transform="translate(138.28125 0)"/>
      <use xlink:href="#DejaVuSans-48" transform="translate(177.484375 0)"/>
     </g>
    </g>
   </g>
   <g id="matplotlib.axis_2">
    <g id="ytick_1">
     <g id="line2d_19">
      <path d="M 52.24 276.565646 
L 709.2 276.565646 
" clip-path="url(#p16dfad4819)" style="fill: none; stroke: #30363d; stroke-opacity: 0.2; stroke-width: 0.8; stroke-linecap: square"/>
     </g>
     <g id="line2d_20">
      <defs>
       <path id="m2ed7eb3a70" d="M 0 0 
L -3.5 0 
" style="stroke: #c9d1d9; stroke-width: 0.8"/>
      </defs>
      <g>
       <use xlink:href="#m2ed7eb3a70" x="52.24" y="276.565646" style="fill: #c9d1d9; stroke: #c9d1d9; stroke-width: 0.8"/>
      </g>
     </g>
     <g id="text_11">
      <!-- 70 -->
      <g style="fill: #c9d1d9" transform="translate(32.515 280.364474) scale(0.1 -0.1)">
       <defs>
        <path id="DejaVuSans-1a" d="M 525 4666 
L 3525 4666 
L 3525 4397 
L 1831 0 
L 1172 0 
L 2766 4134 
L 525 4134 
L 525 4666 
z
" transform="scale(0.015625)"/>
        <path id="DejaVuSans-13" d="M 2034 4250 
Q 1547 4250 1301 3770 
Q 1056 3291 1056 2328 
Q 1056 1369 1301 889 
Q 1547 409 2034 409 
Q 2525 409 2770 889 
Q 3016 1369 3016 2328 
Q 3016 3291 2770 3770 
Q 2525 4250 2034 4250 
z
M 2034 4750 
Q 2819 4750 3233 4129 
Q 3647 3509 3647 2328 
Q 3647 1150 3233 529 
Q 2819 -91 2034 -91 
Q 1250 -91 836 529 
Q 422 1150 422 2328 
Q 422 3509 836 4129 
Q 1250 4750 2034 4750 
z
" transform="scale(0.015625)"/>
       </defs>
       <use xlink:href="#DejaVuSans-1a"/>
       <use xlink:href="#DejaVuSans-13" transform="translate(63.625 0)"/>
      </g>
     </g>
    </g>
    <g id="ytick_2">
     <g id="line2d_21">
      <path d="M 52.24 235.128385 
L 709.2 235.128385 
" clip-path="url(#p16dfad4819)" style="fill: none; stroke: #30363d; stroke-opacity: 0.2; stroke-width: 0.8; stroke-linecap: square"/>
     </g>
     <g id="line2d_22">
      <g>
       <use xlink:href="#m2ed7eb3a70" x="52.24" y="235.128385" style="fill: #c9d1d9; stroke: #c9d1d9; stroke-width: 0.8"/>
      </g>
     </g>
     <g id="text_12">
      <!-- 80 -->
      <g style="fill: #c9d1d9" transform="translate(32.515 238.927213) scale(0.1 -0.1)">
       <defs>
        <path id="DejaVuSans-1b" d="M 2034 2216 
Q 1584 2216 1326 1975 
Q 1069 1734 1069 1313 
Q 1069 891 1326 650 
Q 1584 409 2034 409 
Q 2484 409 2743 651 
Q 3003 894 3003 1313 
Q 3003 1734 2745 1975 
Q 2488 2216 2034 2216 
z
M 1403 2484 
Q 997 2584 770 2862 
Q 544 3141 544 3541 
Q 544 4100 942 4425 
Q 1341 4750 2034 4750 
Q 2731 4750 3128 4425 
Q 3525 4100 3525 3541 
Q 3525 3141 3298 2862 
Q 3072 2584 2669 2484 
Q 3125 2378 3379 2068 
Q 3634 1759 3634 1313 
Q 3634 634 3220 271 
Q 2806 -91 2034 -91 
Q 1263 -91 848 271 
Q 434 634 434 1313 
Q 434 1759 690 2068 
Q 947 2378 1403 2484 
z
M 1172 3481 
Q 1172 3119 1398 2916 
Q 1625 2713 2034 2713 
Q 2441 2713 2670 2916 
Q 2900 3119 2900 3481 
Q 2900 3844 2670 4047 
Q 2441 4250 2034 4250 
Q 1625 4250 1398 4047 
Q 1172 3844 1172 3481 
z
" transform="scale(0.015625)"/>
       </defs>
       <use xlink:href="#DejaVuSans-1b"/>
       <use xlink:href="#DejaVuSans-13" transform="translate(63.625 0)"/>
      </g>
     </g>
    </g>
    <g id="ytick_3">
     <g id="line2d_23">
      <path d="M 52.24 193.691124 
L 709.2 193.691124 
" clip-path="url(#p16dfad4819)" style="fill: none; stroke: #30363d; stroke-opacity: 0.2; stroke-width: 0.8; stroke-linecap: square"/>
     </g>
     <g id="line2d_24">
      <g>
       <use xlink:href="#m2ed7eb3a70" x="52.24" y="193.691124" style="fill: #c9d1d9; stroke: #c9d1d9; stroke-width: 0.8"/>
      </g>
     </g>
     <g id="text_13">
      <!-- 90 -->
      <g style="fill: #c9d1d9" transform="translate(32.515 197.489952) scale(0.1 -0.1)">
       <defs>
        <path id="DejaVuSans-1c" d="M 703 97 
L 703 672 
Q 941 559 1184 500 
Q 1428 441 1663 441 
Q 2288 441 2617 861 
Q 2947 1281 2994 2138 
Q 2813 1869 2534 1725 
Q 2256 1581 1919 1581 
Q 1219 1581 811 2004 
Q 403 2428 403 3163 
Q 403 3881 828 4315 
Q 1253 4750 1959 4750 
Q 2769 4750 3195 4129 
Q 3622 3509 3622 2328 
Q 3622 1225 3098 567 
Q 2575 -91 1691 -91 
Q 1453 -91 1209 -44 
Q 966 3 703 97 
z
M 1959 2075 
Q 2384 2075 2632 2365 
Q 2881 2656 2881 3163 
Q 2881 3666 2632 3958 
Q 2384 4250 1959 4250 
Q 1534 4250 1286 3958 
Q 1038 3666 1038 3163 
Q 1038 2656 1286 2365 
Q 1534 2075 1959 2075 
z
" transform="scale(0.015625)"/>
       </defs>
       <use xlink:href="#DejaVuSans-1c"/>
       <use xlink:href="#DejaVuSans-13" transform="translate(63.625 0)"/>
      </g>
     </g>
    </g>
    <g id="ytick_4">
     <g id="line2d_25">
      <path d="M 52.24 152.253863 
L 709.2 152.253863 
" clip-path="url(#p16dfad4819)" style="fill: none; stroke: #30363d; stroke-opacity: 0.2; stroke-width: 0.8; stroke-linecap: square"/>
     </g>
     <g id="line2d_26">
      <g>
       <use xlink:href="#m2ed7eb3a70" x="52.24" y="152.253863" style="fill: #c9d1d9; stroke: #c9d1d9; stroke-width: 0.8"/>
      </g>
     </g>
     <g id="text_14">
      <!-- 100 -->
      <g style="fill: #c9d1d9" transform="translate(26.1525 156.052691) scale(0.1 -0.1)">
       <defs>
        <path id="DejaVuSans-14" d="M 794 531 
L 1825 531 
L 1825 4091 
L 703 3866 
L 703 4441 
L 1819 4666 
L 2450 4666 
L 2450 531 
L 3481 531 
L 3481 0 
L 794 0 
L 794 531 
z
" transform="scale(0.015625)"/>
       </defs>
       <use xlink:href="#DejaVuSans-14"/>
       <use xlink:href="#DejaVuSans-13" transform="translate(63.625 0)"/>
       <use xlink:href="#DejaVuSans-13" transform="translate(127.25 0)"/>
      </g>
     </g>
    </g>
    <g id="ytick_5">
     <g id="line2d_27">
      <path d="M 52.24 110.816602 
L 709.2 110.816602 
" clip-path="url(#p16dfad4819)" style="fill: none; stroke: #30363d; stroke-opacity: 0.2; stroke-width: 0.8; stroke-linecap: square"/>
     </g>
     <g id="line2d_28">
      <g>
       <use xlink:href="#m2ed7eb3a70" x="52.24" y="110.816602" style="fill: #c9d1d9; stroke: #c9d1d9; stroke-width: 0.8"/>
      </g>
     </g>
     <g id="text_15">
      <!-- 110 -->
      <g style="fill: #c9d1d9" transform="translate(26.1525 114.61543) scale(0.1 -0.1)">
       <use xlink:href="#DejaVuSans-14"/>
       <use xlink:href="#DejaVuSans-14" transform="translate(63.625 0)"/>
       <use xlink:href="#DejaVuSans-13" transform="translate(127.25 0)"/>
      </g>
     </g>
    </g>
    <g id="ytick_6">
     <g id="line2d_29">
      <path d="M 52.24 69.379341 
L 709.2 69.379341 
" clip-path="url(#p16dfad4819)" style="fill: none; stroke: #30363d; stroke-opacity: 0.2; stroke-width: 0.8; stroke-linecap: square"/>
     </g>
     <g id="line2d_30">
      <g>
       <use xlink:href="#m2ed7eb3a70" x="52.24" y="69.379341" style="fill: #c9d1d9; stroke: #c9d1d9; stroke-width: 0.8"/>
      </g>
     </g>
     <g id="text_16">
      <!-- 120 -->
      <g style="fill: #c9d1d9" transform="translate(26.1525 73.178169) scale(0.1 -0.1)">
       <defs>
        <path id="DejaVuSans-15" d="M 1228 531 
L 3431 531 
L 3431 0 
L 469 0 
L 469 531 
Q 828 903 1448 1529 
Q 2069 2156 2228 2338 
Q 2531 2678 2651 2914 
Q 2772 3150 2772 3378 
Q 2772 3750 2511 3984 
Q 2250 4219 1831 4219 
Q 1534 4219 1204 4116 
Q 875 4013 500 3803 
L 500 4441 
Q 881 4594 1212 4672 
Q 1544 4750 1819 4750 
Q 2544 4750 2975 4387 
Q 3406 4025 3406 3419 
Q 3406 3131 3298 2873 
Q 3191 2616 2906 2266 
Q 2828 2175 2409 1742 
Q 1991 1309 1228 531 
z
" transform="scale(0.015625)"/>
       </defs>
       <use xlink:href="#DejaVuSans-14"/>
       <use xlink:href="#DejaVuSans-15" transform="translate(63.625 0)"/>
       <use xlink:href="#DejaVuSans-13" transform="translate(127.25 0)"/>
      </g>
     </g>
    </g>
    <g id="text_17">
     <!-- Count -->
     <g style="fill: #c9d1d9" transform="translate(19.509922 187.233912) rotate(-90) scale(0.11 -0.11)">
      <defs>
       <path id="DejaVuSans-26" d="M 4122 4306 
L 4122 3641 
Q 3803 3938 3442 4084 
Q 3081 4231 2675 4231 
Q 1875 4231 1450 3742 
Q 1025 3253 1025 2328 
Q 1025 1406 1450 917 
Q 1875 428 2675 428 
Q 3081 428 3442 575 
Q 3803 722 4122 1019 
L 4122 359 
Q 3791 134 3420 21 
Q 3050 -91 2638 -91 
Q 1578 -91 968 557 
Q 359 1206 359 2328 
Q 359 3453 968 4101 
Q 1578 4750 2638 4750 
Q 3056 4750 3426 4639 
Q 3797 4528 4122 4306 
z
" transform="scale(0.015625)"/>
      </defs>
      <use xlink:href="#DejaVuSans-26"/>
      <use xlink:href="#DejaVuSans-52" transform="translate(69.828125 0)"/>
      <use xlink:href="#DejaVuSans-58" transform="translate(131.015625 0)"/>
      <use xlink:href="#DejaVuSans-51" transform="translate(194.390625 0)"/>
      <use xlink:href="#DejaVuSans-57" transform="translate(257.765625 0)"/>
     </g>
    </g>
   </g>
   <g id="line2d_31">
    <path d="M 82.101818 293.140551 
L 151.013706 293.140551 
L 167.093147 264.134468 
L 169.39021 264.134468 
L 171.687273 259.990742 
L 178.578462 259.990742 
L 180.875524 264.134468 
L 215.331469 264.134468 
L 217.628531 259.990742 
L 226.816783 259.990742 
L 231.410909 251.70329 
L 242.896224 251.70329 
L 245.193287 247.559564 
L 249.787413 247.559564 
L 252.084476 243.415837 
L 261.272727 243.415837 
L 263.56979 239.272111 
L 270.460979 239.272111 
L 272.758042 235.128385 
L 281.946294 235.128385 
L 284.243357 222.697207 
L 288.837483 222.697207 
L 291.134545 218.553481 
L 309.511049 218.553481 
L 311.808112 214.409755 
L 314.105175 214.409755 
L 318.699301 210.266029 
L 320.996364 210.266029 
L 325.59049 201.978576 
L 332.481678 201.978576 
L 334.778741 168.828768 
L 360.046434 168.828768 
L 362.343497 164.685042 
L 369.234685 164.685042 
L 371.531748 160.541315 
L 373.828811 160.541315 
L 376.125874 156.397589 
L 412.878881 156.397589 
L 415.175944 127.391507 
L 428.958322 127.391507 
L 433.552448 119.104054 
L 447.334825 119.104054 
L 449.631888 114.960328 
L 451.928951 114.960328 
L 454.226014 110.816602 
L 461.117203 110.816602 
L 463.414266 106.672876 
L 468.008392 106.672876 
L 470.305455 102.52915 
L 472.602517 102.52915 
L 474.89958 98.385424 
L 481.790769 98.385424 
L 484.087832 94.241698 
L 504.761399 94.241698 
L 507.058462 90.097972 
L 525.434965 90.097972 
L 527.732028 85.954246 
L 530.029091 85.954246 
L 532.326154 90.097972 
L 539.217343 90.097972 
L 541.514406 85.954246 
L 550.702657 85.954246 
L 552.99972 81.81052 
L 582.861538 81.81052 
L 585.158601 73.523067 
L 587.455664 73.523067 
L 589.752727 65.235615 
L 631.09986 65.235615 
L 633.396923 61.091889 
L 640.288112 61.091889 
L 644.882238 52.804437 
L 667.852867 52.804437 
L 670.14993 48.660711 
L 679.338182 48.660711 
L 679.338182 48.660711 
" clip-path="url(#p16dfad4819)" style="fill: none; stroke: #3fb950; stroke-width: 2.5; stroke-linecap: square"/>
    <defs>
     <path id="m56aba16269" d="M 0 2.5 
C 0.663008 2.5 1.29895 2.236584 1.767767 1.767767 
C 2.236584 1.29895 2.5 0.663008 2.5 0 
C 2.5 -0.663008 2.236584 -1.29895 1.767767 -1.767767 
C 1.29895 -2.236584 0.663008 -2.5 0 -2.5 
C -0.663008 -2.5 -1.29895 -2.236584 -1.767767 -1.767767 
C -2.236584 -1.29895 -2.5 -0.663008 -2.5 0 
C -2.5 0.663008 -2.236584 1.29895 -1.767767 1.767767 
C -1.29895 2.236584 -0.663008 2.5 0 2.5 
z
" style="stroke: #3fb950"/>
    </defs>
    <g clip-path="url(#p16dfad4819)">
     <use xlink:href="#m56aba16269" x="82.101818" y="293.140551" style="fill: #3fb950; stroke: #3fb950"/>
     <use xlink:href="#m56aba16269" x="84.398881" y="293.140551" style="fill: #3fb950; stroke: #3fb950"/>
     <use xlink:href="#m56aba16269" x="86.695944" y="293.140551" style="fill: #3fb950; stroke: #3fb950"/>
     <use xlink:href="#m56aba16269" x="88.993007" y="293.140551" style="fill: #3fb950; stroke: #3fb950"/>
     <use xlink:href="#m56aba16269" x="91.29007" y="293.140551" style="fill: #3fb950; stroke: #3fb950"/>
     <use xlink:href="#m56aba16269" x="93.587133" y="293.140551" style="fill: #3fb950; stroke: #3fb950"/>
     <use xlink:href="#m56aba16269" x="95.884196" y="293.140551" style="fill: #3fb950; stroke: #3fb950"/>
     <use xlink:href="#m56aba16269" x="98.181259" y="293.140551" style="fill: #3fb950; stroke: #3fb950"/>
     <use xlink:href="#m56aba16269" x="100.478322" y="293.140551" style="fill: #3fb950; stroke: #3fb950"/>
     <use xlink:href="#m56aba16269" x="102.775385" y="293.140551" style="fill: #3fb950; stroke: #3fb950"/>
     <use xlink:href="#m56aba16269" x="105.072448" y="293.140551" style="fill: #3fb950; stroke: #3fb950"/>
     <use xlink:href="#m56aba16269" x="107.36951" y="293.140551" style="fill: #3fb950; stroke: #3fb950"/>
     <use xlink:href="#m56aba16269" x="109.666573" y="293.140551" style="fill: #3fb950; stroke: #3fb950"/>
     <use xlink:href="#m56aba16269" x="111.963636" y="293.140551" style="fill: #3fb950; stroke: #3fb950"/>
     <use xlink:href="#m56aba16269" x="114.260699" y="293.140551" style="fill: #3fb950; stroke: #3fb950"/>
     <use xlink:href="#m56aba16269" x="116.557762" y="293.140551" style="fill: #3fb950; stroke: #3fb950"/>
     <use xlink:href="#m56aba16269" x="118.854825" y="293.140551" style="fill: #3fb950; stroke: #3fb950"/>
     <use xlink:href="#m56aba16269" x="121.151888" y="293.140551" style="fill: #3fb950; stroke: #3fb950"/>
     <use xlink:href="#m56aba16269" x="123.448951" y="293.140551" style="fill: #3fb950; stroke: #3fb950"/>
     <use xlink:href="#m56aba16269" x="125.746014" y="293.140551" style="fill: #3fb950; stroke: #3fb950"/>
     <use xlink:href="#m56aba16269" x="128.043077" y="293.140551" style="fill: #3fb950; stroke: #3fb950"/>
     <use xlink:href="#m56aba16269" x="130.34014" y="293.140551" style="fill: #3fb950; stroke: #3fb950"/>
     <use xlink:href="#m56aba16269" x="132.637203" y="293.140551" style="fill: #3fb950; stroke: #3fb950"/>
     <use xlink:href="#m56aba16269" x="134.934266" y="293.140551" style="fill: #3fb950; stroke: #3fb950"/>
     <use xlink:href="#m56aba16269" x="137.231329" y="293.140551" style="fill: #3fb950; stroke: #3fb950"/>
     <use xlink:href="#m56aba16269" x="139.528392" y="293.140551" style="fill: #3fb950; stroke: #3fb950"/>
     <use xlink:href="#m56aba16269" x="141.825455" y="293.140551" style="fill: #3fb950; stroke: #3fb950"/>
     <use xlink:href="#m56aba16269" x="144.122517" y="293.140551" style="fill: #3fb950; stroke: #3fb950"/>
     <use xlink:href="#m56aba16269" x="146.41958" y="293.140551" style="fill: #3fb950; stroke: #3fb950"/>
     <use xlink:href="#m56aba16269" x="148.716643" y="293.140551" style="fill: #3fb950; stroke: #3fb950"/>
     <use xlink:href="#m56aba16269" x="151.013706" y="293.140551" style="fill: #3fb950; stroke: #3fb950"/>
     <use xlink:href="#m56aba16269" x="167.093147" y="264.134468" style="fill: #3fb950; stroke: #3fb950"/>
     <use xlink:href="#m56aba16269" x="169.39021" y="264.134468" style="fill: #3fb950; stroke: #3fb950"/>
     <use xlink:href="#m56aba16269" x="171.687273" y="259.990742" style="fill: #3fb950; stroke: #3fb950"/>
     <use xlink:href="#m56aba16269" x="173.984336" y="259.990742" style="fill: #3fb950; stroke: #3fb950"/>
     <use xlink:href="#m56aba16269" x="176.281399" y="259.990742" style="fill: #3fb950; stroke: #3fb950"/>
     <use xlink:href="#m56aba16269" x="178.578462" y="259.990742" style="fill: #3fb950; stroke: #3fb950"/>
     <use xlink:href="#m56aba16269" x="180.875524" y="264.134468" style="fill: #3fb950; stroke: #3fb950"/>
     <use xlink:href="#m56aba16269" x="183.172587" y="264.134468" style="fill: #3fb950; stroke: #3fb950"/>
     <use xlink:href="#m56aba16269" x="185.46965" y="264.134468" style="fill: #3fb950; stroke: #3fb950"/>
     <use xlink:href="#m56aba16269" x="187.766713" y="264.134468" style="fill: #3fb950; stroke: #3fb950"/>
     <use xlink:href="#m56aba16269" x="190.063776" y="264.134468" style="fill: #3fb950; stroke: #3fb950"/>
     <use xlink:href="#m56aba16269" x="192.360839" y="264.134468" style="fill: #3fb950; stroke: #3fb950"/>
     <use xlink:href="#m56aba16269" x="194.657902" y="264.134468" style="fill: #3fb950; stroke: #3fb950"/>
     <use xlink:href="#m56aba16269" x="196.954965" y="264.134468" style="fill: #3fb950; stroke: #3fb950"/>
     <use xlink:href="#m56aba16269" x="199.252028" y="264.134468" style="fill: #3fb950; stroke: #3fb950"/>
     <use xlink:href="#m56aba16269" x="201.549091" y="264.134468" style="fill: #3fb950; stroke: #3fb950"/>
     <use xlink:href="#m56aba16269" x="203.846154" y="264.134468" style="fill: #3fb950; stroke: #3fb950"/>
     <use xlink:href="#m56aba16269" x="206.143217" y="264.134468" style="fill: #3fb950; stroke: #3fb950"/>
     <use xlink:href="#m56aba16269" x="208.44028" y="264.134468" style="fill: #3fb950; stroke: #3fb950"/>
     <use xlink:href="#m56aba16269" x="210.737343" y="264.134468" style="fill: #3fb950; stroke: #3fb950"/>
     <use xlink:href="#m56aba16269" x="213.034406" y="264.134468" style="fill: #3fb950; stroke: #3fb950"/>
     <use xlink:href="#m56aba16269" x="215.331469" y="264.134468" style="fill: #3fb950; stroke: #3fb950"/>
     <use xlink:href="#m56aba16269" x="217.628531" y="259.990742" style="fill: #3fb950; stroke: #3fb950"/>
     <use xlink:href="#m56aba16269" x="219.925594" y="259.990742" style="fill: #3fb950; stroke: #3fb950"/>
     <use xlink:href="#m56aba16269" x="222.222657" y="259.990742" style="fill: #3fb950; stroke: #3fb950"/>
     <use xlink:href="#m56aba16269" x="224.51972" y="259.990742" style="fill: #3fb950; stroke: #3fb950"/>
     <use xlink:href="#m56aba16269" x="226.816783" y="259.990742" style="fill: #3fb950; stroke: #3fb950"/>
     <use xlink:href="#m56aba16269" x="229.113846" y="255.847016" style="fill: #3fb950; stroke: #3fb950"/>
     <use xlink:href="#m56aba16269" x="231.410909" y="251.70329" style="fill: #3fb950; stroke: #3fb950"/>
     <use xlink:href="#m56aba16269" x="233.707972" y="251.70329" style="fill: #3fb950; stroke: #3fb950"/>
     <use xlink:href="#m56aba16269" x="236.005035" y="251.70329" style="fill: #3fb950; stroke: #3fb950"/>
     <use xlink:href="#m56aba16269" x="238.302098" y="251.70329" style="fill: #3fb950; stroke: #3fb950"/>
     <use xlink:href="#m56aba16269" x="240.599161" y="251.70329" style="fill: #3fb950; stroke: #3fb950"/>
     <use xlink:href="#m56aba16269" x="242.896224" y="251.70329" style="fill: #3fb950; stroke: #3fb950"/>
     <use xlink:href="#m56aba16269" x="245.193287" y="247.559564" style="fill: #3fb950; stroke: #3fb950"/>
     <use xlink:href="#m56aba16269" x="247.49035" y="247.559564" style="fill: #3fb950; stroke: #3fb950"/>
     <use xlink:href="#m56aba16269" x="249.787413" y="247.559564" style="fill: #3fb950; stroke: #3fb950"/>
     <use xlink:href="#m56aba16269" x="252.084476" y="243.415837" style="fill: #3fb950; stroke: #3fb950"/>
     <use xlink:href="#m56aba16269" x="254.381538" y="243.415837" style="fill: #3fb950; stroke: #3fb950"/>
     <use xlink:href="#m56aba16269" x="256.678601" y="243.415837" style="fill: #3fb950; stroke: #3fb950"/>
     <use xlink:href="#m56aba16269" x="258.975664" y="243.415837" style="fill: #3fb950; stroke: #3fb950"/>
     <use xlink:href="#m56aba16269" x="261.272727" y="243.415837" style="fill: #3fb950; stroke: #3fb950"/>
     <use xlink:href="#m56aba16269" x="263.56979" y="239.272111" style="fill: #3fb950; stroke: #3fb950"/>
     <use xlink:href="#m56aba16269" x="265.866853" y="239.272111" style="fill: #3fb950; stroke: #3fb950"/>
     <use xlink:href="#m56aba16269" x="268.163916" y="239.272111" style="fill: #3fb950; stroke: #3fb950"/>
     <use xlink:href="#m56aba16269" x="270.460979" y="239.272111" style="fill: #3fb950; stroke: #3fb950"/>
     <use xlink:href="#m56aba16269" x="272.758042" y="235.128385" style="fill: #3fb950; stroke: #3fb950"/>
     <use xlink:href="#m56aba16269" x="275.055105" y="235.128385" style="fill: #3fb950; stroke: #3fb950"/>
     <use xlink:href="#m56aba16269" x="277.352168" y="235.128385" style="fill: #3fb950; stroke: #3fb950"/>
     <use xlink:href="#m56aba16269" x="279.649231" y="235.128385" style="fill: #3fb950; stroke: #3fb950"/>
     <use xlink:href="#m56aba16269" x="281.946294" y="235.128385" style="fill: #3fb950; stroke: #3fb950"/>
     <use xlink:href="#m56aba16269" x="284.243357" y="222.697207" style="fill: #3fb950; stroke: #3fb950"/>
     <use xlink:href="#m56aba16269" x="286.54042" y="222.697207" style="fill: #3fb950; stroke: #3fb950"/>
     <use xlink:href="#m56aba16269" x="288.837483" y="222.697207" style="fill: #3fb950; stroke: #3fb950"/>
     <use xlink:href="#m56aba16269" x="291.134545" y="218.553481" style="fill: #3fb950; stroke: #3fb950"/>
     <use xlink:href="#m56aba16269" x="293.431608" y="218.553481" style="fill: #3fb950; stroke: #3fb950"/>
     <use xlink:href="#m56aba16269" x="295.728671" y="218.553481" style="fill: #3fb950; stroke: #3fb950"/>
     <use xlink:href="#m56aba16269" x="298.025734" y="218.553481" style="fill: #3fb950; stroke: #3fb950"/>
     <use xlink:href="#m56aba16269" x="300.322797" y="218.553481" style="fill: #3fb950; stroke: #3fb950"/>
     <use xlink:href="#m56aba16269" x="302.61986" y="218.553481" style="fill: #3fb950; stroke: #3fb950"/>
     <use xlink:href="#m56aba16269" x="304.916923" y="218.553481" style="fill: #3fb950; stroke: #3fb950"/>
     <use xlink:href="#m56aba16269" x="307.213986" y="218.553481" style="fill: #3fb950; stroke: #3fb950"/>
     <use xlink:href="#m56aba16269" x="309.511049" y="218.553481" style="fill: #3fb950; stroke: #3fb950"/>
     <use xlink:href="#m56aba16269" x="311.808112" y="214.409755" style="fill: #3fb950; stroke: #3fb950"/>
     <use xlink:href="#m56aba16269" x="314.105175" y="214.409755" style="fill: #3fb950; stroke: #3fb950"/>
     <use xlink:href="#m56aba16269" x="318.699301" y="210.266029" style="fill: #3fb950; stroke: #3fb950"/>
     <use xlink:href="#m56aba16269" x="320.996364" y="210.266029" style="fill: #3fb950; stroke: #3fb950"/>
     <use xlink:href="#m56aba16269" x="323.293427" y="206.122303" style="fill: #3fb950; stroke: #3fb950"/>
     <use xlink:href="#m56aba16269" x="325.59049" y="201.978576" style="fill: #3fb950; stroke: #3fb950"/>
     <use xlink:href="#m56aba16269" x="327.887552" y="201.978576" style="fill: #3fb950; stroke: #3fb950"/>
     <use xlink:href="#m56aba16269" x="330.184615" y="201.978576" style="fill: #3fb950; stroke: #3fb950"/>
     <use xlink:href="#m56aba16269" x="332.481678" y="201.978576" style="fill: #3fb950; stroke: #3fb950"/>
     <use xlink:href="#m56aba16269" x="334.778741" y="168.828768" style="fill: #3fb950; stroke: #3fb950"/>
     <use xlink:href="#m56aba16269" x="337.075804" y="168.828768" style="fill: #3fb950; stroke: #3fb950"/>
     <use xlink:href="#m56aba16269" x="339.372867" y="168.828768" style="fill: #3fb950; stroke: #3fb950"/>
     <use xlink:href="#m56aba16269" x="341.66993" y="168.828768" style="fill: #3fb950; stroke: #3fb950"/>
     <use xlink:href="#m56aba16269" x="343.966993" y="168.828768" style="fill: #3fb950; stroke: #3fb950"/>
     <use xlink:href="#m56aba16269" x="346.264056" y="168.828768" style="fill: #3fb950; stroke: #3fb950"/>
     <use xlink:href="#m56aba16269" x="348.561119" y="168.828768" style="fill: #3fb950; stroke: #3fb950"/>
     <use xlink:href="#m56aba16269" x="350.858182" y="168.828768" style="fill: #3fb950; stroke: #3fb950"/>
     <use xlink:href="#m56aba16269" x="353.155245" y="168.828768" style="fill: #3fb950; stroke: #3fb950"/>
     <use xlink:href="#m56aba16269" x="355.452308" y="168.828768" style="fill: #3fb950; stroke: #3fb950"/>
     <use xlink:href="#m56aba16269" x="357.749371" y="168.828768" style="fill: #3fb950; stroke: #3fb950"/>
     <use xlink:href="#m56aba16269" x="360.046434" y="168.828768" style="fill: #3fb950; stroke: #3fb950"/>
     <use xlink:href="#m56aba16269" x="362.343497" y="164.685042" style="fill: #3fb950; stroke: #3fb950"/>
     <use xlink:href="#m56aba16269" x="364.640559" y="164.685042" style="fill: #3fb950; stroke: #3fb950"/>
     <use xlink:href="#m56aba16269" x="366.937622" y="164.685042" style="fill: #3fb950; stroke: #3fb950"/>
     <use xlink:href="#m56aba16269" x="369.234685" y="164.685042" style="fill: #3fb950; stroke: #3fb950"/>
     <use xlink:href="#m56aba16269" x="371.531748" y="160.541315" style="fill: #3fb950; stroke: #3fb950"/>
     <use xlink:href="#m56aba16269" x="373.828811" y="160.541315" style="fill: #3fb950; stroke: #3fb950"/>
     <use xlink:href="#m56aba16269" x="376.125874" y="156.397589" style="fill: #3fb950; stroke: #3fb950"/>
     <use xlink:href="#m56aba16269" x="378.422937" y="156.397589" style="fill: #3fb950; stroke: #3fb950"/>
     <use xlink:href="#m56aba16269" x="380.72" y="156.397589" style="fill: #3fb950; stroke: #3fb950"/>
     <use xlink:href="#m56aba16269" x="383.017063" y="156.397589" style="fill: #3fb950; stroke: #3fb950"/>
     <use xlink:href="#m56aba16269" x="385.314126" y="156.397589" style="fill: #3fb950; stroke: #3fb950"/>
     <use xlink:href="#m56aba16269" x="387.611189" y="156.397589" style="fill: #3fb950; stroke: #3fb950"/>
     <use xlink:href="#m56aba16269" x="389.908252" y="156.397589" style="fill: #3fb950; stroke: #3fb950"/>
     <use xlink:href="#m56aba16269" x="392.205315" y="156.397589" style="fill: #3fb950; stroke: #3fb950"/>
     <use xlink:href="#m56aba16269" x="394.502378" y="156.397589" style="fill: #3fb950; stroke: #3fb950"/>
     <use xlink:href="#m56aba16269" x="396.799441" y="156.397589" style="fill: #3fb950; stroke: #3fb950"/>
     <use xlink:href="#m56aba16269" x="399.096503" y="156.397589" style="fill: #3fb950; stroke: #3fb950"/>
     <use xlink:href="#m56aba16269" x="401.393566" y="156.397589" style="fill: #3fb950; stroke: #3fb950"/>
     <use xlink:href="#m56aba16269" x="403.690629" y="156.397589" style="fill: #3fb950; stroke: #3fb950"/>
     <use xlink:href="#m56aba16269" x="405.987692" y="156.397589" style="fill: #3fb950; stroke: #3fb950"/>
     <use xlink:href="#m56aba16269" x="408.284755" y="156.397589" style="fill: #3fb950; stroke: #3fb950"/>
     <use xlink:href="#m56aba16269" x="410.581818" y="156.397589" style="fill: #3fb950; stroke: #3fb950"/>
     <use xlink:href="#m56aba16269" x="412.878881" y="156.397589" style="fill: #3fb950; stroke: #3fb950"/>
     <use xlink:href="#m56aba16269" x="415.175944" y="127.391507" style="fill: #3fb950; stroke: #3fb950"/>
     <use xlink:href="#m56aba16269" x="417.473007" y="127.391507" style="fill: #3fb950; stroke: #3fb950"/>
     <use xlink:href="#m56aba16269" x="419.77007" y="127.391507" style="fill: #3fb950; stroke: #3fb950"/>
     <use xlink:href="#m56aba16269" x="422.067133" y="127.391507" style="fill: #3fb950; stroke: #3fb950"/>
     <use xlink:href="#m56aba16269" x="424.364196" y="127.391507" style="fill: #3fb950; stroke: #3fb950"/>
     <use xlink:href="#m56aba16269" x="426.661259" y="127.391507" style="fill: #3fb950; stroke: #3fb950"/>
     <use xlink:href="#m56aba16269" x="428.958322" y="127.391507" style="fill: #3fb950; stroke: #3fb950"/>
     <use xlink:href="#m56aba16269" x="431.255385" y="123.247781" style="fill: #3fb950; stroke: #3fb950"/>
     <use xlink:href="#m56aba16269" x="433.552448" y="119.104054" style="fill: #3fb950; stroke: #3fb950"/>
     <use xlink:href="#m56aba16269" x="435.84951" y="119.104054" style="fill: #3fb950; stroke: #3fb950"/>
     <use xlink:href="#m56aba16269" x="438.146573" y="119.104054" style="fill: #3fb950; stroke: #3fb950"/>
     <use xlink:href="#m56aba16269" x="440.443636" y="119.104054" style="fill: #3fb950; stroke: #3fb950"/>
     <use xlink:href="#m56aba16269" x="442.740699" y="119.104054" style="fill: #3fb950; stroke: #3fb950"/>
     <use xlink:href="#m56aba16269" x="445.037762" y="119.104054" style="fill: #3fb950; stroke: #3fb950"/>
     <use xlink:href="#m56aba16269" x="447.334825" y="119.104054" style="fill: #3fb950; stroke: #3fb950"/>
     <use xlink:href="#m56aba16269" x="449.631888" y="114.960328" style="fill: #3fb950; stroke: #3fb950"/>
     <use xlink:href="#m56aba16269" x="451.928951" y="114.960328" style="fill: #3fb950; stroke: #3fb950"/>
     <use xlink:href="#m56aba16269" x="454.226014" y="110.816602" style="fill: #3fb950; stroke: #3fb950"/>
     <use xlink:href="#m56aba16269" x="456.523077" y="110.816602" style="fill: #3fb950; stroke: #3fb950"/>
     <use xlink:href="#m56aba16269" x="458.82014" y="110.816602" style="fill: #3fb950; stroke: #3fb950"/>
     <use xlink:href="#m56aba16269" x="461.117203" y="110.816602" style="fill: #3fb950; stroke: #3fb950"/>
     <use xlink:href="#m56aba16269" x="463.414266" y="106.672876" style="fill: #3fb950; stroke: #3fb950"/>
     <use xlink:href="#m56aba16269" x="465.711329" y="106.672876" style="fill: #3fb950; stroke: #3fb950"/>
     <use xlink:href="#m56aba16269" x="468.008392" y="106.672876" style="fill: #3fb950; stroke: #3fb950"/>
     <use xlink:href="#m56aba16269" x="470.305455" y="102.52915" style="fill: #3fb950; stroke: #3fb950"/>
     <use xlink:href="#m56aba16269" x="472.602517" y="102.52915" style="fill: #3fb950; stroke: #3fb950"/>
     <use xlink:href="#m56aba16269" x="474.89958" y="98.385424" style="fill: #3fb950; stroke: #3fb950"/>
     <use xlink:href="#m56aba16269" x="477.196643" y="98.385424" style="fill: #3fb950; stroke: #3fb950"/>
     <use xlink:href="#m56aba16269" x="479.493706" y="98.385424" style="fill: #3fb950; stroke: #3fb950"/>
     <use xlink:href="#m56aba16269" x="481.790769" y="98.385424" style="fill: #3fb950; stroke: #3fb950"/>
     <use xlink:href="#m56aba16269" x="484.087832" y="94.241698" style="fill: #3fb950; stroke: #3fb950"/>
     <use xlink:href="#m56aba16269" x="486.384895" y="94.241698" style="fill: #3fb950; stroke: #3fb950"/>
     <use xlink:href="#m56aba16269" x="488.681958" y="94.241698" style="fill: #3fb950; stroke: #3fb950"/>
     <use xlink:href="#m56aba16269" x="490.979021" y="94.241698" style="fill: #3fb950; stroke: #3fb950"/>
     <use xlink:href="#m56aba16269" x="493.276084" y="94.241698" style="fill: #3fb950; stroke: #3fb950"/>
     <use xlink:href="#m56aba16269" x="495.573147" y="94.241698" style="fill: #3fb950; stroke: #3fb950"/>
     <use xlink:href="#m56aba16269" x="497.87021" y="94.241698" style="fill: #3fb950; stroke: #3fb950"/>
     <use xlink:href="#m56aba16269" x="500.167273" y="94.241698" style="fill: #3fb950; stroke: #3fb950"/>
     <use xlink:href="#m56aba16269" x="502.464336" y="94.241698" style="fill: #3fb950; stroke: #3fb950"/>
     <use xlink:href="#m56aba16269" x="504.761399" y="94.241698" style="fill: #3fb950; stroke: #3fb950"/>
     <use xlink:href="#m56aba16269" x="507.058462" y="90.097972" style="fill: #3fb950; stroke: #3fb950"/>
     <use xlink:href="#m56aba16269" x="509.355524" y="90.097972" style="fill: #3fb950; stroke: #3fb950"/>
     <use xlink:href="#m56aba16269" x="511.652587" y="90.097972" style="fill: #3fb950; stroke: #3fb950"/>
     <use xlink:href="#m56aba16269" x="513.94965" y="90.097972" style="fill: #3fb950; stroke: #3fb950"/>
     <use xlink:href="#m56aba16269" x="516.246713" y="90.097972" style="fill: #3fb950; stroke: #3fb950"/>
     <use xlink:href="#m56aba16269" x="518.543776" y="90.097972" style="fill: #3fb950; stroke: #3fb950"/>
     <use xlink:href="#m56aba16269" x="520.840839" y="90.097972" style="fill: #3fb950; stroke: #3fb950"/>
     <use xlink:href="#m56aba16269" x="523.137902" y="90.097972" style="fill: #3fb950; stroke: #3fb950"/>
     <use xlink:href="#m56aba16269" x="525.434965" y="90.097972" style="fill: #3fb950; stroke: #3fb950"/>
     <use xlink:href="#m56aba16269" x="527.732028" y="85.954246" style="fill: #3fb950; stroke: #3fb950"/>
     <use xlink:href="#m56aba16269" x="530.029091" y="85.954246" style="fill: #3fb950; stroke: #3fb950"/>
     <use xlink:href="#m56aba16269" x="532.326154" y="90.097972" style="fill: #3fb950; stroke: #3fb950"/>
     <use xlink:href="#m56aba16269" x="534.623217" y="90.097972" style="fill: #3fb950; stroke: #3fb950"/>
     <use xlink:href="#m56aba16269" x="536.92028" y="90.097972" style="fill: #3fb950; stroke: #3fb950"/>
     <use xlink:href="#m56aba16269" x="539.217343" y="90.097972" style="fill: #3fb950; stroke: #3fb950"/>
     <use xlink:href="#m56aba16269" x="541.514406" y="85.954246" style="fill: #3fb950; stroke: #3fb950"/>
     <use xlink:href="#m56aba16269" x="543.811469" y="85.954246" style="fill: #3fb950; stroke: #3fb950"/>
     <use xlink:href="#m56aba16269" x="546.108531" y="85.954246" style="fill: #3fb950; stroke: #3fb950"/>
     <use xlink:href="#m56aba16269" x="548.405594" y="85.954246" style="fill: #3fb950; stroke: #3fb950"/>
     <use xlink:href="#m56aba16269" x="550.702657" y="85.954246" style="fill: #3fb950; stroke: #3fb950"/>
     <use xlink:href="#m56aba16269" x="552.99972" y="81.81052" style="fill: #3fb950; stroke: #3fb950"/>
     <use xlink:href="#m56aba16269" x="555.296783" y="81.81052" style="fill: #3fb950; stroke: #3fb950"/>
     <use xlink:href="#m56aba16269" x="557.593846" y="81.81052" style="fill: #3fb950; stroke: #3fb950"/>
     <use xlink:href="#m56aba16269" x="559.890909" y="81.81052" style="fill: #3fb950; stroke: #3fb950"/>
     <use xlink:href="#m56aba16269" x="562.187972" y="81.81052" style="fill: #3fb950; stroke: #3fb950"/>
     <use xlink:href="#m56aba16269" x="564.485035" y="81.81052" style="fill: #3fb950; stroke: #3fb950"/>
     <use xlink:href="#m56aba16269" x="566.782098" y="81.81052" style="fill: #3fb950; stroke: #3fb950"/>
     <use xlink:href="#m56aba16269" x="569.079161" y="81.81052" style="fill: #3fb950; stroke: #3fb950"/>
     <use xlink:href="#m56aba16269" x="571.376224" y="81.81052" style="fill: #3fb950; stroke: #3fb950"/>
     <use xlink:href="#m56aba16269" x="573.673287" y="81.81052" style="fill: #3fb950; stroke: #3fb950"/>
     <use xlink:href="#m56aba16269" x="575.97035" y="81.81052" style="fill: #3fb950; stroke: #3fb950"/>
     <use xlink:href="#m56aba16269" x="578.267413" y="81.81052" style="fill: #3fb950; stroke: #3fb950"/>
     <use xlink:href="#m56aba16269" x="580.564476" y="81.81052" style="fill: #3fb950; stroke: #3fb950"/>
     <use xlink:href="#m56aba16269" x="582.861538" y="81.81052" style="fill: #3fb950; stroke: #3fb950"/>
     <use xlink:href="#m56aba16269" x="585.158601" y="73.523067" style="fill: #3fb950; stroke: #3fb950"/>
     <use xlink:href="#m56aba16269" x="587.455664" y="73.523067" style="fill: #3fb950; stroke: #3fb950"/>
     <use xlink:href="#m56aba16269" x="589.752727" y="65.235615" style="fill: #3fb950; stroke: #3fb950"/>
     <use xlink:href="#m56aba16269" x="592.04979" y="65.235615" style="fill: #3fb950; stroke: #3fb950"/>
     <use xlink:href="#m56aba16269" x="594.346853" y="65.235615" style="fill: #3fb950; stroke: #3fb950"/>
     <use xlink:href="#m56aba16269" x="596.643916" y="65.235615" style="fill: #3fb950; stroke: #3fb950"/>
     <use xlink:href="#m56aba16269" x="598.940979" y="65.235615" style="fill: #3fb950; stroke: #3fb950"/>
     <use xlink:href="#m56aba16269" x="601.238042" y="65.235615" style="fill: #3fb950; stroke: #3fb950"/>
     <use xlink:href="#m56aba16269" x="603.535105" y="65.235615" style="fill: #3fb950; stroke: #3fb950"/>
     <use xlink:href="#m56aba16269" x="605.832168" y="65.235615" style="fill: #3fb950; stroke: #3fb950"/>
     <use xlink:href="#m56aba16269" x="608.129231" y="65.235615" style="fill: #3fb950; stroke: #3fb950"/>
     <use xlink:href="#m56aba16269" x="610.426294" y="65.235615" style="fill: #3fb950; stroke: #3fb950"/>
     <use xlink:href="#m56aba16269" x="612.723357" y="65.235615" style="fill: #3fb950; stroke: #3fb950"/>
     <use xlink:href="#m56aba16269" x="615.02042" y="65.235615" style="fill: #3fb950; stroke: #3fb950"/>
     <use xlink:href="#m56aba16269" x="617.317483" y="65.235615" style="fill: #3fb950; stroke: #3fb950"/>
     <use xlink:href="#m56aba16269" x="619.614545" y="65.235615" style="fill: #3fb950; stroke: #3fb950"/>
     <use xlink:href="#m56aba16269" x="621.911608" y="65.235615" style="fill: #3fb950; stroke: #3fb950"/>
     <use xlink:href="#m56aba16269" x="624.208671" y="65.235615" style="fill: #3fb950; stroke: #3fb950"/>
     <use xlink:href="#m56aba16269" x="626.505734" y="65.235615" style="fill: #3fb950; stroke: #3fb950"/>
     <use xlink:href="#m56aba16269" x="628.802797" y="65.235615" style="fill: #3fb950; stroke: #3fb950"/>
     <use xlink:href="#m56aba16269" x="631.09986" y="65.235615" style="fill: #3fb950; stroke: #3fb950"/>
     <use xlink:href="#m56aba16269" x="633.396923" y="61.091889" style="fill: #3fb950; stroke: #3fb950"/>
     <use xlink:href="#m56aba16269" x="635.693986" y="61.091889" style="fill: #3fb950; stroke: #3fb950"/>
     <use xlink:href="#m56aba16269" x="637.991049" y="61.091889" style="fill: #3fb950; stroke: #3fb950"/>
     <use xlink:href="#m56aba16269" x="640.288112" y="61.091889" style="fill: #3fb950; stroke: #3fb950"/>
     <use xlink:href="#m56aba16269" x="642.585175" y="56.948163" style="fill: #3fb950; stroke: #3fb950"/>
     <use xlink:href="#m56aba16269" x="644.882238" y="52.804437" style="fill: #3fb950; stroke: #3fb950"/>
     <use xlink:href="#m56aba16269" x="647.179301" y="52.804437" style="fill: #3fb950; stroke: #3fb950"/>
     <use xlink:href="#m56aba16269" x="649.476364" y="52.804437" style="fill: #3fb950; stroke: #3fb950"/>
     <use xlink:href="#m56aba16269" x="651.773427" y="52.804437" style="fill: #3fb950; stroke: #3fb950"/>
     <use xlink:href="#m56aba16269" x="654.07049" y="52.804437" style="fill: #3fb950; stroke: #3fb950"/>
     <use xlink:href="#m56aba16269" x="656.367552" y="52.804437" style="fill: #3fb950; stroke: #3fb950"/>
     <use xlink:href="#m56aba16269" x="658.664615" y="52.804437" style="fill: #3fb950; stroke: #3fb950"/>
     <use xlink:href="#m56aba16269" x="660.961678" y="52.804437" style="fill: #3fb950; stroke: #3fb950"/>
     <use xlink:href="#m56aba16269" x="663.258741" y="52.804437" style="fill: #3fb950; stroke: #3fb950"/>
     <use xlink:href="#m56aba16269" x="665.555804" y="52.804437" style="fill: #3fb950; stroke: #3fb950"/>
     <use xlink:href="#m56aba16269" x="667.852867" y="52.804437" style="fill: #3fb950; stroke: #3fb950"/>
     <use xlink:href="#m56aba16269" x="670.14993" y="48.660711" style="fill: #3fb950; stroke: #3fb950"/>
     <use xlink:href="#m56aba16269" x="672.446993" y="48.660711" style="fill: #3fb950; stroke: #3fb950"/>
     <use xlink:href="#m56aba16269" x="674.744056" y="48.660711" style="fill: #3fb950; stroke: #3fb950"/>
     <use xlink:href="#m56aba16269" x="677.041119" y="48.660711" style="fill: #3fb950; stroke: #3fb950"/>
     <use xlink:href="#m56aba16269" x="679.338182" y="48.660711" style="fill: #3fb950; stroke: #3fb950"/>
    </g>
   </g>
   <g id="patch_3">
    <path d="M 52.24 305.364543 
L 52.24 36.436719 
" style="fill: none; stroke: #30363d; stroke-width: 0.8; stroke-linejoin: miter; stroke-linecap: square"/>
   </g>
   <g id="patch_4">
    <path d="M 709.2 305.364543 
L 709.2 36.436719 
" style="fill: none; stroke: #30363d; stroke-width: 0.8; stroke-linejoin: miter; stroke-linecap: square"/>
   </g>
   <g id="patch_5">
    <path d="M 52.24 305.364543 
L 709.2 305.364543 
" style="fill: none; stroke: #30363d; stroke-width: 0.8; stroke-linejoin: miter; stroke-linecap: square"/>
   </g>
   <g id="patch_6">
    <path d="M 52.24 36.436719 
L 709.2 36.436719 
" style="fill: none; stroke: #30363d; stroke-width: 0.8; stroke-linejoin: miter; stroke-linecap: square"/>
   </g>
   <g id="text_18">
    <g id="patch_7">
     <path d="M 626.549394 64.18311 
L 696.0608 64.18311 
Q 699.3608 64.18311 699.3608 60.88311 
L 699.3608 49.88311 
Q 699.3608 46.58311 696.0608 46.58311 
L 626.549394 46.58311 
Q 623.249394 46.58311 623.249394 49.88311 
L 623.249394 60.88311 
Q 623.249394 64.18311 626.549394 64.18311 
z
" style="fill: #30363d; opacity: 0.8; stroke: #3fb950; stroke-linejoin: miter"/>
    </g>
    <!-- Current: 125 -->
    <g style="fill: #c9d1d9" transform="translate(626.549394 58.240532) scale(0.11 -0.11)">
     <defs>
      <path id="DejaVuSans-1d" d="M 750 794 
L 1409 794 
L 1409 0 
L 750 0 
L 750 794 
z
M 750 3309 
L 1409 3309 
L 1409 2516 
L 750 2516 
L 750 3309 
z
" transform="scale(0.015625)"/>
      <path id="DejaVuSans-3" transform="scale(0.015625)"/>
      <path id="DejaVuSans-18" d="M 691 4666 
L 3169 4666 
L 3169 4134 
L 1269 4134 
L 1269 2991 
Q 1406 3038 1543 3061 
Q 1681 3084 1819 3084 
Q 2600 3084 3056 2656 
Q 3513 2228 3513 1497 
Q 3513 744 3044 326 
Q 2575 -91 1722 -91 
Q 1428 -91 1123 -41 
Q 819 9 494 109 
L 494 744 
Q 775 591 1075 516 
Q 1375 441 1709 441 
Q 2250 441 2565 725 
Q 2881 1009 2881 1497 
Q 2881 1984 2565 2268 
Q 2250 2553 1709 2553 
Q 1456 2553 1204 2497 
Q 953 2441 691 2322 
L 691 4666 
z
" transform="scale(0.015625)"/>
     </defs>
     <use xlink:href="#DejaVuSans-26"/>
     <use xlink:href="#DejaVuSans-58" transform="translate(69.828125 0)"/>
     <use xlink:href="#DejaVuSans-55" transform="translate(133.203125 0)"/>
     <use xlink:href="#DejaVuSans-55" transform="translate(172.5625 0)"/>
     <use xlink:href="#DejaVuSans-48" transform="translate(211.46875 0)"/>
     <use xlink:href="#DejaVuSans-51" transform="translate(273 0)"/>
     <use xlink:href="#DejaVuSans-57" transform="translate(336.375 0)"/>
     <use xlink:href="#DejaVuSans-1d" transform="translate(375.578125 0)"/>
     <use xlink:href="#DejaVuSans-3" transform="translate(409.265625 0)"/>
     <use xlink:href="#DejaVuSans-14" transform="translate(441.046875 0)"/>
     <use xlink:href="#DejaVuSans-15" transform="translate(504.671875 0)"/>
     <use xlink:href="#DejaVuSans-18" transform="translate(568.296875 0)"/>
    </g>
   </g>
   <g id="text_19">
    <!-- Total Repository Stars -->
    <g style="fill: #c9d1d9" transform="translate(293.299844 21.436719) scale(0.14 -0.14)">
     <defs>
      <path id="DejaVuSans-Bold-37" d="M 31 4666 
L 4331 4666 
L 4331 3756 
L 2784 3756 
L 2784 0 
L 1581 0 
L 1581 3756 
L 31 3756 
L 31 4666 
z
" transform="scale(0.015625)"/>
      <path id="DejaVuSans-Bold-52" d="M 2203 2784 
Q 1831 2784 1636 2517 
Q 1441 2250 1441 1747 
Q 1441 1244 1636 976 
Q 1831 709 2203 709 
Q 2569 709 2762 976 
Q 2956 1244 2956 1747 
Q 2956 2250 2762 2517 
Q 2569 2784 2203 2784 
z
M 2203 3584 
Q 3106 3584 3614 3096 
Q 4122 2609 4122 1747 
Q 4122 884 3614 396 
Q 3106 -91 2203 -91 
Q 1297 -91 786 396 
Q 275 884 275 1747 
Q 275 2609 786 3096 
Q 1297 3584 2203 3584 
z
" transform="scale(0.015625)"/>
      <path id="DejaVuSans-Bold-57" d="M 1759 4494 
L 1759 3500 
L 2913 3500 
L 2913 2700 
L 1759 2700 
L 1759 1216 
Q 1759 972 1856 886 
Q 1953 800 2241 800 
L 2816 800 
L 2816 0 
L 1856 0 
Q 1194 0 917 276 
Q 641 553 641 1216 
L 641 2700 
L 84 2700 
L 84 3500 
L 641 3500 
L 641 4494 
L 1759 4494 
z
" transform="scale(0.015625)"/>
      <path id="DejaVuSans-Bold-44" d="M 2106 1575 
Q 1756 1575 1579 1456 
Q 1403 1338 1403 1106 
Q 1403 894 1545 773 
Q 1688 653 1941 653 
Q 2256 653 2472 879 
Q 2688 1106 2688 1447 
L 2688 1575 
L 2106 1575 
z
M 3816 1997 
L 3816 0 
L 2688 0 
L 2688 519 
Q 2463 200 2181 54 
Q 1900 -91 1497 -91 
Q 953 -91 614 226 
Q 275 544 275 1050 
Q 275 1666 698 1953 
Q 1122 2241 2028 2241 
L 2688 2241 
L 2688 2328 
Q 2688 2594 2478 2717 
Q 2269 2841 1825 2841 
Q 1466 2841 1156 2769 
Q 847 2697 581 2553 
L 581 3406 
Q 941 3494 1303 3539 
Q 1666 3584 2028 3584 
Q 2975 3584 3395 3211 
Q 3816 2838 3816 1997 
z
" transform="scale(0.015625)"/>
      <path id="DejaVuSans-Bold-4f" d="M 538 4863 
L 1656 4863 
L 1656 0 
L 538 0 
L 538 4863 
z
" transform="scale(0.015625)"/>
      <path id="DejaVuSans-Bold-3" transform="scale(0.015625)"/>
      <path id="DejaVuSans-Bold-35" d="M 2297 2597 
Q 2675 2597 2839 2737 
Q 3003 2878 3003 3200 
Q 3003 3519 2839 3656 
Q 2675 3794 2297 3794 
L 1791 3794 
L 1791 2597 
L 2297 2597 
z
M 1791 1766 
L 1791 0 
L 588 0 
L 588 4666 
L 2425 4666 
Q 3347 4666 3776 4356 
Q 4206 4047 4206 3378 
Q 4206 2916 3982 2619 
Q 3759 2322 3309 2181 
Q 3556 2125 3751 1926 
Q 3947 1728 4147 1325 
L 4800 0 
L 3519 0 
L 2950 1159 
Q 2778 1509 2601 1637 
Q 2425 1766 2131 1766 
L 1791 1766 
z
" transform="scale(0.015625)"/>
      <path id="DejaVuSans-Bold-48" d="M 4031 1759 
L 4031 1441 
L 1416 1441 
Q 1456 1047 1700 850 
Q 1944 653 2381 653 
Q 2734 653 3104 758 
Q 3475 863 3866 1075 
L 3866 213 
Q 3469 63 3072 -14 
Q 2675 -91 2278 -91 
Q 1328 -91 801 392 
Q 275 875 275 1747 
Q 275 2603 792 3093 
Q 1309 3584 2216 3584 
Q 3041 3584 3536 3087 
Q 4031 2591 4031 1759 
z
M 2881 2131 
Q 2881 2450 2695 2645 
Q 2509 2841 2209 2841 
Q 1884 2841 1681 2658 
Q 1478 2475 1428 2131 
L 2881 2131 
z
" transform="scale(0.015625)"/>
      <path id="DejaVuSans-Bold-53" d="M 1656 506 
L 1656 -1331 
L 538 -1331 
L 538 3500 
L 1656 3500 
L 1656 2988 
Q 1888 3294 2169 3439 
Q 2450 3584 2816 3584 
Q 3463 3584 3878 3070 
Q 4294 2556 4294 1747 
Q 4294 938 3878 423 
Q 3463 -91 2816 -91 
Q 2450 -91 2169 54 
Q 1888 200 1656 506 
z
M 2400 2772 
Q 2041 2772 1848 2508 
Q 1656 2244 1656 1747 
Q 1656 1250 1848 986 
Q 2041 722 2400 722 
Q 2759 722 2948 984 
Q 3138 1247 3138 1747 
Q 3138 2247 2948 2509 
Q 2759 2772 2400 2772 
z
" transform="scale(0.015625)"/>
      <path id="DejaVuSans-Bold-56" d="M 3272 3391 
L 3272 2541 
Q 2913 2691 2578 2766 
Q 2244 2841 1947 2841 
Q 1628 2841 1473 2761 
Q 1319 2681 1319 2516 
Q 1319 2381 1436 2309 
Q 1553 2238 1856 2203 
L 2053 2175 
Q 2913 2066 3209 1816 
Q 3506 1566 3506 1031 
Q 3506 472 3093 190 
Q 2681 -91 1863 -91 
Q 1516 -91 1145 -36 
Q 775 19 384 128 
L 384 978 
Q 719 816 1070 734 
Q 1422 653 1784 653 
Q 2113 653 2278 743 
Q 2444 834 2444 1013 
Q 2444 1163 2330 1236 
Q 2216 1309 1875 1350 
L 1678 1375 
Q 931 1469 631 1722 
Q 331 1975 331 2491 
Q 331 3047 712 3315 
Q 1094 3584 1881 3584 
Q 2191 3584 2531 3537 
Q 2872 3491 3272 3391 
z
" transform="scale(0.015625)"/>
      <path id="DejaVuSans-Bold-4c" d="M 538 3500 
L 1656 3500 
L 1656 0 
L 538 0 
L 538 3500 
z
M 538 4863 
L 1656 4863 
L 1656 3950 
L 538 3950 
L 538 4863 
z
" transform="scale(0.015625)"/>
      <path id="DejaVuSans-Bold-55" d="M 3138 2547 
Q 2991 2616 2845 2648 
Q 2700 2681 2553 2681 
Q 2122 2681 1889 2404 
Q 1656 2128 1656 1613 
L 1656 0 
L 538 0 
L 538 3500 
L 1656 3500 
L 1656 2925 
Q 1872 3269 2151 3426 
Q 2431 3584 2822 3584 
Q 2878 3584 2943 3579 
Q 3009 3575 3134 3559 
L 3138 2547 
z
" transform="scale(0.015625)"/>
      <path id="DejaVuSans-Bold-5c" d="M 78 3500 
L 1197 3500 
L 2138 1125 
L 2938 3500 
L 4056 3500 
L 2584 -331 
Q 2363 -916 2067 -1148 
Q 1772 -1381 1288 -1381 
L 641 -1381 
L 641 -647 
L 991 -647 
Q 1275 -647 1404 -556 
Q 1534 -466 1606 -231 
L 1638 -134 
L 78 3500 
z
" transform="scale(0.015625)"/>
      <path id="DejaVuSans-Bold-36" d="M 3834 4519 
L 3834 3531 
Q 3450 3703 3084 3790 
Q 2719 3878 2394 3878 
Q 1963 3878 1756 3759 
Q 1550 3641 1550 3391 
Q 1550 3203 1689 3098 
Q 1828 2994 2194 2919 
L 2706 2816 
Q 3484 2659 3812 2340 
Q 4141 2022 4141 1434 
Q 4141 663 3683 286 
Q 3225 -91 2284 -91 
Q 1841 -91 1394 -6 
Q 947 78 500 244 
L 500 1259 
Q 947 1022 1364 901 
Q 1781 781 2169 781 
Q 2563 781 2772 912 
Q 2981 1044 2981 1288 
Q 2981 1506 2839 1625 
Q 2697 1744 2272 1838 
L 1806 1941 
Q 1106 2091 782 2419 
Q 459 2747 459 3303 
Q 459 4000 909 4375 
Q 1359 4750 2203 4750 
Q 2588 4750 2994 4692 
Q 3400 4634 3834 4519 
z
" transform="scale(0.015625)"/>
     </defs>
     <use xlink:href="#DejaVuSans-Bold-37"/>
     <use xlink:href="#DejaVuSans-Bold-52" transform="translate(54.9375 0)"/>
     <use xlink:href="#DejaVuSans-Bold-57" transform="translate(123.640625 0)"/>
     <use xlink:href="#DejaVuSans-Bold-44" transform="translate(171.4375 0)"/>
     <use xlink:href="#DejaVuSans-Bold-4f" transform="translate(238.921875 0)"/>
     <use xlink:href="#DejaVuSans-Bold-3" transform="translate(273.203125 0)"/>
     <use xlink:href="#DejaVuSans-Bold-35" transform="translate(308.015625 0)"/>
     <use xlink:href="#DejaVuSans-Bold-48" transform="translate(385.015625 0)"/>
     <use xlink:href="#DejaVuSans-Bold-53" transform="translate(452.84375 0)"/>
     <use xlink:href="#DejaVuSans-Bold-52" transform="translate(524.421875 0)"/>
     <use xlink:href="#DejaVuSans-Bold-56" transform="translate(593.125 0)"/>
     <use xlink:href="#DejaVuSans-Bold-4c" transform="translate(652.640625 0)"/>
     <use xlink:href="#DejaVuSans-Bold-57" transform="translate(686.921875 0)"/>
     <use xlink:href="#DejaVuSans-Bold-52" transform="translate(734.71875 0)"/>
     <use xlink:href="#DejaVuSans-Bold-55" transform="translate(803.421875 0)"/>
     <use xlink:href="#DejaVuSans-Bold-5c" transform="translate(852.734375 0)"/>
     <use xlink:href="#DejaVuSans-Bold-3" transform="translate(917.921875 0)"/>
     <use xlink:href="#DejaVuSans-Bold-36" transform="translate(952.734375 0)"/>
     <use xlink:href="#DejaVuSans-Bold-57" transform="translate(1024.75 0)"/>
     <use xlink:href="#DejaVuSans-Bold-44" transform="translate(1072.546875 0)"/>
     <use xlink:href="#DejaVuSans-Bold-55" transform="translate(1140.03125 0)"/>
     <use xlink:href="#DejaVuSans-Bold-56" transform="translate(1189.34375 0)"/>
    </g>
   </g>
  </g>
 </g>
 <defs>
  <clipPath id="p16dfad4819">
   <rect x="52.24" y="36.436719" width="656.96" height="268.927824"/>
  </clipPath>
 </defs>
</svg>
