<?xml version="1.0" encoding="utf-8" standalone="no"?>
<!DOCTYPE svg PUBLIC "-//W3C//DTD SVG 1.1//EN"
  "http://www.w3.org/Graphics/SVG/1.1/DTD/svg11.dtd">
<svg xmlns:xlink="http://www.w3.org/1999/xlink" width="720pt" height="360pt" viewBox="0 0 720 360" xmlns="http://www.w3.org/2000/svg" version="1.1">
 <metadata>
  <rdf:RDF xmlns:dc="http://purl.org/dc/elements/1.1/" xmlns:cc="http://creativecommons.org/ns#" xmlns:rdf="http://www.w3.org/1999/02/22-rdf-syntax-ns#">
   <cc:Work>
    <dc:type rdf:resource="http://purl.org/dc/dcmitype/StillImage"/>
    <dc:date>2026-05-26T00:43:36.213235</dc:date>
    <dc:format>image/svg+xml</dc:format>
    <dc:creator>
     <cc:Agent>
      <dc:title>Matplotlib v3.10.9, https://matplotlib.org/</dc:title>
     </cc:Agent>
    </dc:creator>
   </cc:Work>
  </rdf:RDF>
 </metadata>
 <defs>
  <style type="text/css">*{stroke-linejoin: round; stroke-linecap: butt}</style>
 </defs>
 <g id="figure_1">
  <g id="patch_1">
   <path d="M 0 360 
L 720 360 
L 720 0 
L 0 0 
z
" style="fill: #0d1117"/>
  </g>
  <g id="axes_1">
   <g id="patch_2">
    <path d="M 51.68 305.571614 
L 709.2 305.571614 
L 709.2 36.6 
L 51.68 36.6 
z
" style="fill: #0d1117"/>
   </g>
   <g id="matplotlib.axis_1">
    <g id="xtick_1">
     <g id="line2d_1">
      <path d="M 93.917385 305.571614 
L 93.917385 36.6 
" clip-path="url(#pdc020de330)" style="fill: none; stroke: #30363d; stroke-opacity: 0.2; stroke-width: 0.8; stroke-linecap: square"/>
     </g>
     <g id="line2d_2">
      <defs>
       <path id="m6b32dce9c4" d="M 0 0 
L 0 3.5 
" style="stroke: #c9d1d9; stroke-width: 0.8"/>
      </defs>
      <g>
       <use xlink:href="#m6b32dce9c4" x="93.917385" y="305.571614" style="fill: #c9d1d9; stroke: #c9d1d9; stroke-width: 0.8"/>
      </g>
     </g>
     <g id="text_1">
      <!-- Oct -->
      <g style="fill: #c9d1d9" transform="translate(80.220506 330.170839) rotate(-45) scale(0.1 -0.1)">
       <defs>
        <path id="DejaVuSans-4f" d="M 2522 4238 
Q 1834 4238 1429 3725 
Q 1025 3213 1025 2328 
Q 1025 1447 1429 934 
Q 1834 422 2522 422 
Q 3209 422 3611 934 
Q 4013 1447 4013 2328 
Q 4013 3213 3611 3725 
Q 3209 4238 2522 4238 
z
M 2522 4750 
Q 3503 4750 4090 4092 
Q 4678 3434 4678 2328 
Q 4678 1225 4090 567 
Q 3503 -91 2522 -91 
Q 1538 -91 948 565 
Q 359 1222 359 2328 
Q 359 3434 948 4092 
Q 1538 4750 2522 4750 
z
" transform="scale(0.015625)"/>
        <path id="DejaVuSans-63" d="M 3122 3366 
L 3122 2828 
Q 2878 2963 2633 3030 
Q 2388 3097 2138 3097 
Q 1578 3097 1268 2742 
Q 959 2388 959 1747 
Q 959 1106 1268 751 
Q 1578 397 2138 397 
Q 2388 397 2633 464 
Q 2878 531 3122 666 
L 3122 134 
Q 2881 22 2623 -34 
Q 2366 -91 2075 -91 
Q 1284 -91 818 406 
Q 353 903 353 1747 
Q 353 2603 823 3093 
Q 1294 3584 2113 3584 
Q 2378 3584 2631 3529 
Q 2884 3475 3122 3366 
z
" transform="scale(0.015625)"/>
        <path id="DejaVuSans-74" d="M 1172 4494 
L 1172 3500 
L 2356 3500 
L 2356 3053 
L 1172 3053 
L 1172 1153 
Q 1172 725 1289 603 
Q 1406 481 1766 481 
L 2356 481 
L 2356 0 
L 1766 0 
Q 1100 0 847 248 
Q 594 497 594 1153 
L 594 3053 
L 172 3053 
L 172 3500 
L 594 3500 
L 594 4494 
L 1172 4494 
z
" transform="scale(0.015625)"/>
       </defs>
       <use xlink:href="#DejaVuSans-4f"/>
       <use xlink:href="#DejaVuSans-63" transform="translate(78.710938 0)"/>
       <use xlink:href="#DejaVuSans-74" transform="translate(133.691406 0)"/>
      </g>
     </g>
    </g>
    <g id="xtick_2">
     <g id="line2d_3">
      <path d="M 170.488084 305.571614 
L 170.488084 36.6 
" clip-path="url(#pdc020de330)" style="fill: none; stroke: #30363d; stroke-opacity: 0.2; stroke-width: 0.8; stroke-linecap: square"/>
     </g>
     <g id="line2d_4">
      <g>
       <use xlink:href="#m6b32dce9c4" x="170.488084" y="305.571614" style="fill: #c9d1d9; stroke: #c9d1d9; stroke-width: 0.8"/>
      </g>
     </g>
     <g id="text_2">
      <!-- Nov -->
      <g style="fill: #c9d1d9" transform="translate(155.215683 331.746361) rotate(-45) scale(0.1 -0.1)">
       <defs>
        <path id="DejaVuSans-4e" d="M 628 4666 
L 1478 4666 
L 3547 763 
L 3547 4666 
L 4159 4666 
L 4159 0 
L 3309 0 
L 1241 3903 
L 1241 0 
L 628 0 
L 628 4666 
z
" transform="scale(0.015625)"/>
        <path id="DejaVuSans-6f" d="M 1959 3097 
Q 1497 3097 1228 2736 
Q 959 2375 959 1747 
Q 959 1119 1226 758 
Q 1494 397 1959 397 
Q 2419 397 2687 759 
Q 2956 1122 2956 1747 
Q 2956 2369 2687 2733 
Q 2419 3097 1959 3097 
z
M 1959 3584 
Q 2709 3584 3137 3096 
Q 3566 2609 3566 1747 
Q 3566 888 3137 398 
Q 2709 -91 1959 -91 
Q 1206 -91 779 398 
Q 353 888 353 1747 
Q 353 2609 779 3096 
Q 1206 3584 1959 3584 
z
" transform="scale(0.015625)"/>
        <path id="DejaVuSans-76" d="M 191 3500 
L 800 3500 
L 1894 563 
L 2988 3500 
L 3597 3500 
L 2284 0 
L 1503 0 
L 191 3500 
z
" transform="scale(0.015625)"/>
       </defs>
       <use xlink:href="#DejaVuSans-4e"/>
       <use xlink:href="#DejaVuSans-6f" transform="translate(74.804688 0)"/>
       <use xlink:href="#DejaVuSans-76" transform="translate(135.986328 0)"/>
      </g>
     </g>
    </g>
    <g id="xtick_3">
     <g id="line2d_5">
      <path d="M 244.58876 305.571614 
L 244.58876 36.6 
" clip-path="url(#pdc020de330)" style="fill: none; stroke: #30363d; stroke-opacity: 0.2; stroke-width: 0.8; stroke-linecap: square"/>
     </g>
     <g id="line2d_6">
      <g>
       <use xlink:href="#m6b32dce9c4" x="244.58876" y="305.571614" style="fill: #c9d1d9; stroke: #c9d1d9; stroke-width: 0.8"/>
      </g>
     </g>
     <g id="text_3">
      <!-- Dec -->
      <g style="fill: #c9d1d9" transform="translate(229.434578 331.628141) rotate(-45) scale(0.1 -0.1)">
       <defs>
        <path id="DejaVuSans-44" d="M 1259 4147 
L 1259 519 
L 2022 519 
Q 2988 519 3436 956 
Q 3884 1394 3884 2338 
Q 3884 3275 3436 3711 
Q 2988 4147 2022 4147 
L 1259 4147 
z
M 628 4666 
L 1925 4666 
Q 3281 4666 3915 4102 
Q 4550 3538 4550 2338 
Q 4550 1131 3912 565 
Q 3275 0 1925 0 
L 628 0 
L 628 4666 
z
" transform="scale(0.015625)"/>
        <path id="DejaVuSans-65" d="M 3597 1894 
L 3597 1613 
L 953 1613 
Q 991 1019 1311 708 
Q 1631 397 2203 397 
Q 2534 397 2845 478 
Q 3156 559 3463 722 
L 3463 178 
Q 3153 47 2828 -22 
Q 2503 -91 2169 -91 
Q 1331 -91 842 396 
Q 353 884 353 1716 
Q 353 2575 817 3079 
Q 1281 3584 2069 3584 
Q 2775 3584 3186 3129 
Q 3597 2675 3597 1894 
z
M 3022 2063 
Q 3016 2534 2758 2815 
Q 2500 3097 2075 3097 
Q 1594 3097 1305 2825 
Q 1016 2553 972 2059 
L 3022 2063 
z
" transform="scale(0.015625)"/>
       </defs>
       <use xlink:href="#DejaVuSans-44"/>
       <use xlink:href="#DejaVuSans-65" transform="translate(77.001953 0)"/>
       <use xlink:href="#DejaVuSans-63" transform="translate(138.525391 0)"/>
      </g>
     </g>
    </g>
    <g id="xtick_4">
     <g id="line2d_7">
      <path d="M 321.159459 305.571614 
L 321.159459 36.6 
" clip-path="url(#pdc020de330)" style="fill: none; stroke: #30363d; stroke-opacity: 0.2; stroke-width: 0.8; stroke-linecap: square"/>
     </g>
     <g id="line2d_8">
      <g>
       <use xlink:href="#m6b32dce9c4" x="321.159459" y="305.571614" style="fill: #c9d1d9; stroke: #c9d1d9; stroke-width: 0.8"/>
      </g>
     </g>
     <g id="text_4">
      <!-- Jan -->
      <g style="fill: #c9d1d9" transform="translate(308.788405 328.845013) rotate(-45) scale(0.1 -0.1)">
       <defs>
        <path id="DejaVuSans-4a" d="M 628 4666 
L 1259 4666 
L 1259 325 
Q 1259 -519 939 -900 
Q 619 -1281 -91 -1281 
L -331 -1281 
L -331 -750 
L -134 -750 
Q 284 -750 456 -515 
Q 628 -281 628 325 
L 628 4666 
z
" transform="scale(0.015625)"/>
        <path id="DejaVuSans-61" d="M 2194 1759 
Q 1497 1759 1228 1600 
Q 959 1441 959 1056 
Q 959 750 1161 570 
Q 1363 391 1709 391 
Q 2188 391 2477 730 
Q 2766 1069 2766 1631 
L 2766 1759 
L 2194 1759 
z
M 3341 1997 
L 3341 0 
L 2766 0 
L 2766 531 
Q 2569 213 2275 61 
Q 1981 -91 1556 -91 
Q 1019 -91 701 211 
Q 384 513 384 1019 
Q 384 1609 779 1909 
Q 1175 2209 1959 2209 
L 2766 2209 
L 2766 2266 
Q 2766 2663 2505 2880 
Q 2244 3097 1772 3097 
Q 1472 3097 1187 3025 
Q 903 2953 641 2809 
L 641 3341 
Q 956 3463 1253 3523 
Q 1550 3584 1831 3584 
Q 2591 3584 2966 3190 
Q 3341 2797 3341 1997 
z
" transform="scale(0.015625)"/>
        <path id="DejaVuSans-6e" d="M 3513 2113 
L 3513 0 
L 2938 0 
L 2938 2094 
Q 2938 2591 2744 2837 
Q 2550 3084 2163 3084 
Q 1697 3084 1428 2787 
Q 1159 2491 1159 1978 
L 1159 0 
L 581 0 
L 581 3500 
L 1159 3500 
L 1159 2956 
Q 1366 3272 1645 3428 
Q 1925 3584 2291 3584 
Q 2894 3584 3203 3211 
Q 3513 2838 3513 2113 
z
" transform="scale(0.015625)"/>
       </defs>
       <use xlink:href="#DejaVuSans-4a"/>
       <use xlink:href="#DejaVuSans-61" transform="translate(29.492188 0)"/>
       <use xlink:href="#DejaVuSans-6e" transform="translate(90.771484 0)"/>
      </g>
     </g>
    </g>
    <g id="xtick_5">
     <g id="line2d_9">
      <path d="M 397.730158 305.571614 
L 397.730158 36.6 
" clip-path="url(#pdc020de330)" style="fill: none; stroke: #30363d; stroke-opacity: 0.2; stroke-width: 0.8; stroke-linecap: square"/>
     </g>
     <g id="line2d_10">
      <g>
       <use xlink:href="#m6b32dce9c4" x="397.730158" y="305.571614" style="fill: #c9d1d9; stroke: #c9d1d9; stroke-width: 0.8"/>
      </g>
     </g>
     <g id="text_5">
      <!-- Feb -->
      <g style="fill: #c9d1d9" transform="translate(383.741597 330.46252) rotate(-45) scale(0.1 -0.1)">
       <defs>
        <path id="DejaVuSans-46" d="M 628 4666 
L 3309 4666 
L 3309 4134 
L 1259 4134 
L 1259 2759 
L 3109 2759 
L 3109 2228 
L 1259 2228 
L 1259 0 
L 628 0 
L 628 4666 
z
" transform="scale(0.015625)"/>
        <path id="DejaVuSans-62" d="M 3116 1747 
Q 3116 2381 2855 2742 
Q 2594 3103 2138 3103 
Q 1681 3103 1420 2742 
Q 1159 2381 1159 1747 
Q 1159 1113 1420 752 
Q 1681 391 2138 391 
Q 2594 391 2855 752 
Q 3116 1113 3116 1747 
z
M 1159 2969 
Q 1341 3281 1617 3432 
Q 1894 3584 2278 3584 
Q 2916 3584 3314 3078 
Q 3713 2572 3713 1747 
Q 3713 922 3314 415 
Q 2916 -91 2278 -91 
Q 1894 -91 1617 61 
Q 1341 213 1159 525 
L 1159 0 
L 581 0 
L 581 4863 
L 1159 4863 
L 1159 2969 
z
" transform="scale(0.015625)"/>
       </defs>
       <use xlink:href="#DejaVuSans-46"/>
       <use xlink:href="#DejaVuSans-65" transform="translate(52.019531 0)"/>
       <use xlink:href="#DejaVuSans-62" transform="translate(113.542969 0)"/>
      </g>
     </g>
    </g>
    <g id="xtick_6">
     <g id="line2d_11">
      <path d="M 466.890789 305.571614 
L 466.890789 36.6 
" clip-path="url(#pdc020de330)" style="fill: none; stroke: #30363d; stroke-opacity: 0.2; stroke-width: 0.8; stroke-linecap: square"/>
     </g>
     <g id="line2d_12">
      <g>
       <use xlink:href="#m6b32dce9c4" x="466.890789" y="305.571614" style="fill: #c9d1d9; stroke: #c9d1d9; stroke-width: 0.8"/>
      </g>
     </g>
     <g id="text_6">
      <!-- Mar -->
      <g style="fill: #c9d1d9" transform="translate(452.079112 331.285637) rotate(-45) scale(0.1 -0.1)">
       <defs>
        <path id="DejaVuSans-4d" d="M 628 4666 
L 1569 4666 
L 2759 1491 
L 3956 4666 
L 4897 4666 
L 4897 0 
L 4281 0 
L 4281 4097 
L 3078 897 
L 2444 897 
L 1241 4097 
L 1241 0 
L 628 0 
L 628 4666 
z
" transform="scale(0.015625)"/>
        <path id="DejaVuSans-72" d="M 2631 2963 
Q 2534 3019 2420 3045 
Q 2306 3072 2169 3072 
Q 1681 3072 1420 2755 
Q 1159 2438 1159 1844 
L 1159 0 
L 581 0 
L 581 3500 
L 1159 3500 
L 1159 2956 
Q 1341 3275 1631 3429 
Q 1922 3584 2338 3584 
Q 2397 3584 2469 3576 
Q 2541 3569 2628 3553 
L 2631 2963 
z
" transform="scale(0.015625)"/>
       </defs>
       <use xlink:href="#DejaVuSans-4d"/>
       <use xlink:href="#DejaVuSans-61" transform="translate(86.279297 0)"/>
       <use xlink:href="#DejaVuSans-72" transform="translate(147.558594 0)"/>
      </g>
     </g>
    </g>
    <g id="xtick_7">
     <g id="line2d_13">
      <path d="M 543.461488 305.571614 
L 543.461488 36.6 
" clip-path="url(#pdc020de330)" style="fill: none; stroke: #30363d; stroke-opacity: 0.2; stroke-width: 0.8; stroke-linecap: square"/>
     </g>
     <g id="line2d_14">
      <g>
       <use xlink:href="#m6b32dce9c4" x="543.461488" y="305.571614" style="fill: #c9d1d9; stroke: #c9d1d9; stroke-width: 0.8"/>
      </g>
     </g>
     <g id="text_7">
      <!-- Apr -->
      <g style="fill: #c9d1d9" transform="translate(529.757979 330.177468) rotate(-45) scale(0.1 -0.1)">
       <defs>
        <path id="DejaVuSans-41" d="M 2188 4044 
L 1331 1722 
L 3047 1722 
L 2188 4044 
z
M 1831 4666 
L 2547 4666 
L 4325 0 
L 3669 0 
L 3244 1197 
L 1141 1197 
L 716 0 
L 50 0 
L 1831 4666 
z
" transform="scale(0.015625)"/>
        <path id="DejaVuSans-70" d="M 1159 525 
L 1159 -1331 
L 581 -1331 
L 581 3500 
L 1159 3500 
L 1159 2969 
Q 1341 3281 1617 3432 
Q 1894 3584 2278 3584 
Q 2916 3584 3314 3078 
Q 3713 2572 3713 1747 
Q 3713 922 3314 415 
Q 2916 -91 2278 -91 
Q 1894 -91 1617 61 
Q 1341 213 1159 525 
z
M 3116 1747 
Q 3116 2381 2855 2742 
Q 2594 3103 2138 3103 
Q 1681 3103 1420 2742 
Q 1159 2381 1159 1747 
Q 1159 1113 1420 752 
Q 1681 391 2138 391 
Q 2594 391 2855 752 
Q 3116 1113 3116 1747 
z
" transform="scale(0.015625)"/>
       </defs>
       <use xlink:href="#DejaVuSans-41"/>
       <use xlink:href="#DejaVuSans-70" transform="translate(68.408203 0)"/>
       <use xlink:href="#DejaVuSans-72" transform="translate(131.884766 0)"/>
      </g>
     </g>
    </g>
    <g id="xtick_8">
     <g id="line2d_15">
      <path d="M 617.562164 305.571614 
L 617.562164 36.6 
" clip-path="url(#pdc020de330)" style="fill: none; stroke: #30363d; stroke-opacity: 0.2; stroke-width: 0.8; stroke-linecap: square"/>
     </g>
     <g id="line2d_16">
      <g>
       <use xlink:href="#m6b32dce9c4" x="617.562164" y="305.571614" style="fill: #c9d1d9; stroke: #c9d1d9; stroke-width: 0.8"/>
      </g>
     </g>
     <g id="text_8">
      <!-- May -->
      <g style="fill: #c9d1d9" transform="translate(601.47217 332.563953) rotate(-45) scale(0.1 -0.1)">
       <defs>
        <path id="DejaVuSans-79" d="M 2059 -325 
Q 1816 -950 1584 -1140 
Q 1353 -1331 966 -1331 
L 506 -1331 
L 506 -850 
L 844 -850 
Q 1081 -850 1212 -737 
Q 1344 -625 1503 -206 
L 1606 56 
L 191 3500 
L 800 3500 
L 1894 763 
L 2988 3500 
L 3597 3500 
L 2059 -325 
z
" transform="scale(0.015625)"/>
       </defs>
       <use xlink:href="#DejaVuSans-4d"/>
       <use xlink:href="#DejaVuSans-61" transform="translate(86.279297 0)"/>
       <use xlink:href="#DejaVuSans-79" transform="translate(147.558594 0)"/>
      </g>
     </g>
    </g>
    <g id="xtick_9">
     <g id="line2d_17">
      <path d="M 694.132863 305.571614 
L 694.132863 36.6 
" clip-path="url(#pdc020de330)" style="fill: none; stroke: #30363d; stroke-opacity: 0.2; stroke-width: 0.8; stroke-linecap: square"/>
     </g>
     <g id="line2d_18">
      <g>
       <use xlink:href="#m6b32dce9c4" x="694.132863" y="305.571614" style="fill: #c9d1d9; stroke: #c9d1d9; stroke-width: 0.8"/>
      </g>
     </g>
     <g id="text_9">
      <!-- Jun -->
      <g style="fill: #c9d1d9" transform="translate(681.613758 328.993064) rotate(-45) scale(0.1 -0.1)">
       <defs>
        <path id="DejaVuSans-75" d="M 544 1381 
L 544 3500 
L 1119 3500 
L 1119 1403 
Q 1119 906 1312 657 
Q 1506 409 1894 409 
Q 2359 409 2629 706 
Q 2900 1003 2900 1516 
L 2900 3500 
L 3475 3500 
L 3475 0 
L 2900 0 
L 2900 538 
Q 2691 219 2414 64 
Q 2138 -91 1772 -91 
Q 1169 -91 856 284 
Q 544 659 544 1381 
z
M 1991 3584 
L 1991 3584 
z
" transform="scale(0.015625)"/>
       </defs>
       <use xlink:href="#DejaVuSans-4a"/>
       <use xlink:href="#DejaVuSans-75" transform="translate(29.492188 0)"/>
       <use xlink:href="#DejaVuSans-6e" transform="translate(92.871094 0)"/>
      </g>
     </g>
    </g>
    <g id="text_10">
     <!-- Date -->
     <g style="fill: #c9d1d9" transform="translate(367.294141 346.392795) scale(0.11 -0.11)">
      <use xlink:href="#DejaVuSans-44"/>
      <use xlink:href="#DejaVuSans-61" transform="translate(77.001953 0)"/>
      <use xlink:href="#DejaVuSans-74" transform="translate(138.28125 0)"/>
      <use xlink:href="#DejaVuSans-65" transform="translate(177.490234 0)"/>
     </g>
    </g>
   </g>
   <g id="matplotlib.axis_2">
    <g id="ytick_1">
     <g id="line2d_19">
      <path d="M 51.68 275.879942 
L 709.2 275.879942 
" clip-path="url(#pdc020de330)" style="fill: none; stroke: #30363d; stroke-opacity: 0.2; stroke-width: 0.8; stroke-linecap: square"/>
     </g>
     <g id="line2d_20">
      <defs>
       <path id="mdc4e93d2ff" d="M 0 0 
L -3.5 0 
" style="stroke: #c9d1d9; stroke-width: 0.8"/>
      </defs>
      <g>
       <use xlink:href="#mdc4e93d2ff" x="51.68" y="275.879942" style="fill: #c9d1d9; stroke: #c9d1d9; stroke-width: 0.8"/>
      </g>
     </g>
     <g id="text_11">
      <!-- 70 -->
      <g style="fill: #c9d1d9" transform="translate(31.955 279.679161) scale(0.1 -0.1)">
       <defs>
        <path id="DejaVuSans-37" d="M 525 4666 
L 3525 4666 
L 3525 4397 
L 1831 0 
L 1172 0 
L 2766 4134 
L 525 4134 
L 525 4666 
z
" transform="scale(0.015625)"/>
        <path id="DejaVuSans-30" d="M 2034 4250 
Q 1547 4250 1301 3770 
Q 1056 3291 1056 2328 
Q 1056 1369 1301 889 
Q 1547 409 2034 409 
Q 2525 409 2770 889 
Q 3016 1369 3016 2328 
Q 3016 3291 2770 3770 
Q 2525 4250 2034 4250 
z
M 2034 4750 
Q 2819 4750 3233 4129 
Q 3647 3509 3647 2328 
Q 3647 1150 3233 529 
Q 2819 -91 2034 -91 
Q 1250 -91 836 529 
Q 422 1150 422 2328 
Q 422 3509 836 4129 
Q 1250 4750 2034 4750 
z
" transform="scale(0.015625)"/>
       </defs>
       <use xlink:href="#DejaVuSans-37"/>
       <use xlink:href="#DejaVuSans-30" transform="translate(63.623047 0)"/>
      </g>
     </g>
    </g>
    <g id="ytick_2">
     <g id="line2d_21">
      <path d="M 51.68 232.215719 
L 709.2 232.215719 
" clip-path="url(#pdc020de330)" style="fill: none; stroke: #30363d; stroke-opacity: 0.2; stroke-width: 0.8; stroke-linecap: square"/>
     </g>
     <g id="line2d_22">
      <g>
       <use xlink:href="#mdc4e93d2ff" x="51.68" y="232.215719" style="fill: #c9d1d9; stroke: #c9d1d9; stroke-width: 0.8"/>
      </g>
     </g>
     <g id="text_12">
      <!-- 80 -->
      <g style="fill: #c9d1d9" transform="translate(31.955 236.014938) scale(0.1 -0.1)">
       <defs>
        <path id="DejaVuSans-38" d="M 2034 2216 
Q 1584 2216 1326 1975 
Q 1069 1734 1069 1313 
Q 1069 891 1326 650 
Q 1584 409 2034 409 
Q 2484 409 2743 651 
Q 3003 894 3003 1313 
Q 3003 1734 2745 1975 
Q 2488 2216 2034 2216 
z
M 1403 2484 
Q 997 2584 770 2862 
Q 544 3141 544 3541 
Q 544 4100 942 4425 
Q 1341 4750 2034 4750 
Q 2731 4750 3128 4425 
Q 3525 4100 3525 3541 
Q 3525 3141 3298 2862 
Q 3072 2584 2669 2484 
Q 3125 2378 3379 2068 
Q 3634 1759 3634 1313 
Q 3634 634 3220 271 
Q 2806 -91 2034 -91 
Q 1263 -91 848 271 
Q 434 634 434 1313 
Q 434 1759 690 2068 
Q 947 2378 1403 2484 
z
M 1172 3481 
Q 1172 3119 1398 2916 
Q 1625 2713 2034 2713 
Q 2441 2713 2670 2916 
Q 2900 3119 2900 3481 
Q 2900 3844 2670 4047 
Q 2441 4250 2034 4250 
Q 1625 4250 1398 4047 
Q 1172 3844 1172 3481 
z
" transform="scale(0.015625)"/>
       </defs>
       <use xlink:href="#DejaVuSans-38"/>
       <use xlink:href="#DejaVuSans-30" transform="translate(63.623047 0)"/>
      </g>
     </g>
    </g>
    <g id="ytick_3">
     <g id="line2d_23">
      <path d="M 51.68 188.551496 
L 709.2 188.551496 
" clip-path="url(#pdc020de330)" style="fill: none; stroke: #30363d; stroke-opacity: 0.2; stroke-width: 0.8; stroke-linecap: square"/>
     </g>
     <g id="line2d_24">
      <g>
       <use xlink:href="#mdc4e93d2ff" x="51.68" y="188.551496" style="fill: #c9d1d9; stroke: #c9d1d9; stroke-width: 0.8"/>
      </g>
     </g>
     <g id="text_13">
      <!-- 90 -->
      <g style="fill: #c9d1d9" transform="translate(31.955 192.350715) scale(0.1 -0.1)">
       <defs>
        <path id="DejaVuSans-39" d="M 703 97 
L 703 672 
Q 941 559 1184 500 
Q 1428 441 1663 441 
Q 2288 441 2617 861 
Q 2947 1281 2994 2138 
Q 2813 1869 2534 1725 
Q 2256 1581 1919 1581 
Q 1219 1581 811 2004 
Q 403 2428 403 3163 
Q 403 3881 828 4315 
Q 1253 4750 1959 4750 
Q 2769 4750 3195 4129 
Q 3622 3509 3622 2328 
Q 3622 1225 3098 567 
Q 2575 -91 1691 -91 
Q 1453 -91 1209 -44 
Q 966 3 703 97 
z
M 1959 2075 
Q 2384 2075 2632 2365 
Q 2881 2656 2881 3163 
Q 2881 3666 2632 3958 
Q 2384 4250 1959 4250 
Q 1534 4250 1286 3958 
Q 1038 3666 1038 3163 
Q 1038 2656 1286 2365 
Q 1534 2075 1959 2075 
z
" transform="scale(0.015625)"/>
       </defs>
       <use xlink:href="#DejaVuSans-39"/>
       <use xlink:href="#DejaVuSans-30" transform="translate(63.623047 0)"/>
      </g>
     </g>
    </g>
    <g id="ytick_4">
     <g id="line2d_25">
      <path d="M 51.68 144.887273 
L 709.2 144.887273 
" clip-path="url(#pdc020de330)" style="fill: none; stroke: #30363d; stroke-opacity: 0.2; stroke-width: 0.8; stroke-linecap: square"/>
     </g>
     <g id="line2d_26">
      <g>
       <use xlink:href="#mdc4e93d2ff" x="51.68" y="144.887273" style="fill: #c9d1d9; stroke: #c9d1d9; stroke-width: 0.8"/>
      </g>
     </g>
     <g id="text_14">
      <!-- 100 -->
      <g style="fill: #c9d1d9" transform="translate(25.5925 148.686492) scale(0.1 -0.1)">
       <defs>
        <path id="DejaVuSans-31" d="M 794 531 
L 1825 531 
L 1825 4091 
L 703 3866 
L 703 4441 
L 1819 4666 
L 2450 4666 
L 2450 531 
L 3481 531 
L 3481 0 
L 794 0 
L 794 531 
z
" transform="scale(0.015625)"/>
       </defs>
       <use xlink:href="#DejaVuSans-31"/>
       <use xlink:href="#DejaVuSans-30" transform="translate(63.623047 0)"/>
       <use xlink:href="#DejaVuSans-30" transform="translate(127.246094 0)"/>
      </g>
     </g>
    </g>
    <g id="ytick_5">
     <g id="line2d_27">
      <path d="M 51.68 101.22305 
L 709.2 101.22305 
" clip-path="url(#pdc020de330)" style="fill: none; stroke: #30363d; stroke-opacity: 0.2; stroke-width: 0.8; stroke-linecap: square"/>
     </g>
     <g id="line2d_28">
      <g>
       <use xlink:href="#mdc4e93d2ff" x="51.68" y="101.22305" style="fill: #c9d1d9; stroke: #c9d1d9; stroke-width: 0.8"/>
      </g>
     </g>
     <g id="text_15">
      <!-- 110 -->
      <g style="fill: #c9d1d9" transform="translate(25.5925 105.022269) scale(0.1 -0.1)">
       <use xlink:href="#DejaVuSans-31"/>
       <use xlink:href="#DejaVuSans-31" transform="translate(63.623047 0)"/>
       <use xlink:href="#DejaVuSans-30" transform="translate(127.246094 0)"/>
      </g>
     </g>
    </g>
    <g id="ytick_6">
     <g id="line2d_29">
      <path d="M 51.68 57.558827 
L 709.2 57.558827 
" clip-path="url(#pdc020de330)" style="fill: none; stroke: #30363d; stroke-opacity: 0.2; stroke-width: 0.8; stroke-linecap: square"/>
     </g>
     <g id="line2d_30">
      <g>
       <use xlink:href="#mdc4e93d2ff" x="51.68" y="57.558827" style="fill: #c9d1d9; stroke: #c9d1d9; stroke-width: 0.8"/>
      </g>
     </g>
     <g id="text_16">
      <!-- 120 -->
      <g style="fill: #c9d1d9" transform="translate(25.5925 61.358046) scale(0.1 -0.1)">
       <defs>
        <path id="DejaVuSans-32" d="M 1228 531 
L 3431 531 
L 3431 0 
L 469 0 
L 469 531 
Q 828 903 1448 1529 
Q 2069 2156 2228 2338 
Q 2531 2678 2651 2914 
Q 2772 3150 2772 3378 
Q 2772 3750 2511 3984 
Q 2250 4219 1831 4219 
Q 1534 4219 1204 4116 
Q 875 4013 500 3803 
L 500 4441 
Q 881 4594 1212 4672 
Q 1544 4750 1819 4750 
Q 2544 4750 2975 4387 
Q 3406 4025 3406 3419 
Q 3406 3131 3298 2873 
Q 3191 2616 2906 2266 
Q 2828 2175 2409 1742 
Q 1991 1309 1228 531 
z
" transform="scale(0.015625)"/>
       </defs>
       <use xlink:href="#DejaVuSans-31"/>
       <use xlink:href="#DejaVuSans-32" transform="translate(63.623047 0)"/>
       <use xlink:href="#DejaVuSans-30" transform="translate(127.246094 0)"/>
      </g>
     </g>
    </g>
    <g id="text_17">
     <!-- Count -->
     <g style="fill: #c9d1d9" transform="translate(19.304844 187.419088) rotate(-90) scale(0.11 -0.11)">
      <defs>
       <path id="DejaVuSans-43" d="M 4122 4306 
L 4122 3641 
Q 3803 3938 3442 4084 
Q 3081 4231 2675 4231 
Q 1875 4231 1450 3742 
Q 1025 3253 1025 2328 
Q 1025 1406 1450 917 
Q 1875 428 2675 428 
Q 3081 428 3442 575 
Q 3803 722 4122 1019 
L 4122 359 
Q 3791 134 3420 21 
Q 3050 -91 2638 -91 
Q 1578 -91 968 557 
Q 359 1206 359 2328 
Q 359 3453 968 4101 
Q 1578 4750 2638 4750 
Q 3056 4750 3426 4639 
Q 3797 4528 4122 4306 
z
" transform="scale(0.015625)"/>
      </defs>
      <use xlink:href="#DejaVuSans-43"/>
      <use xlink:href="#DejaVuSans-6f" transform="translate(69.824219 0)"/>
      <use xlink:href="#DejaVuSans-75" transform="translate(131.005859 0)"/>
      <use xlink:href="#DejaVuSans-6e" transform="translate(194.384766 0)"/>
      <use xlink:href="#DejaVuSans-74" transform="translate(257.763672 0)"/>
     </g>
    </g>
   </g>
   <g id="line2d_31">
    <path d="M 81.567273 293.345631 
L 155.667949 293.345631 
L 172.958107 262.780675 
L 175.428129 262.780675 
L 177.898152 258.414253 
L 185.308219 258.414253 
L 187.778242 262.780675 
L 224.82858 262.780675 
L 227.298603 258.414253 
L 237.178693 258.414253 
L 242.118738 249.681408 
L 254.46885 249.681408 
L 256.938873 245.314986 
L 261.878918 245.314986 
L 264.348941 240.948564 
L 274.229031 240.948564 
L 276.699053 236.582141 
L 284.109121 236.582141 
L 286.579144 232.215719 
L 296.459234 232.215719 
L 298.929256 219.116452 
L 303.869301 219.116452 
L 306.339324 214.75003 
L 326.099504 214.75003 
L 328.569527 210.383608 
L 331.039549 210.383608 
L 335.979594 206.017185 
L 338.449617 206.017185 
L 343.389662 197.284341 
L 350.79973 197.284341 
L 353.269752 162.352962 
L 380.44 162.352962 
L 382.910023 157.98654 
L 390.32009 157.98654 
L 392.790113 153.620118 
L 395.260135 153.620118 
L 397.730158 149.253695 
L 437.250518 149.253695 
L 439.720541 118.688739 
L 454.540676 118.688739 
L 459.480721 109.955895 
L 474.300856 109.955895 
L 476.770879 105.589472 
L 479.240902 105.589472 
L 481.710924 101.22305 
L 489.120992 101.22305 
L 491.591014 96.856628 
L 496.531059 96.856628 
L 499.001082 92.490205 
L 501.471104 92.490205 
L 503.941127 88.123783 
L 511.351195 88.123783 
L 513.821217 83.757361 
L 536.05142 83.757361 
L 538.521443 79.390939 
L 558.281623 79.390939 
L 560.751645 75.024516 
L 563.221668 75.024516 
L 565.69169 79.390939 
L 573.101758 79.390939 
L 575.571781 75.024516 
L 585.451871 75.024516 
L 587.921893 70.658094 
L 620.032186 70.658094 
L 622.502209 61.925249 
L 624.972231 61.925249 
L 627.442254 53.192405 
L 671.90266 53.192405 
L 674.372682 48.825982 
L 679.312727 48.825982 
L 679.312727 48.825982 
" clip-path="url(#pdc020de330)" style="fill: none; stroke: #3fb950; stroke-width: 2.5; stroke-linecap: square"/>
    <defs>
     <path id="m76f405f8c7" d="M 0 2.5 
C 0.663008 2.5 1.29895 2.236584 1.767767 1.767767 
C 2.236584 1.29895 2.5 0.663008 2.5 0 
C 2.5 -0.663008 2.236584 -1.29895 1.767767 -1.767767 
C 1.29895 -2.236584 0.663008 -2.5 0 -2.5 
C -0.663008 -2.5 -1.29895 -2.236584 -1.767767 -1.767767 
C -2.236584 -1.29895 -2.5 -0.663008 -2.5 0 
C -2.5 0.663008 -2.236584 1.29895 -1.767767 1.767767 
C -1.29895 2.236584 -0.663008 2.5 0 2.5 
z
" style="stroke: #3fb950"/>
    </defs>
    <g clip-path="url(#pdc020de330)">
     <use xlink:href="#m76f405f8c7" x="81.567273" y="293.345631" style="fill: #3fb950; stroke: #3fb950"/>
     <use xlink:href="#m76f405f8c7" x="84.037295" y="293.345631" style="fill: #3fb950; stroke: #3fb950"/>
     <use xlink:href="#m76f405f8c7" x="86.507318" y="293.345631" style="fill: #3fb950; stroke: #3fb950"/>
     <use xlink:href="#m76f405f8c7" x="88.97734" y="293.345631" style="fill: #3fb950; stroke: #3fb950"/>
     <use xlink:href="#m76f405f8c7" x="91.447363" y="293.345631" style="fill: #3fb950; stroke: #3fb950"/>
     <use xlink:href="#m76f405f8c7" x="93.917385" y="293.345631" style="fill: #3fb950; stroke: #3fb950"/>
     <use xlink:href="#m76f405f8c7" x="96.387408" y="293.345631" style="fill: #3fb950; stroke: #3fb950"/>
     <use xlink:href="#m76f405f8c7" x="98.857431" y="293.345631" style="fill: #3fb950; stroke: #3fb950"/>
     <use xlink:href="#m76f405f8c7" x="101.327453" y="293.345631" style="fill: #3fb950; stroke: #3fb950"/>
     <use xlink:href="#m76f405f8c7" x="103.797476" y="293.345631" style="fill: #3fb950; stroke: #3fb950"/>
     <use xlink:href="#m76f405f8c7" x="106.267498" y="293.345631" style="fill: #3fb950; stroke: #3fb950"/>
     <use xlink:href="#m76f405f8c7" x="108.737521" y="293.345631" style="fill: #3fb950; stroke: #3fb950"/>
     <use xlink:href="#m76f405f8c7" x="111.207543" y="293.345631" style="fill: #3fb950; stroke: #3fb950"/>
     <use xlink:href="#m76f405f8c7" x="113.677566" y="293.345631" style="fill: #3fb950; stroke: #3fb950"/>
     <use xlink:href="#m76f405f8c7" x="116.147588" y="293.345631" style="fill: #3fb950; stroke: #3fb950"/>
     <use xlink:href="#m76f405f8c7" x="118.617611" y="293.345631" style="fill: #3fb950; stroke: #3fb950"/>
     <use xlink:href="#m76f405f8c7" x="121.087633" y="293.345631" style="fill: #3fb950; stroke: #3fb950"/>
     <use xlink:href="#m76f405f8c7" x="123.557656" y="293.345631" style="fill: #3fb950; stroke: #3fb950"/>
     <use xlink:href="#m76f405f8c7" x="126.027678" y="293.345631" style="fill: #3fb950; stroke: #3fb950"/>
     <use xlink:href="#m76f405f8c7" x="128.497701" y="293.345631" style="fill: #3fb950; stroke: #3fb950"/>
     <use xlink:href="#m76f405f8c7" x="130.967724" y="293.345631" style="fill: #3fb950; stroke: #3fb950"/>
     <use xlink:href="#m76f405f8c7" x="133.437746" y="293.345631" style="fill: #3fb950; stroke: #3fb950"/>
     <use xlink:href="#m76f405f8c7" x="135.907769" y="293.345631" style="fill: #3fb950; stroke: #3fb950"/>
     <use xlink:href="#m76f405f8c7" x="138.377791" y="293.345631" style="fill: #3fb950; stroke: #3fb950"/>
     <use xlink:href="#m76f405f8c7" x="140.847814" y="293.345631" style="fill: #3fb950; stroke: #3fb950"/>
     <use xlink:href="#m76f405f8c7" x="143.317836" y="293.345631" style="fill: #3fb950; stroke: #3fb950"/>
     <use xlink:href="#m76f405f8c7" x="145.787859" y="293.345631" style="fill: #3fb950; stroke: #3fb950"/>
     <use xlink:href="#m76f405f8c7" x="148.257881" y="293.345631" style="fill: #3fb950; stroke: #3fb950"/>
     <use xlink:href="#m76f405f8c7" x="150.727904" y="293.345631" style="fill: #3fb950; stroke: #3fb950"/>
     <use xlink:href="#m76f405f8c7" x="153.197926" y="293.345631" style="fill: #3fb950; stroke: #3fb950"/>
     <use xlink:href="#m76f405f8c7" x="155.667949" y="293.345631" style="fill: #3fb950; stroke: #3fb950"/>
     <use xlink:href="#m76f405f8c7" x="172.958107" y="262.780675" style="fill: #3fb950; stroke: #3fb950"/>
     <use xlink:href="#m76f405f8c7" x="175.428129" y="262.780675" style="fill: #3fb950; stroke: #3fb950"/>
     <use xlink:href="#m76f405f8c7" x="177.898152" y="258.414253" style="fill: #3fb950; stroke: #3fb950"/>
     <use xlink:href="#m76f405f8c7" x="180.368174" y="258.414253" style="fill: #3fb950; stroke: #3fb950"/>
     <use xlink:href="#m76f405f8c7" x="182.838197" y="258.414253" style="fill: #3fb950; stroke: #3fb950"/>
     <use xlink:href="#m76f405f8c7" x="185.308219" y="258.414253" style="fill: #3fb950; stroke: #3fb950"/>
     <use xlink:href="#m76f405f8c7" x="187.778242" y="262.780675" style="fill: #3fb950; stroke: #3fb950"/>
     <use xlink:href="#m76f405f8c7" x="190.248264" y="262.780675" style="fill: #3fb950; stroke: #3fb950"/>
     <use xlink:href="#m76f405f8c7" x="192.718287" y="262.780675" style="fill: #3fb950; stroke: #3fb950"/>
     <use xlink:href="#m76f405f8c7" x="195.18831" y="262.780675" style="fill: #3fb950; stroke: #3fb950"/>
     <use xlink:href="#m76f405f8c7" x="197.658332" y="262.780675" style="fill: #3fb950; stroke: #3fb950"/>
     <use xlink:href="#m76f405f8c7" x="200.128355" y="262.780675" style="fill: #3fb950; stroke: #3fb950"/>
     <use xlink:href="#m76f405f8c7" x="202.598377" y="262.780675" style="fill: #3fb950; stroke: #3fb950"/>
     <use xlink:href="#m76f405f8c7" x="205.0684" y="262.780675" style="fill: #3fb950; stroke: #3fb950"/>
     <use xlink:href="#m76f405f8c7" x="207.538422" y="262.780675" style="fill: #3fb950; stroke: #3fb950"/>
     <use xlink:href="#m76f405f8c7" x="210.008445" y="262.780675" style="fill: #3fb950; stroke: #3fb950"/>
     <use xlink:href="#m76f405f8c7" x="212.478467" y="262.780675" style="fill: #3fb950; stroke: #3fb950"/>
     <use xlink:href="#m76f405f8c7" x="214.94849" y="262.780675" style="fill: #3fb950; stroke: #3fb950"/>
     <use xlink:href="#m76f405f8c7" x="217.418512" y="262.780675" style="fill: #3fb950; stroke: #3fb950"/>
     <use xlink:href="#m76f405f8c7" x="219.888535" y="262.780675" style="fill: #3fb950; stroke: #3fb950"/>
     <use xlink:href="#m76f405f8c7" x="222.358557" y="262.780675" style="fill: #3fb950; stroke: #3fb950"/>
     <use xlink:href="#m76f405f8c7" x="224.82858" y="262.780675" style="fill: #3fb950; stroke: #3fb950"/>
     <use xlink:href="#m76f405f8c7" x="227.298603" y="258.414253" style="fill: #3fb950; stroke: #3fb950"/>
     <use xlink:href="#m76f405f8c7" x="229.768625" y="258.414253" style="fill: #3fb950; stroke: #3fb950"/>
     <use xlink:href="#m76f405f8c7" x="232.238648" y="258.414253" style="fill: #3fb950; stroke: #3fb950"/>
     <use xlink:href="#m76f405f8c7" x="234.70867" y="258.414253" style="fill: #3fb950; stroke: #3fb950"/>
     <use xlink:href="#m76f405f8c7" x="237.178693" y="258.414253" style="fill: #3fb950; stroke: #3fb950"/>
     <use xlink:href="#m76f405f8c7" x="239.648715" y="254.047831" style="fill: #3fb950; stroke: #3fb950"/>
     <use xlink:href="#m76f405f8c7" x="242.118738" y="249.681408" style="fill: #3fb950; stroke: #3fb950"/>
     <use xlink:href="#m76f405f8c7" x="244.58876" y="249.681408" style="fill: #3fb950; stroke: #3fb950"/>
     <use xlink:href="#m76f405f8c7" x="247.058783" y="249.681408" style="fill: #3fb950; stroke: #3fb950"/>
     <use xlink:href="#m76f405f8c7" x="249.528805" y="249.681408" style="fill: #3fb950; stroke: #3fb950"/>
     <use xlink:href="#m76f405f8c7" x="251.998828" y="249.681408" style="fill: #3fb950; stroke: #3fb950"/>
     <use xlink:href="#m76f405f8c7" x="254.46885" y="249.681408" style="fill: #3fb950; stroke: #3fb950"/>
     <use xlink:href="#m76f405f8c7" x="256.938873" y="245.314986" style="fill: #3fb950; stroke: #3fb950"/>
     <use xlink:href="#m76f405f8c7" x="259.408896" y="245.314986" style="fill: #3fb950; stroke: #3fb950"/>
     <use xlink:href="#m76f405f8c7" x="261.878918" y="245.314986" style="fill: #3fb950; stroke: #3fb950"/>
     <use xlink:href="#m76f405f8c7" x="264.348941" y="240.948564" style="fill: #3fb950; stroke: #3fb950"/>
     <use xlink:href="#m76f405f8c7" x="266.818963" y="240.948564" style="fill: #3fb950; stroke: #3fb950"/>
     <use xlink:href="#m76f405f8c7" x="269.288986" y="240.948564" style="fill: #3fb950; stroke: #3fb950"/>
     <use xlink:href="#m76f405f8c7" x="271.759008" y="240.948564" style="fill: #3fb950; stroke: #3fb950"/>
     <use xlink:href="#m76f405f8c7" x="274.229031" y="240.948564" style="fill: #3fb950; stroke: #3fb950"/>
     <use xlink:href="#m76f405f8c7" x="276.699053" y="236.582141" style="fill: #3fb950; stroke: #3fb950"/>
     <use xlink:href="#m76f405f8c7" x="279.169076" y="236.582141" style="fill: #3fb950; stroke: #3fb950"/>
     <use xlink:href="#m76f405f8c7" x="281.639098" y="236.582141" style="fill: #3fb950; stroke: #3fb950"/>
     <use xlink:href="#m76f405f8c7" x="284.109121" y="236.582141" style="fill: #3fb950; stroke: #3fb950"/>
     <use xlink:href="#m76f405f8c7" x="286.579144" y="232.215719" style="fill: #3fb950; stroke: #3fb950"/>
     <use xlink:href="#m76f405f8c7" x="289.049166" y="232.215719" style="fill: #3fb950; stroke: #3fb950"/>
     <use xlink:href="#m76f405f8c7" x="291.519189" y="232.215719" style="fill: #3fb950; stroke: #3fb950"/>
     <use xlink:href="#m76f405f8c7" x="293.989211" y="232.215719" style="fill: #3fb950; stroke: #3fb950"/>
     <use xlink:href="#m76f405f8c7" x="296.459234" y="232.215719" style="fill: #3fb950; stroke: #3fb950"/>
     <use xlink:href="#m76f405f8c7" x="298.929256" y="219.116452" style="fill: #3fb950; stroke: #3fb950"/>
     <use xlink:href="#m76f405f8c7" x="301.399279" y="219.116452" style="fill: #3fb950; stroke: #3fb950"/>
     <use xlink:href="#m76f405f8c7" x="303.869301" y="219.116452" style="fill: #3fb950; stroke: #3fb950"/>
     <use xlink:href="#m76f405f8c7" x="306.339324" y="214.75003" style="fill: #3fb950; stroke: #3fb950"/>
     <use xlink:href="#m76f405f8c7" x="308.809346" y="214.75003" style="fill: #3fb950; stroke: #3fb950"/>
     <use xlink:href="#m76f405f8c7" x="311.279369" y="214.75003" style="fill: #3fb950; stroke: #3fb950"/>
     <use xlink:href="#m76f405f8c7" x="313.749391" y="214.75003" style="fill: #3fb950; stroke: #3fb950"/>
     <use xlink:href="#m76f405f8c7" x="316.219414" y="214.75003" style="fill: #3fb950; stroke: #3fb950"/>
     <use xlink:href="#m76f405f8c7" x="318.689437" y="214.75003" style="fill: #3fb950; stroke: #3fb950"/>
     <use xlink:href="#m76f405f8c7" x="321.159459" y="214.75003" style="fill: #3fb950; stroke: #3fb950"/>
     <use xlink:href="#m76f405f8c7" x="323.629482" y="214.75003" style="fill: #3fb950; stroke: #3fb950"/>
     <use xlink:href="#m76f405f8c7" x="326.099504" y="214.75003" style="fill: #3fb950; stroke: #3fb950"/>
     <use xlink:href="#m76f405f8c7" x="328.569527" y="210.383608" style="fill: #3fb950; stroke: #3fb950"/>
     <use xlink:href="#m76f405f8c7" x="331.039549" y="210.383608" style="fill: #3fb950; stroke: #3fb950"/>
     <use xlink:href="#m76f405f8c7" x="335.979594" y="206.017185" style="fill: #3fb950; stroke: #3fb950"/>
     <use xlink:href="#m76f405f8c7" x="338.449617" y="206.017185" style="fill: #3fb950; stroke: #3fb950"/>
     <use xlink:href="#m76f405f8c7" x="340.919639" y="201.650763" style="fill: #3fb950; stroke: #3fb950"/>
     <use xlink:href="#m76f405f8c7" x="343.389662" y="197.284341" style="fill: #3fb950; stroke: #3fb950"/>
     <use xlink:href="#m76f405f8c7" x="345.859684" y="197.284341" style="fill: #3fb950; stroke: #3fb950"/>
     <use xlink:href="#m76f405f8c7" x="348.329707" y="197.284341" style="fill: #3fb950; stroke: #3fb950"/>
     <use xlink:href="#m76f405f8c7" x="350.79973" y="197.284341" style="fill: #3fb950; stroke: #3fb950"/>
     <use xlink:href="#m76f405f8c7" x="353.269752" y="162.352962" style="fill: #3fb950; stroke: #3fb950"/>
     <use xlink:href="#m76f405f8c7" x="355.739775" y="162.352962" style="fill: #3fb950; stroke: #3fb950"/>
     <use xlink:href="#m76f405f8c7" x="358.209797" y="162.352962" style="fill: #3fb950; stroke: #3fb950"/>
     <use xlink:href="#m76f405f8c7" x="360.67982" y="162.352962" style="fill: #3fb950; stroke: #3fb950"/>
     <use xlink:href="#m76f405f8c7" x="363.149842" y="162.352962" style="fill: #3fb950; stroke: #3fb950"/>
     <use xlink:href="#m76f405f8c7" x="365.619865" y="162.352962" style="fill: #3fb950; stroke: #3fb950"/>
     <use xlink:href="#m76f405f8c7" x="368.089887" y="162.352962" style="fill: #3fb950; stroke: #3fb950"/>
     <use xlink:href="#m76f405f8c7" x="370.55991" y="162.352962" style="fill: #3fb950; stroke: #3fb950"/>
     <use xlink:href="#m76f405f8c7" x="373.029932" y="162.352962" style="fill: #3fb950; stroke: #3fb950"/>
     <use xlink:href="#m76f405f8c7" x="375.499955" y="162.352962" style="fill: #3fb950; stroke: #3fb950"/>
     <use xlink:href="#m76f405f8c7" x="377.969977" y="162.352962" style="fill: #3fb950; stroke: #3fb950"/>
     <use xlink:href="#m76f405f8c7" x="380.44" y="162.352962" style="fill: #3fb950; stroke: #3fb950"/>
     <use xlink:href="#m76f405f8c7" x="382.910023" y="157.98654" style="fill: #3fb950; stroke: #3fb950"/>
     <use xlink:href="#m76f405f8c7" x="385.380045" y="157.98654" style="fill: #3fb950; stroke: #3fb950"/>
     <use xlink:href="#m76f405f8c7" x="387.850068" y="157.98654" style="fill: #3fb950; stroke: #3fb950"/>
     <use xlink:href="#m76f405f8c7" x="390.32009" y="157.98654" style="fill: #3fb950; stroke: #3fb950"/>
     <use xlink:href="#m76f405f8c7" x="392.790113" y="153.620118" style="fill: #3fb950; stroke: #3fb950"/>
     <use xlink:href="#m76f405f8c7" x="395.260135" y="153.620118" style="fill: #3fb950; stroke: #3fb950"/>
     <use xlink:href="#m76f405f8c7" x="397.730158" y="149.253695" style="fill: #3fb950; stroke: #3fb950"/>
     <use xlink:href="#m76f405f8c7" x="400.20018" y="149.253695" style="fill: #3fb950; stroke: #3fb950"/>
     <use xlink:href="#m76f405f8c7" x="402.670203" y="149.253695" style="fill: #3fb950; stroke: #3fb950"/>
     <use xlink:href="#m76f405f8c7" x="405.140225" y="149.253695" style="fill: #3fb950; stroke: #3fb950"/>
     <use xlink:href="#m76f405f8c7" x="407.610248" y="149.253695" style="fill: #3fb950; stroke: #3fb950"/>
     <use xlink:href="#m76f405f8c7" x="410.08027" y="149.253695" style="fill: #3fb950; stroke: #3fb950"/>
     <use xlink:href="#m76f405f8c7" x="412.550293" y="149.253695" style="fill: #3fb950; stroke: #3fb950"/>
     <use xlink:href="#m76f405f8c7" x="415.020316" y="149.253695" style="fill: #3fb950; stroke: #3fb950"/>
     <use xlink:href="#m76f405f8c7" x="417.490338" y="149.253695" style="fill: #3fb950; stroke: #3fb950"/>
     <use xlink:href="#m76f405f8c7" x="419.960361" y="149.253695" style="fill: #3fb950; stroke: #3fb950"/>
     <use xlink:href="#m76f405f8c7" x="422.430383" y="149.253695" style="fill: #3fb950; stroke: #3fb950"/>
     <use xlink:href="#m76f405f8c7" x="424.900406" y="149.253695" style="fill: #3fb950; stroke: #3fb950"/>
     <use xlink:href="#m76f405f8c7" x="427.370428" y="149.253695" style="fill: #3fb950; stroke: #3fb950"/>
     <use xlink:href="#m76f405f8c7" x="429.840451" y="149.253695" style="fill: #3fb950; stroke: #3fb950"/>
     <use xlink:href="#m76f405f8c7" x="432.310473" y="149.253695" style="fill: #3fb950; stroke: #3fb950"/>
     <use xlink:href="#m76f405f8c7" x="434.780496" y="149.253695" style="fill: #3fb950; stroke: #3fb950"/>
     <use xlink:href="#m76f405f8c7" x="437.250518" y="149.253695" style="fill: #3fb950; stroke: #3fb950"/>
     <use xlink:href="#m76f405f8c7" x="439.720541" y="118.688739" style="fill: #3fb950; stroke: #3fb950"/>
     <use xlink:href="#m76f405f8c7" x="442.190563" y="118.688739" style="fill: #3fb950; stroke: #3fb950"/>
     <use xlink:href="#m76f405f8c7" x="444.660586" y="118.688739" style="fill: #3fb950; stroke: #3fb950"/>
     <use xlink:href="#m76f405f8c7" x="447.130609" y="118.688739" style="fill: #3fb950; stroke: #3fb950"/>
     <use xlink:href="#m76f405f8c7" x="449.600631" y="118.688739" style="fill: #3fb950; stroke: #3fb950"/>
     <use xlink:href="#m76f405f8c7" x="452.070654" y="118.688739" style="fill: #3fb950; stroke: #3fb950"/>
     <use xlink:href="#m76f405f8c7" x="454.540676" y="118.688739" style="fill: #3fb950; stroke: #3fb950"/>
     <use xlink:href="#m76f405f8c7" x="457.010699" y="114.322317" style="fill: #3fb950; stroke: #3fb950"/>
     <use xlink:href="#m76f405f8c7" x="459.480721" y="109.955895" style="fill: #3fb950; stroke: #3fb950"/>
     <use xlink:href="#m76f405f8c7" x="461.950744" y="109.955895" style="fill: #3fb950; stroke: #3fb950"/>
     <use xlink:href="#m76f405f8c7" x="464.420766" y="109.955895" style="fill: #3fb950; stroke: #3fb950"/>
     <use xlink:href="#m76f405f8c7" x="466.890789" y="109.955895" style="fill: #3fb950; stroke: #3fb950"/>
     <use xlink:href="#m76f405f8c7" x="469.360811" y="109.955895" style="fill: #3fb950; stroke: #3fb950"/>
     <use xlink:href="#m76f405f8c7" x="471.830834" y="109.955895" style="fill: #3fb950; stroke: #3fb950"/>
     <use xlink:href="#m76f405f8c7" x="474.300856" y="109.955895" style="fill: #3fb950; stroke: #3fb950"/>
     <use xlink:href="#m76f405f8c7" x="476.770879" y="105.589472" style="fill: #3fb950; stroke: #3fb950"/>
     <use xlink:href="#m76f405f8c7" x="479.240902" y="105.589472" style="fill: #3fb950; stroke: #3fb950"/>
     <use xlink:href="#m76f405f8c7" x="481.710924" y="101.22305" style="fill: #3fb950; stroke: #3fb950"/>
     <use xlink:href="#m76f405f8c7" x="484.180947" y="101.22305" style="fill: #3fb950; stroke: #3fb950"/>
     <use xlink:href="#m76f405f8c7" x="486.650969" y="101.22305" style="fill: #3fb950; stroke: #3fb950"/>
     <use xlink:href="#m76f405f8c7" x="489.120992" y="101.22305" style="fill: #3fb950; stroke: #3fb950"/>
     <use xlink:href="#m76f405f8c7" x="491.591014" y="96.856628" style="fill: #3fb950; stroke: #3fb950"/>
     <use xlink:href="#m76f405f8c7" x="494.061037" y="96.856628" style="fill: #3fb950; stroke: #3fb950"/>
     <use xlink:href="#m76f405f8c7" x="496.531059" y="96.856628" style="fill: #3fb950; stroke: #3fb950"/>
     <use xlink:href="#m76f405f8c7" x="499.001082" y="92.490205" style="fill: #3fb950; stroke: #3fb950"/>
     <use xlink:href="#m76f405f8c7" x="501.471104" y="92.490205" style="fill: #3fb950; stroke: #3fb950"/>
     <use xlink:href="#m76f405f8c7" x="503.941127" y="88.123783" style="fill: #3fb950; stroke: #3fb950"/>
     <use xlink:href="#m76f405f8c7" x="506.41115" y="88.123783" style="fill: #3fb950; stroke: #3fb950"/>
     <use xlink:href="#m76f405f8c7" x="508.881172" y="88.123783" style="fill: #3fb950; stroke: #3fb950"/>
     <use xlink:href="#m76f405f8c7" x="511.351195" y="88.123783" style="fill: #3fb950; stroke: #3fb950"/>
     <use xlink:href="#m76f405f8c7" x="513.821217" y="83.757361" style="fill: #3fb950; stroke: #3fb950"/>
     <use xlink:href="#m76f405f8c7" x="516.29124" y="83.757361" style="fill: #3fb950; stroke: #3fb950"/>
     <use xlink:href="#m76f405f8c7" x="518.761262" y="83.757361" style="fill: #3fb950; stroke: #3fb950"/>
     <use xlink:href="#m76f405f8c7" x="521.231285" y="83.757361" style="fill: #3fb950; stroke: #3fb950"/>
     <use xlink:href="#m76f405f8c7" x="523.701307" y="83.757361" style="fill: #3fb950; stroke: #3fb950"/>
     <use xlink:href="#m76f405f8c7" x="526.17133" y="83.757361" style="fill: #3fb950; stroke: #3fb950"/>
     <use xlink:href="#m76f405f8c7" x="528.641352" y="83.757361" style="fill: #3fb950; stroke: #3fb950"/>
     <use xlink:href="#m76f405f8c7" x="531.111375" y="83.757361" style="fill: #3fb950; stroke: #3fb950"/>
     <use xlink:href="#m76f405f8c7" x="533.581397" y="83.757361" style="fill: #3fb950; stroke: #3fb950"/>
     <use xlink:href="#m76f405f8c7" x="536.05142" y="83.757361" style="fill: #3fb950; stroke: #3fb950"/>
     <use xlink:href="#m76f405f8c7" x="538.521443" y="79.390939" style="fill: #3fb950; stroke: #3fb950"/>
     <use xlink:href="#m76f405f8c7" x="540.991465" y="79.390939" style="fill: #3fb950; stroke: #3fb950"/>
     <use xlink:href="#m76f405f8c7" x="543.461488" y="79.390939" style="fill: #3fb950; stroke: #3fb950"/>
     <use xlink:href="#m76f405f8c7" x="545.93151" y="79.390939" style="fill: #3fb950; stroke: #3fb950"/>
     <use xlink:href="#m76f405f8c7" x="548.401533" y="79.390939" style="fill: #3fb950; stroke: #3fb950"/>
     <use xlink:href="#m76f405f8c7" x="550.871555" y="79.390939" style="fill: #3fb950; stroke: #3fb950"/>
     <use xlink:href="#m76f405f8c7" x="553.341578" y="79.390939" style="fill: #3fb950; stroke: #3fb950"/>
     <use xlink:href="#m76f405f8c7" x="555.8116" y="79.390939" style="fill: #3fb950; stroke: #3fb950"/>
     <use xlink:href="#m76f405f8c7" x="558.281623" y="79.390939" style="fill: #3fb950; stroke: #3fb950"/>
     <use xlink:href="#m76f405f8c7" x="560.751645" y="75.024516" style="fill: #3fb950; stroke: #3fb950"/>
     <use xlink:href="#m76f405f8c7" x="563.221668" y="75.024516" style="fill: #3fb950; stroke: #3fb950"/>
     <use xlink:href="#m76f405f8c7" x="565.69169" y="79.390939" style="fill: #3fb950; stroke: #3fb950"/>
     <use xlink:href="#m76f405f8c7" x="568.161713" y="79.390939" style="fill: #3fb950; stroke: #3fb950"/>
     <use xlink:href="#m76f405f8c7" x="570.631736" y="79.390939" style="fill: #3fb950; stroke: #3fb950"/>
     <use xlink:href="#m76f405f8c7" x="573.101758" y="79.390939" style="fill: #3fb950; stroke: #3fb950"/>
     <use xlink:href="#m76f405f8c7" x="575.571781" y="75.024516" style="fill: #3fb950; stroke: #3fb950"/>
     <use xlink:href="#m76f405f8c7" x="578.041803" y="75.024516" style="fill: #3fb950; stroke: #3fb950"/>
     <use xlink:href="#m76f405f8c7" x="580.511826" y="75.024516" style="fill: #3fb950; stroke: #3fb950"/>
     <use xlink:href="#m76f405f8c7" x="582.981848" y="75.024516" style="fill: #3fb950; stroke: #3fb950"/>
     <use xlink:href="#m76f405f8c7" x="585.451871" y="75.024516" style="fill: #3fb950; stroke: #3fb950"/>
     <use xlink:href="#m76f405f8c7" x="587.921893" y="70.658094" style="fill: #3fb950; stroke: #3fb950"/>
     <use xlink:href="#m76f405f8c7" x="590.391916" y="70.658094" style="fill: #3fb950; stroke: #3fb950"/>
     <use xlink:href="#m76f405f8c7" x="592.861938" y="70.658094" style="fill: #3fb950; stroke: #3fb950"/>
     <use xlink:href="#m76f405f8c7" x="595.331961" y="70.658094" style="fill: #3fb950; stroke: #3fb950"/>
     <use xlink:href="#m76f405f8c7" x="597.801983" y="70.658094" style="fill: #3fb950; stroke: #3fb950"/>
     <use xlink:href="#m76f405f8c7" x="600.272006" y="70.658094" style="fill: #3fb950; stroke: #3fb950"/>
     <use xlink:href="#m76f405f8c7" x="602.742029" y="70.658094" style="fill: #3fb950; stroke: #3fb950"/>
     <use xlink:href="#m76f405f8c7" x="605.212051" y="70.658094" style="fill: #3fb950; stroke: #3fb950"/>
     <use xlink:href="#m76f405f8c7" x="607.682074" y="70.658094" style="fill: #3fb950; stroke: #3fb950"/>
     <use xlink:href="#m76f405f8c7" x="610.152096" y="70.658094" style="fill: #3fb950; stroke: #3fb950"/>
     <use xlink:href="#m76f405f8c7" x="612.622119" y="70.658094" style="fill: #3fb950; stroke: #3fb950"/>
     <use xlink:href="#m76f405f8c7" x="615.092141" y="70.658094" style="fill: #3fb950; stroke: #3fb950"/>
     <use xlink:href="#m76f405f8c7" x="617.562164" y="70.658094" style="fill: #3fb950; stroke: #3fb950"/>
     <use xlink:href="#m76f405f8c7" x="620.032186" y="70.658094" style="fill: #3fb950; stroke: #3fb950"/>
     <use xlink:href="#m76f405f8c7" x="622.502209" y="61.925249" style="fill: #3fb950; stroke: #3fb950"/>
     <use xlink:href="#m76f405f8c7" x="624.972231" y="61.925249" style="fill: #3fb950; stroke: #3fb950"/>
     <use xlink:href="#m76f405f8c7" x="627.442254" y="53.192405" style="fill: #3fb950; stroke: #3fb950"/>
     <use xlink:href="#m76f405f8c7" x="629.912276" y="53.192405" style="fill: #3fb950; stroke: #3fb950"/>
     <use xlink:href="#m76f405f8c7" x="632.382299" y="53.192405" style="fill: #3fb950; stroke: #3fb950"/>
     <use xlink:href="#m76f405f8c7" x="634.852322" y="53.192405" style="fill: #3fb950; stroke: #3fb950"/>
     <use xlink:href="#m76f405f8c7" x="637.322344" y="53.192405" style="fill: #3fb950; stroke: #3fb950"/>
     <use xlink:href="#m76f405f8c7" x="639.792367" y="53.192405" style="fill: #3fb950; stroke: #3fb950"/>
     <use xlink:href="#m76f405f8c7" x="642.262389" y="53.192405" style="fill: #3fb950; stroke: #3fb950"/>
     <use xlink:href="#m76f405f8c7" x="644.732412" y="53.192405" style="fill: #3fb950; stroke: #3fb950"/>
     <use xlink:href="#m76f405f8c7" x="647.202434" y="53.192405" style="fill: #3fb950; stroke: #3fb950"/>
     <use xlink:href="#m76f405f8c7" x="649.672457" y="53.192405" style="fill: #3fb950; stroke: #3fb950"/>
     <use xlink:href="#m76f405f8c7" x="652.142479" y="53.192405" style="fill: #3fb950; stroke: #3fb950"/>
     <use xlink:href="#m76f405f8c7" x="654.612502" y="53.192405" style="fill: #3fb950; stroke: #3fb950"/>
     <use xlink:href="#m76f405f8c7" x="657.082524" y="53.192405" style="fill: #3fb950; stroke: #3fb950"/>
     <use xlink:href="#m76f405f8c7" x="659.552547" y="53.192405" style="fill: #3fb950; stroke: #3fb950"/>
     <use xlink:href="#m76f405f8c7" x="662.022569" y="53.192405" style="fill: #3fb950; stroke: #3fb950"/>
     <use xlink:href="#m76f405f8c7" x="664.492592" y="53.192405" style="fill: #3fb950; stroke: #3fb950"/>
     <use xlink:href="#m76f405f8c7" x="666.962615" y="53.192405" style="fill: #3fb950; stroke: #3fb950"/>
     <use xlink:href="#m76f405f8c7" x="669.432637" y="53.192405" style="fill: #3fb950; stroke: #3fb950"/>
     <use xlink:href="#m76f405f8c7" x="671.90266" y="53.192405" style="fill: #3fb950; stroke: #3fb950"/>
     <use xlink:href="#m76f405f8c7" x="674.372682" y="48.825982" style="fill: #3fb950; stroke: #3fb950"/>
     <use xlink:href="#m76f405f8c7" x="676.842705" y="48.825982" style="fill: #3fb950; stroke: #3fb950"/>
     <use xlink:href="#m76f405f8c7" x="679.312727" y="48.825982" style="fill: #3fb950; stroke: #3fb950"/>
    </g>
   </g>
   <g id="patch_3">
    <path d="M 51.68 305.571614 
L 51.68 36.6 
" style="fill: none; stroke: #30363d; stroke-width: 0.8; stroke-linejoin: miter; stroke-linecap: square"/>
   </g>
   <g id="patch_4">
    <path d="M 709.2 305.571614 
L 709.2 36.6 
" style="fill: none; stroke: #30363d; stroke-width: 0.8; stroke-linejoin: miter; stroke-linecap: square"/>
   </g>
   <g id="patch_5">
    <path d="M 51.68 305.571614 
L 709.2 305.571614 
" style="fill: none; stroke: #30363d; stroke-width: 0.8; stroke-linejoin: miter; stroke-linecap: square"/>
   </g>
   <g id="patch_6">
    <path d="M 51.68 36.6 
L 709.2 36.6 
" style="fill: none; stroke: #30363d; stroke-width: 0.8; stroke-linejoin: miter; stroke-linecap: square"/>
   </g>
   <g id="text_18">
    <g id="patch_7">
     <path d="M 626.54335 63.994518 
L 696.0496 63.994518 
Q 699.3496 63.994518 699.3496 60.694518 
L 699.3496 50.048581 
Q 699.3496 46.748581 696.0496 46.748581 
L 626.54335 46.748581 
Q 623.24335 46.748581 623.24335 50.048581 
L 623.24335 60.694518 
Q 623.24335 63.994518 626.54335 63.994518 
z
" style="fill: #30363d; opacity: 0.8; stroke: #3fb950; stroke-linejoin: miter"/>
    </g>
    <!-- Current: 122 -->
    <g style="fill: #c9d1d9" transform="translate(626.54335 58.406862) scale(0.11 -0.11)">
     <defs>
      <path id="DejaVuSans-3a" d="M 750 794 
L 1409 794 
L 1409 0 
L 750 0 
L 750 794 
z
M 750 3309 
L 1409 3309 
L 1409 2516 
L 750 2516 
L 750 3309 
z
" transform="scale(0.015625)"/>
      <path id="DejaVuSans-20" transform="scale(0.015625)"/>
     </defs>
     <use xlink:href="#DejaVuSans-43"/>
     <use xlink:href="#DejaVuSans-75" transform="translate(69.824219 0)"/>
     <use xlink:href="#DejaVuSans-72" transform="translate(133.203125 0)"/>
     <use xlink:href="#DejaVuSans-72" transform="translate(172.566406 0)"/>
     <use xlink:href="#DejaVuSans-65" transform="translate(211.429688 0)"/>
     <use xlink:href="#DejaVuSans-6e" transform="translate(272.953125 0)"/>
     <use xlink:href="#DejaVuSans-74" transform="translate(336.332031 0)"/>
     <use xlink:href="#DejaVuSans-3a" transform="translate(375.541016 0)"/>
     <use xlink:href="#DejaVuSans-20" transform="translate(409.232422 0)"/>
     <use xlink:href="#DejaVuSans-31" transform="translate(441.019531 0)"/>
     <use xlink:href="#DejaVuSans-32" transform="translate(504.642578 0)"/>
     <use xlink:href="#DejaVuSans-32" transform="translate(568.265625 0)"/>
    </g>
   </g>
   <g id="text_19">
    <!-- Total Repository Stars -->
    <g style="fill: #c9d1d9" transform="translate(293.017656 21.6) scale(0.14 -0.14)">
     <defs>
      <path id="DejaVuSans-Bold-54" d="M 31 4666 
L 4331 4666 
L 4331 3756 
L 2784 3756 
L 2784 0 
L 1581 0 
L 1581 3756 
L 31 3756 
L 31 4666 
z
" transform="scale(0.015625)"/>
      <path id="DejaVuSans-Bold-6f" d="M 2203 2784 
Q 1831 2784 1636 2517 
Q 1441 2250 1441 1747 
Q 1441 1244 1636 976 
Q 1831 709 2203 709 
Q 2569 709 2762 976 
Q 2956 1244 2956 1747 
Q 2956 2250 2762 2517 
Q 2569 2784 2203 2784 
z
M 2203 3584 
Q 3106 3584 3614 3096 
Q 4122 2609 4122 1747 
Q 4122 884 3614 396 
Q 3106 -91 2203 -91 
Q 1297 -91 786 396 
Q 275 884 275 1747 
Q 275 2609 786 3096 
Q 1297 3584 2203 3584 
z
" transform="scale(0.015625)"/>
      <path id="DejaVuSans-Bold-74" d="M 1759 4494 
L 1759 3500 
L 2913 3500 
L 2913 2700 
L 1759 2700 
L 1759 1216 
Q 1759 972 1856 886 
Q 1953 800 2241 800 
L 2816 800 
L 2816 0 
L 1856 0 
Q 1194 0 917 276 
Q 641 553 641 1216 
L 641 2700 
L 84 2700 
L 84 3500 
L 641 3500 
L 641 4494 
L 1759 4494 
z
" transform="scale(0.015625)"/>
      <path id="DejaVuSans-Bold-61" d="M 2106 1575 
Q 1756 1575 1579 1456 
Q 1403 1338 1403 1106 
Q 1403 894 1545 773 
Q 1688 653 1941 653 
Q 2256 653 2472 879 
Q 2688 1106 2688 1447 
L 2688 1575 
L 2106 1575 
z
M 3816 1997 
L 3816 0 
L 2688 0 
L 2688 519 
Q 2463 200 2181 54 
Q 1900 -91 1497 -91 
Q 953 -91 614 226 
Q 275 544 275 1050 
Q 275 1666 698 1953 
Q 1122 2241 2028 2241 
L 2688 2241 
L 2688 2328 
Q 2688 2594 2478 2717 
Q 2269 2841 1825 2841 
Q 1466 2841 1156 2769 
Q 847 2697 581 2553 
L 581 3406 
Q 941 3494 1303 3539 
Q 1666 3584 2028 3584 
Q 2975 3584 3395 3211 
Q 3816 2838 3816 1997 
z
" transform="scale(0.015625)"/>
      <path id="DejaVuSans-Bold-6c" d="M 538 4863 
L 1656 4863 
L 1656 0 
L 538 0 
L 538 4863 
z
" transform="scale(0.015625)"/>
      <path id="DejaVuSans-Bold-20" transform="scale(0.015625)"/>
      <path id="DejaVuSans-Bold-52" d="M 2297 2597 
Q 2675 2597 2839 2737 
Q 3003 2878 3003 3200 
Q 3003 3519 2839 3656 
Q 2675 3794 2297 3794 
L 1791 3794 
L 1791 2597 
L 2297 2597 
z
M 1791 1766 
L 1791 0 
L 588 0 
L 588 4666 
L 2425 4666 
Q 3347 4666 3776 4356 
Q 4206 4047 4206 3378 
Q 4206 2916 3982 2619 
Q 3759 2322 3309 2181 
Q 3556 2125 3751 1926 
Q 3947 1728 4147 1325 
L 4800 0 
L 3519 0 
L 2950 1159 
Q 2778 1509 2601 1637 
Q 2425 1766 2131 1766 
L 1791 1766 
z
" transform="scale(0.015625)"/>
      <path id="DejaVuSans-Bold-65" d="M 4031 1759 
L 4031 1441 
L 1416 1441 
Q 1456 1047 1700 850 
Q 1944 653 2381 653 
Q 2734 653 3104 758 
Q 3475 863 3866 1075 
L 3866 213 
Q 3469 63 3072 -14 
Q 2675 -91 2278 -91 
Q 1328 -91 801 392 
Q 275 875 275 1747 
Q 275 2603 792 3093 
Q 1309 3584 2216 3584 
Q 3041 3584 3536 3087 
Q 4031 2591 4031 1759 
z
M 2881 2131 
Q 2881 2450 2695 2645 
Q 2509 2841 2209 2841 
Q 1884 2841 1681 2658 
Q 1478 2475 1428 2131 
L 2881 2131 
z
" transform="scale(0.015625)"/>
      <path id="DejaVuSans-Bold-70" d="M 1656 506 
L 1656 -1331 
L 538 -1331 
L 538 3500 
L 1656 3500 
L 1656 2988 
Q 1888 3294 2169 3439 
Q 2450 3584 2816 3584 
Q 3463 3584 3878 3070 
Q 4294 2556 4294 1747 
Q 4294 938 3878 423 
Q 3463 -91 2816 -91 
Q 2450 -91 2169 54 
Q 1888 200 1656 506 
z
M 2400 2772 
Q 2041 2772 1848 2508 
Q 1656 2244 1656 1747 
Q 1656 1250 1848 986 
Q 2041 722 2400 722 
Q 2759 722 2948 984 
Q 3138 1247 3138 1747 
Q 3138 2247 2948 2509 
Q 2759 2772 2400 2772 
z
" transform="scale(0.015625)"/>
      <path id="DejaVuSans-Bold-73" d="M 3272 3391 
L 3272 2541 
Q 2913 2691 2578 2766 
Q 2244 2841 1947 2841 
Q 1628 2841 1473 2761 
Q 1319 2681 1319 2516 
Q 1319 2381 1436 2309 
Q 1553 2238 1856 2203 
L 2053 2175 
Q 2913 2066 3209 1816 
Q 3506 1566 3506 1031 
Q 3506 472 3093 190 
Q 2681 -91 1863 -91 
Q 1516 -91 1145 -36 
Q 775 19 384 128 
L 384 978 
Q 719 816 1070 734 
Q 1422 653 1784 653 
Q 2113 653 2278 743 
Q 2444 834 2444 1013 
Q 2444 1163 2330 1236 
Q 2216 1309 1875 1350 
L 1678 1375 
Q 931 1469 631 1722 
Q 331 1975 331 2491 
Q 331 3047 712 3315 
Q 1094 3584 1881 3584 
Q 2191 3584 2531 3537 
Q 2872 3491 3272 3391 
z
" transform="scale(0.015625)"/>
      <path id="DejaVuSans-Bold-69" d="M 538 3500 
L 1656 3500 
L 1656 0 
L 538 0 
L 538 3500 
z
M 538 4863 
L 1656 4863 
L 1656 3950 
L 538 3950 
L 538 4863 
z
" transform="scale(0.015625)"/>
      <path id="DejaVuSans-Bold-72" d="M 3138 2547 
Q 2991 2616 2845 2648 
Q 2700 2681 2553 2681 
Q 2122 2681 1889 2404 
Q 1656 2128 1656 1613 
L 1656 0 
L 538 0 
L 538 3500 
L 1656 3500 
L 1656 2925 
Q 1872 3269 2151 3426 
Q 2431 3584 2822 3584 
Q 2878 3584 2943 3579 
Q 3009 3575 3134 3559 
L 3138 2547 
z
" transform="scale(0.015625)"/>
      <path id="DejaVuSans-Bold-79" d="M 78 3500 
L 1197 3500 
L 2138 1125 
L 2938 3500 
L 4056 3500 
L 2584 -331 
Q 2363 -916 2067 -1148 
Q 1772 -1381 1288 -1381 
L 641 -1381 
L 641 -647 
L 991 -647 
Q 1275 -647 1404 -556 
Q 1534 -466 1606 -231 
L 1638 -134 
L 78 3500 
z
" transform="scale(0.015625)"/>
      <path id="DejaVuSans-Bold-53" d="M 3834 4519 
L 3834 3531 
Q 3450 3703 3084 3790 
Q 2719 3878 2394 3878 
Q 1963 3878 1756 3759 
Q 1550 3641 1550 3391 
Q 1550 3203 1689 3098 
Q 1828 2994 2194 2919 
L 2706 2816 
Q 3484 2659 3812 2340 
Q 4141 2022 4141 1434 
Q 4141 663 3683 286 
Q 3225 -91 2284 -91 
Q 1841 -91 1394 -6 
Q 947 78 500 244 
L 500 1259 
Q 947 1022 1364 901 
Q 1781 781 2169 781 
Q 2563 781 2772 912 
Q 2981 1044 2981 1288 
Q 2981 1506 2839 1625 
Q 2697 1744 2272 1838 
L 1806 1941 
Q 1106 2091 782 2419 
Q 459 2747 459 3303 
Q 459 4000 909 4375 
Q 1359 4750 2203 4750 
Q 2588 4750 2994 4692 
Q 3400 4634 3834 4519 
z
" transform="scale(0.015625)"/>
     </defs>
     <use xlink:href="#DejaVuSans-Bold-54"/>
     <use xlink:href="#DejaVuSans-Bold-6f" transform="translate(54.962891 0)"/>
     <use xlink:href="#DejaVuSans-Bold-74" transform="translate(123.664062 0)"/>
     <use xlink:href="#DejaVuSans-Bold-61" transform="translate(171.466797 0)"/>
     <use xlink:href="#DejaVuSans-Bold-6c" transform="translate(238.947266 0)"/>
     <use xlink:href="#DejaVuSans-Bold-20" transform="translate(273.224609 0)"/>
     <use xlink:href="#DejaVuSans-Bold-52" transform="translate(308.039062 0)"/>
     <use xlink:href="#DejaVuSans-Bold-65" transform="translate(385.041016 0)"/>
     <use xlink:href="#DejaVuSans-Bold-70" transform="translate(452.863281 0)"/>
     <use xlink:href="#DejaVuSans-Bold-6f" transform="translate(524.445312 0)"/>
     <use xlink:href="#DejaVuSans-Bold-73" transform="translate(593.146484 0)"/>
     <use xlink:href="#DejaVuSans-Bold-69" transform="translate(652.667969 0)"/>
     <use xlink:href="#DejaVuSans-Bold-74" transform="translate(686.945312 0)"/>
     <use xlink:href="#DejaVuSans-Bold-6f" transform="translate(734.748047 0)"/>
     <use xlink:href="#DejaVuSans-Bold-72" transform="translate(803.449219 0)"/>
     <use xlink:href="#DejaVuSans-Bold-79" transform="translate(852.765625 0)"/>
     <use xlink:href="#DejaVuSans-Bold-20" transform="translate(917.951172 0)"/>
     <use xlink:href="#DejaVuSans-Bold-53" transform="translate(952.765625 0)"/>
     <use xlink:href="#DejaVuSans-Bold-74" transform="translate(1024.787109 0)"/>
     <use xlink:href="#DejaVuSans-Bold-61" transform="translate(1072.589844 0)"/>
     <use xlink:href="#DejaVuSans-Bold-72" transform="translate(1140.070312 0)"/>
     <use xlink:href="#DejaVuSans-Bold-73" transform="translate(1189.386719 0)"/>
    </g>
   </g>
  </g>
 </g>
 <defs>
  <clipPath id="pdc020de330">
   <rect x="51.68" y="36.6" width="657.52" height="268.971614"/>
  </clipPath>
 </defs>
</svg>
